# Blender 5.0.1
# www.blender.org
mtllib minigun.mtl
o Куб
v -1.121200 -1.121200 1.555619
v -1.121200 1.121200 1.555619
v -1.121200 -1.121200 -1.555619
v -1.121200 1.121200 -1.555619
v 1.121200 -1.121200 1.555619
v 1.121200 1.121200 1.555619
v 1.121200 -1.121200 -1.555619
v 1.121200 1.121200 -1.555619
v -1.555619 0.000000 1.555619
v -1.555619 0.000000 -1.555619
v 1.555619 0.000000 -1.555619
v 1.555619 0.000000 1.555619
v 0.000000 -1.555619 -1.555619
v 0.000000 1.555619 -1.555619
v 0.000000 -1.555619 1.555619
v 0.000000 1.555619 1.555619
v 0.000000 0.000000 1.555619
v 0.000000 0.000000 -1.555619
vn -0.9325 0.3613 -0.0000
vn -0.0000 -0.0000 -1.0000
vn 0.9325 0.3613 -0.0000
vn -0.0000 -0.0000 1.0000
vn 0.3613 -0.9325 -0.0000
vn -0.3613 0.9325 -0.0000
vn 0.9325 -0.3613 -0.0000
vn -0.9325 -0.3613 -0.0000
vn 0.3613 0.9325 -0.0000
vn -0.3613 -0.9325 -0.0000
vt 0.500000 0.000000
vt 0.625000 0.000000
vt 0.625000 0.250000
vt 0.500000 0.250000
vt 0.500000 0.375000
vt 0.625000 0.375000
vt 0.625000 0.500000
vt 0.500000 0.500000
vt 0.625000 0.750000
vt 0.500000 0.750000
vt 0.500000 0.875000
vt 0.625000 0.875000
vt 0.625000 1.000000
vt 0.500000 1.000000
vt 0.250000 0.500000
vt 0.375000 0.500000
vt 0.375000 0.750000
vt 0.250000 0.750000
vt 0.750000 0.500000
vt 0.875000 0.500000
vt 0.875000 0.750000
vt 0.750000 0.750000
vt 0.375000 0.875000
vt 0.375000 1.000000
vt 0.375000 0.375000
vt 0.375000 0.000000
vt 0.375000 0.250000
vt 0.125000 0.500000
vt 0.125000 0.750000
s 0
usemtl Материал.003
f 9/1/1 2/2/1 4/3/1 10/4/1
f 18/5/2 14/6/2 8/7/2 11/8/2
f 11/8/3 8/7/3 6/9/3 12/10/3
f 17/11/4 16/12/4 2/13/4 9/14/4
f 13/15/5 7/16/5 5/17/5 15/18/5
f 14/19/6 4/20/6 2/21/6 16/22/6
f 15/23/4 17/11/4 9/14/4 1/24/4
f 7/16/7 11/8/7 12/10/7 5/17/7
f 13/25/2 18/5/2 11/8/2 7/16/2
f 1/26/8 9/1/8 10/4/8 3/27/8
f 3/27/2 10/4/2 18/5/2 13/25/2
f 5/17/4 12/10/4 17/11/4 15/23/4
f 8/7/9 14/19/9 16/22/9 6/9/9
f 3/28/10 13/15/10 15/18/10 1/29/10
f 12/10/4 6/9/4 16/12/4 17/11/4
f 10/4/2 4/3/2 14/6/2 18/5/2
o Куб.004
v -2.372182 -1.544639 1.555619
v -2.372182 -0.100915 1.555619
v -2.372182 -1.544639 -1.555619
v -2.372182 -0.100915 -1.555619
v -0.928459 -1.544639 1.555619
v -0.928459 -0.100915 1.555619
v -0.928459 -1.544639 -1.555619
v -0.928459 -0.100915 -1.555619
v -2.651874 -0.822777 1.555619
v -2.651874 -0.822777 -1.555619
v -0.648767 -0.822777 -1.555619
v -0.648767 -0.822777 1.555619
v -1.650320 -1.824331 -1.555619
v -1.650320 0.178777 -1.555619
v -1.650320 -1.824331 1.555619
v -1.650320 0.178777 1.555619
v -1.650320 -0.822777 1.555619
v -1.650320 -0.822777 -1.555619
vn -0.9325 0.3613 -0.0000
vn -0.0000 -0.0000 -1.0000
vn 0.9325 0.3613 -0.0000
vn -0.0000 -0.0000 1.0000
vn 0.3613 -0.9325 -0.0000
vn -0.3613 0.9325 -0.0000
vn 0.9325 -0.3613 -0.0000
vn -0.9325 -0.3613 -0.0000
vn 0.3613 0.9325 -0.0000
vn -0.3613 -0.9325 -0.0000
vt 0.500000 0.000000
vt 0.625000 0.000000
vt 0.625000 0.250000
vt 0.500000 0.250000
vt 0.500000 0.375000
vt 0.625000 0.375000
vt 0.625000 0.500000
vt 0.500000 0.500000
vt 0.625000 0.750000
vt 0.500000 0.750000
vt 0.500000 0.875000
vt 0.625000 0.875000
vt 0.625000 1.000000
vt 0.500000 1.000000
vt 0.250000 0.500000
vt 0.375000 0.500000
vt 0.375000 0.750000
vt 0.250000 0.750000
vt 0.750000 0.500000
vt 0.875000 0.500000
vt 0.875000 0.750000
vt 0.750000 0.750000
vt 0.375000 0.875000
vt 0.375000 1.000000
vt 0.375000 0.375000
vt 0.375000 0.000000
vt 0.375000 0.250000
vt 0.125000 0.500000
vt 0.125000 0.750000
s 0
usemtl Материал.003
f 27/30/11 20/31/11 22/32/11 28/33/11
f 36/34/12 32/35/12 26/36/12 29/37/12
f 29/37/13 26/36/13 24/38/13 30/39/13
f 35/40/14 34/41/14 20/42/14 27/43/14
f 31/44/15 25/45/15 23/46/15 33/47/15
f 32/48/16 22/49/16 20/50/16 34/51/16
f 33/52/14 35/40/14 27/43/14 19/53/14
f 25/45/17 29/37/17 30/39/17 23/46/17
f 31/54/12 36/34/12 29/37/12 25/45/12
f 19/55/18 27/30/18 28/33/18 21/56/18
f 21/56/12 28/33/12 36/34/12 31/54/12
f 23/46/14 30/39/14 35/40/14 33/52/14
f 26/36/19 32/48/19 34/51/19 24/38/19
f 21/57/20 31/44/20 33/47/20 19/58/20
f 30/39/14 24/38/14 34/41/14 35/40/14
f 28/33/12 22/32/12 32/35/12 36/34/12
o Куб.005
v 1.256000 -0.885244 1.555619
v 1.256000 0.558479 1.555619
v 1.256000 -0.885244 -1.555619
v 1.256000 0.558479 -1.555619
v 2.699723 -0.885244 1.555619
v 2.699723 0.558479 1.555619
v 2.699723 -0.885244 -1.555619
v 2.699723 0.558479 -1.555619
v 0.976308 -0.163382 1.555619
v 0.976308 -0.163382 -1.555619
v 2.979416 -0.163382 -1.555619
v 2.979416 -0.163382 1.555619
v 1.977862 -1.164936 -1.555619
v 1.977862 0.838172 -1.555619
v 1.977862 -1.164936 1.555619
v 1.977862 0.838172 1.555619
v 1.977862 -0.163382 1.555619
v 1.977862 -0.163382 -1.555619
vn -0.9325 0.3613 -0.0000
vn -0.0000 -0.0000 -1.0000
vn 0.9325 0.3613 -0.0000
vn -0.0000 -0.0000 1.0000
vn 0.3613 -0.9325 -0.0000
vn -0.3613 0.9325 -0.0000
vn 0.9325 -0.3613 -0.0000
vn -0.9325 -0.3613 -0.0000
vn 0.3613 0.9325 -0.0000
vn -0.3613 -0.9325 -0.0000
vt 0.500000 0.000000
vt 0.625000 0.000000
vt 0.625000 0.250000
vt 0.500000 0.250000
vt 0.500000 0.375000
vt 0.625000 0.375000
vt 0.625000 0.500000
vt 0.500000 0.500000
vt 0.625000 0.750000
vt 0.500000 0.750000
vt 0.500000 0.875000
vt 0.625000 0.875000
vt 0.625000 1.000000
vt 0.500000 1.000000
vt 0.250000 0.500000
vt 0.375000 0.500000
vt 0.375000 0.750000
vt 0.250000 0.750000
vt 0.750000 0.500000
vt 0.875000 0.500000
vt 0.875000 0.750000
vt 0.750000 0.750000
vt 0.375000 0.875000
vt 0.375000 1.000000
vt 0.375000 0.375000
vt 0.375000 0.000000
vt 0.375000 0.250000
vt 0.125000 0.500000
vt 0.125000 0.750000
s 0
usemtl Материал.003
f 45/59/21 38/60/21 40/61/21 46/62/21
f 54/63/22 50/64/22 44/65/22 47/66/22
f 47/66/23 44/65/23 42/67/23 48/68/23
f 53/69/24 52/70/24 38/71/24 45/72/24
f 49/73/25 43/74/25 41/75/25 51/76/25
f 50/77/26 40/78/26 38/79/26 52/80/26
f 51/81/24 53/69/24 45/72/24 37/82/24
f 43/74/27 47/66/27 48/68/27 41/75/27
f 49/83/22 54/63/22 47/66/22 43/74/22
f 37/84/28 45/59/28 46/62/28 39/85/28
f 39/85/22 46/62/22 54/63/22 49/83/22
f 41/75/24 48/68/24 53/69/24 51/81/24
f 44/65/29 50/77/29 52/80/29 42/67/29
f 39/86/30 49/73/30 51/76/30 37/87/30
f 48/68/24 42/67/24 52/70/24 53/69/24
f 46/62/22 40/61/22 50/64/22 54/63/22
o Куб.006
v -1.000000 -0.328455 3.196084
v -1.000000 1.049315 3.196084
v -1.000000 -0.328455 1.196084
v -1.000000 1.049315 1.196084
v 1.000000 -0.328455 3.196084
v 1.000000 1.049315 3.196084
v 1.000000 -0.328455 1.196084
v 1.000000 1.049315 1.196084
v -0.258727 0.053021 3.219939
v -0.258727 2.402941 3.947051
v -0.258727 0.465425 2.685079
v -0.258727 2.402941 3.095242
v 0.258727 0.053021 3.219939
v 0.258727 2.402941 3.947051
v 0.258727 0.465425 2.685079
v 0.258727 2.402941 3.095242
v -0.258727 1.681322 3.863533
v -0.258727 1.756181 3.192305
v 0.258727 1.756181 3.192305
v 0.258727 1.681322 3.863533
v -0.258727 1.250604 3.022092
v 0.258727 1.250604 3.022092
v 0.258727 1.042938 3.664764
v -0.258727 1.042938 3.664764
vn -1.0000 -0.0000 -0.0000
vn -0.0000 -0.0000 -1.0000
vn 1.0000 -0.0000 -0.0000
vn -0.0000 -0.0000 1.0000
vn -0.0000 -1.0000 -0.0000
vn -0.0000 1.0000 -0.0000
vn -0.0000 -0.1484 -0.9889
vn -0.0000 -0.1150 0.9934
vn -0.0000 -0.7919 -0.6106
vn -0.0000 -0.2973 0.9548
vn -0.0000 0.3191 -0.9477
vn -0.0000 0.3944 -0.9189
vn -0.0000 -0.4099 0.9121
vt 0.375000 0.000000
vt 0.625000 0.000000
vt 0.625000 0.250000
vt 0.375000 0.250000
vt 0.625000 0.500000
vt 0.375000 0.500000
vt 0.625000 0.750000
vt 0.375000 0.750000
vt 0.625000 1.000000
vt 0.375000 1.000000
vt 0.125000 0.500000
vt 0.125000 0.750000
vt 0.875000 0.500000
vt 0.875000 0.750000
vt 0.535868 0.000000
vt 0.535868 0.250000
vt 0.535868 0.500000
vt 0.535868 0.750000
vt 0.535868 1.000000
vt 0.455434 0.750000
vt 0.455434 1.000000
vt 0.455434 0.500000
vt 0.455434 0.250000
vt 0.455434 0.000000
s 0
usemtl Материал.004
f 55/88/31 56/89/31 58/90/31 57/91/31
f 57/91/32 58/90/32 62/92/32 61/93/32
f 61/93/33 62/92/33 60/94/33 59/95/33
f 59/95/34 60/94/34 56/96/34 55/97/34
f 57/98/35 61/93/35 59/95/35 55/99/35
f 62/92/36 58/100/36 56/101/36 60/94/36
f 71/102/31 64/89/31 66/90/31 72/103/31
f 72/103/37 66/90/37 70/92/37 73/104/37
f 73/104/33 70/92/33 68/94/33 74/105/33
f 74/105/38 68/94/38 64/96/38 71/106/38
f 65/98/39 69/93/39 67/95/39 63/99/39
f 70/92/36 66/100/36 64/101/36 68/94/36
f 77/107/40 74/105/40 71/106/40 78/108/40
f 76/109/33 73/104/33 74/105/33 77/107/33
f 75/110/41 72/103/41 73/104/41 76/109/41
f 78/111/31 71/102/31 72/103/31 75/110/31
f 63/88/31 78/111/31 75/110/31 65/91/31
f 65/91/42 75/110/42 76/109/42 69/93/42
f 69/93/33 76/109/33 77/107/33 67/95/33
f 67/95/43 77/107/43 78/108/43 63/97/43
o Куб.007
v -1.563700 0.324473 0.070775
v -1.563700 1.580002 0.070775
v -1.563700 0.324473 -1.929225
v -1.563700 1.580002 -1.929225
v 1.758863 0.324473 0.070775
v 1.758863 1.580002 0.070775
v 1.758863 0.324473 -1.929225
v 1.758863 1.580002 -1.929225
v -0.816744 1.238616 -0.557866
v -0.816744 2.872104 -0.557866
v -0.816744 1.238616 -1.092956
v -0.816744 2.872104 -1.092956
v 0.816744 1.238616 -0.557866
v 0.816744 2.872104 -0.557866
v 0.816744 1.238616 -1.092956
v 0.816744 2.872104 -1.092956
v -1.000000 1.055360 -0.557866
v -1.000000 3.055360 -0.557866
v -1.000000 3.055360 -1.092956
v -1.000000 1.055360 -1.092956
v 1.000000 1.055360 -1.092956
v 1.000000 3.055360 -1.092956
v 1.000000 3.055360 -0.557866
v 1.000000 1.055360 -0.557866
v -1.574299 -1.448412 -1.245065
v -1.574299 1.550263 -1.245065
v -1.574299 -1.448412 -2.037487
v -1.574299 1.550263 -2.037487
v 1.765856 -1.448412 -1.245065
v 1.765856 1.550263 -1.245065
v 1.765856 -1.448412 -2.037487
v 1.765856 1.550263 -2.037487
vn -1.0000 -0.0000 -0.0000
vn -0.0000 -0.0000 -1.0000
vn 1.0000 -0.0000 -0.0000
vn -0.0000 -0.0000 1.0000
vn -0.0000 -1.0000 -0.0000
vn -0.0000 1.0000 -0.0000
vt 0.375000 0.000000
vt 0.625000 0.000000
vt 0.625000 0.250000
vt 0.375000 0.250000
vt 0.625000 0.500000
vt 0.375000 0.500000
vt 0.625000 0.750000
vt 0.375000 0.750000
vt 0.625000 1.000000
vt 0.375000 1.000000
vt 0.125000 0.500000
vt 0.125000 0.750000
vt 0.875000 0.500000
vt 0.875000 0.750000
vt 0.397907 0.977093
vt 0.397907 0.272907
vt 0.602093 0.272907
vt 0.602093 0.977093
vt 0.602093 0.477093
vt 0.602093 0.772907
vt 0.397907 0.477093
vt 0.397907 0.772907
s 0
usemtl Материал.005
f 79/112/44 80/113/44 82/114/44 81/115/44
f 81/115/45 82/114/45 86/116/45 85/117/45
f 85/117/46 86/116/46 84/118/46 83/119/46
f 83/119/47 84/118/47 80/120/47 79/121/47
f 81/122/48 85/117/48 83/119/48 79/123/48
f 86/116/49 82/124/49 80/125/49 84/118/49
f 95/112/44 96/113/44 97/114/44 98/115/44
f 87/126/46 89/127/46 90/128/46 88/129/46
f 99/117/46 100/116/46 101/118/46 102/119/46
f 90/128/48 94/130/48 92/131/48 88/129/48
f 98/122/48 99/117/48 102/119/48 95/123/48
f 100/116/49 97/124/49 96/125/49 101/118/49
f 87/126/47 88/129/47 96/120/47 95/121/47
f 90/128/45 89/127/45 98/115/45 97/114/45
f 89/127/45 93/132/45 99/117/45 98/115/45
f 94/130/45 90/128/45 97/114/45 100/116/45
f 93/132/45 94/130/45 100/116/45 99/117/45
f 92/131/47 91/133/47 102/119/47 101/118/47
f 91/133/47 87/126/47 95/121/47 102/119/47
f 88/129/47 92/131/47 101/118/47 96/120/47
f 93/132/44 91/133/44 92/131/44 94/130/44
f 93/132/49 89/127/49 87/126/49 91/133/49
f 103/112/44 104/113/44 106/114/44 105/115/44
f 105/115/45 106/114/45 110/116/45 109/117/45
f 109/117/46 110/116/46 108/118/46 107/119/46
f 107/119/47 108/118/47 104/120/47 103/121/47
f 105/122/48 109/117/48 107/119/48 103/123/48
f 110/116/49 106/124/49 104/125/49 108/118/49
o Куб.008
v -0.186355 0.953040 -1.189863
v -0.186355 1.325749 -1.189863
v -0.186355 0.953040 -9.896875
v -0.186355 1.325749 -9.896875
v 0.186355 0.953040 -1.189863
v 0.186355 1.325749 -1.189863
v 0.186355 0.953040 -9.896875
v 0.186355 1.325749 -9.896875
v 0.000000 0.872045 -9.896875
v 0.000000 1.406744 -9.896875
v 0.000000 0.872045 -1.189863
v 0.000000 1.406744 -1.189863
v -0.267349 1.139394 -1.189863
v -0.267349 1.139394 -9.896875
v 0.267349 1.139394 -9.896875
v 0.267349 1.139394 -1.189863
v 0.000000 1.139394 -1.189863
v 0.000000 1.139394 -9.896875
v -0.683847 0.746971 -1.189863
v -0.683847 1.119681 -1.189863
v -0.683847 0.746971 -9.896875
v -0.683847 1.119681 -9.896875
v -0.311138 0.746971 -1.189863
v -0.311138 1.119681 -1.189863
v -0.311138 0.746971 -9.896875
v -0.311138 1.119681 -9.896875
v -0.497493 0.665976 -9.896875
v -0.497493 1.200675 -9.896875
v -0.497493 0.665976 -1.189863
v -0.497493 1.200675 -1.189863
v -0.764842 0.933326 -1.189863
v -0.764842 0.933326 -9.896875
v -0.230143 0.933326 -9.896875
v -0.230143 0.933326 -1.189863
v -0.497493 0.933326 -1.189863
v -0.497493 0.933326 -9.896875
v -0.889916 0.249479 -1.189863
v -0.889916 0.622188 -1.189863
v -0.889916 0.249479 -9.896875
v -0.889916 0.622188 -9.896875
v -0.517206 0.249479 -1.189863
v -0.517206 0.622188 -1.189863
v -0.517206 0.249479 -9.896875
v -0.517206 0.622188 -9.896875
v -0.703561 0.168484 -9.896875
v -0.703561 0.703183 -9.896875
v -0.703561 0.168484 -1.189863
v -0.703561 0.703183 -1.189863
v -0.970910 0.435833 -1.189863
v -0.970910 0.435833 -9.896875
v -0.436212 0.435833 -9.896875
v -0.436212 0.435833 -1.189863
v -0.703561 0.435833 -1.189863
v -0.703561 0.435833 -9.896875
v -0.683847 -0.248014 -1.189863
v -0.683847 0.124695 -1.189863
v -0.683847 -0.248014 -9.896875
v -0.683847 0.124695 -9.896875
v -0.311138 -0.248014 -1.189863
v -0.311138 0.124695 -1.189863
v -0.311138 -0.248014 -9.896875
v -0.311138 0.124695 -9.896875
v -0.497493 -0.329009 -9.896875
v -0.497493 0.205690 -9.896875
v -0.497493 -0.329009 -1.189863
v -0.497493 0.205690 -1.189863
v -0.764842 -0.061659 -1.189863
v -0.764842 -0.061659 -9.896875
v -0.230143 -0.061659 -9.896875
v -0.230143 -0.061659 -1.189863
v -0.497493 -0.061659 -1.189863
v -0.497493 -0.061659 -9.896875
v -0.186355 -0.454082 -1.189863
v -0.186355 -0.081373 -1.189863
v -0.186355 -0.454082 -9.896875
v -0.186355 -0.081373 -9.896875
v 0.186355 -0.454082 -1.189863
v 0.186355 -0.081373 -1.189863
v 0.186355 -0.454082 -9.896875
v 0.186355 -0.081373 -9.896875
v 0.000000 -0.535077 -9.896875
v 0.000000 -0.000378 -9.896875
v 0.000000 -0.535077 -1.189863
v 0.000000 -0.000378 -1.189863
v -0.267349 -0.267728 -1.189863
v -0.267349 -0.267728 -9.896875
v 0.267350 -0.267728 -9.896875
v 0.267350 -0.267728 -1.189863
v 0.000000 -0.267728 -1.189863
v 0.000000 -0.267728 -9.896875
v 0.311138 -0.248014 -1.189863
v 0.311138 0.124695 -1.189863
v 0.311138 -0.248014 -9.896875
v 0.311138 0.124695 -9.896875
v 0.683847 -0.248014 -1.189863
v 0.683847 0.124695 -1.189863
v 0.683847 -0.248014 -9.896875
v 0.683847 0.124695 -9.896875
v 0.497493 -0.329009 -9.896875
v 0.497493 0.205690 -9.896875
v 0.497493 -0.329009 -1.189863
v 0.497493 0.205690 -1.189863
v 0.230143 -0.061659 -1.189863
v 0.230143 -0.061659 -9.896875
v 0.764842 -0.061659 -9.896875
v 0.764842 -0.061659 -1.189863
v 0.497493 -0.061659 -1.189863
v 0.497493 -0.061659 -9.896875
v 0.517206 0.249479 -1.189863
v 0.517206 0.622188 -1.189863
v 0.517206 0.249479 -9.896875
v 0.517206 0.622188 -9.896875
v 0.889916 0.249479 -1.189863
v 0.889916 0.622188 -1.189863
v 0.889916 0.249479 -9.896875
v 0.889916 0.622188 -9.896875
v 0.703561 0.168484 -9.896875
v 0.703561 0.703183 -9.896875
v 0.703561 0.168484 -1.189863
v 0.703561 0.703183 -1.189863
v 0.436212 0.435833 -1.189863
v 0.436212 0.435833 -9.896875
v 0.970910 0.435833 -9.896875
v 0.970910 0.435833 -1.189863
v 0.703561 0.435833 -1.189863
v 0.703561 0.435833 -9.896875
v 0.311138 0.746972 -1.189863
v 0.311138 1.119681 -1.189863
v 0.311138 0.746972 -9.896875
v 0.311138 1.119681 -9.896875
v 0.683847 0.746972 -1.189863
v 0.683847 1.119681 -1.189863
v 0.683847 0.746972 -9.896875
v 0.683847 1.119681 -9.896875
v 0.497493 0.665977 -9.896875
v 0.497493 1.200676 -9.896875
v 0.497493 0.665977 -1.189863
v 0.497493 1.200676 -1.189863
v 0.230143 0.933326 -1.189863
v 0.230143 0.933326 -9.896875
v 0.764842 0.933326 -9.896875
v 0.764842 0.933326 -1.189863
v 0.497493 0.933326 -1.189863
v 0.497493 0.933326 -9.896875
vn -0.9171 0.3986 -0.0000
vn -0.0000 -0.0000 -1.0000
vn 0.9171 0.3986 -0.0000
vn -0.0000 -0.0000 1.0000
vn 0.3986 -0.9171 -0.0000
vn -0.3986 0.9171 -0.0000
vn 0.3986 0.9171 -0.0000
vn -0.3986 -0.9171 -0.0000
vn 0.9171 -0.3986 -0.0000
vn -0.9171 -0.3986 -0.0000
vt 0.500000 0.000000
vt 0.625000 0.000000
vt 0.625000 0.250000
vt 0.500000 0.250000
vt 0.500000 0.375000
vt 0.625000 0.375000
vt 0.625000 0.500000
vt 0.500000 0.500000
vt 0.625000 0.750000
vt 0.500000 0.750000
vt 0.500000 0.875000
vt 0.625000 0.875000
vt 0.625000 1.000000
vt 0.500000 1.000000
vt 0.250000 0.500000
vt 0.375000 0.500000
vt 0.375000 0.750000
vt 0.250000 0.750000
vt 0.750000 0.500000
vt 0.875000 0.500000
vt 0.875000 0.750000
vt 0.750000 0.750000
vt 0.125000 0.500000
vt 0.125000 0.750000
vt 0.375000 0.250000
vt 0.375000 0.375000
vt 0.375000 0.875000
vt 0.375000 1.000000
vt 0.375000 0.000000
s 0
usemtl Материал.003
f 123/134/50 112/135/50 114/136/50 124/137/50
f 128/138/51 120/139/51 118/140/51 125/141/51
f 125/141/52 118/140/52 116/142/52 126/143/52
f 127/144/53 122/145/53 112/146/53 123/147/53
f 119/148/54 117/149/54 115/150/54 121/151/54
f 120/152/55 114/153/55 112/154/55 122/155/55
f 118/140/56 120/152/56 122/155/56 116/142/56
f 113/156/57 119/148/57 121/151/57 111/157/57
f 126/143/53 116/142/53 122/145/53 127/144/53
f 124/137/51 114/136/51 120/139/51 128/138/51
f 113/158/51 124/137/51 128/138/51 119/159/51
f 115/150/53 126/143/53 127/144/53 121/160/53
f 121/160/53 127/144/53 123/147/53 111/161/53
f 117/149/58 125/141/58 126/143/58 115/150/58
f 119/159/51 128/138/51 125/141/51 117/149/51
f 111/162/59 123/134/59 124/137/59 113/158/59
f 141/134/50 130/135/50 132/136/50 142/137/50
f 146/138/51 138/139/51 136/140/51 143/141/51
f 143/141/52 136/140/52 134/142/52 144/143/52
f 145/144/53 140/145/53 130/146/53 141/147/53
f 137/148/54 135/149/54 133/150/54 139/151/54
f 138/152/55 132/153/55 130/154/55 140/155/55
f 136/140/56 138/152/56 140/155/56 134/142/56
f 131/156/57 137/148/57 139/151/57 129/157/57
f 144/143/53 134/142/53 140/145/53 145/144/53
f 142/137/51 132/136/51 138/139/51 146/138/51
f 131/158/51 142/137/51 146/138/51 137/159/51
f 133/150/53 144/143/53 145/144/53 139/160/53
f 139/160/53 145/144/53 141/147/53 129/161/53
f 135/149/58 143/141/58 144/143/58 133/150/58
f 137/159/51 146/138/51 143/141/51 135/149/51
f 129/162/59 141/134/59 142/137/59 131/158/59
f 159/134/50 148/135/50 150/136/50 160/137/50
f 164/138/51 156/139/51 154/140/51 161/141/51
f 161/141/52 154/140/52 152/142/52 162/143/52
f 163/144/53 158/145/53 148/146/53 159/147/53
f 155/148/54 153/149/54 151/150/54 157/151/54
f 156/152/55 150/153/55 148/154/55 158/155/55
f 154/140/56 156/152/56 158/155/56 152/142/56
f 149/156/57 155/148/57 157/151/57 147/157/57
f 162/143/53 152/142/53 158/145/53 163/144/53
f 160/137/51 150/136/51 156/139/51 164/138/51
f 149/158/51 160/137/51 164/138/51 155/159/51
f 151/150/53 162/143/53 163/144/53 157/160/53
f 157/160/53 163/144/53 159/147/53 147/161/53
f 153/149/58 161/141/58 162/143/58 151/150/58
f 155/159/51 164/138/51 161/141/51 153/149/51
f 147/162/59 159/134/59 160/137/59 149/158/59
f 177/134/50 166/135/50 168/136/50 178/137/50
f 182/138/51 174/139/51 172/140/51 179/141/51
f 179/141/52 172/140/52 170/142/52 180/143/52
f 181/144/53 176/145/53 166/146/53 177/147/53
f 173/148/54 171/149/54 169/150/54 175/151/54
f 174/152/55 168/153/55 166/154/55 176/155/55
f 172/140/56 174/152/56 176/155/56 170/142/56
f 167/156/57 173/148/57 175/151/57 165/157/57
f 180/143/53 170/142/53 176/145/53 181/144/53
f 178/137/51 168/136/51 174/139/51 182/138/51
f 167/158/51 178/137/51 182/138/51 173/159/51
f 169/150/53 180/143/53 181/144/53 175/160/53
f 175/160/53 181/144/53 177/147/53 165/161/53
f 171/149/58 179/141/58 180/143/58 169/150/58
f 173/159/51 182/138/51 179/141/51 171/149/51
f 165/162/59 177/134/59 178/137/59 167/158/59
f 195/134/50 184/135/50 186/136/50 196/137/50
f 200/138/51 192/139/51 190/140/51 197/141/51
f 197/141/52 190/140/52 188/142/52 198/143/52
f 199/144/53 194/145/53 184/146/53 195/147/53
f 191/148/54 189/149/54 187/150/54 193/151/54
f 192/152/55 186/153/55 184/154/55 194/155/55
f 190/140/56 192/152/56 194/155/56 188/142/56
f 185/156/57 191/148/57 193/151/57 183/157/57
f 198/143/53 188/142/53 194/145/53 199/144/53
f 196/137/51 186/136/51 192/139/51 200/138/51
f 185/158/51 196/137/51 200/138/51 191/159/51
f 187/150/53 198/143/53 199/144/53 193/160/53
f 193/160/53 199/144/53 195/147/53 183/161/53
f 189/149/58 197/141/58 198/143/58 187/150/58
f 191/159/51 200/138/51 197/141/51 189/149/51
f 183/162/59 195/134/59 196/137/59 185/158/59
f 213/134/50 202/135/50 204/136/50 214/137/50
f 218/138/51 210/139/51 208/140/51 215/141/51
f 215/141/52 208/140/52 206/142/52 216/143/52
f 217/144/53 212/145/53 202/146/53 213/147/53
f 209/148/54 207/149/54 205/150/54 211/151/54
f 210/152/55 204/153/55 202/154/55 212/155/55
f 208/140/56 210/152/56 212/155/56 206/142/56
f 203/156/57 209/148/57 211/151/57 201/157/57
f 216/143/53 206/142/53 212/145/53 217/144/53
f 214/137/51 204/136/51 210/139/51 218/138/51
f 203/158/51 214/137/51 218/138/51 209/159/51
f 205/150/53 216/143/53 217/144/53 211/160/53
f 211/160/53 217/144/53 213/147/53 201/161/53
f 207/149/58 215/141/58 216/143/58 205/150/58
f 209/159/51 218/138/51 215/141/51 207/149/51
f 201/162/59 213/134/59 214/137/59 203/158/59
f 231/134/50 220/135/50 222/136/50 232/137/50
f 236/138/51 228/139/51 226/140/51 233/141/51
f 233/141/52 226/140/52 224/142/52 234/143/52
f 235/144/53 230/145/53 220/146/53 231/147/53
f 227/148/54 225/149/54 223/150/54 229/151/54
f 228/152/55 222/153/55 220/154/55 230/155/55
f 226/140/56 228/152/56 230/155/56 224/142/56
f 221/156/57 227/148/57 229/151/57 219/157/57
f 234/143/53 224/142/53 230/145/53 235/144/53
f 232/137/51 222/136/51 228/139/51 236/138/51
f 221/158/51 232/137/51 236/138/51 227/159/51
f 223/150/53 234/143/53 235/144/53 229/160/53
f 229/160/53 235/144/53 231/147/53 219/161/53
f 225/149/58 233/141/58 234/143/58 223/150/58
f 227/159/51 236/138/51 233/141/51 225/149/51
f 219/162/59 231/134/59 232/137/59 221/158/59
f 249/134/50 238/135/50 240/136/50 250/137/50
f 254/138/51 246/139/51 244/140/51 251/141/51
f 251/141/52 244/140/52 242/142/52 252/143/52
f 253/144/53 248/145/53 238/146/53 249/147/53
f 245/148/54 243/149/54 241/150/54 247/151/54
f 246/152/55 240/153/55 238/154/55 248/155/55
f 244/140/56 246/152/56 248/155/56 242/142/56
f 239/156/57 245/148/57 247/151/57 237/157/57
f 252/143/53 242/142/53 248/145/53 253/144/53
f 250/137/51 240/136/51 246/139/51 254/138/51
f 239/158/51 250/137/51 254/138/51 245/159/51
f 241/150/53 252/143/53 253/144/53 247/160/53
f 247/160/53 253/144/53 249/147/53 237/161/53
f 243/149/58 251/141/58 252/143/58 241/150/58
f 245/159/51 254/138/51 251/141/51 243/149/51
f 237/162/59 249/134/59 250/137/59 239/158/59
o Куб.009
v -0.865181 -0.443835 -7.572729
v -0.865181 1.286527 -7.572729
v -0.865181 -0.443835 -7.827998
v -0.865181 1.286527 -7.827998
v 0.865181 -0.443835 -7.572729
v 0.865181 1.286527 -7.572729
v 0.865181 -0.443835 -7.827998
v 0.865181 1.286527 -7.827998
v 0.000000 -0.774834 -7.827998
v 0.000000 1.617525 -7.827998
v 0.000000 -0.774834 -7.572729
v 0.000000 1.617525 -7.572729
v -1.196180 0.421346 -7.572729
v -1.196180 0.421346 -7.827998
v 1.196180 0.421346 -7.827998
v 1.196180 0.421346 -7.572729
v 0.000000 0.421346 -7.572729
v 0.000000 0.421346 -7.827998
vn -0.9340 0.3573 -0.0000
vn -0.0000 -0.0000 -1.0000
vn 0.9340 0.3573 -0.0000
vn -0.0000 -0.0000 1.0000
vn 0.3573 -0.9340 -0.0000
vn -0.3573 0.9340 -0.0000
vn 0.3573 0.9340 -0.0000
vn -0.3573 -0.9340 -0.0000
vn 0.9340 -0.3573 -0.0000
vn -0.9340 -0.3573 -0.0000
vt 0.500000 0.000000
vt 0.625000 0.000000
vt 0.625000 0.250000
vt 0.500000 0.250000
vt 0.500000 0.375000
vt 0.625000 0.375000
vt 0.625000 0.500000
vt 0.500000 0.500000
vt 0.625000 0.750000
vt 0.500000 0.750000
vt 0.500000 0.875000
vt 0.625000 0.875000
vt 0.625000 1.000000
vt 0.500000 1.000000
vt 0.250000 0.500000
vt 0.375000 0.500000
vt 0.375000 0.750000
vt 0.250000 0.750000
vt 0.750000 0.500000
vt 0.875000 0.500000
vt 0.875000 0.750000
vt 0.750000 0.750000
vt 0.125000 0.500000
vt 0.125000 0.750000
vt 0.375000 0.250000
vt 0.375000 0.375000
vt 0.375000 0.875000
vt 0.375000 1.000000
vt 0.375000 0.000000
s 0
usemtl Материал.004
f 267/163/60 256/164/60 258/165/60 268/166/60
f 272/167/61 264/168/61 262/169/61 269/170/61
f 269/170/62 262/169/62 260/171/62 270/172/62
f 271/173/63 266/174/63 256/175/63 267/176/63
f 263/177/64 261/178/64 259/179/64 265/180/64
f 264/181/65 258/182/65 256/183/65 266/184/65
f 262/169/66 264/181/66 266/184/66 260/171/66
f 257/185/67 263/177/67 265/180/67 255/186/67
f 270/172/63 260/171/63 266/174/63 271/173/63
f 268/166/61 258/165/61 264/168/61 272/167/61
f 257/187/61 268/166/61 272/167/61 263/188/61
f 259/179/63 270/172/63 271/173/63 265/189/63
f 265/189/63 271/173/63 267/176/63 255/190/63
f 261/178/68 269/170/68 270/172/68 259/179/68
f 263/188/61 272/167/61 269/170/61 261/178/61
f 255/191/69 267/163/69 268/166/69 257/187/69
o Куб.010
v -0.865181 -0.443835 -8.700109
v -0.865181 1.286527 -8.700109
v -0.865181 -0.443835 -8.955379
v -0.865181 1.286527 -8.955379
v 0.865181 -0.443835 -8.700109
v 0.865181 1.286527 -8.700109
v 0.865181 -0.443835 -8.955379
v 0.865181 1.286527 -8.955379
v 0.000000 -0.774834 -8.955379
v 0.000000 1.617525 -8.955379
v 0.000000 -0.774834 -8.700109
v 0.000000 1.617525 -8.700109
v -1.196180 0.421346 -8.700109
v -1.196180 0.421346 -8.955379
v 1.196180 0.421346 -8.955379
v 1.196180 0.421346 -8.700109
v 0.000000 0.421346 -8.700109
v 0.000000 0.421346 -8.955379
vn -0.9340 0.3573 -0.0000
vn -0.0000 -0.0000 -1.0000
vn 0.9340 0.3573 -0.0000
vn -0.0000 -0.0000 1.0000
vn 0.3573 -0.9340 -0.0000
vn -0.3573 0.9340 -0.0000
vn 0.3573 0.9340 -0.0000
vn -0.3573 -0.9340 -0.0000
vn 0.9340 -0.3573 -0.0000
vn -0.9340 -0.3573 -0.0000
vt 0.500000 0.000000
vt 0.625000 0.000000
vt 0.625000 0.250000
vt 0.500000 0.250000
vt 0.500000 0.375000
vt 0.625000 0.375000
vt 0.625000 0.500000
vt 0.500000 0.500000
vt 0.625000 0.750000
vt 0.500000 0.750000
vt 0.500000 0.875000
vt 0.625000 0.875000
vt 0.625000 1.000000
vt 0.500000 1.000000
vt 0.250000 0.500000
vt 0.375000 0.500000
vt 0.375000 0.750000
vt 0.250000 0.750000
vt 0.750000 0.500000
vt 0.875000 0.500000
vt 0.875000 0.750000
vt 0.750000 0.750000
vt 0.125000 0.500000
vt 0.125000 0.750000
vt 0.375000 0.250000
vt 0.375000 0.375000
vt 0.375000 0.875000
vt 0.375000 1.000000
vt 0.375000 0.000000
s 0
usemtl Материал.004
f 285/192/70 274/193/70 276/194/70 286/195/70
f 290/196/71 282/197/71 280/198/71 287/199/71
f 287/199/72 280/198/72 278/200/72 288/201/72
f 289/202/73 284/203/73 274/204/73 285/205/73
f 281/206/74 279/207/74 277/208/74 283/209/74
f 282/210/75 276/211/75 274/212/75 284/213/75
f 280/198/76 282/210/76 284/213/76 278/200/76
f 275/214/77 281/206/77 283/209/77 273/215/77
f 288/201/73 278/200/73 284/203/73 289/202/73
f 286/195/71 276/194/71 282/197/71 290/196/71
f 275/216/71 286/195/71 290/196/71 281/217/71
f 277/208/73 288/201/73 289/202/73 283/218/73
f 283/218/73 289/202/73 285/205/73 273/219/73
f 279/207/78 287/199/78 288/201/78 277/208/78
f 281/217/71 290/196/71 287/199/71 279/207/71
f 273/220/79 285/192/79 286/195/79 275/216/79
o Куб.011
v -0.865181 -0.443835 -9.546500
v -0.865181 1.286527 -9.546500
v -0.865181 -0.443835 -10.064526
v -0.865181 1.286527 -10.064526
v 0.865181 -0.443835 -9.546500
v 0.865181 1.286527 -9.546500
v 0.865181 -0.443835 -10.064526
v 0.865181 1.286527 -10.064526
v 0.000000 -0.774834 -10.064526
v 0.000000 1.617525 -10.064526
v 0.000000 -0.774834 -9.546500
v 0.000000 1.617525 -9.546500
v -1.196179 0.421346 -9.546500
v -1.196179 0.421346 -10.064526
v 1.196179 0.421346 -10.064526
v 1.196179 0.421346 -9.546500
v 0.000000 0.421346 -9.546500
v 0.000000 0.421346 -10.064526
vn -0.9340 0.3573 -0.0000
vn -0.0000 -0.0000 -1.0000
vn 0.9340 0.3573 -0.0000
vn -0.0000 -0.0000 1.0000
vn 0.3573 -0.9340 -0.0000
vn -0.3573 0.9340 -0.0000
vn 0.3573 0.9340 -0.0000
vn -0.3573 -0.9340 -0.0000
vn 0.9340 -0.3573 -0.0000
vn -0.9340 -0.3573 -0.0000
vt 0.500000 0.000000
vt 0.625000 0.000000
vt 0.625000 0.250000
vt 0.500000 0.250000
vt 0.500000 0.375000
vt 0.625000 0.375000
vt 0.625000 0.500000
vt 0.500000 0.500000
vt 0.625000 0.750000
vt 0.500000 0.750000
vt 0.500000 0.875000
vt 0.625000 0.875000
vt 0.625000 1.000000
vt 0.500000 1.000000
vt 0.250000 0.500000
vt 0.375000 0.500000
vt 0.375000 0.750000
vt 0.250000 0.750000
vt 0.750000 0.500000
vt 0.875000 0.500000
vt 0.875000 0.750000
vt 0.750000 0.750000
vt 0.125000 0.500000
vt 0.125000 0.750000
vt 0.375000 0.250000
vt 0.375000 0.375000
vt 0.375000 0.875000
vt 0.375000 1.000000
vt 0.375000 0.000000
s 0
usemtl Материал.004
f 303/221/80 292/222/80 294/223/80 304/224/80
f 308/225/81 300/226/81 298/227/81 305/228/81
f 305/228/82 298/227/82 296/229/82 306/230/82
f 307/231/83 302/232/83 292/233/83 303/234/83
f 299/235/84 297/236/84 295/237/84 301/238/84
f 300/239/85 294/240/85 292/241/85 302/242/85
f 298/227/86 300/239/86 302/242/86 296/229/86
f 293/243/87 299/235/87 301/238/87 291/244/87
f 306/230/83 296/229/83 302/232/83 307/231/83
f 304/224/81 294/223/81 300/226/81 308/225/81
f 293/245/81 304/224/81 308/225/81 299/246/81
f 295/237/83 306/230/83 307/231/83 301/247/83
f 301/247/83 307/231/83 303/234/83 291/248/83
f 297/236/88 305/228/88 306/230/88 295/237/88
f 299/246/81 308/225/81 305/228/81 297/236/81
f 291/249/89 303/221/89 304/224/89 293/245/89
o Куб.012
v -0.186355 0.953040 -9.970935
v -0.186355 1.325749 -9.970935
v -0.186355 0.953040 -10.260898
v -0.186355 1.325749 -10.260898
v 0.186355 0.953040 -9.970935
v 0.186355 1.325749 -9.970935
v 0.186355 0.953040 -10.260898
v 0.186355 1.325749 -10.260898
v 0.000000 0.872045 -10.260898
v 0.000000 1.406744 -10.260898
v 0.000000 0.872045 -9.970935
v 0.000000 1.406744 -9.970935
v -0.267349 1.139394 -9.970935
v -0.267349 1.139394 -10.260898
v 0.267349 1.139394 -10.260898
v 0.267349 1.139394 -9.970935
v 0.000000 1.139394 -9.970935
v 0.000000 1.139394 -10.260898
v -0.683847 0.746971 -9.970935
v -0.683847 1.119681 -9.970935
v -0.683847 0.746971 -10.260898
v -0.683847 1.119681 -10.260898
v -0.311138 0.746971 -9.970935
v -0.311138 1.119681 -9.970935
v -0.311138 0.746971 -10.260898
v -0.311138 1.119681 -10.260898
v -0.497493 0.665976 -10.260898
v -0.497493 1.200675 -10.260898
v -0.497493 0.665976 -9.970935
v -0.497493 1.200675 -9.970935
v -0.764842 0.933326 -9.970935
v -0.764842 0.933326 -10.260898
v -0.230143 0.933326 -10.260898
v -0.230143 0.933326 -9.970935
v -0.497493 0.933326 -9.970935
v -0.497493 0.933326 -10.260898
v -0.889916 0.249479 -9.970935
v -0.889916 0.622188 -9.970935
v -0.889916 0.249479 -10.260898
v -0.889916 0.622188 -10.260898
v -0.517206 0.249479 -9.970935
v -0.517206 0.622188 -9.970935
v -0.517206 0.249479 -10.260898
v -0.517206 0.622188 -10.260898
v -0.703561 0.168484 -10.260898
v -0.703561 0.703183 -10.260898
v -0.703561 0.168484 -9.970935
v -0.703561 0.703183 -9.970935
v -0.970910 0.435833 -9.970935
v -0.970910 0.435833 -10.260898
v -0.436212 0.435833 -10.260898
v -0.436212 0.435833 -9.970935
v -0.703561 0.435833 -9.970935
v -0.703561 0.435833 -10.260898
v -0.683847 -0.248014 -9.970935
v -0.683847 0.124695 -9.970935
v -0.683847 -0.248014 -10.260898
v -0.683847 0.124695 -10.260898
v -0.311138 -0.248014 -9.970935
v -0.311138 0.124695 -9.970935
v -0.311138 -0.248014 -10.260898
v -0.311138 0.124695 -10.260898
v -0.497493 -0.329009 -10.260898
v -0.497493 0.205690 -10.260898
v -0.497493 -0.329009 -9.970935
v -0.497493 0.205690 -9.970935
v -0.764842 -0.061659 -9.970935
v -0.764842 -0.061659 -10.260898
v -0.230143 -0.061659 -10.260898
v -0.230143 -0.061659 -9.970935
v -0.497493 -0.061659 -9.970935
v -0.497493 -0.061659 -10.260898
v -0.186355 -0.454082 -9.970935
v -0.186355 -0.081373 -9.970935
v -0.186355 -0.454082 -10.260898
v -0.186355 -0.081373 -10.260898
v 0.186355 -0.454082 -9.970935
v 0.186355 -0.081373 -9.970935
v 0.186355 -0.454082 -10.260898
v 0.186355 -0.081373 -10.260898
v 0.000000 -0.535077 -10.260898
v 0.000000 -0.000378 -10.260898
v 0.000000 -0.535077 -9.970935
v 0.000000 -0.000378 -9.970935
v -0.267349 -0.267728 -9.970935
v -0.267349 -0.267728 -10.260898
v 0.267350 -0.267728 -10.260898
v 0.267350 -0.267728 -9.970935
v 0.000000 -0.267728 -9.970935
v 0.000000 -0.267728 -10.260898
v 0.311138 -0.248014 -9.970935
v 0.311138 0.124695 -9.970935
v 0.311138 -0.248014 -10.260898
v 0.311138 0.124695 -10.260898
v 0.683847 -0.248014 -9.970935
v 0.683847 0.124695 -9.970935
v 0.683847 -0.248014 -10.260898
v 0.683847 0.124695 -10.260898
v 0.497493 -0.329009 -10.260898
v 0.497493 0.205690 -10.260898
v 0.497493 -0.329009 -9.970935
v 0.497493 0.205690 -9.970935
v 0.230143 -0.061659 -9.970935
v 0.230143 -0.061659 -10.260898
v 0.764842 -0.061659 -10.260898
v 0.764842 -0.061659 -9.970935
v 0.497493 -0.061659 -9.970935
v 0.497493 -0.061659 -10.260898
v 0.517206 0.249479 -9.970935
v 0.517206 0.622188 -9.970935
v 0.517206 0.249479 -10.260898
v 0.517206 0.622188 -10.260898
v 0.889916 0.249479 -9.970935
v 0.889916 0.622188 -9.970935
v 0.889916 0.249479 -10.260898
v 0.889916 0.622188 -10.260898
v 0.703561 0.168484 -10.260898
v 0.703561 0.703183 -10.260898
v 0.703561 0.168484 -9.970935
v 0.703561 0.703183 -9.970935
v 0.436212 0.435833 -9.970935
v 0.436212 0.435833 -10.260898
v 0.970910 0.435833 -10.260898
v 0.970910 0.435833 -9.970935
v 0.703561 0.435833 -9.970935
v 0.703561 0.435833 -10.260898
v 0.311138 0.746972 -9.970935
v 0.311138 1.119681 -9.970935
v 0.311138 0.746972 -10.260898
v 0.311138 1.119681 -10.260898
v 0.683847 0.746972 -9.970935
v 0.683847 1.119681 -9.970935
v 0.683847 0.746972 -10.260898
v 0.683847 1.119681 -10.260898
v 0.497493 0.665977 -10.260898
v 0.497493 1.200676 -10.260898
v 0.497493 0.665977 -9.970935
v 0.497493 1.200676 -9.970935
v 0.230143 0.933326 -9.970935
v 0.230143 0.933326 -10.260898
v 0.764842 0.933326 -10.260898
v 0.764842 0.933326 -9.970935
v 0.497493 0.933326 -9.970935
v 0.497493 0.933326 -10.260898
vn -0.9171 0.3986 -0.0000
vn -0.0000 -0.0000 -1.0000
vn 0.9171 0.3986 -0.0000
vn -0.0000 -0.0000 1.0000
vn 0.3986 -0.9171 -0.0000
vn -0.3986 0.9171 -0.0000
vn 0.3986 0.9171 -0.0000
vn -0.3986 -0.9171 -0.0000
vn 0.9171 -0.3986 -0.0000
vn -0.9171 -0.3986 -0.0000
vt 0.500000 0.000000
vt 0.625000 0.000000
vt 0.625000 0.250000
vt 0.500000 0.250000
vt 0.500000 0.375000
vt 0.625000 0.375000
vt 0.625000 0.500000
vt 0.500000 0.500000
vt 0.625000 0.750000
vt 0.500000 0.750000
vt 0.500000 0.875000
vt 0.625000 0.875000
vt 0.625000 1.000000
vt 0.500000 1.000000
vt 0.250000 0.500000
vt 0.375000 0.500000
vt 0.375000 0.750000
vt 0.250000 0.750000
vt 0.750000 0.500000
vt 0.875000 0.500000
vt 0.875000 0.750000
vt 0.750000 0.750000
vt 0.125000 0.500000
vt 0.125000 0.750000
vt 0.375000 0.250000
vt 0.375000 0.375000
vt 0.375000 0.875000
vt 0.375000 1.000000
vt 0.375000 0.000000
s 0
usemtl Материал.005
f 321/250/90 310/251/90 312/252/90 322/253/90
f 326/254/91 318/255/91 316/256/91 323/257/91
f 323/257/92 316/256/92 314/258/92 324/259/92
f 325/260/93 320/261/93 310/262/93 321/263/93
f 317/264/94 315/265/94 313/266/94 319/267/94
f 318/268/95 312/269/95 310/270/95 320/271/95
f 316/256/96 318/268/96 320/271/96 314/258/96
f 311/272/97 317/264/97 319/267/97 309/273/97
f 324/259/93 314/258/93 320/261/93 325/260/93
f 322/253/91 312/252/91 318/255/91 326/254/91
f 311/274/91 322/253/91 326/254/91 317/275/91
f 313/266/93 324/259/93 325/260/93 319/276/93
f 319/276/93 325/260/93 321/263/93 309/277/93
f 315/265/98 323/257/98 324/259/98 313/266/98
f 317/275/91 326/254/91 323/257/91 315/265/91
f 309/278/99 321/250/99 322/253/99 311/274/99
f 339/250/90 328/251/90 330/252/90 340/253/90
f 344/254/91 336/255/91 334/256/91 341/257/91
f 341/257/92 334/256/92 332/258/92 342/259/92
f 343/260/93 338/261/93 328/262/93 339/263/93
f 335/264/94 333/265/94 331/266/94 337/267/94
f 336/268/95 330/269/95 328/270/95 338/271/95
f 334/256/96 336/268/96 338/271/96 332/258/96
f 329/272/97 335/264/97 337/267/97 327/273/97
f 342/259/93 332/258/93 338/261/93 343/260/93
f 340/253/91 330/252/91 336/255/91 344/254/91
f 329/274/91 340/253/91 344/254/91 335/275/91
f 331/266/93 342/259/93 343/260/93 337/276/93
f 337/276/93 343/260/93 339/263/93 327/277/93
f 333/265/98 341/257/98 342/259/98 331/266/98
f 335/275/91 344/254/91 341/257/91 333/265/91
f 327/278/99 339/250/99 340/253/99 329/274/99
f 357/250/90 346/251/90 348/252/90 358/253/90
f 362/254/91 354/255/91 352/256/91 359/257/91
f 359/257/92 352/256/92 350/258/92 360/259/92
f 361/260/93 356/261/93 346/262/93 357/263/93
f 353/264/94 351/265/94 349/266/94 355/267/94
f 354/268/95 348/269/95 346/270/95 356/271/95
f 352/256/96 354/268/96 356/271/96 350/258/96
f 347/272/97 353/264/97 355/267/97 345/273/97
f 360/259/93 350/258/93 356/261/93 361/260/93
f 358/253/91 348/252/91 354/255/91 362/254/91
f 347/274/91 358/253/91 362/254/91 353/275/91
f 349/266/93 360/259/93 361/260/93 355/276/93
f 355/276/93 361/260/93 357/263/93 345/277/93
f 351/265/98 359/257/98 360/259/98 349/266/98
f 353/275/91 362/254/91 359/257/91 351/265/91
f 345/278/99 357/250/99 358/253/99 347/274/99
f 375/250/90 364/251/90 366/252/90 376/253/90
f 380/254/91 372/255/91 370/256/91 377/257/91
f 377/257/92 370/256/92 368/258/92 378/259/92
f 379/260/93 374/261/93 364/262/93 375/263/93
f 371/264/94 369/265/94 367/266/94 373/267/94
f 372/268/95 366/269/95 364/270/95 374/271/95
f 370/256/96 372/268/96 374/271/96 368/258/96
f 365/272/97 371/264/97 373/267/97 363/273/97
f 378/259/93 368/258/93 374/261/93 379/260/93
f 376/253/91 366/252/91 372/255/91 380/254/91
f 365/274/91 376/253/91 380/254/91 371/275/91
f 367/266/93 378/259/93 379/260/93 373/276/93
f 373/276/93 379/260/93 375/263/93 363/277/93
f 369/265/98 377/257/98 378/259/98 367/266/98
f 371/275/91 380/254/91 377/257/91 369/265/91
f 363/278/99 375/250/99 376/253/99 365/274/99
f 393/250/90 382/251/90 384/252/90 394/253/90
f 398/254/91 390/255/91 388/256/91 395/257/91
f 395/257/92 388/256/92 386/258/92 396/259/92
f 397/260/93 392/261/93 382/262/93 393/263/93
f 389/264/94 387/265/94 385/266/94 391/267/94
f 390/268/95 384/269/95 382/270/95 392/271/95
f 388/256/96 390/268/96 392/271/96 386/258/96
f 383/272/97 389/264/97 391/267/97 381/273/97
f 396/259/93 386/258/93 392/261/93 397/260/93
f 394/253/91 384/252/91 390/255/91 398/254/91
f 383/274/91 394/253/91 398/254/91 389/275/91
f 385/266/93 396/259/93 397/260/93 391/276/93
f 391/276/93 397/260/93 393/263/93 381/277/93
f 387/265/98 395/257/98 396/259/98 385/266/98
f 389/275/91 398/254/91 395/257/91 387/265/91
f 381/278/99 393/250/99 394/253/99 383/274/99
f 411/250/90 400/251/90 402/252/90 412/253/90
f 416/254/91 408/255/91 406/256/91 413/257/91
f 413/257/92 406/256/92 404/258/92 414/259/92
f 415/260/93 410/261/93 400/262/93 411/263/93
f 407/264/94 405/265/94 403/266/94 409/267/94
f 408/268/95 402/269/95 400/270/95 410/271/95
f 406/256/96 408/268/96 410/271/96 404/258/96
f 401/272/97 407/264/97 409/267/97 399/273/97
f 414/259/93 404/258/93 410/261/93 415/260/93
f 412/253/91 402/252/91 408/255/91 416/254/91
f 401/274/91 412/253/91 416/254/91 407/275/91
f 403/266/93 414/259/93 415/260/93 409/276/93
f 409/276/93 415/260/93 411/263/93 399/277/93
f 405/265/98 413/257/98 414/259/98 403/266/98
f 407/275/91 416/254/91 413/257/91 405/265/91
f 399/278/99 411/250/99 412/253/99 401/274/99
f 429/250/90 418/251/90 420/252/90 430/253/90
f 434/254/91 426/255/91 424/256/91 431/257/91
f 431/257/92 424/256/92 422/258/92 432/259/92
f 433/260/93 428/261/93 418/262/93 429/263/93
f 425/264/94 423/265/94 421/266/94 427/267/94
f 426/268/95 420/269/95 418/270/95 428/271/95
f 424/256/96 426/268/96 428/271/96 422/258/96
f 419/272/97 425/264/97 427/267/97 417/273/97
f 432/259/93 422/258/93 428/261/93 433/260/93
f 430/253/91 420/252/91 426/255/91 434/254/91
f 419/274/91 430/253/91 434/254/91 425/275/91
f 421/266/93 432/259/93 433/260/93 427/276/93
f 427/276/93 433/260/93 429/263/93 417/277/93
f 423/265/98 431/257/98 432/259/98 421/266/98
f 425/275/91 434/254/91 431/257/91 423/265/91
f 417/278/99 429/250/99 430/253/99 419/274/99
f 447/250/90 436/251/90 438/252/90 448/253/90
f 452/254/91 444/255/91 442/256/91 449/257/91
f 449/257/92 442/256/92 440/258/92 450/259/92
f 451/260/93 446/261/93 436/262/93 447/263/93
f 443/264/94 441/265/94 439/266/94 445/267/94
f 444/268/95 438/269/95 436/270/95 446/271/95
f 442/256/96 444/268/96 446/271/96 440/258/96
f 437/272/97 443/264/97 445/267/97 435/273/97
f 450/259/93 440/258/93 446/261/93 451/260/93
f 448/253/91 438/252/91 444/255/91 452/254/91
f 437/274/91 448/253/91 452/254/91 443/275/91
f 439/266/93 450/259/93 451/260/93 445/276/93
f 445/276/93 451/260/93 447/263/93 435/277/93
f 441/265/98 449/257/98 450/259/98 439/266/98
f 443/275/91 452/254/91 449/257/91 441/265/91
f 435/278/99 447/250/99 448/253/99 437/274/99
