# Blender 5.0.1
# www.blender.org
mtllib revolver.mtl
o Cube
v 0.458009 1.802547 -0.885488
v 0.458009 1.646296 -0.081952
v -0.458009 1.802547 -0.885488
v -0.458009 1.646296 -0.081952
v 0.458009 -0.791015 -0.988034
v 0.458009 -0.791015 0.480151
v -0.458009 -0.791015 -0.988034
v -0.458009 -0.791015 0.480151
v 0.249024 -1.000000 -0.787089
v 0.458009 -0.791015 -0.988034
v 0.456997 -0.792027 0.480372
v 0.249024 -1.000000 0.313049
v -0.458009 -0.791015 -0.988034
v -0.249024 -1.000000 -0.787089
v -0.249024 -1.000000 0.313049
v -0.456997 -0.792027 0.480372
vn -0.0000 0.9816 0.1909
vn 1.0000 -0.0000 -0.0000
vn -1.0000 -0.0000 -0.0000
vn -0.0000 -0.6931 -0.7208
vn -0.0000 -0.6269 0.7791
vn -0.0000 -1.0000 -0.0000
vn 0.7071 -0.7071 -0.0000
vn -0.0000 0.0395 -0.9992
vn -0.0000 0.2247 0.9744
vn -0.7071 -0.7071 -0.0000
vt 0.625000 0.500000
vt 0.875000 0.500000
vt 0.875000 0.750000
vt 0.625000 0.750000
vt 0.401123 0.500000
vt 0.401123 0.750000
vt 0.401123 0.000000
vt 0.625000 0.000000
vt 0.625000 0.250000
vt 0.401123 0.250000
vt 0.336976 0.521175
vt 0.182036 0.534881
vt 0.153518 0.500980
vt 0.379741 0.493663
vt 0.379534 0.756399
vt 0.153656 0.746266
vt 0.182036 0.715119
vt 0.336976 0.728825
vt 0.625000 1.000000
vt 0.401123 1.000000
vt 0.400997 0.999724
vt 0.125000 0.742495
vt 0.125000 0.501960
s 0
usemtl Material
f 1/1/1 3/2/1 4/3/1 2/4/1
f 5/5/2 1/1/2 2/4/2 6/6/2
f 8/7/3 4/8/3 3/9/3 7/10/3
f 9/11/4 14/12/4 13/13/4 10/14/4
f 11/15/5 16/16/5 15/17/5 12/18/5
f 14/12/6 9/11/6 12/18/6 15/17/6
f 11/15/7 12/18/7 9/11/7 10/14/7 5/5/7 6/6/7
f 13/10/8 7/10/8 3/9/8 1/1/8 5/5/8 10/14/8
f 11/15/9 6/6/9 2/4/9 4/19/9 8/20/9 16/21/9
f 13/13/10 14/12/10 15/17/10 16/16/10 8/22/10 7/23/10
o Куб.003
v -0.651985 0.567715 -0.563658
v -0.651985 1.871685 -0.563658
v -0.651985 0.567715 -2.354540
v -0.651985 1.871685 -2.354540
v 0.651985 0.567715 -0.563658
v 0.651985 1.871685 -0.563658
v 0.651985 0.567715 -2.354540
v 0.651985 1.871685 -2.354540
v -0.000000 0.324259 -2.354540
v -0.000000 2.115141 -2.354540
v -0.000000 0.324259 -0.563658
v -0.000000 2.115141 -0.563658
v -0.895441 1.219700 -0.563658
v -0.895441 1.219700 -2.354540
v 0.895441 1.219700 -2.354540
v 0.895441 1.219700 -0.563658
v -0.000000 1.219700 -0.563658
v -0.000000 1.219700 -2.354540
vn -0.9368 0.3498 -0.0000
vn -0.0000 -0.0000 -1.0000
vn 0.9368 0.3498 -0.0000
vn -0.0000 -0.0000 1.0000
vn 0.3498 -0.9368 -0.0000
vn -0.3498 0.9368 -0.0000
vn 0.3498 0.9368 -0.0000
vn -0.3498 -0.9368 -0.0000
vn 0.9368 -0.3498 -0.0000
vn -0.9368 -0.3498 -0.0000
vt 0.500000 0.000000
vt 0.625000 0.000000
vt 0.625000 0.250000
vt 0.500000 0.250000
vt 0.500000 0.375000
vt 0.625000 0.375000
vt 0.625000 0.500000
vt 0.500000 0.500000
vt 0.625000 0.750000
vt 0.500000 0.750000
vt 0.500000 0.875000
vt 0.625000 0.875000
vt 0.625000 1.000000
vt 0.500000 1.000000
vt 0.250000 0.500000
vt 0.375000 0.500000
vt 0.375000 0.750000
vt 0.250000 0.750000
vt 0.750000 0.500000
vt 0.875000 0.500000
vt 0.875000 0.750000
vt 0.750000 0.750000
vt 0.125000 0.500000
vt 0.125000 0.750000
vt 0.375000 0.250000
vt 0.375000 0.375000
vt 0.375000 0.875000
vt 0.375000 1.000000
vt 0.375000 0.000000
s 0
usemtl Материал.003
f 29/24/11 18/25/11 20/26/11 30/27/11
f 34/28/12 26/29/12 24/30/12 31/31/12
f 31/31/13 24/30/13 22/32/13 32/33/13
f 33/34/14 28/35/14 18/36/14 29/37/14
f 25/38/15 23/39/15 21/40/15 27/41/15
f 26/42/16 20/43/16 18/44/16 28/45/16
f 24/30/17 26/42/17 28/45/17 22/32/17
f 19/46/18 25/38/18 27/41/18 17/47/18
f 32/33/14 22/32/14 28/35/14 33/34/14
f 30/27/12 20/26/12 26/29/12 34/28/12
f 19/48/12 30/27/12 34/28/12 25/49/12
f 21/40/14 32/33/14 33/34/14 27/50/14
f 27/50/14 33/34/14 29/37/14 17/51/14
f 23/39/19 31/31/19 32/33/19 21/40/19
f 25/49/12 34/28/12 31/31/12 23/39/12
f 17/52/20 29/24/20 30/27/20 19/48/20
o Куб.004
v -0.361111 1.257361 -2.341076
v -0.361111 1.979583 -2.341076
v -0.361111 1.257361 -4.131958
v -0.361111 1.979583 -4.131958
v 0.361111 1.257361 -2.341076
v 0.361111 1.979583 -2.341076
v 0.361111 1.257361 -4.131958
v 0.361111 1.979583 -4.131958
v -0.000000 1.122519 -4.131958
v -0.000000 2.114425 -4.131958
v -0.000000 1.122519 -2.341076
v -0.000000 2.114425 -2.341076
v -0.495953 1.618472 -2.341076
v -0.495953 1.618472 -4.131958
v 0.495953 1.618472 -4.131958
v 0.495953 1.618472 -2.341076
v -0.000000 1.618472 -2.341076
v -0.000000 1.618472 -4.131958
v -0.213077 1.681867 -3.697068
v -0.213077 2.144145 -3.697068
v -0.213077 1.681867 -3.990656
v -0.213077 2.303090 -3.990656
v 0.213077 1.681867 -3.697068
v 0.213077 2.144145 -3.697068
v 0.213077 1.681867 -3.990656
v 0.213077 2.303090 -3.990656
v 0.000000 1.681867 -3.990656
v 0.000000 2.259000 -3.990656
v 0.000000 1.681867 -3.697068
v 0.000000 2.100055 -3.697068
v -0.288338 1.132698 -0.024937
v -0.288338 1.713276 0.108630
v -0.288338 1.524267 -0.739755
v -0.288338 1.984908 -0.586342
v 0.288338 1.132698 -0.024937
v 0.288338 1.713276 0.108630
v 0.288338 1.524267 -0.739755
v 0.288338 1.984908 -0.586342
v -0.288338 1.660433 0.658558
v -0.288338 2.036019 0.724485
v 0.288338 2.036019 0.724485
v 0.288338 1.660433 0.658558
vn -0.9368 0.3498 -0.0000
vn -0.0000 -0.0000 -1.0000
vn 0.9368 0.3498 -0.0000
vn -0.0000 -0.0000 1.0000
vn 0.3498 -0.9368 -0.0000
vn -0.3498 0.9368 -0.0000
vn 0.3498 0.9368 -0.0000
vn -0.3498 -0.9368 -0.0000
vn 0.9368 -0.3498 -0.0000
vn -0.9368 -0.3498 -0.0000
vn -1.0000 -0.0000 -0.0000
vn 1.0000 -0.0000 -0.0000
vn -0.0000 -1.0000 -0.0000
vn 0.1790 0.8652 0.4684
vn -0.1790 0.8652 0.4684
vn -0.0000 0.3160 -0.9488
vn -0.0000 0.8857 -0.4642
vn -0.0000 -0.8770 -0.4804
vn -0.0000 0.9314 0.3640
vn -0.0000 -0.1729 0.9849
vn -0.0000 -0.7915 0.6111
vt 0.500000 0.000000
vt 0.625000 0.000000
vt 0.625000 0.250000
vt 0.500000 0.250000
vt 0.500000 0.375000
vt 0.625000 0.375000
vt 0.625000 0.500000
vt 0.500000 0.500000
vt 0.625000 0.750000
vt 0.500000 0.750000
vt 0.500000 0.875000
vt 0.625000 0.875000
vt 0.625000 1.000000
vt 0.500000 1.000000
vt 0.250000 0.500000
vt 0.375000 0.500000
vt 0.375000 0.750000
vt 0.250000 0.750000
vt 0.750000 0.500000
vt 0.875000 0.500000
vt 0.875000 0.750000
vt 0.750000 0.750000
vt 0.125000 0.500000
vt 0.125000 0.750000
vt 0.375000 0.250000
vt 0.375000 0.375000
vt 0.375000 0.875000
vt 0.375000 1.000000
vt 0.375000 0.000000
s 0
usemtl Материал.003
f 47/53/21 36/54/21 38/55/21 48/56/21
f 52/57/22 44/58/22 42/59/22 49/60/22
f 49/60/23 42/59/23 40/61/23 50/62/23
f 51/63/24 46/64/24 36/65/24 47/66/24
f 43/67/25 41/68/25 39/69/25 45/70/25
f 44/71/26 38/72/26 36/73/26 46/74/26
f 42/59/27 44/71/27 46/74/27 40/61/27
f 37/75/28 43/67/28 45/70/28 35/76/28
f 50/62/24 40/61/24 46/64/24 51/63/24
f 48/56/22 38/55/22 44/58/22 52/57/22
f 37/77/22 48/56/22 52/57/22 43/78/22
f 39/69/24 50/62/24 51/63/24 45/79/24
f 45/79/24 51/63/24 47/66/24 35/80/24
f 41/68/29 49/60/29 50/62/29 39/69/29
f 43/78/22 52/57/22 49/60/22 41/68/22
f 35/81/30 47/53/30 48/56/30 37/77/30
f 53/81/31 54/54/31 56/55/31 55/77/31
f 61/78/22 62/58/22 60/59/22 59/68/22
f 59/68/32 60/59/32 58/61/32 57/69/32
f 63/79/24 64/64/24 54/65/24 53/80/24
f 61/67/33 59/68/33 57/69/33 63/70/33
f 62/71/34 56/72/34 54/73/34 64/74/34
f 60/59/35 62/71/35 64/74/35 58/61/35
f 55/75/33 61/67/33 63/70/33 53/76/33
f 57/69/24 58/61/24 64/64/24 63/79/24
f 55/77/22 56/55/22 62/58/22 61/78/22
f 65/81/31 66/54/31 68/55/31 67/77/31
f 67/77/36 68/55/36 72/59/36 71/68/36
f 71/68/32 72/59/32 70/61/32 69/69/32
f 70/61/37 66/73/37 74/73/37 75/61/37
f 67/75/38 71/68/38 69/69/38 65/76/38
f 72/59/39 68/72/39 66/73/39 70/61/39
f 76/69/40 75/61/40 74/65/40 73/80/40
f 69/69/32 70/61/32 75/61/32 76/69/32
f 66/54/31 65/81/31 73/81/31 74/54/31
f 65/76/41 69/69/41 76/69/41 73/76/41
