# Blender 5.0.1
# www.blender.org
mtllib body.mtl
o Куб
v -0.250000 -0.403237 0.643431
v -0.250000 1.319207 0.579848
v -0.250000 -0.403237 -0.642838
v -0.250000 1.319207 -0.579202
v 0.250000 -0.403237 0.643431
v 0.250000 1.319207 0.579848
v 0.250000 -0.403237 -0.642838
v 0.250000 1.319207 -0.579202
v -0.333333 -0.450415 -0.285281
v -0.333333 1.364548 -0.253274
v 0.333333 -0.450415 -0.285281
v 0.333333 1.364548 -0.253274
v -0.333333 -0.450415 0.287256
v 0.333333 1.364548 0.255161
v -0.333333 1.364548 0.255161
v 0.333333 -0.450415 0.287256
v -0.312761 0.927669 0.649860
v -0.312761 0.927669 -0.649431
v 0.340242 0.927669 -0.649431
v 0.340242 0.927669 0.649860
v 0.503493 0.927669 -0.273021
v -0.476012 0.927669 -0.273021
v -0.476012 0.927669 0.274962
v 0.503493 0.927669 0.274962
v -0.312761 0.001151 -0.664639
v 0.340242 0.001151 -0.664639
v 0.340242 0.001151 0.665050
v 0.503493 0.001151 -0.279422
v -0.476012 0.001151 -0.279422
v -0.476012 0.001151 0.281381
v 0.503493 0.001151 0.281381
v -0.312761 0.001151 0.665050
v -0.251043 0.466246 0.623340
v -0.251043 0.466246 -0.622880
v 0.360969 0.466246 -0.622880
v 0.360969 0.466246 0.623340
v 0.513972 0.466246 -0.261845
v -0.404046 0.466246 -0.261845
v -0.404046 0.466246 0.263755
v 0.513972 0.466246 0.263755
v -0.319059 -0.442333 0.518817
v -0.316487 1.168036 0.627388
v -0.319059 1.356782 -0.461054
v -0.316487 -0.246322 -0.670700
v 0.000000 -0.434252 -0.666321
v -0.000000 1.349015 -0.595650
v 0.319922 -0.246322 -0.670700
v 0.319059 -0.442333 -0.517607
v 0.319059 1.356782 0.462259
v 0.319922 -0.246322 0.671131
v -0.000000 -0.434252 0.666784
v -0.000000 1.349015 0.596182
v -0.319059 -0.442333 -0.517607
v -0.333333 1.364548 0.001075
v 0.333333 -0.450415 0.001136
v 0.319059 1.356781 -0.461054
v 0.000000 1.432560 -0.248473
v 0.000000 -0.521180 -0.285281
v 0.479603 -0.252437 -0.284549
v -0.476168 -0.252437 -0.284549
v -0.333333 -0.450415 0.001136
v 0.333333 1.364548 0.001075
v -0.319059 1.356782 0.462259
v 0.319059 -0.442333 0.518817
v -0.476168 -0.252437 0.286522
v 0.000000 1.432560 0.250346
v 0.000000 -0.521180 0.287256
v 0.479603 -0.252437 0.286522
v -0.274187 0.690757 0.637083
v -0.316487 1.168036 -0.626910
v 0.319922 1.168036 -0.626910
v 0.319922 1.168036 0.627388
v 0.479603 1.173914 -0.265345
v -0.476168 1.173914 -0.265345
v -0.476168 1.173914 0.267264
v 0.479603 1.173914 0.267265
v 0.503493 0.927669 0.001112
v -0.455605 0.927669 0.500999
v -0.476012 0.927669 0.001112
v 0.483087 0.927669 -0.499814
v 0.013741 0.927669 0.700860
v 0.483087 0.927669 0.500999
v 0.013741 0.927669 -0.700714
v -0.455605 0.927669 -0.499814
v -0.274187 0.241276 -0.638540
v 0.353196 0.241276 -0.638540
v 0.353196 0.241276 0.638981
v 0.510042 0.241276 -0.268436
v -0.431033 0.241276 -0.268436
v -0.431033 0.241276 0.270365
v 0.510042 0.241276 0.270365
v -0.316487 -0.246322 0.671131
v -0.455605 0.001151 -0.511522
v 0.013741 0.001151 -0.717122
v 0.483087 0.001151 0.512707
v 0.013741 0.001151 0.717243
v 0.483087 0.001151 -0.511522
v -0.476012 0.001151 0.001124
v -0.455605 0.001151 0.512707
v 0.503493 0.001151 0.001124
v -0.274187 0.241276 0.638982
v -0.274187 0.690757 -0.636639
v 0.353196 0.690757 -0.636639
v 0.353196 0.690757 0.637083
v 0.510042 0.690757 -0.267636
v -0.431033 0.690757 -0.267636
v -0.431033 0.690757 0.269562
v 0.510042 0.690757 0.269562
v -0.384921 0.466246 -0.479374
v 0.054963 0.466246 -0.672069
v 0.494846 0.466246 0.480559
v 0.054963 0.466246 0.672256
v 0.494846 0.466246 -0.479374
v -0.404046 0.466246 0.001091
v -0.384921 0.466246 0.480559
v 0.513972 0.466246 0.001091
v -0.456160 1.172445 -0.485026
v 0.001718 1.170975 -0.674388
v 0.459595 1.172445 0.486217
v 0.001718 1.170975 0.674601
v 0.000000 -0.510260 0.521120
v -0.000000 1.422065 0.456015
v 0.000000 1.422065 -0.454822
v 0.000000 -0.510260 -0.519922
v 0.459595 1.172445 -0.485026
v -0.476168 1.173914 0.001098
v -0.456160 1.172445 0.486217
v 0.000000 1.432561 0.001066
v 0.000000 -0.521180 0.001136
v 0.479603 1.173914 0.001098
v 0.510042 0.690757 0.001102
v -0.411427 0.690757 0.491151
v -0.431033 0.690757 0.001102
v 0.490436 0.690757 -0.489966
v 0.039504 0.690757 0.687079
v 0.490436 0.690757 0.491151
v 0.039504 0.690757 -0.686913
v -0.411427 0.690757 -0.489966
v -0.456160 -0.250908 -0.519740
v 0.001718 -0.249379 -0.721994
v 0.459595 -0.250908 0.520932
v 0.001718 -0.249379 0.722141
v 0.459595 -0.250908 -0.519740
v -0.476168 -0.252437 0.001134
v -0.456160 -0.250908 0.520932
v 0.479603 -0.252437 0.001134
v -0.411427 0.241276 -0.491430
v 0.039504 0.241276 -0.688964
v 0.490436 0.241276 0.492615
v 0.039504 0.241276 0.689126
v 0.490436 0.241276 -0.491430
v -0.431033 0.241276 0.001104
v -0.411427 0.241276 0.492615
v 0.510042 0.241276 0.001104
vn -0.9959 0.0027 -0.0902
vn -0.7954 0.6012 -0.0768
vn -0.6299 0.5078 -0.5876
vn -0.7169 0.0472 -0.6955
vn -0.1512 0.0945 -0.9840
vn -0.1250 0.3771 -0.9177
vn 0.1250 0.3793 -0.9168
vn 0.1510 0.1093 -0.9825
vn 0.9909 0.0998 0.0903
vn 0.7884 0.6104 0.0767
vn 0.6237 0.5163 0.5869
vn 0.7105 0.1174 0.6939
vn 0.1502 0.1090 0.9826
vn 0.1244 0.3781 0.9174
vn -0.1244 0.3758 0.9183
vn -0.1503 0.0943 0.9841
vn -0.2079 -0.9771 0.0463
vn 0.2079 -0.9771 0.0463
vn 0.1737 -0.8893 0.4231
vn -0.1737 -0.8893 0.4231
vn 0.1991 0.9787 0.0502
vn -0.1991 0.9787 0.0502
vn -0.1565 0.8917 0.4247
vn 0.1565 0.8917 0.4247
vn 0.1567 0.8925 -0.4230
vn -0.1567 0.8925 -0.4230
vn -0.1991 0.9787 -0.0500
vn 0.1991 0.9787 -0.0500
vn -0.1739 -0.8901 -0.4214
vn 0.1739 -0.8901 -0.4214
vn 0.2079 -0.9771 -0.0461
vn -0.2079 -0.9771 -0.0461
vn 0.7122 0.1175 -0.6920
vn 0.6249 0.5170 -0.5851
vn 0.7884 0.6104 -0.0764
vn 0.9909 0.0997 -0.0900
vn -1.0000 -0.0006 -0.0000
vn -0.8003 0.5996 -0.0000
vn -0.7152 0.0472 0.6974
vn -0.6287 0.5071 0.5895
vn -0.7954 0.6012 0.0770
vn -0.9959 0.0027 0.0905
vn 0.1999 0.9798 -0.0000
vn -0.1999 0.9798 -0.0000
vn -0.2077 -0.9782 -0.0000
vn 0.2077 -0.9782 -0.0000
vn 0.9953 0.0966 -0.0000
vn 0.7934 0.6087 -0.0000
vn 0.9998 0.0175 -0.0000
vn 0.9996 0.0276 -0.0000
vn -0.7240 -0.1169 0.6799
vn -0.7159 -0.1575 0.6802
vn -0.9785 -0.1869 0.0875
vn -0.9888 -0.1210 0.0874
vn -0.9929 -0.1193 -0.0000
vn -0.9825 -0.1865 -0.0000
vn 0.7306 -0.0172 -0.6826
vn 0.7267 -0.0017 -0.6870
vn 0.9957 0.0264 -0.0887
vn 0.9960 0.0153 -0.0877
vn 0.1574 -0.0546 0.9860
vn 0.1557 -0.0426 0.9869
vn -0.1554 -0.0763 0.9849
vn -0.1572 -0.0761 0.9846
vn 0.9960 0.0153 0.0880
vn 0.9957 0.0263 0.0890
vn 0.7250 -0.0018 0.6888
vn 0.7289 -0.0173 0.6844
vn -0.1580 -0.0763 -0.9845
vn -0.1562 -0.0765 -0.9848
vn 0.1565 -0.0426 -0.9868
vn 0.1582 -0.0546 -0.9859
vn -0.9888 -0.1210 -0.0871
vn -0.9785 -0.1869 -0.0872
vn -0.7176 -0.1577 -0.6784
vn -0.7257 -0.1170 -0.6780
vn -0.8098 -0.5824 -0.0714
vn -0.9963 0.0037 -0.0862
vn -0.7326 0.0257 -0.6802
vn -0.6784 -0.4467 -0.5833
vn -0.1413 -0.2602 -0.9552
vn -0.1587 0.0267 -0.9870
vn 0.1589 0.0114 -0.9872
vn 0.1414 -0.2629 -0.9544
vn 0.8030 -0.5917 0.0713
vn 0.9921 -0.0907 0.0864
vn 0.7298 -0.0445 0.6822
vn 0.6723 -0.4561 0.5831
vn 0.1407 -0.2615 0.9549
vn 0.1580 0.0115 0.9874
vn -0.1579 0.0268 0.9871
vn -0.1406 -0.2589 0.9556
vn 0.6734 -0.4569 -0.5812
vn 0.7315 -0.0447 -0.6803
vn 0.9921 -0.0907 -0.0861
vn 0.8030 -0.5917 -0.0710
vn -0.8110 -0.5851 -0.0000
vn -1.0000 0.0006 -0.0000
vn -0.6772 -0.4459 0.5853
vn -0.7308 0.0258 0.6821
vn -0.9963 0.0037 0.0864
vn -0.8098 -0.5824 0.0716
vn 0.8043 -0.5942 -0.0000
vn 0.9956 -0.0938 -0.0000
vn -0.9785 0.1872 -0.0860
vn -0.9888 0.1212 -0.0869
vn -0.7258 0.1218 -0.6771
vn -0.7181 0.1882 -0.6700
vn -0.1573 0.1317 -0.9787
vn -0.1581 0.0847 -0.9838
vn 0.1584 0.0631 -0.9854
vn 0.1579 0.0983 -0.9825
vn 0.9959 -0.0231 0.0878
vn 0.9960 -0.0148 0.0879
vn 0.7293 0.0223 0.6838
vn 0.7290 0.0349 0.6836
vn 0.1571 0.0982 0.9827
vn 0.1575 0.0631 0.9855
vn -0.1573 0.0846 0.9839
vn -0.1565 0.1314 0.9789
vn 0.7308 0.0347 -0.6817
vn 0.7310 0.0222 -0.6820
vn 0.9960 -0.0148 -0.0876
vn 0.9959 -0.0232 -0.0876
vn -0.9829 0.1841 -0.0000
vn -0.9929 0.1191 -0.0000
vn -0.7165 0.1880 0.6718
vn -0.7241 0.1217 0.6789
vn -0.9888 0.1212 0.0872
vn -0.9785 0.1872 0.0863
vn 0.9996 -0.0273 -0.0000
vn 0.9998 -0.0175 -0.0000
vt 0.559055 0.172547
vt 0.591252 0.173048
vt 0.591252 0.216753
vt 0.559055 0.217248
vt 0.625000 0.178559
vt 0.625000 0.214279
vt 0.625000 0.250000
vt 0.591252 0.277280
vt 0.559055 0.279760
vt 0.591252 0.375000
vt 0.559055 0.375000
vt 0.625000 0.375000
vt 0.625000 0.500000
vt 0.591884 0.472720
vt 0.559055 0.470240
vt 0.559055 0.672876
vt 0.595044 0.672876
vt 0.594412 0.716824
vt 0.559055 0.717445
vt 0.655331 0.672876
vt 0.652804 0.714339
vt 0.625000 0.750000
vt 0.591884 0.777340
vt 0.559055 0.779826
vt 0.591209 0.878107
vt 0.558883 0.878728
vt 0.625000 0.875000
vt 0.625000 1.000000
vt 0.590994 1.000000
vt 0.556988 1.000000
vt 0.125000 0.678954
vt 0.246266 0.673382
vt 0.246888 0.713844
vt 0.125000 0.714477
vt 0.345128 0.672876
vt 0.347617 0.714338
vt 0.375000 0.750000
vt 0.250000 0.750000
vt 0.125000 0.750000
vt 0.753791 0.673383
vt 0.753160 0.713844
vt 0.875000 0.678954
vt 0.875000 0.714477
vt 0.875000 0.750000
vt 0.750000 0.750000
vt 0.750000 0.500000
vt 0.753160 0.536347
vt 0.652804 0.535852
vt 0.875000 0.500000
vt 0.875000 0.535721
vt 0.875000 0.571441
vt 0.753791 0.576952
vt 0.655331 0.577453
vt 0.125000 0.500000
vt 0.250000 0.500000
vt 0.246888 0.536347
vt 0.125000 0.535721
vt 0.375000 0.500000
vt 0.347617 0.535852
vt 0.345128 0.577453
vt 0.246266 0.576952
vt 0.125000 0.571441
vt 0.594412 0.533372
vt 0.559055 0.532752
vt 0.595044 0.577453
vt 0.559055 0.577453
vt 0.559055 0.077124
vt 0.591252 0.076618
vt 0.591252 0.124809
vt 0.559055 0.124811
vt 0.625000 0.071046
vt 0.625000 0.124803
vt 0.556988 0.000000
vt 0.590994 0.000000
vt 0.591209 0.036156
vt 0.558883 0.036283
vt 0.625000 0.000000
vt 0.625000 0.035523
vt 0.753791 0.625191
vt 0.655331 0.625189
vt 0.875000 0.625198
vt 0.246266 0.625191
vt 0.125000 0.625198
vt 0.345128 0.625189
vt 0.559055 0.577453
vt 0.595044 0.577453
vt 0.595044 0.625189
vt 0.559055 0.625189
vt 0.655331 0.577453
vt 0.655331 0.625189
vt 0.655331 0.672876
vt 0.595044 0.672876
vt 0.559055 0.672876
vt 0.501377 0.577453
vt 0.529441 0.577453
vt 0.529441 0.625189
vt 0.501377 0.625189
vt 0.529441 0.672876
vt 0.501377 0.672876
vt 0.501377 0.000000
vt 0.529182 0.000000
vt 0.529398 0.036283
vt 0.501377 0.036283
vt 0.529441 0.077124
vt 0.501377 0.077124
vt 0.501377 0.077124
vt 0.529441 0.077124
vt 0.529441 0.124811
vt 0.501377 0.124811
vt 0.559055 0.077124
vt 0.559055 0.124811
vt 0.559055 0.172547
vt 0.529441 0.172547
vt 0.501377 0.172547
vt 0.501377 0.470240
vt 0.529441 0.470240
vt 0.529441 0.532752
vt 0.501377 0.532752
vt 0.559055 0.532752
vt 0.501377 0.779826
vt 0.529441 0.779826
vt 0.529398 0.878728
vt 0.501377 0.878728
vt 0.529182 1.000000
vt 0.501377 1.000000
vt 0.529441 0.717445
vt 0.501377 0.717445
vt 0.559055 0.717445
vt 0.529441 0.779826
vt 0.501377 0.279760
vt 0.529441 0.279760
vt 0.529441 0.375000
vt 0.501377 0.375000
vt 0.559055 0.279760
vt 0.559055 0.375000
vt 0.529441 0.217248
vt 0.501377 0.217248
vt 0.559055 0.217248
vt 0.375000 0.178559
vt 0.410067 0.173048
vt 0.410067 0.216753
vt 0.375000 0.214279
vt 0.443240 0.172547
vt 0.443240 0.217248
vt 0.443240 0.279760
vt 0.410067 0.277280
vt 0.375000 0.250000
vt 0.410067 0.375000
vt 0.375000 0.375000
vt 0.443240 0.375000
vt 0.443240 0.470240
vt 0.409445 0.472720
vt 0.406333 0.672876
vt 0.406955 0.716824
vt 0.443240 0.672876
vt 0.443240 0.717445
vt 0.443240 0.779826
vt 0.409445 0.777340
vt 0.410120 0.878107
vt 0.375000 0.875000
vt 0.443451 0.878728
vt 0.445766 1.000000
vt 0.410383 1.000000
vt 0.375000 1.000000
vt 0.406955 0.533372
vt 0.443240 0.532752
vt 0.443240 0.577453
vt 0.406333 0.577453
vt 0.375000 0.071046
vt 0.410067 0.076618
vt 0.410067 0.124809
vt 0.375000 0.124803
vt 0.443240 0.077124
vt 0.443240 0.124811
vt 0.375000 0.000000
vt 0.410383 0.000000
vt 0.410120 0.036156
vt 0.375000 0.035523
vt 0.445766 0.000000
vt 0.443451 0.036283
vt 0.345128 0.577453
vt 0.406333 0.577453
vt 0.406333 0.625189
vt 0.345128 0.625189
vt 0.443240 0.577453
vt 0.443240 0.625189
vt 0.406333 0.672876
vt 0.345128 0.672876
vt 0.473256 0.172547
vt 0.473256 0.217248
vt 0.443240 0.217248
vt 0.473256 0.279760
vt 0.443240 0.279760
vt 0.473256 0.375000
vt 0.443240 0.375000
vt 0.473256 0.470240
vt 0.443240 0.470240
vt 0.473256 0.672876
vt 0.473256 0.717445
vt 0.443240 0.717445
vt 0.473256 0.779826
vt 0.443240 0.779826
vt 0.473256 0.779826
vt 0.473308 0.878728
vt 0.473571 1.000000
vt 0.473256 0.532752
vt 0.443240 0.532752
vt 0.473256 0.577453
vt 0.443240 0.077124
vt 0.473256 0.077124
vt 0.473256 0.124811
vt 0.473571 0.000000
vt 0.473308 0.036283
vt 0.473256 0.077124
vt 0.473256 0.625189
s 0
usemtl Material
f 22/1/1 74/2/1 117/3/1 84/4/1
f 74/2/2 10/5/2 43/6/2 117/3/2
f 117/3/3 43/6/3 4/7/3 70/8/3
f 84/4/4 117/3/4 70/8/4 18/9/4
f 18/9/5 70/8/5 118/10/5 83/11/5
f 70/8/6 4/7/6 46/12/6 118/10/6
f 118/10/7 46/12/7 8/13/7 71/14/7
f 83/11/8 118/10/8 71/14/8 19/15/8
f 24/16/9 76/17/9 119/18/9 82/19/9
f 76/17/10 14/20/10 49/21/10 119/18/10
f 119/18/11 49/21/11 6/22/11 72/23/11
f 82/19/12 119/18/12 72/23/12 20/24/12
f 20/24/13 72/23/13 120/25/13 81/26/13
f 72/23/14 6/22/14 52/27/14 120/25/14
f 120/25/15 52/27/15 2/28/15 42/29/15
f 81/26/16 120/25/16 42/29/16 17/30/16
f 13/31/17 67/32/17 121/33/17 41/34/17
f 67/32/18 16/35/18 64/36/18 121/33/18
f 121/33/19 64/36/19 5/37/19 51/38/19
f 41/34/20 121/33/20 51/38/20 1/39/20
f 14/20/21 66/40/21 122/41/21 49/21/21
f 66/40/22 15/42/22 63/43/22 122/41/22
f 122/41/23 63/43/23 2/44/23 52/45/23
f 49/21/24 122/41/24 52/45/24 6/22/24
f 8/13/25 46/46/25 123/47/25 56/48/25
f 46/46/26 4/49/26 43/50/26 123/47/26
f 123/47/27 43/50/27 10/51/27 57/52/27
f 56/48/28 123/47/28 57/52/28 12/53/28
f 3/54/29 45/55/29 124/56/29 53/57/29
f 45/55/30 7/58/30 48/59/30 124/56/30
f 124/56/31 48/59/31 11/60/31 58/61/31
f 53/57/32 124/56/32 58/61/32 9/62/32
f 19/15/33 71/14/33 125/63/33 80/64/33
f 71/14/34 8/13/34 56/48/34 125/63/34
f 125/63/35 56/48/35 12/53/35 73/65/35
f 80/64/36 125/63/36 73/65/36 21/66/36
f 23/67/37 75/68/37 126/69/37 79/70/37
f 75/68/38 15/71/38 54/72/38 126/69/38
f 126/69/38 54/72/38 10/5/38 74/2/38
f 79/70/37 126/69/37 74/2/37 22/1/37
f 17/73/39 42/74/39 127/75/39 78/76/39
f 42/74/40 2/77/40 63/78/40 127/75/40
f 127/75/41 63/78/41 15/71/41 75/68/41
f 78/76/42 127/75/42 75/68/42 23/67/42
f 12/53/43 57/52/43 128/79/43 62/80/43
f 57/52/44 10/51/44 54/81/44 128/79/44
f 128/79/44 54/81/44 15/42/44 66/40/44
f 62/80/43 128/79/43 66/40/43 14/20/43
f 9/62/45 58/61/45 129/82/45 61/83/45
f 58/61/46 11/60/46 55/84/46 129/82/46
f 129/82/46 55/84/46 16/35/46 67/32/46
f 61/83/45 129/82/45 67/32/45 13/31/45
f 21/85/47 73/86/47 130/87/47 77/88/47
f 73/86/48 12/89/48 62/90/48 130/87/48
f 130/87/48 62/90/48 14/91/48 76/92/48
f 77/88/47 130/87/47 76/92/47 24/93/47
f 37/94/49 105/95/49 131/96/49 116/97/49
f 105/95/50 21/85/50 77/88/50 131/96/50
f 131/96/50 77/88/50 24/93/50 108/98/50
f 116/97/49 131/96/49 108/98/49 40/99/49
f 33/100/51 69/101/51 132/102/51 115/103/51
f 69/101/52 17/73/52 78/76/52 132/102/52
f 132/102/53 78/76/53 23/67/53 107/104/53
f 115/103/54 132/102/54 107/104/54 39/105/54
f 39/106/55 107/107/55 133/108/55 114/109/55
f 107/107/56 23/110/56 79/111/56 133/108/56
f 133/108/56 79/111/56 22/112/56 106/113/56
f 114/109/55 133/108/55 106/113/55 38/114/55
f 35/115/57 103/116/57 134/117/57 113/118/57
f 103/116/58 19/15/58 80/119/58 134/117/58
f 134/117/59 80/119/59 21/85/59 105/95/59
f 113/118/60 134/117/60 105/95/60 37/94/60
f 36/120/61 104/121/61 135/122/61 112/123/61
f 104/121/62 20/24/62 81/26/62 135/122/62
f 135/122/63 81/26/63 17/30/63 69/124/63
f 112/123/64 135/122/64 69/124/64 33/125/64
f 40/99/65 108/98/65 136/126/65 111/127/65
f 108/98/66 24/93/66 82/128/66 136/126/66
f 136/126/67 82/128/67 20/24/67 104/129/67
f 111/127/68 136/126/68 104/129/68 36/120/68
f 34/130/69 102/131/69 137/132/69 110/133/69
f 102/131/70 18/134/70 83/135/70 137/132/70
f 137/132/71 83/135/71 19/15/71 103/116/71
f 110/133/72 137/132/72 103/116/72 35/115/72
f 38/114/73 106/113/73 138/136/73 109/137/73
f 106/113/74 22/112/74 84/138/74 138/136/74
f 138/136/75 84/138/75 18/134/75 102/131/75
f 109/137/76 138/136/76 102/131/76 34/130/76
f 9/139/77 60/140/77 139/141/77 53/142/77
f 60/140/78 29/143/78 93/144/78 139/141/78
f 139/141/79 93/144/79 25/145/79 44/146/79
f 53/142/80 139/141/80 44/146/80 3/147/80
f 3/147/81 44/146/81 140/148/81 45/149/81
f 44/146/82 25/145/82 94/150/82 140/148/82
f 140/148/83 94/150/83 26/151/83 47/152/83
f 45/149/84 140/148/84 47/152/84 7/58/84
f 16/35/85 68/153/85 141/154/85 64/36/85
f 68/153/86 31/155/86 95/156/86 141/154/86
f 141/154/87 95/156/87 27/157/87 50/158/87
f 64/36/88 141/154/88 50/158/88 5/37/88
f 5/37/89 50/158/89 142/159/89 51/160/89
f 50/158/90 27/157/90 96/161/90 142/159/90
f 142/159/91 96/161/91 32/162/91 92/163/91
f 51/160/92 142/159/92 92/163/92 1/164/92
f 7/58/93 47/152/93 143/165/93 48/59/93
f 47/152/94 26/151/94 97/166/94 143/165/94
f 143/165/95 97/166/95 28/167/95 59/168/95
f 48/59/96 143/165/96 59/168/96 11/60/96
f 13/169/97 65/170/97 144/171/97 61/172/97
f 65/170/98 30/173/98 98/174/98 144/171/98
f 144/171/98 98/174/98 29/143/98 60/140/98
f 61/172/97 144/171/97 60/140/97 9/139/97
f 1/175/99 92/176/99 145/177/99 41/178/99
f 92/176/100 32/179/100 99/180/100 145/177/100
f 145/177/101 99/180/101 30/173/101 65/170/101
f 41/178/102 145/177/102 65/170/102 13/169/102
f 11/181/103 59/182/103 146/183/103 55/184/103
f 59/182/104 28/185/104 100/186/104 146/183/104
f 146/183/104 100/186/104 31/155/104 68/187/104
f 55/184/103 146/183/103 68/187/103 16/188/103
f 29/143/105 89/189/105 147/190/105 93/191/105
f 89/189/106 38/114/106 109/137/106 147/190/106
f 147/190/107 109/137/107 34/130/107 85/192/107
f 93/191/108 147/190/108 85/192/108 25/193/108
f 25/193/109 85/192/109 148/194/109 94/195/109
f 85/192/110 34/130/110 110/133/110 148/194/110
f 148/194/111 110/133/111 35/115/111 86/196/111
f 94/195/112 148/194/112 86/196/112 26/197/112
f 31/155/113 91/198/113 149/199/113 95/200/113
f 91/198/114 40/99/114 111/127/114 149/199/114
f 149/199/115 111/127/115 36/120/115 87/201/115
f 95/200/116 149/199/116 87/201/116 27/202/116
f 27/157/117 87/203/117 150/204/117 96/161/117
f 87/203/118 36/120/118 112/123/118 150/204/118
f 150/204/119 112/123/119 33/125/119 101/205/119
f 96/161/120 150/204/120 101/205/120 32/162/120
f 26/197/121 86/196/121 151/206/121 97/207/121
f 86/196/122 35/115/122 113/118/122 151/206/122
f 151/206/123 113/118/123 37/94/123 88/208/123
f 97/207/124 151/206/124 88/208/124 28/185/124
f 30/209/125 90/210/125 152/211/125 98/174/125
f 90/210/126 39/106/126 114/109/126 152/211/126
f 152/211/126 114/109/126 38/114/126 89/189/126
f 98/174/125 152/211/125 89/189/125 29/143/125
f 32/179/127 101/212/127 153/213/127 99/180/127
f 101/212/128 33/100/128 115/103/128 153/213/128
f 153/213/129 115/103/129 39/105/129 90/214/129
f 99/180/130 153/213/130 90/214/130 30/173/130
f 28/185/131 88/208/131 154/215/131 100/186/131
f 88/208/132 37/94/132 116/97/132 154/215/132
f 154/215/132 116/97/132 40/99/132 91/198/132
f 100/186/131 154/215/131 91/198/131 31/155/131
