# Blender 5.0.1
# www.blender.org
mtllib leg.mtl
o Cube
v 0.250000 0.348255 -0.250000
v -0.323055 0.026567 0.323055
v 0.250000 0.348255 0.250000
v 0.323055 0.026567 0.323055
v -0.250000 0.348255 -0.250000
v 0.323055 0.026567 -0.323055
v -0.250000 0.348255 0.250000
v -0.323055 0.026567 -0.323055
v 0.156899 -1.598375 -0.156899
v 0.266325 -1.200026 -0.266325
v 0.156899 -1.598375 0.156899
v 0.266325 -1.200026 0.266325
v -0.266325 -1.200026 -0.266325
v -0.156899 -1.598375 -0.156899
v -0.156899 -1.598375 0.156899
v -0.266325 -1.200026 0.266325
v 0.317774 0.300335 0.317774
v 0.000000 0.026567 -0.444200
v 0.444200 0.026567 0.000000
v -0.300546 -0.578516 -0.300546
v -0.444200 0.026567 0.000000
v 0.317774 0.300335 -0.317774
v -0.000000 0.350503 0.304784
v 0.304784 0.350503 0.000000
v -0.317774 0.300335 0.317774
v -0.304784 0.350503 -0.000000
v 0.000000 0.350503 -0.304784
v -0.000000 0.026567 0.444200
v -0.219616 -1.516181 -0.219616
v -0.186473 -1.607822 0.000000
v -0.219616 -1.516181 0.219616
v -0.366196 -1.200026 0.000000
v 0.219616 -1.516181 -0.219616
v -0.000000 -1.607822 -0.186473
v -0.000000 -1.200026 -0.366196
v 0.000000 -1.607822 0.186473
v 0.219616 -1.516181 0.219616
v 0.000000 -1.200026 0.366196
v 0.186473 -1.607822 0.000000
v 0.366196 -1.200026 0.000000
v -0.317774 0.300335 -0.317774
v 0.300546 -0.578516 -0.300546
v 0.300546 -0.578516 0.300546
v -0.300546 -0.578516 0.300546
v -0.000000 0.355220 -0.000000
v -0.413250 -0.578516 0.000000
v -0.000000 -0.578516 -0.413250
v 0.413250 -0.578516 0.000000
v -0.000000 -0.578516 0.413250
v -0.301156 -1.517112 0.000000
v -0.000000 -1.517112 -0.301156
v -0.000000 -1.517112 0.301156
v 0.301156 -1.517112 0.000000
v 0.000000 0.300557 -0.437277
v 0.437277 0.300557 0.000000
v 0.000000 -1.627648 -0.000000
v -0.000000 0.300557 0.437277
v -0.437277 0.300557 -0.000000
vn 0.0139 0.9998 -0.0139
vn -0.0139 0.9998 -0.0139
vn -0.0139 0.9998 0.0139
vn 0.0139 0.9998 0.0139
vn -0.9340 -0.0707 0.3502
vn -0.9353 -0.0478 0.3507
vn -0.9353 -0.0478 -0.3507
vn -0.9340 -0.0707 -0.3502
vn -0.3502 -0.0707 -0.9340
vn -0.3507 -0.0478 -0.9353
vn 0.3507 -0.0478 -0.9353
vn 0.3502 -0.0707 -0.9340
vn 0.9340 -0.0707 -0.3502
vn 0.9353 -0.0478 -0.3507
vn 0.9353 -0.0478 0.3507
vn 0.9340 -0.0707 0.3502
vn 0.3502 -0.0707 0.9340
vn 0.3507 -0.0478 0.9353
vn -0.3507 -0.0478 0.9353
vn -0.3502 -0.0707 0.9340
vn -0.6433 -0.7362 -0.2101
vn -0.6433 -0.7362 0.2101
vn -0.9201 -0.1877 0.3438
vn -0.9201 -0.1877 -0.3438
vn 0.2101 -0.7362 -0.6433
vn -0.2101 -0.7362 -0.6433
vn -0.3438 -0.1877 -0.9201
vn 0.3438 -0.1877 -0.9201
vn -0.2101 -0.7362 0.6433
vn 0.2101 -0.7362 0.6433
vn 0.3438 -0.1877 0.9201
vn -0.3438 -0.1877 0.9201
vn 0.6433 -0.7362 0.2101
vn 0.6433 -0.7362 -0.2101
vn 0.9201 -0.1877 -0.3438
vn 0.9201 -0.1877 0.3438
vn -0.3515 0.0242 -0.9359
vn -0.1269 0.9075 -0.4005
vn 0.1269 0.9075 -0.4005
vn 0.3515 0.0242 -0.9359
vn 0.9359 0.0242 -0.3515
vn 0.4005 0.9075 -0.1269
vn 0.4005 0.9075 0.1269
vn 0.9359 0.0242 0.3515
vn -0.0925 -0.9914 -0.0925
vn 0.0925 -0.9914 -0.0925
vn 0.0925 -0.9914 0.0925
vn -0.0925 -0.9914 0.0925
vn 0.3515 0.0242 0.9359
vn 0.1269 0.9075 0.4005
vn -0.1269 0.9075 0.4005
vn -0.3515 0.0242 0.9359
vn -0.9359 0.0242 0.3515
vn -0.4005 0.9075 0.1269
vn -0.4005 0.9075 -0.1269
vn -0.9359 0.0242 -0.3515
vt 0.625000 0.500000
vt 0.750000 0.500000
vt 0.753399 0.625000
vt 0.658994 0.625000
vt 0.875000 0.500000
vt 0.875000 0.625000
vt 0.875000 0.750000
vt 0.750000 0.750000
vt 0.625000 0.750000
vt 0.396556 0.000000
vt 0.508214 0.000000
vt 0.504385 0.125000
vt 0.396556 0.125000
vt 0.619871 0.000000
vt 0.586517 0.125000
vt 0.583344 0.250000
vt 0.503266 0.250000
vt 0.396556 0.250000
vt 0.502237 0.375000
vt 0.393862 0.375000
vt 0.583017 0.375000
vt 0.582691 0.500000
vt 0.501796 0.500000
vt 0.391167 0.500000
vt 0.503239 0.625000
vt 0.413208 0.625000
vt 0.582569 0.625000
vt 0.582691 0.750000
vt 0.501796 0.750000
vt 0.391167 0.750000
vt 0.503035 0.875000
vt 0.393862 0.875000
vt 0.586068 0.875000
vt 0.619871 1.000000
vt 0.508214 1.000000
vt 0.396556 1.000000
vt 0.202544 0.576871
vt 0.193011 0.625000
vt 0.155851 0.625000
vt 0.180156 0.553955
vt 0.202544 0.673129
vt 0.180156 0.696045
vt 0.125000 0.750000
vt 0.125000 0.625000
vt 0.125000 0.500000
vt 0.301497 0.576871
vt 0.251578 0.567799
vt 0.254254 0.530602
vt 0.329027 0.553955
vt 0.258084 0.500000
vt 0.251578 0.682201
vt 0.254254 0.719398
vt 0.301497 0.673129
vt 0.329027 0.696045
vt 0.258084 0.750000
vt 0.310145 0.625000
vt 0.355008 0.625000
vt 0.413208 0.625000
vt 0.617862 0.250000
vt 0.617806 0.375000
vt 0.625000 0.250000
vt 0.625000 0.375000
vt 0.618600 0.500000
vt 0.621129 0.625000
vt 0.618600 0.750000
vt 0.250649 0.625000
vt 0.193011 0.625000
vt 0.310145 0.625000
vt 0.618567 0.875000
vt 0.625000 0.875000
vt 0.625000 1.000000
vt 0.622436 1.000000
vt 0.622436 0.000000
vt 0.618644 0.125000
vt 0.625000 0.000000
vt 0.625000 0.125000
s 0
usemtl Material
f 1/1/1 27/2/1 45/3/1 24/4/1
f 27/2/2 5/5/2 26/6/2 45/3/2
f 45/3/3 26/6/3 7/7/3 23/8/3
f 24/4/4 45/3/4 23/8/4 3/9/4
f 16/10/5 44/11/5 46/12/5 32/13/5
f 44/11/6 2/14/6 21/15/6 46/12/6
f 46/12/7 21/15/7 8/16/7 20/17/7
f 32/13/8 46/12/8 20/17/8 13/18/8
f 13/18/9 20/17/9 47/19/9 35/20/9
f 20/17/10 8/16/10 18/21/10 47/19/10
f 47/19/11 18/21/11 6/22/11 42/23/11
f 35/20/12 47/19/12 42/23/12 10/24/12
f 10/24/13 42/23/13 48/25/13 40/26/13
f 42/23/14 6/22/14 19/27/14 48/25/14
f 48/25/15 19/27/15 4/28/15 43/29/15
f 40/26/16 48/25/16 43/29/16 12/30/16
f 12/30/17 43/29/17 49/31/17 38/32/17
f 43/29/18 4/28/18 28/33/18 49/31/18
f 49/31/19 28/33/19 2/34/19 44/35/19
f 38/32/20 49/31/20 44/35/20 16/36/20
f 14/37/21 30/38/21 50/39/21 29/40/21
f 30/38/22 15/41/22 31/42/22 50/39/22
f 50/39/23 31/42/23 16/43/23 32/44/23
f 29/40/24 50/39/24 32/44/24 13/45/24
f 9/46/25 34/47/25 51/48/25 33/49/25
f 34/47/26 14/37/26 29/40/26 51/48/26
f 51/48/27 29/40/27 13/45/27 35/50/27
f 33/49/28 51/48/28 35/50/28 10/24/28
f 15/41/29 36/51/29 52/52/29 31/42/29
f 36/51/30 11/53/30 37/54/30 52/52/30
f 52/52/31 37/54/31 12/30/31 38/55/31
f 31/42/32 52/52/32 38/55/32 16/43/32
f 11/53/33 39/56/33 53/57/33 37/54/33
f 39/56/34 9/46/34 33/49/34 53/57/34
f 53/57/35 33/49/35 10/24/35 40/58/35
f 37/54/36 53/57/36 40/58/36 12/30/36
f 8/16/37 41/59/37 54/60/37 18/21/37
f 41/59/38 5/61/38 27/62/38 54/60/38
f 54/60/39 27/62/39 1/1/39 22/63/39
f 18/21/40 54/60/40 22/63/40 6/22/40
f 6/22/41 22/63/41 55/64/41 19/27/41
f 22/63/42 1/1/42 24/4/42 55/64/42
f 55/64/43 24/4/43 3/9/43 17/65/43
f 19/27/44 55/64/44 17/65/44 4/28/44
f 14/37/45 34/47/45 56/66/45 30/67/45
f 34/47/46 9/46/46 39/68/46 56/66/46
f 56/66/47 39/68/47 11/53/47 36/51/47
f 30/67/48 56/66/48 36/51/48 15/41/48
f 4/28/49 17/65/49 57/69/49 28/33/49
f 17/65/50 3/9/50 23/70/50 57/69/50
f 57/69/51 23/70/51 7/71/51 25/72/51
f 28/33/52 57/69/52 25/72/52 2/34/52
f 2/14/53 25/73/53 58/74/53 21/15/53
f 25/73/54 7/75/54 26/76/54 58/74/54
f 58/74/55 26/76/55 5/61/55 41/59/55
f 21/15/56 58/74/56 41/59/56 8/16/56
