# Blender 5.0.1
# www.blender.org
mtllib cloud.mtl
o Плоскость
v 5.723132 0.000000 0.588313
v 3.242754 0.000000 -1.493175
v -1.000000 0.000000 -1.000000
v 1.596420 0.000000 -2.109643
v 2.890800 0.000000 0.538183
v 1.361842 0.000000 2.129804
v -1.445426 0.000000 3.245191
v -0.868934 0.000000 0.939221
v -4.691329 0.000000 -0.063374
v -2.473086 0.000000 -1.730189
v -2.466296 1.056923 -0.265922
v 0.817205 2.067219 -0.009937
v 2.070449 1.287131 -0.579233
v 3.887654 1.056923 -0.002741
v -0.160326 1.056923 2.140307
vn -0.2059 0.5840 0.7852
vn -0.2334 0.5565 0.7974
vn -0.7888 0.6104 -0.0718
vn -0.7118 0.6795 -0.1780
vn 0.3273 0.4631 0.8237
vn 0.4817 0.6883 0.5424
vn 0.5342 0.6719 0.5131
vn 0.6061 0.7054 0.3676
vn -0.0134 0.6506 0.7593
vn -0.3012 0.0101 0.9535
vn 0.5296 0.5668 -0.6311
vn 0.2919 0.7161 -0.6341
vn 0.2499 0.7015 -0.6674
vn 0.1543 0.7321 -0.6635
vn -0.3090 0.6179 -0.7230
vn -0.0826 0.4886 -0.8686
vn 0.2790 0.7780 -0.5629
vn -0.4018 0.7434 -0.5347
vn -0.0000 -1.0000 -0.0000
vt 0.000000 0.000000
s 0
usemtl Материал
f 9/1/1 8/1/1 11/1/1
f 11/1/2 8/1/2 12/1/2
f 15/1/3 12/1/3 8/1/3
f 8/1/4 7/1/4 15/1/4
f 7/1/5 6/1/5 15/1/5
f 15/1/6 6/1/6 12/1/6
f 6/1/7 5/1/7 12/1/7
f 12/1/8 5/1/8 13/1/8
f 5/1/9 1/1/9 13/1/9
f 13/1/10 1/1/10 14/1/10
f 1/1/11 2/1/11 14/1/11
f 14/1/12 2/1/12 13/1/12
f 2/1/13 4/1/13 13/1/13
f 13/1/14 4/1/14 12/1/14
f 4/1/15 3/1/15 12/1/15
f 11/1/16 12/1/16 3/1/16
f 10/1/17 11/1/17 3/1/17
f 10/1/18 9/1/18 11/1/18
f 7/1/19 8/1/19 6/1/19
f 6/1/19 8/1/19 5/1/19
f 8/1/19 4/1/19 5/1/19
f 4/1/19 2/1/19 5/1/19
f 1/1/19 5/1/19 2/1/19
f 4/1/19 8/1/19 3/1/19
f 10/1/19 3/1/19 8/1/19
f 8/1/19 9/1/19 10/1/19
o Плоскость.001
v 5.723132 -0.017848 0.588313
v 3.242754 -0.017848 -1.493175
v -1.000000 -0.017848 -1.000000
v 1.596420 -0.017848 -2.109643
v 2.890800 -0.017848 0.538183
v 1.361842 -0.017848 2.129804
v -1.445426 -0.017848 3.245191
v -0.868934 -0.017848 0.939221
v -4.691329 -0.017848 -0.063374
v -2.473086 -0.017848 -1.730189
vn -0.0000 -1.0000 -0.0000
vt 0.000000 0.000000
s 0
usemtl Материал.001
f 22/2/20 23/2/20 21/2/20
f 21/2/20 23/2/20 20/2/20
f 23/2/20 19/2/20 20/2/20
f 19/2/20 17/2/20 20/2/20
f 16/2/20 20/2/20 17/2/20
f 19/2/20 23/2/20 18/2/20
f 25/2/20 18/2/20 23/2/20
f 23/2/20 24/2/20 25/2/20
