# Blender 5.0.1
# www.blender.org
mtllib flag.mtl
o Cube
v -0.000000 -0.114214 -0.171216
v -0.000000 7.718408 -0.171216
v 0.148277 -0.114214 -0.085608
v 0.148277 7.718408 -0.085608
v 0.148277 -0.114214 0.085608
v 0.148277 7.718408 0.085608
v -0.000000 -0.114214 0.171216
v -0.000000 7.718408 0.171216
v -0.148277 -0.114214 0.085608
v -0.148277 7.718408 0.085608
v -0.148277 -0.114214 -0.085608
v -0.148277 7.718408 -0.085608
vn 0.5000 -0.0000 -0.8660
vn 1.0000 -0.0000 -0.0000
vn 0.5000 -0.0000 0.8660
vn -0.5000 -0.0000 0.8660
vn -0.0000 1.0000 -0.0000
vn -1.0000 -0.0000 -0.0000
vn -0.5000 -0.0000 -0.8660
vn -0.0000 -1.0000 -0.0000
vt 1.000000 0.500000
vt 1.000000 1.000000
vt 0.833333 1.000000
vt 0.833333 0.500000
vt 0.666667 1.000000
vt 0.666667 0.500000
vt 0.500000 1.000000
vt 0.500000 0.500000
vt 0.333333 1.000000
vt 0.333333 0.500000
vt 0.457846 0.370000
vt 0.250000 0.490000
vt 0.042154 0.370000
vt 0.042154 0.130000
vt 0.250000 0.010000
vt 0.457846 0.130000
vt 0.166667 1.000000
vt 0.166667 0.500000
vt -0.000000 1.000000
vt -0.000000 0.500000
vt 0.750000 0.490000
vt 0.957846 0.370000
vt 0.957846 0.130000
vt 0.750000 0.010000
vt 0.542154 0.130000
vt 0.542154 0.370000
s 0
usemtl Material
f 1/1/1 2/2/1 4/3/1 3/4/1
f 3/4/2 4/3/2 6/5/2 5/6/2
f 5/6/3 6/5/3 8/7/3 7/8/3
f 7/8/4 8/7/4 10/9/4 9/10/4
f 4/11/5 2/12/5 12/13/5 10/14/5 8/15/5 6/16/5
f 9/10/6 10/9/6 12/17/6 11/18/6
f 11/18/7 12/17/7 2/19/7 1/20/7
f 1/21/8 3/22/8 5/23/8 7/24/8 9/25/8 11/26/8
o Куб
v -0.122835 3.986354 0.001120
v -0.122835 7.649453 0.001120
v 0.000000 5.989478 -4.167743
v 0.122835 3.986354 0.001120
v 0.122835 7.649453 0.001120
vn -0.9996 -0.0000 -0.0295
vn 0.9996 -0.0000 -0.0295
vn -0.0000 -0.0000 1.0000
vn -0.0000 -0.9013 -0.4331
vn -0.0000 0.9291 -0.3699
vt 0.375000 0.000000
vt 0.625000 0.000000
vt 0.375000 0.250000
vt 0.625000 0.500000
vt 0.625000 0.750000
vt 0.375000 0.750000
vt 0.625000 1.000000
vt 0.375000 1.000000
vt 0.375000 0.500000
vt 0.125000 0.750000
vt 0.875000 0.500000
vt 0.875000 0.750000
s 0
usemtl Материал
f 13/27/9 14/28/9 15/29/9
f 15/30/10 17/31/10 16/32/10
f 16/32/11 17/31/11 14/33/11 13/34/11
f 15/35/12 16/32/12 13/36/12
f 15/37/13 14/38/13 17/31/13
