# Blender 5.0.1
# www.blender.org
mtllib ring.mtl
o Тор
v 1.000000 0.000000 0.000000
v 0.930902 0.095106 0.000000
v 0.819098 0.058779 0.000000
v 0.819098 -0.058779 0.000000
v 0.930902 -0.095106 0.000000
v 0.707107 0.000000 -0.707107
v 0.658247 0.095106 -0.658247
v 0.579190 0.058779 -0.579190
v 0.579190 -0.058779 -0.579190
v 0.658247 -0.095106 -0.658247
v 0.000000 0.000000 -1.000000
v 0.000000 0.095106 -0.930902
v 0.000000 0.058779 -0.819098
v 0.000000 -0.058779 -0.819098
v 0.000000 -0.095106 -0.930902
v -0.707107 0.000000 -0.707107
v -0.658247 0.095106 -0.658247
v -0.579190 0.058779 -0.579190
v -0.579190 -0.058779 -0.579190
v -0.658247 -0.095106 -0.658247
v -1.000000 0.000000 -0.000000
v -0.930902 0.095106 -0.000000
v -0.819098 0.058779 -0.000000
v -0.819098 -0.058779 -0.000000
v -0.930902 -0.095106 -0.000000
v -0.707107 0.000000 0.707107
v -0.658247 0.095106 0.658247
v -0.579190 0.058779 0.579190
v -0.579190 -0.058779 0.579190
v -0.658247 -0.095106 0.658247
v 0.000000 0.000000 1.000000
v 0.000000 0.095106 0.930902
v 0.000000 0.058779 0.819098
v 0.000000 -0.058779 0.819098
v 0.000000 -0.095106 0.930902
v 0.707106 0.000000 0.707107
v 0.658247 0.095106 0.658247
v 0.579190 0.058779 0.579190
v 0.579190 -0.058779 0.579190
v 0.658247 -0.095106 0.658247
vn 0.7671 0.5573 -0.3177
vn -0.3065 0.9434 0.1270
vn -0.9239 -0.0000 0.3827
vn -0.3065 -0.9434 0.1270
vn 0.7671 -0.5573 -0.3177
vn 0.3177 0.5573 -0.7671
vn -0.1270 0.9434 0.3065
vn -0.3827 -0.0000 0.9239
vn -0.1270 -0.9434 0.3065
vn 0.3177 -0.5573 -0.7671
vn -0.3177 0.5573 -0.7671
vn 0.1270 0.9434 0.3065
vn 0.3827 -0.0000 0.9239
vn 0.1270 -0.9434 0.3065
vn -0.3177 -0.5573 -0.7671
vn -0.7671 0.5573 -0.3177
vn 0.3065 0.9434 0.1270
vn 0.9239 -0.0000 0.3827
vn 0.3065 -0.9434 0.1270
vn -0.7671 -0.5573 -0.3177
vn -0.7671 0.5573 0.3177
vn 0.3065 0.9434 -0.1270
vn 0.9239 -0.0000 -0.3827
vn 0.3065 -0.9434 -0.1270
vn -0.7671 -0.5573 0.3177
vn -0.3177 0.5573 0.7671
vn 0.1270 0.9434 -0.3065
vn 0.3827 -0.0000 -0.9239
vn 0.1270 -0.9434 -0.3065
vn -0.3177 -0.5573 0.7671
vn 0.3177 0.5573 0.7671
vn -0.1270 0.9434 -0.3065
vn -0.3827 -0.0000 -0.9239
vn -0.1270 -0.9434 -0.3065
vn 0.3177 -0.5573 0.7671
vn 0.7671 0.5573 0.3177
vn -0.3065 0.9434 -0.1270
vn -0.9239 -0.0000 -0.3827
vn -0.3065 -0.9434 -0.1270
vn 0.7671 -0.5573 0.3177
vt 0.500000 0.600000
vt 0.625000 0.600000
vt 0.625000 0.800000
vt 0.500000 0.800000
vt 0.625000 1.000000
vt 0.500000 1.000000
vt 0.500000 0.000000
vt 0.625000 0.000000
vt 0.625000 0.200000
vt 0.500000 0.200000
vt 0.625000 0.400000
vt 0.500000 0.400000
vt 0.750000 0.600000
vt 0.750000 0.800000
vt 0.750000 1.000000
vt 0.750000 0.000000
vt 0.750000 0.200000
vt 0.750000 0.400000
vt 0.875000 0.600000
vt 0.875000 0.800000
vt 0.875000 1.000000
vt 0.875000 0.000000
vt 0.875000 0.200000
vt 0.875000 0.400000
vt 1.000000 0.600000
vt 1.000000 0.800000
vt 1.000000 1.000000
vt 1.000000 0.000000
vt 1.000000 0.200000
vt 1.000000 0.400000
vt 0.000000 0.600000
vt 0.125000 0.600000
vt 0.125000 0.800000
vt 0.000000 0.800000
vt 0.125000 1.000000
vt 0.000000 1.000000
vt 0.000000 0.000000
vt 0.125000 0.000000
vt 0.125000 0.200000
vt 0.000000 0.200000
vt 0.125000 0.400000
vt 0.000000 0.400000
vt 0.250000 0.600000
vt 0.250000 0.800000
vt 0.250000 1.000000
vt 0.250000 0.000000
vt 0.250000 0.200000
vt 0.250000 0.400000
vt 0.375000 0.600000
vt 0.375000 0.800000
vt 0.375000 1.000000
vt 0.375000 0.000000
vt 0.375000 0.200000
vt 0.375000 0.400000
s 0
usemtl Материал
f 1/1/1 6/2/1 7/3/1 2/4/1
f 2/4/2 7/3/2 8/5/2 3/6/2
f 3/7/3 8/8/3 9/9/3 4/10/3
f 4/10/4 9/9/4 10/11/4 5/12/4
f 5/12/5 10/11/5 6/2/5 1/1/5
f 6/2/6 11/13/6 12/14/6 7/3/6
f 7/3/7 12/14/7 13/15/7 8/5/7
f 8/8/8 13/16/8 14/17/8 9/9/8
f 9/9/9 14/17/9 15/18/9 10/11/9
f 10/11/10 15/18/10 11/13/10 6/2/10
f 11/13/11 16/19/11 17/20/11 12/14/11
f 12/14/12 17/20/12 18/21/12 13/15/12
f 13/16/13 18/22/13 19/23/13 14/17/13
f 14/17/14 19/23/14 20/24/14 15/18/14
f 15/18/15 20/24/15 16/19/15 11/13/15
f 16/19/16 21/25/16 22/26/16 17/20/16
f 17/20/17 22/26/17 23/27/17 18/21/17
f 18/22/18 23/28/18 24/29/18 19/23/18
f 19/23/19 24/29/19 25/30/19 20/24/19
f 20/24/20 25/30/20 21/25/20 16/19/20
f 21/31/21 26/32/21 27/33/21 22/34/21
f 22/34/22 27/33/22 28/35/22 23/36/22
f 23/37/23 28/38/23 29/39/23 24/40/23
f 24/40/24 29/39/24 30/41/24 25/42/24
f 25/42/25 30/41/25 26/32/25 21/31/25
f 26/32/26 31/43/26 32/44/26 27/33/26
f 27/33/27 32/44/27 33/45/27 28/35/27
f 28/38/28 33/46/28 34/47/28 29/39/28
f 29/39/29 34/47/29 35/48/29 30/41/29
f 30/41/30 35/48/30 31/43/30 26/32/30
f 31/43/31 36/49/31 37/50/31 32/44/31
f 32/44/32 37/50/32 38/51/32 33/45/32
f 33/46/33 38/52/33 39/53/33 34/47/33
f 34/47/34 39/53/34 40/54/34 35/48/34
f 35/48/35 40/54/35 36/49/35 31/43/35
f 36/49/36 1/1/36 2/4/36 37/50/36
f 37/50/37 2/4/37 3/6/37 38/51/37
f 38/52/38 3/7/38 4/10/38 39/53/38
f 39/53/39 4/10/39 5/12/39 40/54/39
f 40/54/40 5/12/40 1/1/40 36/49/40
