# Blender 5.0.1
# www.blender.org
mtllib tuvaya2.mtl
o body
v -2.615365 6.272445 -0.806142
v -2.341369 3.018456 -1.410455
v -2.615365 6.354596 0.806142
v -2.341369 3.018456 1.410454
v -3.200602 6.354596 -0.806142
v -3.474598 3.018456 -1.410455
v -3.200602 6.354596 0.806142
v -3.474598 3.018456 1.410454
v -4.066515 3.018456 -0.000000
v -2.406441 6.131563 0.000000
v -3.402326 6.457400 0.000000
v -1.749452 3.018456 -0.000000
v -2.572529 4.686526 -0.924153
v -3.243439 4.686526 0.924153
v -2.572529 4.686526 0.924153
v -3.243439 4.686526 -0.924153
v -2.222094 4.686526 0.000000
v -3.593873 4.686526 0.000000
v -2.406383 3.283495 -1.248618
v -2.406383 3.283495 1.248618
v -3.409585 3.283495 -1.248618
v -1.882383 3.283495 -0.000000
v -3.933584 3.283495 -0.000000
v -3.409585 3.283495 1.248618
vn 0.1796 0.9825 -0.0500
vn 0.3106 0.9494 -0.0462
vn 0.2167 0.9760 -0.0228
vn -0.0000 0.1518 0.9884
vn -0.0000 0.0706 0.9975
vn -0.9300 0.1434 -0.3383
vn -0.9487 0.0752 -0.3072
vn -0.9294 0.1455 -0.3392
vn -0.0000 -1.0000 -0.0000
vn 0.9313 0.1462 0.3336
vn 0.9514 0.0807 0.2972
vn 0.9307 0.1481 0.3346
vn 0.0023 0.1526 -0.9883
vn 0.0047 0.0723 -0.9974
vn 0.9300 0.1491 -0.3361
vn 0.9502 0.0829 -0.3004
vn 0.9306 0.1473 -0.3351
vn -0.9294 0.1455 0.3392
vn -0.9487 0.0752 0.3072
vn -0.9300 0.1434 0.3383
vn -0.0000 0.9920 0.1265
vn -0.8719 0.3328 0.3593
vn -0.8750 0.3237 0.3600
vn 0.8719 0.3328 -0.3593
vn 0.8750 0.3237 -0.3600
vn -0.0000 0.3929 -0.9196
vn 0.8750 0.3237 0.3600
vn 0.8719 0.3328 0.3593
vn -0.8750 0.3237 -0.3600
vn -0.8719 0.3328 -0.3593
vn -0.0000 0.3929 0.9196
vn -0.0000 0.5211 0.8535
vn -0.8369 0.4198 -0.3512
vn 0.8369 0.4198 0.3512
vn -0.0000 0.5211 -0.8535
vn 0.8369 0.4198 -0.3512
vn -0.8369 0.4198 0.3512
vn 0.2391 0.9709 0.0107
vn 0.1384 0.9862 -0.0911
vt 0.117780 0.513380
vt 0.154504 0.633569
vt 0.000000 0.633159
vt 0.777131 0.243923
vt 0.783496 0.000000
vt 0.870449 0.000000
vt 0.876814 0.243923
vt 0.231496 0.262012
vt 0.258875 0.000000
vt 0.360190 0.015876
vt 0.344570 0.259137
vt 0.654563 0.765653
vt 0.376712 0.660293
vt 0.518671 0.500023
vt 0.654563 0.551553
vt 0.551579 0.248150
vt 0.557022 0.032458
vt 0.679726 -0.000000
vt 0.698366 0.245009
vt 0.762215 0.743440
vt 0.754306 0.499592
vt 0.841803 0.506301
vt 0.861729 0.737641
vt 0.439378 0.231294
vt 0.454017 0.000000
vt 0.512603 0.925923
vt 0.376712 0.874394
vt 0.086187 0.240938
vt 0.134802 0.000000
vt 0.032440 0.513561
vt 0.024447 0.444026
vt 0.211994 0.471225
vt 0.400474 0.436398
vt 0.545289 0.458154
vt 0.760090 0.955597
vt 0.888530 0.948113
vt 0.734742 0.454099
vt 0.357935 0.467516
vt 0.762644 0.455607
vt 0.891301 0.455607
vt 0.754306 0.499591
vt 0.899639 0.499591
vt 0.211855 0.513380
vt 0.376712 0.509190
vt 0.540297 0.500023
vt 0.754306 0.495443
vt 0.754306 1.000000
vt 0.899393 0.991546
vt 0.376712 0.475448
vt 0.000000 0.482656
vt 0.119929 0.753085
vt 0.032249 0.753085
s 1
usemtl cloth
f 3/1/1 10/2/2 11/3/3
f 15/4/4 3/5/5 7/6/5 14/7/4
f 18/8/6 11/9/7 5/10/7 16/11/8
f 9/12/9 12/13/9 4/14/9 8/15/9
f 17/16/10 10/17/11 3/18/11 15/19/12
f 16/20/13 5/21/14 1/22/14 13/23/13
f 13/24/15 1/25/16 10/17/16 17/16/17
f 6/26/9 2/27/9 12/13/9 9/12/9
f 14/28/18 7/29/19 11/9/19 18/8/20
f 7/30/21 3/1/1 11/3/3
f 24/31/22 14/28/18 18/8/20 23/32/23
f 19/33/24 13/24/15 17/16/17 22/34/25
f 21/35/26 16/20/13 13/23/13 19/36/26
f 22/34/27 17/16/10 15/19/12 20/37/28
f 23/32/29 18/8/6 16/11/8 21/38/30
f 20/39/31 15/4/4 14/7/4 24/40/31
f 4/41/32 20/39/31 24/40/31 8/42/32
f 9/43/33 23/32/29 21/38/30 6/44/33
f 12/45/34 22/34/27 20/37/28 4/46/34
f 6/47/35 21/35/26 19/36/26 2/48/35
f 2/49/36 19/33/24 22/34/25 12/45/36
f 8/50/37 24/31/22 23/32/23 9/43/37
f 10/2/2 1/51/38 11/3/3
f 11/3/3 1/51/38 5/52/39
o leftLeg
v -3.415041 -0.003641 -0.118614
v -3.619664 3.442830 -0.029084
v -3.415041 -0.003641 -1.020411
v -3.360873 3.442830 -0.984754
v -2.008029 -0.003641 -0.028839
v -2.427978 3.442830 -0.029084
v -2.158224 -0.003641 -1.110186
v -2.427978 3.442830 -0.984754
v -3.358882 1.805186 -0.118614
v -3.358882 1.805186 -1.020411
v -2.457086 1.805186 -1.020411
v -2.457086 1.805186 -0.118614
vn -0.9560 -0.1381 -0.2589
vn -0.9792 -0.0958 -0.1789
vn -0.9989 -0.0094 -0.0455
vn -0.0139 0.0266 -0.9995
vn -0.0000 0.0218 -0.9998
vn -0.0000 0.0363 -0.9993
vn 0.9972 0.0749 -0.0000
vn 0.9998 -0.0178 -0.0000
vn 0.9961 0.0849 -0.0228
vn -0.0000 0.0009 1.0000
vn -0.0000 -0.0546 0.9985
vn -0.0129 -0.0141 0.9998
vn -0.0000 -1.0000 -0.0000
vn -0.0000 1.0000 -0.0000
vn -0.0446 0.0163 0.9989
vn 0.9633 0.2325 -0.1338
vn 0.9724 0.2130 -0.0954
vn -0.0499 0.0164 -0.9986
vn -0.9995 0.0310 -0.0000
vn -0.9999 0.0150 -0.0000
vn -0.0712 0.0022 -0.9975
vn -0.0637 0.0020 0.9980
vt 0.742768 0.393220
vt 0.853182 0.396349
vt 0.751385 0.579971
vt 0.606250 0.185829
vt 0.605711 0.000185
vt 0.711410 0.000000
vt 0.708425 0.185650
vt 0.287569 0.586294
vt 0.289589 0.402552
vt 0.397773 0.400653
vt 0.389655 0.584502
vt 0.320366 0.193014
vt 0.305963 0.007929
vt 0.440758 -0.000000
vt 0.422371 0.187014
vt 0.482404 0.953541
vt 0.472229 0.811101
vt 0.594783 0.794079
vt 0.584608 0.953541
vt 0.961492 0.314166
vt 0.961492 0.419895
vt 0.853182 0.449225
vt 0.853182 0.314166
vt 0.281390 0.400653
vt 0.404598 0.794079
vt 0.281390 0.794079
vt 0.742768 0.390780
vt 0.746367 0.784545
vt 0.853182 0.581867
vt 0.848165 0.786440
vt 0.600126 0.390780
vt 0.440758 0.391288
s 1
usemtl skin
f 26/53/40 28/54/41 33/55/42
f 34/56/43 28/57/44 32/58/44 35/59/45
f 35/60/46 32/61/47 30/62/47 36/63/48
f 36/64/49 30/65/50 26/66/50 33/67/51
f 27/68/52 31/69/52 29/70/52 25/71/52
f 32/72/53 28/73/53 26/74/53 30/75/53
f 29/76/54 36/64/49 33/67/51
f 29/77/55 31/78/56 36/63/48
f 35/59/45 31/79/57 34/56/43
f 25/80/58 33/55/42 34/81/59 27/82/58
f 31/78/56 35/60/46 36/63/48
f 34/56/43 31/79/57 27/83/60
f 29/76/54 33/67/51 25/84/61
f 28/54/41 34/81/59 33/55/42
o rightLeg
v -3.415041 -0.003641 0.118614
v -3.619664 3.442830 0.029084
v -3.415041 -0.003641 1.020411
v -3.360873 3.442830 0.984754
v -2.008029 -0.003641 0.028839
v -2.427978 3.442830 0.029084
v -2.158224 -0.003641 1.110186
v -2.427978 3.442830 0.984754
v -3.358882 1.805185 0.118614
v -3.358882 1.805185 1.020411
v -2.457086 1.805185 1.020411
v -2.457086 1.805185 0.118614
vn -0.9560 -0.1381 0.2589
vn -0.9989 -0.0094 0.0455
vn -0.9792 -0.0958 0.1789
vn -0.0139 0.0266 0.9995
vn -0.0000 0.0363 0.9993
vn -0.0000 0.0218 0.9998
vn 0.9972 0.0749 -0.0000
vn 0.9961 0.0849 0.0228
vn 0.9998 -0.0178 -0.0000
vn -0.0000 0.0009 -1.0000
vn -0.0129 -0.0141 -0.9998
vn -0.0000 -0.0546 -0.9985
vn -0.0000 -1.0000 -0.0000
vn -0.0000 1.0000 -0.0000
vn -0.0446 0.0163 -0.9989
vn 0.9633 0.2325 0.1338
vn 0.9724 0.2130 0.0954
vn -0.0499 0.0164 0.9986
vn -0.9995 0.0310 -0.0000
vn -0.9999 0.0150 -0.0000
vn -0.0712 0.0022 0.9975
vn -0.0637 0.0020 -0.9980
vt 0.853182 0.000000
vt 0.844565 0.186751
vt 0.742768 0.003129
vt 0.736644 0.576609
vt 0.634469 0.576430
vt 0.631484 0.390780
vt 0.737182 0.390965
vt 0.593947 0.586294
vt 0.491861 0.584503
vt 0.483743 0.400653
vt 0.591927 0.402552
vt 0.561149 0.193014
vt 0.459145 0.187014
vt 0.440758 -0.000000
vt 0.575553 0.007929
vt 0.965561 0.314166
vt 0.863357 0.314166
vt 0.853182 0.154704
vt 0.975736 0.171726
vt 0.853182 0.449225
vt 0.961492 0.449225
vt 0.961492 0.584284
vt 0.853182 0.554954
vt 0.600126 0.400653
vt 0.476918 0.794079
vt 0.600126 0.794079
vt 0.600126 0.781560
vt 0.849583 0.391325
vt 0.747786 0.393220
vt 0.742768 0.188647
vt 0.742768 0.781560
vt 0.440758 0.391288
s 1
usemtl skin
f 38/85/62 45/86/63 40/87/64
f 46/88/65 47/89/66 44/90/67 40/91/67
f 47/92/68 48/93/69 42/94/70 44/95/70
f 48/96/71 45/97/72 38/98/73 42/99/73
f 39/100/74 37/101/74 41/102/74 43/103/74
f 44/104/75 42/105/75 38/106/75 40/107/75
f 41/108/76 45/97/72 48/96/71
f 41/109/77 48/93/69 43/110/78
f 47/89/66 46/88/65 43/111/79
f 37/112/80 39/113/80 46/114/81 45/86/63
f 43/110/78 48/93/69 47/92/68
f 46/88/65 39/115/82 43/111/79
f 41/108/76 37/116/83 45/97/72
f 40/87/64 45/86/63 46/114/81
o leftSholder
v -3.402087 5.850023 -1.986396
v -3.168884 6.083209 -0.797905
v -3.402087 6.852611 -1.986396
v -3.168884 6.538307 -0.797905
v -2.402087 5.850023 -1.986396
v -2.635290 6.083209 -0.797905
v -2.402087 6.852611 -1.986396
v -2.635290 6.538307 -0.797905
v -3.567348 6.349892 -1.986396
v -3.257066 6.349936 -0.797905
v -2.236825 6.349892 -1.986396
v -2.547107 6.349936 -0.797905
v -2.902087 7.017891 -1.986396
v -2.902087 6.626499 -0.797905
v -2.902087 5.684781 -1.986396
v -2.902087 5.995037 -0.797905
v -2.902087 6.349946 -0.797905
v -2.902087 6.349910 -1.986396
v -3.332335 5.919771 -1.838303
v -3.332335 6.773313 -1.838303
v -2.471839 6.773313 -1.838303
v -2.471839 5.919771 -1.838303
v -2.329632 6.349906 -1.838303
v -3.474541 6.349906 -1.838303
v -2.902087 5.777581 -1.838303
v -2.902087 6.915535 -1.838303
vn -0.8724 0.3088 0.3788
vn -0.9157 0.3448 0.2066
vn -0.8688 0.3063 0.3892
vn 0.2849 0.8620 0.4192
vn 0.3035 0.9181 0.2551
vn 0.2847 0.8613 0.4209
vn 0.8822 -0.2917 0.3696
vn 0.9313 -0.3079 0.1947
vn 0.8801 -0.2910 0.3752
vn -0.2916 -0.8823 0.3696
vn -0.3078 -0.9313 0.1947
vn -0.2909 -0.8801 0.3752
vn -0.0000 -0.0000 -1.0000
vn -0.0000 -0.0000 1.0000
vn 0.8688 0.3063 0.3892
vn 0.9157 0.3448 0.2066
vn 0.8724 0.3088 0.3788
vn -0.8801 -0.2910 0.3752
vn -0.9313 -0.3079 0.1947
vn -0.8822 -0.2917 0.3696
vn 0.2909 -0.8801 0.3752
vn 0.3078 -0.9313 0.1947
vn 0.2916 -0.8823 0.3696
vn -0.2847 0.8613 0.4209
vn -0.3035 0.9181 0.2551
vn -0.2849 0.8620 0.4192
vn -0.2624 0.7938 0.5486
vn 0.2697 -0.8160 0.5113
vn -0.8159 -0.2698 0.5114
vn 0.8119 0.2696 0.5178
vn -0.2697 -0.8160 0.5113
vn 0.8159 -0.2698 0.5114
vn 0.2624 0.7938 0.5486
vn -0.8119 0.2696 0.5178
vt 0.799852 0.981376
vt 0.795963 0.981376
vt 0.795963 0.977486
vt 0.799852 0.977486
vt 0.799852 0.973598
vt 0.795963 0.973598
vt 0.795963 0.969709
vt 0.799852 0.969709
vt 0.799852 0.965820
vt 0.795963 0.965820
vt 0.795963 0.961932
vt 0.799852 0.961932
vt 0.799852 0.958044
vt 0.795963 0.958044
vt 0.795963 0.954155
vt 0.799852 0.954155
vt 0.803740 0.977486
vt 0.803740 0.973598
vt 0.815406 0.985263
vt 0.788186 0.965820
vt 0.795963 0.985263
vt 0.803740 0.969709
vt 0.799852 0.985263
vt 0.803740 0.965820
vt 0.803740 0.961932
vt 0.792075 0.965820
vt 0.803740 0.981376
vt 0.803740 0.985263
vt 0.803740 0.958044
vt 0.803740 0.954155
s 1
usemtl cloth
f 72/117/84 58/118/85 52/119/85 68/120/86
f 74/121/87 62/122/88 56/123/88 69/124/89
f 71/125/90 60/126/91 54/127/91 70/128/92
f 73/129/93 64/130/94 50/131/94 67/132/95
f 51/133/96 61/134/96 66/135/96
f 58/136/97 50/137/97 65/135/97
f 62/122/97 52/119/97 65/135/97
f 61/134/96 55/138/96 66/135/96
f 69/124/98 56/123/99 60/126/99 71/125/100
f 67/139/101 50/137/102 58/118/102 72/117/103
f 55/138/96 59/140/96 66/135/96
f 52/119/97 58/136/97 65/135/97
f 50/137/97 64/130/97 65/135/97
f 59/140/96 53/141/96 66/135/96
f 70/128/104 54/127/105 64/130/105 73/129/106
f 68/120/107 52/119/108 62/122/108 74/121/109
f 56/123/97 62/122/97 65/135/97
f 60/126/97 56/123/97 65/142/97
f 64/130/97 54/127/97 65/135/97
f 60/126/97 65/142/97 54/127/97
f 57/143/96 51/133/96 66/135/96
f 57/143/96 66/135/96 49/144/96
f 63/145/96 49/144/96 66/135/96
f 63/145/96 66/135/96 53/141/96
f 51/133/110 68/120/107 74/121/109 61/134/110
f 53/141/111 70/128/104 73/129/106 63/145/111
f 49/144/112 67/139/101 72/117/103 57/143/112
f 55/138/113 69/124/98 71/125/100 59/140/113
f 63/145/114 73/129/93 67/132/95 49/146/114
f 59/140/115 71/125/90 70/128/92 53/141/115
f 61/134/116 74/121/87 69/124/89 55/138/116
f 57/143/117 72/117/84 68/120/86 51/133/117
o leftArm
v -3.257207 6.115855 -3.996978
v -3.210807 6.050251 -1.362741
v -3.257207 6.470076 -3.996978
v -3.210807 6.667691 -1.362741
v -2.546966 6.115855 -3.845004
v -2.593367 6.050251 -1.362741
v -2.546966 6.470076 -3.845004
v -2.593367 6.667691 -1.362741
v -3.152093 6.089164 -2.637237
v -3.152093 6.589176 -2.637237
v -2.652081 6.589176 -2.637237
v -2.652081 6.089164 -2.637237
v -3.255130 6.115855 -4.651286
v -3.255130 6.470075 -4.651286
v -2.400079 6.115854 -4.389752
v -2.400079 6.470076 -4.389752
v -2.657728 6.495618 -4.718794
v -2.656762 6.115854 -4.719784
v -2.473523 6.115855 -4.226756
v -2.473523 6.467112 -4.226756
v -2.089719 6.146783 -3.726035
v -2.089719 6.439147 -3.726035
v -2.016276 6.146783 -4.041123
v -2.016276 6.439147 -4.041123
v -2.404527 6.115855 -5.249661
v -2.404527 6.349507 -5.249661
v -2.610706 6.350160 -5.321968
v -2.610706 6.115855 -5.321968
v -2.955946 6.115855 -4.685536
v -2.955946 6.486084 -4.685535
v -2.664684 6.350216 -5.490012
v -2.664684 6.115855 -5.490012
v -2.915914 6.115855 -5.455761
v -2.915914 6.350618 -5.455761
v -3.225421 6.115855 -5.380142
v -3.225421 6.349507 -5.380142
v -2.986072 6.115855 -5.414392
v -2.986072 6.350506 -5.414392
v -2.847408 6.496026 -3.909291
v -2.860655 6.763196 -1.362741
v -2.820268 6.614519 -2.637237
v -2.633734 6.115855 -5.020876
v -2.402303 6.115855 -4.819706
v -2.634217 6.422889 -5.020381
v -2.402303 6.409791 -4.819706
v -2.661206 6.422917 -5.104403
v -2.935930 6.418351 -5.070648
v -2.935930 6.115855 -5.070648
v -2.660723 6.115855 -5.104898
v -3.240276 6.409791 -5.015714
v -3.240276 6.115855 -5.015714
v -2.971009 6.418295 -5.049963
v -2.971009 6.115855 -5.049963
vn -0.9999 -0.0000 0.0146
vn -0.9989 -0.0000 -0.0460
vn -0.9999 -0.0000 0.0126
vn -0.1156 0.9892 -0.0906
vn -0.1737 0.9803 -0.0941
vn 0.0425 0.9947 -0.0932
vn 0.0424 0.9949 -0.0911
vn 0.9999 -0.0000 0.0170
vn 0.9989 -0.0000 -0.0460
vn 0.9998 -0.0000 0.0193
vn 0.0013 -0.9997 -0.0256
vn -0.0000 -0.9995 -0.0305
vn 0.0221 -0.9998 -0.0028
vn 0.0011 -1.0000 -0.0087
vn -0.0000 -1.0000 -0.0000
vn 0.0203 -0.9998 0.0043
vn -0.0000 -0.0000 1.0000
vn 0.9962 -0.0000 0.0867
vn 0.0142 0.9989 -0.0437
vn -0.0554 0.9976 -0.0405
vn -0.9993 -0.0000 0.0372
vn -0.9993 -0.0000 0.0381
vn -0.9992 -0.0000 -0.0407
vn 0.0857 0.9898 -0.1134
vn -0.9998 -0.0000 -0.0209
vn -0.9998 -0.0000 -0.0220
vn -0.2518 -0.0000 0.9678
vn -0.0515 0.9949 -0.0870
vn -0.0527 0.9956 -0.0773
vn 0.1038 0.9946 -0.0041
vn 0.0888 0.9959 0.0168
vn 0.0631 -0.9979 0.0133
vn 0.9117 -0.0000 0.4108
vn 0.9782 -0.0000 0.2076
vn 0.9763 -0.0000 0.2163
vn 0.9739 -0.0000 0.2270
vn 0.0558 0.9984 0.0130
vn 0.0602 0.9981 0.0096
vn 0.3762 -0.0000 -0.9266
vn 0.3309 -0.0000 -0.9437
vn -0.9970 -0.0014 -0.0768
vn -0.9970 -0.0015 -0.0768
vn -0.9970 -0.0008 -0.0769
vn 0.2308 0.9594 -0.1624
vn 0.1735 0.9682 -0.1801
vn 1.0000 -0.0000 -0.0052
vn -0.1351 -0.0000 -0.9908
vn -0.9987 -0.0000 -0.0519
vn 1.0000 0.0016 -0.0098
vn 1.0000 0.0015 -0.0098
vn 1.0000 0.0009 -0.0097
vn -0.1417 -0.0000 -0.9899
vn 0.9991 -0.0000 -0.0413
vn 0.0924 0.9954 -0.0241
vn -0.0575 0.9827 -0.1762
vn -0.0486 0.9844 -0.1693
vn 0.1926 0.9772 -0.0895
vn 0.2664 0.9599 -0.0875
vn -0.9970 -0.0019 -0.0768
vn 0.9999 0.0021 -0.0099
vn 0.1204 0.9741 -0.1912
vn 0.0829 0.9702 -0.2275
vn -0.0413 0.9824 -0.1821
vn -0.0356 0.9834 -0.1776
vn -0.0289 0.9835 -0.1785
vn -0.0222 0.9844 -0.1743
vn -0.0384 0.9845 -0.1709
vn -0.0276 0.9860 -0.1642
vt 0.500000 0.000000
vt 0.625000 0.000000
vt 0.625000 0.250000
vt 0.500000 0.250000
vt 0.625000 0.391775
vt 0.500000 0.415908
vt 0.500000 0.500000
vt 0.625000 0.500000
vt 0.625000 0.750000
vt 0.500000 0.750000
vt 0.625000 1.000000
vt 0.500000 1.000000
vt 0.375000 0.750000
vt 0.375000 1.000000
vt 0.375000 0.937500
vt 0.375000 0.875000
vt 0.733225 0.500000
vt 0.875000 0.500000
vt 0.875000 0.750000
vt 0.375000 0.500000
vt 0.375000 0.394246
vt 0.375000 0.250000
vt 0.375000 0.000000
vt 0.000000 0.000000
vt 0.187500 0.125000
vt 0.250000 0.750000
vt 0.250000 0.500000
vt 0.250000 0.750000
vt 0.250000 0.500000
vt 0.187500 0.750000
vt 0.187500 0.500000
vt 0.375000 0.937500
vt 0.125000 0.500000
vt 0.125000 0.750000
s 1
usemtl skin
f 83/147/118 76/148/119 78/149/119 84/150/120
f 84/150/121 78/149/122 114/151/123 115/152/124
f 85/153/125 82/154/126 80/155/126 86/156/127
f 86/156/128 80/155/129 76/157/129 83/158/128
f 79/159/130 75/160/131 87/160/132 103/161/132 92/162/132 89/159/132 93/159/133
f 82/154/134 114/163/134 78/164/134 76/165/134 80/155/134
f 79/159/130 86/156/128 83/158/128 75/160/131
f 81/166/135 85/153/125 86/156/127 79/159/135
f 84/150/121 115/152/124 113/167/136 77/168/137
f 75/169/138 83/147/118 84/150/120 77/168/139
f 125/169/140 124/168/140 110/168/140 109/169/140
f 113/167/136 91/170/141 77/168/137
f 75/169/138 77/168/139 88/168/142 87/169/143
f 81/166/144 79/159/144 95/159/144 96/166/144
f 91/170/141 104/171/145 88/168/146 77/168/137
f 117/159/132 116/162/132 102/162/132 99/159/132
f 90/166/147 91/170/141 94/166/148
f 79/159/130 93/159/133 97/159/149 95/159/149
f 94/166/150 93/159/150 89/159/151 90/166/152
f 96/166/153 95/159/153 97/159/153 98/166/153
f 98/166/154 94/166/148 96/166/155
f 93/159/156 94/166/156 98/166/156 97/159/156
f 102/172/157 101/173/157 100/166/157 99/159/157
f 116/174/158 118/175/159 101/173/160 102/172/160
f 119/166/161 118/175/162 91/173/141
f 119/166/163 117/159/163 99/159/163 100/166/163
f 107/176/164 108/177/164 105/173/164 106/172/164
f 123/162/132 122/178/132 107/161/132 106/162/132
f 122/176/165 121/177/165 108/177/165 107/176/165
f 120/173/166 123/172/167 106/172/168 105/173/168
f 110/179/169 112/177/169 111/176/169 109/180/169
f 126/177/170 127/176/170 111/176/170 112/177/170
f 127/161/132 125/160/132 109/160/132 111/161/132
f 91/170/141 81/166/171 94/166/148
f 81/166/171 96/166/155 94/166/148
f 91/173/141 90/166/147 119/166/161
f 88/168/146 104/177/145 126/177/172
f 126/177/172 124/168/173 88/168/146
f 85/153/174 81/166/171 113/167/136 115/152/124
f 81/166/171 91/170/141 113/167/136
f 115/152/124 114/151/123 82/154/175 85/153/174
f 90/166/152 89/159/151 117/159/163 119/166/163
f 92/172/176 91/173/176 118/175/159 116/174/158
f 89/159/132 92/162/132 116/162/132 117/159/132
f 91/173/177 92/172/177 123/172/167 120/173/166
f 103/176/165 104/177/165 121/177/165 122/176/165
f 92/162/132 103/161/132 122/178/132 123/162/132
f 103/161/132 87/160/132 125/160/132 127/161/132
f 104/177/170 103/176/170 127/176/170 126/177/170
f 87/169/143 88/168/142 124/168/140 125/169/140
f 119/166/161 100/166/178 118/175/162
f 101/173/179 118/175/162 100/166/178
f 104/171/145 91/173/141 120/173/180
f 104/171/145 120/173/180 121/177/181
f 120/173/180 105/173/182 121/177/181
f 108/177/183 121/177/181 105/173/182
f 112/177/184 124/168/173 126/177/172
f 110/168/185 124/168/173 112/177/184
o neck
v -3.139256 5.669138 0.237169
v -3.050971 6.712556 0.148884
v -3.139256 5.669138 -0.237169
v -3.050971 6.712556 -0.148884
v -2.664917 5.669138 0.237169
v -2.753202 6.712556 0.148884
v -2.664917 5.669138 -0.237169
v -2.753202 6.712556 -0.148884
v -2.902086 5.669138 -0.346210
v -2.902086 6.712556 -0.217336
v -2.902086 5.669138 0.346210
v -2.902086 6.712556 0.217336
v -3.248297 5.669138 0.000000
v -3.119422 6.712556 -0.000000
v -2.555876 5.669138 0.000000
v -2.684751 6.712556 -0.000000
v -2.902086 6.712556 -0.000000
v -2.902086 5.669138 0.000000
vn -0.5702 -0.5915 0.5702
vn -0.5180 0.6807 0.5180
vn -0.5702 -0.5915 -0.5702
vn -0.5180 0.6807 -0.5180
vn 0.5702 -0.5915 0.5702
vn 0.5180 0.6807 0.5180
vn 0.5702 -0.5915 -0.5702
vn 0.5180 0.6807 -0.5180
vn -0.0000 -0.5774 -0.8165
vn -0.0000 0.6697 -0.7426
vn -0.0000 -0.5774 0.8165
vn -0.0000 0.6697 0.7426
vn -0.8165 -0.5774 -0.0000
vn -0.7426 0.6697 -0.0000
vn 0.8165 -0.5774 -0.0000
vn 0.7426 0.6697 -0.0000
vn -0.0000 1.0000 -0.0000
vn -0.0000 -1.0000 -0.0000
vt 0.935967 0.905085
vt 0.946970 0.786440
vt 0.965526 0.787206
vt 0.965526 0.906304
vt 0.000000 0.998780
vt 0.011003 0.880136
vt 0.029559 0.880901
vt 0.029559 1.000000
vt 0.905267 0.702928
vt 0.916270 0.584284
vt 0.934826 0.585050
vt 0.934826 0.704148
vt 0.853182 0.702928
vt 0.864185 0.584284
vt 0.882741 0.585050
vt 0.882741 0.704148
vt 0.905223 0.775448
vt 0.875638 0.775448
vt 0.888832 0.739798
vt 0.654368 0.981023
vt 0.640271 0.968932
vt 0.662651 0.958643
vt 0.672940 0.981023
vt 0.853182 0.756189
vt 0.948967 0.584284
vt 0.957352 0.702928
vt 0.979667 0.786440
vt 0.988052 0.905085
vt 0.853182 0.726605
vt 0.685030 0.966926
vt 0.685030 0.948354
vt 0.872442 0.704148
vt 0.043700 0.880136
vt 0.052085 0.998780
vt 0.896882 0.584284
vt 0.905267 0.702928
vt 0.640271 0.950361
vt 0.652361 0.936264
vt 0.670933 0.936264
vt 0.924482 0.752992
vt 0.924482 0.723408
vt 0.902026 0.704148
s 1
usemtl skin
f 140/181/198 141/182/199 131/183/189 130/184/188
f 136/185/194 137/186/195 135/187/193 134/188/192
f 142/189/200 143/190/201 133/191/191 132/192/190
f 138/193/196 139/194/197 129/195/187 128/196/186
f 140/197/198 130/198/188 145/199/203
f 135/200/193 137/201/195 144/202/202
f 143/203/201 135/200/193 144/202/202
f 130/198/188 136/204/194 145/199/203
f 132/192/190 133/191/191 139/205/197 138/206/196
f 130/184/188 131/183/189 137/207/195 136/208/194
f 136/204/194 134/209/192 145/199/203
f 143/203/201 144/202/202 133/210/191
f 139/211/197 133/210/191 144/202/202
f 134/209/192 142/212/200 145/199/203
f 134/188/192 135/187/193 143/213/201 142/214/200
f 128/196/186 129/195/187 141/215/199 140/216/198
f 137/201/195 131/217/189 144/202/202
f 131/217/189 141/218/199 144/202/202
f 141/218/199 129/219/187 144/202/202
f 139/211/197 144/202/202 129/219/187
f 140/197/198 145/199/203 128/220/186
f 138/221/196 128/220/186 145/199/203
f 138/221/196 145/199/203 132/222/190
f 142/212/200 132/222/190 145/199/203
o head
v -3.445016 6.862438 -0.783288
v -3.382237 8.208757 -0.852251
v -2.206903 6.839924 -0.921197
v -2.315788 8.208757 -0.852251
v -3.687527 6.649987 -0.000000
v -3.716868 8.376290 -0.000000
v -2.025365 6.591291 -0.000000
v -2.033141 8.399386 -0.000000
v -3.408450 7.441263 -0.969130
v -2.261497 7.441263 -0.969130
v -1.720554 7.286401 -0.000000
v -3.835484 7.487292 -0.000000
v -1.894974 7.515226 -0.000000
v -3.445016 6.862438 0.783288
v -3.382237 8.208757 0.852251
v -2.206903 6.839924 0.921197
v -2.315788 8.208757 0.852251
v -3.408450 7.441263 0.969130
v -2.261497 7.441263 0.969130
vn -0.9240 -0.0025 -0.3823
vn -0.9127 0.1076 -0.3943
vn -0.9240 -0.0023 -0.3824
vn -0.0306 -0.0277 -0.9991
vn -0.0000 0.1506 -0.9886
vn -0.0312 -0.0314 -0.9990
vn -0.0082 0.9785 -0.2059
vn -0.0084 1.0000 -0.0000
vn -0.0395 -0.9642 -0.2622
vn 0.9126 0.1939 -0.3599
vn 0.8600 0.3733 -0.3478
vn 0.7513 0.5727 -0.3279
vn 0.9005 -0.1161 -0.4191
vn 0.9015 -0.2425 -0.3584
vn 0.8798 -0.3858 -0.2775
vn -0.0585 -0.1948 -0.9791
vn -0.9235 -0.1204 -0.3643
vn 0.9272 0.1314 -0.3509
vn 0.8752 0.0410 -0.4820
vn 0.9290 0.1452 -0.3406
vn -0.9240 -0.0025 0.3823
vn -0.9240 -0.0023 0.3824
vn -0.9127 0.1076 0.3943
vn -0.0306 -0.0277 0.9991
vn -0.0312 -0.0314 0.9990
vn -0.0000 0.1506 0.9886
vn -0.0082 0.9785 0.2059
vn -0.0395 -0.9642 0.2622
vn 0.9126 0.1939 0.3599
vn 0.7513 0.5727 0.3279
vn 0.8600 0.3733 0.3478
vn 0.9005 -0.1161 0.4191
vn 0.8798 -0.3858 0.2775
vn 0.9015 -0.2425 0.3584
vn -0.0585 -0.1948 0.9791
vn -0.9235 -0.1204 0.3643
vn 0.9272 0.1314 0.3509
vn 0.8752 0.0410 0.4820
vn 0.9290 0.1452 0.3406
vt 0.603223 0.186490
vt 0.620386 0.018192
vt 0.739484 0.069533
vt 0.739484 0.217250
vt 0.129164 0.751804
vt 0.274654 0.753757
vt 0.277822 0.956483
vt 0.132571 0.969834
vt 0.727049 0.432875
vt 0.727049 0.635708
vt 0.564950 0.699085
vt 0.564950 0.378812
vt 0.366465 0.455487
vt 0.366465 0.692412
vt 0.188295 0.709224
vt 0.223318 0.394831
vt 0.370058 0.188805
vt 0.209473 0.201061
vt 0.209473 0.163144
vt 0.362116 0.089163
vt 0.209473 0.047965
vt 0.018193 0.745610
vt 0.018193 0.981807
vt 0.568374 0.342427
vt 0.693106 0.321374
vt 0.350691 0.315979
vt 0.209473 0.347566
vt 0.402850 0.164567
vt 0.443449 0.023204
vt 0.462866 0.751804
vt 0.459459 0.969834
vt 0.314208 0.956483
vt 0.317376 0.753757
vt 0.402850 0.432875
vt 0.402850 0.635708
vt 0.070331 0.422498
vt 0.018193 0.653616
vt 0.048889 0.188805
vt 0.056831 0.089163
vt 0.573837 0.745610
vt 0.573837 0.981807
vt 0.421026 0.278794
vt 0.068256 0.315979
s 1
usemtl face
f 157/223/204 151/224/205 147/225/205 154/226/206
f 154/227/207 147/228/208 149/229/208 155/230/209
f 149/231/210 147/232/210 151/233/211 153/234/211
f 146/235/212 148/236/212 152/237/212 150/238/212
f 155/239/213 158/240/214 156/241/215
f 148/242/216 156/241/217 152/243/218
f 146/244/219 154/227/207 155/230/209 148/245/219
f 150/246/220 157/223/204 154/226/206 146/247/220
f 155/239/213 149/248/221 158/240/214
f 148/242/216 155/239/222 156/241/217
f 153/249/223 158/240/214 149/248/221
f 157/223/224 163/250/225 160/251/226 151/224/226
f 163/252/227 164/253/228 162/254/229 160/255/229
f 162/256/230 153/234/211 151/233/211 160/257/230
f 159/258/231 150/238/231 152/237/231 161/259/231
f 164/260/232 156/241/233 158/240/234
f 161/261/235 152/243/236 156/241/237
f 159/262/238 161/263/238 164/253/228 163/252/227
f 150/246/239 159/264/239 163/250/225 157/223/224
f 164/260/232 158/240/234 162/265/240
f 161/261/235 156/241/237 164/260/241
f 153/249/242 162/265/240 158/240/234
o backHair.001
v -3.477815 7.180030 0.458270
v -3.688535 8.970410 -0.136622
v -3.049130 7.127317 -0.231069
v -3.551851 8.953603 -0.356414
v -2.829252 7.491609 0.837771
v -3.381564 8.909803 0.102367
v -2.400567 7.438896 0.148433
v -3.206068 8.888224 -0.179835
v -3.243597 8.632406 0.350292
v -3.699513 8.413377 0.083516
v -3.398163 8.376322 -0.401064
v -2.942246 8.595350 -0.134288
v -3.330561 9.300013 -0.092249
v -2.724848 7.283107 -0.041318
v -3.153533 7.335820 0.648020
v -3.557867 8.942912 0.019564
v -3.351041 8.917480 -0.313018
v -3.484669 8.524505 0.237993
v -3.151989 8.483596 -0.296967
v -2.705781 6.705951 -1.547722
v -3.079971 6.620070 -0.000000
v -3.722580 6.487219 -1.883515
v -3.475089 8.463633 -0.713984
v -2.719590 8.592643 -0.000000
v -2.698757 8.490755 -0.962406
v -2.403837 6.911101 -1.381615
v -2.011395 8.473907 -0.853097
v -3.719590 6.620070 -0.000000
v -3.769879 8.476206 -0.000000
v -2.772429 7.167006 -0.000000
v -1.849422 8.484731 -0.000000
v -3.716947 8.095553 -1.051944
v -2.228376 8.088357 -1.175805
v -2.707158 8.011323 -1.302092
v -2.148882 7.620070 -0.000000
v -4.016147 8.150208 -0.000000
v -3.556787 6.965014 -1.288906
v -2.277284 7.130379 -1.301113
v -2.707158 7.101860 -1.397174
v -2.174911 7.120070 -0.000000
v -3.886683 7.120070 -0.000000
v -3.918176 7.071105 -1.651371
v -2.252830 7.493196 -1.242214
v -2.707158 7.440420 -1.330083
v -2.161896 7.370070 -0.000000
v -3.898648 7.441124 -0.000000
v -3.788680 7.417975 -1.280403
v -2.240603 7.674605 -1.191651
v -2.707158 7.609699 -1.287076
v -2.155389 7.495070 -0.000000
v -4.023869 7.689840 -0.000000
v -3.418974 7.085958 -1.444216
v -3.622484 8.599236 -0.460431
v -2.255643 7.078646 -0.757136
v -2.835926 6.784781 -0.573628
v -3.753681 6.675689 -0.854768
v -2.715390 8.723665 -0.531303
v -1.930409 8.608635 -0.395708
v -2.188629 7.738041 -0.490991
v -3.866547 8.131948 -0.585686
v -3.721735 7.054103 -0.769979
v -2.226097 7.125224 -0.506103
v -4.001141 7.213417 -0.977126
v -2.207363 7.431633 -0.498547
v -3.906274 7.626256 -0.768623
v -2.197996 7.584837 -0.494769
v -2.775814 6.785174 -0.308377
v -3.995497 6.309702 -0.817839
v -2.717490 8.654306 -0.229982
v -2.168756 7.679056 -0.245495
v -2.200504 7.122647 -0.253052
v -2.184630 7.400851 -0.249274
v -2.176692 7.539953 -0.247384
v -3.696182 8.538457 -0.180120
v -2.220079 7.111932 -0.431871
v -3.941347 8.136544 -0.231330
v -3.804209 7.081306 -0.250000
v -4.378736 7.015343 -0.576947
v -3.929267 7.618817 -0.366603
v -2.705781 6.705951 1.547722
v -3.722580 6.487219 1.883515
v -3.475089 8.463633 0.713984
v -2.698757 8.490755 0.962406
v -2.403837 6.911101 1.381615
v -2.011395 8.473907 0.853097
v -3.716947 8.095553 1.051944
v -2.228376 8.088357 1.175805
v -2.707158 8.011323 1.302092
v -3.556787 6.965014 1.288906
v -2.277284 7.130379 1.301113
v -2.707158 7.101860 1.397174
v -3.918176 7.071105 1.651371
v -2.252830 7.493196 1.242214
v -2.707158 7.440420 1.330083
v -3.788680 7.417975 1.280403
v -2.240603 7.674605 1.191651
v -2.707158 7.609699 1.287076
v -3.418974 7.085958 1.444216
v -3.622484 8.599236 0.460431
v -2.255643 7.078646 0.757136
v -2.835926 6.784781 0.573628
v -3.753681 6.675689 0.854768
v -2.715390 8.723665 0.531303
v -1.930409 8.608635 0.395708
v -2.188629 7.738041 0.490991
v -3.866547 8.131948 0.585686
v -3.721735 7.054103 0.769979
v -2.226097 7.125224 0.506103
v -4.001141 7.213417 0.977126
v -2.207363 7.431633 0.498547
v -3.906274 7.626256 0.768623
v -2.197996 7.584837 0.494769
v -2.775814 6.785174 0.308377
v -3.995497 6.309702 0.817839
v -2.717490 8.654306 0.229982
v -2.168756 7.679056 0.245495
v -2.200504 7.122647 0.253052
v -2.184630 7.400851 0.249273
v -2.176692 7.539953 0.247384
v -3.696182 8.538457 0.180120
v -2.220079 7.111932 0.431871
v -3.941347 8.136544 0.231330
v -3.804209 7.081306 0.250000
v -4.378736 7.015343 0.576947
v -3.929267 7.618817 0.366603
v -2.260103 7.634635 -1.054552
v -2.090339 8.369671 -0.817947
v -1.883514 7.452072 -1.020634
v -1.879889 8.310217 -0.757090
v -2.835147 7.750021 -0.000000
v -2.370247 8.445615 -0.000000
v -1.776870 8.085912 -0.000000
v -1.961223 8.478106 -0.000000
v -2.671391 7.391830 0.988923
v -2.394542 8.471619 0.796943
v -1.967585 7.187334 1.054926
v -1.852622 8.236510 0.891147
v -2.370247 8.498149 -0.352456
v -1.807696 7.917039 -0.390728
v -2.835147 7.750021 -0.500000
v -1.996874 8.419209 -0.373941
v -2.370247 8.522452 0.500000
v -1.749256 7.912043 0.491401
v -2.835147 7.750021 0.500000
v -1.931655 8.474596 0.500000
v -2.194196 8.179032 -0.949936
v -1.851502 7.880528 -0.957929
v -1.800974 8.289879 -0.000000
v -2.602697 8.097817 -0.000000
v -2.602697 8.174656 1.000000
v -1.877452 7.611784 1.070636
v -1.750820 8.208946 -0.443199
v -2.602697 8.124084 -0.426228
v -1.745690 8.235992 0.509625
v -2.602697 8.136237 0.500000
v -2.745825 7.237067 0.636233
v -1.784037 6.936933 0.525174
v -1.946278 7.313136 0.694513
v -2.854023 7.310669 0.519600
vn -0.8409 -0.1845 -0.5088
vn 0.5696 0.2979 -0.7660
vn 0.6637 0.6542 0.3627
vn -0.6794 0.2644 0.6845
vn 0.2943 -0.9215 0.2535
vn 0.2665 0.4710 -0.8409
vn -0.5868 0.6936 -0.4179
vn 0.8450 0.1461 0.5143
vn -0.5783 0.1290 0.8056
vn -0.5860 0.5572 0.5883
vn 0.7665 0.4669 0.4410
vn 0.5401 0.0299 -0.8411
vn -0.8211 -0.2959 -0.4880
vn 0.4609 -0.0082 -0.8874
vn -0.5212 0.1564 0.8390
vn -0.4459 0.4010 0.8002
vn 0.2922 0.1287 -0.9477
vn 0.6721 0.3428 -0.6563
vn -0.3065 0.4566 0.8352
vn -0.6627 0.6191 -0.4214
vn 0.1323 0.5807 -0.8033
vn 0.1118 0.9604 0.2552
vn -0.1296 0.2007 -0.9711
vn 0.2120 -0.9686 0.1302
vn -0.1859 0.6465 -0.7399
vn -0.1030 0.9573 0.2702
vn 0.6004 -0.5057 0.6195
vn 0.9348 -0.2891 -0.2062
vn 0.9941 -0.0537 -0.0944
vn 0.2287 -0.0024 -0.9735
vn -0.9331 0.1933 -0.3033
vn 0.2624 0.3438 -0.9016
vn -0.0660 -0.9975 0.0257
vn -0.0319 0.6521 -0.7575
vn -0.4422 -0.8932 0.0813
vn 0.1860 0.1674 -0.9682
vn 0.9936 -0.0536 -0.0992
vn 0.2205 -0.8547 -0.4700
vn -0.6133 0.6723 -0.4145
vn 0.1583 0.2494 -0.9554
vn 0.9939 -0.0537 -0.0963
vn -0.0486 0.6323 -0.7732
vn 0.3542 -0.4468 -0.8215
vn 0.0566 -0.8114 -0.5817
vn 0.0604 0.1940 -0.9791
vn 0.9963 -0.0535 -0.0665
vn -0.8014 0.5374 -0.2625
vn 0.9962 -0.0578 -0.0651
vn 0.0051 -0.9836 -0.1801
vn 0.8987 -0.4319 -0.0768
vn -0.8870 0.3459 -0.3061
vn -0.9896 0.0664 -0.1277
vn 0.9969 -0.0355 -0.0707
vn 0.9399 -0.3034 -0.1566
vn 0.4902 -0.8622 0.1274
vn -0.1710 0.8499 -0.4984
vn 0.1216 -0.9825 0.1409
vn 0.1460 0.9103 -0.3873
vn -0.8475 0.5081 -0.1533
vn -0.8005 0.5562 -0.2232
vn -0.9603 0.0340 -0.2769
vn -0.9772 -0.0708 0.2002
vn -0.5755 -0.5631 0.5930
vn -0.9282 0.2984 0.2221
vn 0.9937 -0.0569 -0.0968
vn 0.9934 -0.0569 -0.0994
vn 0.9895 -0.1052 -0.0991
vn 0.9938 -0.0570 -0.0950
vn 0.4737 -0.8803 -0.0265
vn -0.1109 0.9728 0.2032
vn 0.4090 -0.6935 -0.5931
vn 0.1970 0.2357 -0.9517
vn -0.9944 0.0946 -0.0474
vn -0.6865 0.6482 -0.3295
vn -0.9351 0.3056 -0.1796
vn -0.6627 0.6191 0.4214
vn 0.1323 0.5807 0.8033
vn 0.1118 0.9604 -0.2552
vn -0.1296 0.2007 0.9711
vn 0.2120 -0.9686 -0.1302
vn -0.1859 0.6465 0.7399
vn -0.1030 0.9573 -0.2702
vn 0.6004 -0.5057 -0.6195
vn 0.9348 -0.2891 0.2062
vn 0.9941 -0.0537 0.0944
vn 0.2287 -0.0024 0.9735
vn -0.9331 0.1933 0.3033
vn 0.2624 0.3438 0.9016
vn -0.0660 -0.9975 -0.0257
vn -0.0319 0.6521 0.7575
vn -0.4422 -0.8932 -0.0813
vn 0.1860 0.1674 0.9682
vn 0.9936 -0.0536 0.0992
vn 0.2205 -0.8547 0.4700
vn -0.6133 0.6723 0.4145
vn 0.1583 0.2494 0.9554
vn 0.9939 -0.0537 0.0963
vn -0.0486 0.6323 0.7732
vn 0.3542 -0.4468 0.8215
vn 0.0566 -0.8114 0.5817
vn 0.0604 0.1940 0.9791
vn 0.9963 -0.0535 0.0665
vn -0.8014 0.5374 0.2625
vn 0.9962 -0.0578 0.0651
vn 0.0051 -0.9836 0.1801
vn 0.8987 -0.4319 0.0768
vn -0.8870 0.3459 0.3061
vn -0.9896 0.0664 0.1277
vn 0.9969 -0.0355 0.0707
vn 0.9399 -0.3034 0.1566
vn 0.4902 -0.8622 -0.1274
vn -0.1710 0.8499 0.4984
vn 0.1216 -0.9825 -0.1409
vn 0.1460 0.9103 0.3873
vn -0.8475 0.5081 0.1533
vn -0.8005 0.5562 0.2232
vn -0.9603 0.0340 0.2769
vn -0.9772 -0.0708 -0.2002
vn -0.5755 -0.5631 -0.5930
vn -0.9282 0.2984 -0.2221
vn 0.9937 -0.0569 0.0968
vn 0.9934 -0.0569 0.0994
vn 0.9895 -0.1052 0.0991
vn 0.9938 -0.0570 0.0950
vn 0.4737 -0.8803 0.0265
vn -0.1109 0.9728 -0.2032
vn 0.4090 -0.6935 0.5931
vn 0.1970 0.2357 0.9517
vn -0.9944 0.0946 0.0474
vn -0.6865 0.6482 0.3295
vn -0.9351 0.3056 0.1796
vn -0.6536 0.5705 -0.4973
vn 0.3562 0.3929 -0.8478
vn 0.0589 0.9982 -0.0116
vn 0.2222 -0.9593 0.1742
vn 0.6862 0.7189 -0.1108
vn -0.8426 0.5383 -0.0173
vn 0.0799 0.5239 0.8480
vn 0.0181 0.9971 -0.0737
vn 0.2221 -0.9593 -0.1744
vn 0.7766 0.6293 -0.0295
vn 0.6463 0.7628 -0.0197
vn -0.0530 -0.9054 0.4213
vn 0.1963 0.9691 -0.1494
vn -0.8420 0.5367 0.0543
vn 0.7663 0.6059 0.2139
vn -0.2593 -0.8895 0.3763
vn 0.1068 0.9785 0.1763
vn -0.8432 0.5341 -0.0616
vn -0.8446 0.5350 -0.0206
vn 0.9785 -0.0223 0.2050
vn -0.8413 0.5403 0.0153
vn 0.9775 -0.2017 -0.0625
vn 0.9965 0.0413 -0.0731
vn -0.1009 -0.0052 0.9949
vn -0.9421 0.2405 0.2338
vn 0.9972 -0.0615 0.0415
vn 0.1385 0.1543 -0.9783
vn -0.6832 0.3468 -0.6426
vn 0.9264 0.2079 -0.3139
vn 0.9622 0.0392 0.2696
vn 0.9719 -0.2103 0.1061
vn -0.0980 -0.0160 0.9951
vn 0.0576 0.1503 -0.9870
vn -0.9264 -0.0627 0.3713
vn 0.0996 -0.2285 -0.9684
vn 0.9421 -0.3301 -0.0595
vn 0.9304 0.3254 0.1686
vn 0.9953 -0.0637 -0.0728
vn 0.3132 0.9343 -0.1702
vn 0.3429 0.4163 -0.8421
vn 0.1164 0.2700 0.9558
vn 0.2866 0.8430 0.4552
vt 0.500000 0.000000
vt 0.625000 0.000000
vt 0.625000 0.250000
vt 0.500000 0.250000
vt 0.500000 0.375000
vt 0.625000 0.375000
vt 0.625000 0.500000
vt 0.500000 0.500000
vt 0.625000 0.750000
vt 0.500000 0.750000
vt 0.500000 0.875000
vt 0.625000 0.875000
vt 0.625000 1.000000
vt 0.500000 1.000000
vt 0.250000 0.500000
vt 0.375000 0.500000
vt 0.375000 0.750000
vt 0.250000 0.750000
vt 0.000000 0.000000
vt 0.375000 0.875000
vt 0.375000 1.000000
vt 0.375000 0.375000
vt 0.375000 0.000000
vt 0.375000 0.250000
vt 0.125000 0.500000
vt 0.125000 0.750000
vt 0.500000 0.187500
vt 0.625000 0.187500
vt 0.500000 0.375000
vt 0.750000 0.625000
vt 0.625000 0.625000
vt 0.625000 0.562500
vt 0.750000 0.562500
vt 0.750000 0.593750
vt 0.484375 0.250000
vt 0.484375 0.375000
vt 0.125000 0.593750
vt 0.250000 0.593750
vt 0.250000 0.625000
vt 0.125000 0.625000
vt 0.875000 0.593750
vt 0.875000 0.625000
vt 0.375000 0.593750
vt 0.375000 0.625000
vt 0.500000 0.562500
vt 0.484375 0.593750
vt 0.500000 0.593750
vt 0.500000 0.625000
vt 0.484375 0.625000
vt 0.484375 0.500000
vt 0.484375 0.187500
vt 0.437500 0.375000
vt 0.437500 0.593750
vt 0.437500 0.625000
vt 0.437500 0.250000
vt 0.437500 0.187500
vt 0.468750 0.187500
vt 0.468750 0.250000
vt 0.468750 0.375000
vt 0.468750 0.500000
vt 0.437500 0.500000
vt 0.468750 0.593750
vt 0.468750 0.625000
vt 0.484375 0.562500
vt 0.468750 0.562500
vt 0.468750 0.156250
vt 0.484375 0.156250
vt 0.437500 0.562500
vt 0.437500 0.156250
vt 0.375000 0.562500
vt 0.375000 0.156250
vt 0.375000 0.187500
vt 0.500000 0.156250
vt 0.250000 0.562500
vt 0.750000 0.500000
vt 0.875000 0.500000
vt 0.875000 0.562500
vt 0.125000 0.562500
vt 0.625000 0.156250
vt 0.500000 0.125000
vt 0.625000 0.125000
vt 0.484375 0.125000
vt 0.375000 0.125000
vt 0.437500 0.125000
vt 0.468750 0.125000
vt 0.500000 0.187500
vt 0.500000 0.250000
vt 0.500000 0.625000
vt 0.500000 0.187500
vt 0.500000 0.250000
vt 0.500000 0.500000
s 0
usemtl hair
f 174/266/243 166/267/243 168/268/243 175/269/243
f 183/270/244 181/271/244 172/272/244 176/273/244
f 176/273/245 172/272/245 170/274/245 173/275/245
f 182/276/246 180/277/246 166/278/246 174/279/246
f 178/280/247 171/281/247 169/282/247 179/283/247
f 168/268/248 177/284/248 181/271/248
f 177/284/249 168/268/249 166/284/249
f 177/284/250 170/284/250 172/272/250
f 179/285/251 182/276/251 174/279/251 165/286/251
f 166/284/252 180/277/252 177/284/252
f 171/281/253 176/273/253 173/275/253 169/282/253
f 178/287/254 183/270/254 176/273/254 171/281/254
f 165/288/255 174/266/255 175/269/255 167/289/255
f 167/289/256 175/269/256 183/270/256 178/287/256
f 169/282/257 173/275/257 182/276/257 179/285/257
f 167/290/247 178/280/247 179/283/247 165/291/247
f 173/275/258 170/274/258 180/277/258 182/276/258
f 175/269/259 168/268/259 181/271/259 183/270/259
f 172/272/260 181/271/260 177/284/260
f 177/284/261 180/277/261 170/274/261
f 224/292/262 217/293/262 187/268/262 196/269/262
f 198/294/263 189/271/263 191/272/263 197/273/263
f 188/295/264 195/296/264 222/297/264 221/298/264 233/299/264
f 211/300/265 196/269/265 198/294/265 213/301/265
f 232/302/266 231/303/266 185/304/266 192/305/266
f 196/269/267 187/268/267 189/271/267 198/294/267
f 233/299/268 238/306/268 193/307/268 188/295/268
f 231/303/269 239/308/269 194/309/269 185/304/269
f 195/296/270 199/284/270 223/310/270 222/297/270
f 237/311/271 234/312/271 199/313/271 214/314/271
f 213/301/272 198/294/272 197/273/272 212/315/272
f 229/316/273 224/292/273 196/269/273 211/300/273
f 184/287/274 203/317/274 190/281/274
f 239/308/275 235/318/275 204/319/275 194/309/275
f 186/289/276 201/320/276 203/317/276 184/287/276
f 225/321/277 227/322/277 206/323/277 201/320/277
f 203/317/278 208/324/278 207/325/278 202/326/278
f 235/318/279 236/327/279 209/328/279 204/319/279
f 201/320/280 206/323/280 216/284/280
f 211/300/281 206/323/281 229/316/281
f 208/324/282 213/301/282 212/315/282 207/325/282
f 236/327/283 237/311/283 214/314/283 209/328/283
f 206/323/284 211/300/284 213/301/284 208/324/284
f 208/324/285 216/284/285 206/323/285
f 203/317/286 201/320/286 216/284/286
f 203/317/287 216/284/287 208/324/287
f 207/325/288 212/315/288 230/329/288 228/330/288
f 242/331/289 243/332/289 229/316/289 227/322/289
f 202/326/290 207/325/290 228/330/290 226/333/290
f 241/334/291 242/331/291 227/322/291 225/321/291
f 190/281/292 202/326/292 226/333/292 218/335/292
f 232/336/293 241/334/293 225/321/293 220/337/293
f 243/332/294 240/338/294 224/292/294 229/316/294
f 212/315/295 197/273/295 223/310/295 230/329/295
f 197/273/296 191/272/296 222/297/296 223/310/296
f 184/280/297 190/281/297 218/335/297 219/339/297
f 189/340/298 187/341/298 217/342/298 221/298/298
f 186/290/299 184/280/299 219/339/299 220/343/299
f 191/272/300 189/340/300 221/298/300 222/297/300
f 240/338/301 238/344/301 217/293/301 224/292/301
f 200/345/302 193/346/302 238/344/302 240/338/302
f 215/347/303 200/345/303 240/338/303 243/332/303
f 192/348/304 205/349/304 241/334/304 232/336/304
f 205/349/305 210/350/305 242/331/305 241/334/305
f 210/350/306 215/347/306 243/332/306 242/331/306
f 228/330/307 230/329/307 237/311/307 236/327/307
f 226/333/308 228/330/308 236/327/308 235/318/308
f 218/335/309 226/333/309 235/318/309 239/308/309
f 230/329/310 223/310/310 234/312/310 237/311/310
f 219/339/311 218/335/311 239/308/311 231/303/311
f 221/298/312 217/342/312 238/306/312 233/299/312
f 220/343/313 219/339/313 231/303/313 232/302/313
f 202/326/314 190/281/314 203/317/314
f 220/337/315 225/321/315 186/290/315
f 201/320/316 186/290/316 225/321/316
f 227/322/317 229/316/317 206/323/317
f 270/292/318 250/269/318 246/268/318 263/293/318
f 252/294/319 251/273/319 249/272/319 247/271/319
f 188/295/320 279/299/320 267/298/320 268/297/320 195/296/320
f 259/300/321 261/301/321 252/294/321 250/269/321
f 278/302/322 192/305/322 185/304/322 277/303/322
f 250/269/323 252/294/323 247/271/323 246/268/323
f 279/299/324 188/295/324 193/307/324 284/306/324
f 277/303/325 185/304/325 194/309/325 285/308/325
f 195/296/326 268/297/326 269/310/326 199/284/326
f 283/311/327 214/314/327 199/313/327 280/312/327
f 261/301/328 260/315/328 251/273/328 252/294/328
f 275/316/329 259/300/329 250/269/329 270/292/329
f 244/287/330 248/281/330 255/317/330
f 285/308/331 194/309/331 204/319/331 281/318/331
f 245/289/332 244/287/332 255/317/332 253/320/332
f 271/321/333 253/320/333 256/323/333 273/322/333
f 255/317/334 254/326/334 257/325/334 258/324/334
f 281/318/335 204/319/335 209/328/335 282/327/335
f 253/320/336 262/284/336 256/323/336
f 259/300/337 275/316/337 256/323/337
f 258/324/338 257/325/338 260/315/338 261/301/338
f 282/327/339 209/328/339 214/314/339 283/311/339
f 256/323/340 258/324/340 261/301/340 259/300/340
f 258/324/341 256/323/341 262/284/341
f 255/317/342 262/284/342 253/320/342
f 255/317/343 258/324/343 262/284/343
f 257/325/344 274/330/344 276/329/344 260/315/344
f 288/331/345 273/322/345 275/316/345 289/332/345
f 254/326/346 272/333/346 274/330/346 257/325/346
f 287/334/347 271/321/347 273/322/347 288/331/347
f 248/281/348 264/335/348 272/333/348 254/326/348
f 278/336/349 266/337/349 271/321/349 287/334/349
f 289/332/350 275/316/350 270/292/350 286/338/350
f 260/315/351 276/329/351 269/310/351 251/273/351
f 251/273/352 269/310/352 268/297/352 249/272/352
f 244/280/353 265/339/353 264/335/353 248/281/353
f 247/340/354 267/298/354 263/342/354 246/341/354
f 245/290/355 266/343/355 265/339/355 244/280/355
f 249/272/356 268/297/356 267/298/356 247/340/356
f 286/338/357 270/292/357 263/293/357 284/344/357
f 200/345/358 286/338/358 284/344/358 193/346/358
f 215/347/359 289/332/359 286/338/359 200/345/359
f 192/348/360 278/336/360 287/334/360 205/349/360
f 205/349/361 287/334/361 288/331/361 210/350/361
f 210/350/362 288/331/362 289/332/362 215/347/362
f 274/330/363 282/327/363 283/311/363 276/329/363
f 272/333/364 281/318/364 282/327/364 274/330/364
f 264/335/365 285/308/365 281/318/365 272/333/365
f 276/329/366 283/311/366 280/312/366 269/310/366
f 265/339/367 277/303/367 285/308/367 264/335/367
f 267/298/368 279/299/368 284/306/368 263/342/368
f 266/343/369 278/302/369 277/303/369 265/339/369
f 254/326/370 255/317/370 248/281/370
f 266/337/371 245/290/371 271/321/371
f 253/320/372 271/321/372 245/290/372
f 273/322/373 256/323/373 275/316/373
f 317/351/374 302/293/374 291/268/374 310/352/374
f 293/272/375 310/352/375 291/268/375
f 305/297/376 302/342/376 295/307/376 297/296/376
f 304/343/377 303/335/377 296/309/377 294/305/377
f 316/310/378 305/297/378 297/296/378 312/353/378
f 319/354/379 314/355/379 299/268/379 306/293/379
f 301/272/380 299/268/380 314/355/380
f 309/297/381 297/296/381 295/307/381 306/342/381
f 308/343/382 294/305/382 296/309/382 307/335/382
f 318/310/383 312/353/383 297/296/383 309/297/383
f 305/297/384 316/310/384 293/272/384
f 290/290/385 292/281/385 303/335/385 304/343/385
f 291/268/386 302/342/386 305/297/386
f 313/345/387 295/346/387 302/293/387 317/351/387
f 309/297/388 301/272/388 318/310/388
f 300/281/389 298/289/389 320/289/389 321/281/389
f 306/342/390 299/268/390 309/297/390
f 313/345/391 319/354/391 306/293/391 295/346/391
f 294/348/392 308/337/392 319/354/392 313/345/392
f 318/310/393 315/356/393 307/335/393
f 294/348/394 313/345/394 317/351/394 304/337/394
f 316/310/395 303/335/395 311/356/395
f 307/335/396 296/309/396 312/353/396 318/310/396
f 314/355/397 298/289/397 315/356/397
f 308/337/398 298/289/398 314/355/398 319/354/398
f 303/335/399 316/310/399 312/353/399 296/309/399
f 290/289/400 310/352/400 311/356/400 292/281/400
f 304/337/401 317/351/401 310/352/401 290/289/401
f 311/356/402 293/272/402 316/310/402
f 315/356/403 318/310/403 301/272/403
f 315/356/404 300/281/404 307/335/404
f 300/281/405 315/356/405 298/289/405
f 320/290/406 323/343/406 322/335/406 321/281/406
f 298/289/407 308/337/407 323/337/407 320/289/407
f 308/343/408 307/335/408 322/335/408 323/343/408
f 307/335/409 300/281/409 322/335/409
f 322/335/410 300/281/410 321/281/410
f 311/356/411 303/335/411 292/281/411
f 293/272/412 291/268/412 305/297/412
f 311/356/413 310/352/413 293/272/413
f 315/356/414 301/272/414 314/355/414
f 301/272/415 309/297/415 299/268/415
o leftSholder.001
v -3.402087 5.850023 1.989812
v -3.168884 6.083209 0.801321
v -3.402087 6.852611 1.989812
v -3.168884 6.538307 0.801321
v -2.402087 5.850023 1.989812
v -2.635290 6.083209 0.801321
v -2.402087 6.852611 1.989812
v -2.635290 6.538307 0.801321
v -3.567348 6.349892 1.989812
v -3.257066 6.349936 0.801321
v -2.236825 6.349892 1.989812
v -2.547107 6.349936 0.801321
v -2.902087 7.017891 1.989812
v -2.902087 6.626499 0.801321
v -2.902087 5.684781 1.989812
v -2.902087 5.995037 0.801321
v -2.902087 6.349946 0.801321
v -2.902087 6.349910 1.989812
v -3.332335 5.919771 1.841719
v -3.332335 6.773313 1.841719
v -2.471839 6.773313 1.841719
v -2.471839 5.919771 1.841719
v -2.329632 6.349906 1.841719
v -3.474541 6.349906 1.841719
v -2.902087 5.777581 1.841719
v -2.902087 6.915535 1.841719
vn -0.8724 0.3088 -0.3788
vn -0.8688 0.3063 -0.3892
vn -0.9157 0.3448 -0.2066
vn 0.2849 0.8620 -0.4192
vn 0.2847 0.8613 -0.4209
vn 0.3035 0.9181 -0.2551
vn 0.8822 -0.2917 -0.3696
vn 0.8801 -0.2910 -0.3752
vn 0.9313 -0.3079 -0.1947
vn -0.2916 -0.8823 -0.3696
vn -0.2909 -0.8801 -0.3752
vn -0.3078 -0.9313 -0.1947
vn -0.0000 -0.0000 1.0000
vn -0.0000 -0.0000 -1.0000
vn 0.8688 0.3063 -0.3892
vn 0.8724 0.3088 -0.3788
vn 0.9157 0.3448 -0.2066
vn -0.8801 -0.2910 -0.3752
vn -0.8822 -0.2917 -0.3696
vn -0.9313 -0.3079 -0.1947
vn 0.2909 -0.8801 -0.3752
vn 0.2916 -0.8823 -0.3696
vn 0.3078 -0.9313 -0.1947
vn -0.2847 0.8613 -0.4209
vn -0.2849 0.8620 -0.4192
vn -0.3035 0.9181 -0.2551
vn -0.2624 0.7938 -0.5486
vn 0.2697 -0.8160 -0.5113
vn -0.8159 -0.2698 -0.5114
vn 0.8119 0.2696 -0.5178
vn -0.2697 -0.8160 -0.5113
vn 0.8159 -0.2698 -0.5114
vn 0.2624 0.7938 -0.5486
vn -0.8119 0.2696 -0.5178
vt 0.799852 0.981376
vt 0.799852 0.977486
vt 0.795963 0.977486
vt 0.795963 0.981376
vt 0.799852 0.973598
vt 0.799852 0.969709
vt 0.795963 0.969709
vt 0.795963 0.973598
vt 0.799852 0.965820
vt 0.799852 0.961932
vt 0.795963 0.961932
vt 0.795963 0.965820
vt 0.799852 0.958044
vt 0.799852 0.954155
vt 0.795963 0.954155
vt 0.795963 0.958044
vt 0.803740 0.977486
vt 0.815406 0.985263
vt 0.803740 0.973598
vt 0.788186 0.965820
vt 0.795963 0.985263
vt 0.803740 0.969709
vt 0.799852 0.985263
vt 0.803740 0.965820
vt 0.803740 0.961932
vt 0.792075 0.965820
vt 0.803740 0.981376
vt 0.803740 0.985263
vt 0.803740 0.958044
vt 0.803740 0.954155
s 1
usemtl cloth
f 347/357/416 343/358/417 327/359/418 333/360/418
f 349/361/419 344/362/420 331/363/421 337/364/421
f 346/365/422 345/366/423 329/367/424 335/368/424
f 348/369/425 342/370/426 325/371/427 339/372/427
f 326/373/428 341/374/428 336/375/428
f 333/376/429 340/374/429 325/377/429
f 337/364/429 340/374/429 327/359/429
f 336/375/428 341/374/428 330/378/428
f 344/362/430 346/365/431 335/368/432 331/363/432
f 342/379/433 347/357/434 333/360/435 325/377/435
f 330/378/428 341/374/428 334/380/428
f 327/359/429 340/374/429 333/376/429
f 325/377/429 340/374/429 339/372/429
f 334/380/428 341/374/428 328/381/428
f 345/366/436 348/369/437 339/372/438 329/367/438
f 343/358/439 349/361/440 337/364/441 327/359/441
f 331/363/429 340/374/429 337/364/429
f 335/368/429 340/382/429 331/363/429
f 339/372/429 340/374/429 329/367/429
f 335/368/429 329/367/429 340/382/429
f 332/383/428 341/374/428 326/373/428
f 332/383/428 324/384/428 341/374/428
f 338/385/428 341/374/428 324/384/428
f 338/385/428 328/381/428 341/374/428
f 326/373/442 336/375/442 349/361/440 343/358/439
f 328/381/443 338/385/443 348/369/437 345/366/436
f 324/384/444 332/383/444 347/357/434 342/379/433
f 330/378/445 334/380/445 346/365/431 344/362/430
f 338/385/446 324/386/446 342/370/426 348/369/425
f 334/380/447 328/381/447 345/366/423 346/365/422
f 336/375/448 330/378/448 344/362/420 349/361/419
f 332/383/449 326/373/449 343/358/417 347/357/416
o leftArm.001
v -3.257207 6.115855 3.934346
v -3.210807 6.050251 1.300109
v -3.257207 6.470075 3.934346
v -3.210807 6.667691 1.300109
v -2.546966 6.115855 3.782372
v -2.593367 6.050251 1.300109
v -2.546966 6.470075 3.782372
v -2.593367 6.667691 1.300109
v -3.152093 6.089163 2.574606
v -3.152093 6.589175 2.574606
v -2.652081 6.589175 2.574606
v -2.652081 6.089163 2.574606
v -3.255130 6.115854 4.588653
v -3.255130 6.470075 4.588653
v -2.422672 6.111493 4.365885
v -2.416463 6.466399 4.360130
v -2.661299 6.495436 4.657445
v -2.708792 6.113395 4.673971
v -2.474965 6.115252 4.169697
v -2.474386 6.466552 4.169357
v -2.089719 6.146783 3.663404
v -2.089719 6.439147 3.663404
v -2.016275 6.146783 3.978492
v -2.016275 6.439147 3.978492
v -2.533451 6.109211 5.233935
v -2.530682 6.342846 5.234453
v -2.743739 6.345916 5.282784
v -2.746515 6.111629 5.282265
v -2.978257 6.116025 4.618409
v -2.956583 6.486088 4.622774
v -2.664684 6.350216 5.427381
v -2.664684 6.115855 5.427381
v -2.915914 6.115855 5.393130
v -2.915914 6.350617 5.393130
v -3.225421 6.115854 5.317510
v -3.225421 6.349506 5.317510
v -2.986072 6.115854 5.351759
v -2.986072 6.350505 5.351759
v -2.847408 6.496026 3.846660
v -2.860655 6.763196 1.300109
v -2.820268 6.614519 2.574606
v -3.240276 6.409791 4.953082
v -3.240276 6.115854 4.953082
v -2.971009 6.418294 4.987331
v -2.971009 6.115854 4.987331
v -2.661206 6.422916 5.041771
v -2.935930 6.418350 5.008016
v -2.935930 6.115854 5.008016
v -2.663985 6.115753 5.042816
v -2.735059 6.112161 4.980512
v -2.482216 6.109550 4.807038
v -2.728893 6.419291 4.979952
v -2.476195 6.403674 4.806008
vn -0.9999 -0.0000 -0.0146
vn -0.9999 -0.0000 -0.0126
vn -0.9989 -0.0000 0.0460
vn -0.1156 0.9892 0.0906
vn 0.0424 0.9949 0.0911
vn 0.0425 0.9947 0.0932
vn -0.1737 0.9803 0.0941
vn 0.9999 -0.0000 -0.0170
vn 0.9998 -0.0000 -0.0193
vn 0.9989 -0.0000 0.0460
vn 0.0013 -0.9997 0.0256
vn -0.0000 -0.9995 0.0305
vn 0.0213 -0.9998 0.0019
vn 0.0176 -0.9998 -0.0056
vn -0.0052 -1.0000 -0.0028
vn -0.0077 -1.0000 -0.0018
vn -0.0025 -1.0000 -0.0003
vn -0.0013 -1.0000 -0.0011
vn -0.0005 -1.0000 0.0076
vn -0.0000 -0.0000 -1.0000
vn 0.9962 -0.0000 -0.0867
vn -0.0554 0.9976 0.0405
vn 0.0143 0.9989 0.0438
vn -0.9993 -0.0000 -0.0372
vn -0.9993 -0.0000 -0.0381
vn -0.9992 -0.0000 0.0407
vn 0.1092 0.9848 0.1349
vn -0.9998 -0.0000 0.0220
vn -0.9998 -0.0000 0.0209
vn -0.2518 -0.0000 -0.9678
vn -0.0527 0.9956 0.0773
vn -0.0517 0.9949 0.0869
vn -0.0131 -0.9999 -0.0048
vn -0.0118 -0.9999 -0.0022
vn -0.0123 -0.9999 -0.0032
vn 0.1389 0.9902 0.0177
vn 0.0975 0.9952 -0.0132
vn 0.0633 -0.9979 -0.0140
vn 0.9617 -0.0116 -0.2740
vn 0.9963 -0.0146 -0.0842
vn 0.9975 -0.0148 -0.0691
vn 0.9739 -0.0000 -0.2270
vn 0.0544 0.9984 -0.0127
vn 0.0597 0.9982 -0.0087
vn 0.3847 0.0001 0.9231
vn 0.2212 -0.0048 0.9752
vn -0.9949 0.0449 -0.0898
vn -0.9990 0.0165 -0.0414
vn -0.9940 0.0494 -0.0974
vn 0.9917 -0.0169 0.1272
vn 0.9925 -0.0164 0.1215
vn 0.9918 -0.0169 0.1267
vn -0.1351 -0.0000 0.9908
vn -0.0026 -1.0000 0.0016
vn -0.0002 -1.0000 0.0001
vn -0.0033 -1.0000 0.0021
vn -0.9976 0.0158 0.0678
vn -0.9987 -0.0000 0.0519
vn -0.9974 0.0175 0.0696
vn 0.9984 -0.0439 -0.0350
vn 1.0000 -0.0051 0.0049
vn 0.9987 -0.0398 -0.0307
vn -0.1417 -0.0000 0.9899
vn 0.9996 -0.0180 0.0220
vn 0.9991 -0.0000 0.0413
vn 0.9996 -0.0161 0.0241
vn 0.0002 -1.0000 -0.0001
vn -0.0000 -1.0000 -0.0000
vn 0.0928 0.9954 0.0249
vn 0.1926 0.9772 0.0895
vn 0.2664 0.9599 0.0875
vn 0.9995 -0.0323 0.0068
vn 0.9950 -0.0743 -0.0662
vn -0.9960 0.0316 0.0837
vn -0.9877 0.0735 -0.1383
vn -0.0575 0.9827 0.1762
vn -0.0486 0.9844 0.1693
vn -0.0384 0.9845 0.1709
vn -0.0276 0.9860 0.1642
vn -0.0414 0.9824 0.1822
vn -0.0356 0.9834 0.1777
vn -0.0222 0.9844 0.1743
vn -0.0289 0.9835 0.1785
vn 0.1670 0.9637 0.2083
vn 0.2497 0.9453 0.2101
vn 0.0680 0.9689 0.2381
vn 0.1096 0.9723 0.2067
vt 0.215823 0.778177
vt 0.272491 0.778177
vt 0.281390 0.922765
vt 0.211413 0.922765
vt 0.131613 0.146306
vt 0.094145 0.145304
vt 0.101489 -0.000000
vt 0.140730 0.001873
vt 0.468024 0.544480
vt 0.411356 0.544480
vt 0.406941 0.400653
vt 0.476918 0.400653
vt 0.212826 0.323326
vt 0.269493 0.323326
vt 0.276173 0.467786
vt 0.206197 0.467786
vt 0.200897 0.186434
vt 0.192575 0.143169
vt 0.184252 0.124696
vt 0.213343 0.087292
vt 0.247250 0.091174
vt 0.281157 0.095056
vt 0.281390 0.169211
vt 0.476352 0.692642
vt 0.476352 0.762619
vt 0.406941 0.762619
vt 0.406941 0.692642
vt 0.446304 0.681818
vt 0.454525 0.681818
vt 0.414380 0.681818
vt 0.140730 0.301173
vt 0.094583 0.290117
vt 0.218853 0.624576
vt 0.258998 0.624576
vt 0.218854 0.509121
vt 0.218853 0.467786
vt 0.245334 0.467786
vt 0.252167 0.509121
vt 0.071747 0.380945
vt 0.218854 0.550457
vt 0.258999 0.550457
vt 0.640271 0.936264
vt 0.636766 0.989378
vt 0.603631 0.989378
vt 0.600126 0.936264
vt 0.139401 0.374903
vt 0.105532 0.377940
vt 0.184505 0.075968
vt 0.184758 0.027240
vt 0.208125 0.019045
vt 0.210734 0.053169
vt 0.043012 0.343623
vt 0.051588 0.325445
vt 0.149053 0.199904
vt 0.140730 0.164194
vt 0.091896 0.880136
vt 0.092230 0.899054
vt 0.052085 0.899054
vt 0.052087 0.880136
vt 0.210365 0.880136
vt 0.210365 0.916263
vt 0.177230 0.916265
vt 0.177230 0.880137
vt -0.000000 0.303891
vt 0.008844 0.268538
vt 0.211413 0.976602
vt 0.214918 0.922765
vt 0.248053 0.922765
vt 0.251223 0.976602
vt 0.201363 0.942820
vt 0.177230 0.942820
vt 0.177230 0.916339
vt 0.201363 0.916265
vt 0.979007 0.940615
vt 0.979007 0.974809
vt 0.952452 0.974808
vt 0.944210 0.940556
vt 0.085399 0.947689
vt 0.078568 0.996323
vt 0.052087 0.996323
vt 0.052086 0.947689
vt 0.406941 0.790485
vt 0.406941 0.762619
vt 0.433502 0.762619
vt 0.433548 0.790485
vt 0.213793 0.043646
vt 0.214243 -0.000000
vt 0.242715 0.003882
vt 0.244982 0.047528
vt 0.177230 0.923835
vt 0.177230 0.967534
vt 0.150623 0.967533
vt 0.142947 0.923835
vt 0.100470 0.923744
vt 0.108709 0.880136
vt 0.135270 0.880136
vt 0.135270 0.923686
vt 0.460075 0.762733
vt 0.460075 0.789213
vt 0.433548 0.789213
vt 0.433548 0.762619
vt 0.958760 0.745285
vt 0.951079 0.786422
vt 0.924485 0.786422
vt 0.924483 0.745285
vt 0.248958 0.049872
vt 0.250666 0.008570
vt 0.277792 0.012452
vt 0.279474 0.053754
vt 0.060556 0.282545
vt 0.074991 0.145249
vt 0.070811 0.000568
vt 0.966442 0.704148
vt 0.924482 0.704148
vt 0.092230 0.967353
vt 0.135270 0.967235
vt 0.177230 0.880136
vt 0.135270 0.880136
vt 0.979007 0.906421
vt 0.935967 0.906304
vt 0.106338 0.419844
vt 0.136850 0.416655
vt 0.107143 0.461749
vt 0.134300 0.458407
vt 0.071184 0.425269
vt 0.102331 0.422101
vt 0.099129 0.466261
vt 0.070621 0.469594
vt 0.068268 0.415744
vt 0.042286 0.392795
vt 0.064789 0.450544
vt 0.041559 0.441967
s 1
usemtl skin
f 358/387/450 359/388/451 353/389/452 351/390/452
f 359/391/453 390/392/454 389/393/455 353/394/456
f 360/395/457 361/396/458 355/397/459 357/398/459
f 361/399/460 358/400/460 351/401/461 355/402/461
f 354/403/462 368/404/463 364/405/464 367/406/465 378/407/466 362/408/467 350/409/468
f 357/410/469 355/411/469 351/412/469 353/413/469 389/414/469
f 354/403/462 350/409/468 358/400/460 361/399/460
f 356/415/470 354/416/470 361/396/458 360/395/457
f 359/391/453 352/417/471 388/418/472 390/392/454
f 350/419/473 352/420/474 359/388/451 358/387/450
f 392/421/475 384/422/475 385/423/475 391/424/475
f 388/418/472 352/417/471 366/425/476
f 350/419/473 362/426/477 363/427/478 352/420/474
f 356/428/479 371/429/479 370/430/479 354/431/479
f 366/425/476 352/417/471 363/432/480 379/433/481
f 400/434/482 374/435/483 377/436/483 399/437/484
f 365/438/485 369/439/486 366/425/476
f 354/403/462 370/440/487 372/441/487 368/404/463
f 369/442/488 365/443/489 364/444/490 368/445/488
f 371/446/491 373/447/491 372/448/491 370/449/491
f 373/450/492 371/451/493 369/439/486
f 368/452/494 372/453/494 373/454/494 369/455/494
f 377/456/495 374/457/495 375/458/495 376/459/495
f 399/460/496 377/461/497 376/462/497 401/463/498
f 402/464/499 375/465/500 374/466/500 400/467/501
f 382/468/502 381/469/502 380/470/502 383/471/502
f 398/472/503 381/473/504 382/474/504 397/475/505
f 397/476/506 382/477/507 383/478/507 396/479/508
f 395/480/509 380/481/510 381/482/510 398/483/511
f 385/484/512 384/485/512 386/486/512 387/487/512
f 393/488/513 387/489/514 386/490/514 394/491/515
f 394/492/516 386/493/517 384/494/517 392/495/516
f 366/425/476 369/439/486 356/496/518
f 356/496/518 369/439/486 371/451/493
f 360/497/519 390/392/454 388/418/472 356/496/518
f 356/496/518 388/418/472 366/425/476
f 390/392/454 360/497/519 357/498/520 389/393/455
f 378/407/466 394/492/516 392/495/516 362/408/467
f 379/499/521 393/488/513 394/491/515 378/500/521
f 362/426/477 392/421/475 391/424/475 363/427/478
f 366/501/522 395/480/509 398/483/511 367/502/522
f 378/503/523 397/476/506 396/479/508 379/504/523
f 367/406/465 398/472/503 397/475/505 378/407/466
f 365/443/489 402/464/499 400/467/501 364/444/490
f 367/505/524 399/460/496 401/463/498 366/506/524
f 364/405/464 400/434/482 399/437/484 367/406/465
f 363/432/480 393/507/525 379/433/481
f 391/508/526 393/507/525 363/432/480
f 393/507/525 391/508/526 387/509/527
f 385/510/528 387/509/527 391/508/526
f 395/511/529 379/433/481 396/512/530
f 379/433/481 395/511/529 366/425/476
f 383/513/531 380/514/532 396/512/530
f 395/511/529 396/512/530 380/514/532
f 401/515/533 402/516/534 366/425/476
f 366/425/476 402/516/534 365/438/485
f 376/517/535 375/518/536 401/515/533
f 375/518/536 402/516/534 401/515/533
