# Blender 5.0.1
# www.blender.org
mtllib uptochi.mtl
o Cube
v 0.323599 7.209209 -1.071584
v 0.417067 3.603339 -1.213680
v 0.323599 7.209209 1.071583
v 0.417067 3.603339 1.213680
v -0.323599 7.209209 -1.071584
v -0.417067 3.603339 -1.213680
v -0.323599 7.209209 1.071583
v -0.417067 3.603339 1.213680
v -1.000000 3.603339 -0.000000
v 0.775891 6.938659 -0.000000
v -0.586671 7.191589 -0.008579
v 1.000000 3.603339 -0.000000
v 0.335843 5.434332 -0.977314
v -0.335843 5.434332 0.977314
v 0.335843 5.434332 0.977314
v -0.335843 5.434332 -0.977314
v 0.805249 5.434332 0.000000
v -0.805249 5.434332 0.000000
v 0.392675 3.735482 -1.142699
v 0.392675 3.735482 1.142699
v -0.392675 3.735482 -1.142699
v 0.941516 3.735482 -0.000000
v -0.941516 3.735482 -0.000000
v -0.392675 3.735482 1.142699
v -0.708534 3.603339 0.606840
v 0.549745 7.265325 0.470842
v -0.549745 7.265325 0.470842
v 0.708534 3.603339 0.606840
v -0.570546 5.434332 0.488657
v 0.570546 5.434332 0.488657
v 0.667096 3.735482 0.571350
v -0.667096 3.735482 0.571350
v -0.549745 7.265325 -0.470842
v 0.708534 3.603339 -0.606840
v -0.708534 3.603339 -0.606840
v 0.549745 7.265325 -0.470842
v 0.570546 5.434332 -0.488657
v -0.570546 5.434332 -0.488657
v -0.667096 3.735482 -0.571350
v 0.667096 3.735482 -0.571350
v -0.327972 6.575325 1.086064
v 0.380285 6.558372 -1.086064
v 0.380285 6.558372 1.086064
v -0.327972 6.575324 -1.086064
v 0.838690 6.529300 -0.000000
v -0.786376 6.576992 -0.000000
v -0.557174 6.611399 0.477205
v 0.609487 6.564403 0.477204
v 0.609487 6.564402 -0.477205
v -0.557174 6.611399 -0.477205
v -1.363252 6.663692 -0.000000
v -1.030727 7.012908 0.470842
v -1.030727 7.012908 -0.470842
v -0.878335 6.522411 -0.000000
v -0.649132 6.556818 0.477205
v -0.649132 6.556817 -0.477205
vn 0.0610 0.9783 -0.1979
vn 0.0570 0.9822 -0.1789
vn -0.0000 0.9957 0.0930
vn -0.0005 -0.0384 0.9993
vn 0.0003 0.0225 0.9997
vn -0.0004 -0.0359 0.9994
vn -0.9204 0.0072 -0.3909
vn -0.9354 0.0143 -0.3532
vn -0.9284 0.0031 -0.3715
vn -0.0000 -1.0000 -0.0000
vn 0.9183 0.0295 0.3949
vn 0.9235 0.0925 0.3722
vn 0.9310 0.0857 0.3549
vn 0.9279 0.0190 0.3723
vn -0.0004 -0.0359 -0.9994
vn 0.0003 0.0225 -0.9997
vn -0.0005 -0.0384 -0.9993
vn 0.9183 0.0295 -0.3949
vn 0.9235 0.0925 -0.3722
vn 0.9114 0.1029 -0.3985
vn 0.9078 0.0341 -0.4180
vn 0.5021 -0.8459 0.1802
vn 0.5104 -0.8599 -0.0000
vn 0.0592 0.9776 0.2021
vn 0.0554 0.9816 0.1830
vn 0.0934 0.9217 0.3766
vn -0.8785 0.2240 0.4220
vn -0.9060 0.0378 0.4216
vn -0.9007 0.0438 0.4323
vn -0.8765 0.2337 0.4210
vn 0.8785 0.2240 -0.4220
vn 0.9064 0.0165 -0.4220
vn 0.9010 0.0229 -0.4332
vn 0.8765 0.2337 -0.4210
vn -0.0000 0.3021 -0.9533
vn -0.0006 0.0019 -1.0000
vn -0.0006 0.0005 -1.0000
vn 0.8785 0.2240 0.4220
vn 0.9064 0.0165 0.4220
vn 0.9115 0.0107 0.4111
vn 0.8744 0.2430 0.4200
vn -0.8785 0.2240 -0.4220
vn -0.9060 0.0378 -0.4216
vn -0.9112 0.0320 -0.4108
vn -0.8744 0.2430 -0.4200
vn -0.0000 0.3021 0.9533
vn -0.0006 0.0005 1.0000
vn -0.0006 0.0019 1.0000
vn -0.0000 0.4732 0.8810
vn -0.8372 0.3705 -0.4021
vn 0.8372 0.3705 0.4021
vn -0.0000 0.4732 -0.8810
vn 0.8372 0.3705 -0.4021
vn -0.8372 0.3705 0.4021
vn -0.8744 0.2430 0.4200
vn 0.8765 0.2337 0.4210
vn 0.9010 0.0229 0.4332
vn -0.9112 0.0320 0.4108
vn -0.9284 0.0031 0.3715
vn -0.9354 0.0143 0.3532
vn -0.9204 0.0072 0.3909
vn 0.9078 0.0341 0.4180
vn 0.9114 0.1029 0.3985
vn 0.0962 0.9240 -0.3702
vn 0.8744 0.2430 -0.4200
vn -0.8765 0.2337 -0.4210
vn -0.9007 0.0438 -0.4323
vn 0.9115 0.0107 -0.4111
vn -0.0000 0.9957 -0.0930
vn 0.9279 0.0190 -0.3723
vn 0.9310 0.0857 -0.3549
vn 0.5021 -0.8459 -0.1802
vn -0.9015 0.0147 -0.4325
vn -0.9015 0.0147 0.4325
vn -0.4742 -0.6819 0.5569
vn -0.4742 -0.6819 -0.5569
vn -0.5272 0.8497 0.0033
vn -0.5183 0.8372 0.1743
vn -0.5272 0.8497 0.0001
vn -0.0052 0.0097 0.9999
vn -0.5204 0.8368 -0.1701
vn -0.0052 0.0097 -0.9999
vt 0.033766 0.475983
vt 0.097266 0.574641
vt 0.042350 0.581940
vt 0.004972 0.523867
vt 0.074000 0.085560
vt 0.073856 0.018117
vt 0.143089 0.017497
vt 0.144168 0.084931
vt 0.279131 0.074444
vt 0.280557 0.004972
vt 0.304690 0.017497
vt 0.303610 0.084931
vt 0.508266 0.231729
vt 0.643219 0.167896
vt 0.643219 0.239710
vt 0.563781 0.277284
vt 0.049443 0.075512
vt 0.049606 0.006026
vt 0.373923 0.018117
vt 0.373779 0.085560
vt 0.398336 0.075512
vt 0.398172 0.006026
vt 0.422053 0.034554
vt 0.422656 0.091578
vt 0.452751 0.114360
vt 0.587704 0.050527
vt 0.643219 0.096082
vt 0.452751 0.186173
vt 0.911079 0.107072
vt 0.935865 0.056022
vt 0.946568 0.056022
vt 0.921782 0.107072
vt 0.118287 0.421285
vt 0.181787 0.519942
vt 0.142963 0.550425
vt 0.065331 0.429754
vt 0.183183 0.380797
vt 0.171214 0.199494
vt 0.196317 0.192676
vt 0.212534 0.372824
vt 0.407318 0.382076
vt 0.398630 0.200588
vt 0.423741 0.194219
vt 0.436678 0.374629
vt 0.293946 0.388770
vt 0.301667 0.206313
vt 0.373519 0.206957
vt 0.377957 0.389522
vt 0.040461 0.382076
vt 0.049149 0.200588
vt 0.074260 0.206957
vt 0.069821 0.389522
vt 0.264596 0.380797
vt 0.276564 0.199494
vt 0.146112 0.206313
vt 0.153833 0.388770
vt 0.067340 0.404526
vt 0.156570 0.403727
vt 0.260035 0.395259
vt 0.291209 0.403727
vt 0.036156 0.396617
vt 0.380438 0.404526
vt 0.411623 0.396617
vt 0.442807 0.388708
vt 0.187744 0.395259
vt 0.218917 0.386791
vt 0.004972 0.388708
vt 0.011100 0.374629
vt 0.024038 0.194219
vt 0.167222 0.004972
vt 0.168648 0.074444
vt 0.025123 0.091578
vt 0.025726 0.034554
vt 0.228861 0.386791
vt 0.235245 0.372824
vt 0.251462 0.192675
vt 0.174016 0.414470
vt 0.211394 0.472543
vt 0.452751 0.042546
vt 0.532189 0.004972
vt 0.911079 0.004972
vt 0.921782 0.004972
vt 0.254583 0.071436
vt 0.193195 0.071436
vt 0.953506 0.005653
vt 0.995028 0.056022
vt 0.953506 0.106391
vt 0.211394 0.564191
vt 0.190866 0.622887
vt 0.218917 0.031297
vt 0.178538 0.080148
vt 0.126872 0.618890
vt 0.269241 0.080148
vt 0.228861 0.031297
s 1
usemtl Material
f 26/1/1 27/2/2 7/3/3 3/4/3
f 43/5/4 3/6/5 7/7/5 41/8/6
f 50/9/7 33/10/8 5/11/8 44/12/9
f 25/13/10 28/14/10 4/15/10 8/16/10
f 48/17/11 26/18/12 3/6/13 43/5/14
f 44/12/15 5/11/16 1/19/16 42/20/17
f 49/21/18 36/22/19 10/23/20 45/24/21
f 35/25/10 34/26/10 12/27/10 9/28/10
f 50/29/22 46/30/23 54/31/23 56/32/22
f 36/33/24 33/34/25 11/35/26 10/36/26
f 32/37/27 29/38/28 18/39/29 23/40/30
f 40/41/31 37/42/32 17/43/33 22/44/34
f 21/45/35 16/46/36 13/47/37 19/48/35
f 31/49/38 30/50/39 15/51/40 20/52/41
f 39/53/42 38/54/43 16/46/44 21/45/45
f 20/52/46 15/51/47 14/55/48 24/56/46
f 4/57/49 20/52/46 24/56/46 8/58/49
f 35/59/50 39/53/42 21/45/45 6/60/50
f 28/61/51 31/49/38 20/52/41 4/57/51
f 6/60/52 21/45/35 19/48/35 2/62/52
f 34/63/53 40/41/31 22/44/34 12/64/53
f 25/65/54 32/37/27 23/40/30 9/66/54
f 8/58/54 24/56/55 32/37/27 25/65/54
f 12/67/51 22/68/56 31/49/38 28/61/51
f 22/68/56 17/69/57 30/50/39 31/49/38
f 24/56/55 14/55/58 29/38/28 32/37/27
f 41/8/59 7/7/60 27/70/60 47/71/61
f 45/72/62 10/73/63 26/18/12 48/17/11
f 9/28/10 12/27/10 28/14/10 25/13/10
f 10/36/64 11/35/64 27/2/2 26/1/1
f 2/62/53 19/48/65 40/41/31 34/63/53
f 9/74/50 23/75/66 39/53/42 35/59/50
f 23/75/66 18/76/67 38/54/43 39/53/42
f 19/48/65 13/47/68 37/42/32 40/41/31
f 1/77/69 5/78/69 33/34/25 36/33/24
f 6/79/10 2/80/10 34/26/10 35/25/10
f 42/20/70 1/19/71 36/22/19 49/21/18
f 46/30/23 47/81/72 55/82/72 54/31/23
f 18/76/67 46/83/73 50/9/7 38/54/43
f 13/47/68 42/20/70 49/21/18 37/42/32
f 17/69/57 45/72/62 48/17/11 30/50/39
f 14/55/58 41/8/59 47/71/61 29/38/28
f 29/38/28 47/71/61 46/84/74 18/39/29
f 37/42/32 49/21/18 45/24/21 17/43/33
f 16/46/36 44/12/15 42/20/17 13/47/37
f 30/50/39 48/17/11 43/5/14 15/51/40
f 38/54/43 50/9/7 44/12/9 16/46/44
f 15/51/47 43/5/4 41/8/6 14/55/48
f 55/82/75 52/85/75 51/86/75 54/31/75
f 54/31/76 51/86/76 53/87/76 56/32/76
f 11/35/77 33/34/78 53/88/78 51/89/79
f 47/71/80 27/70/80 52/90/80 55/91/80
f 27/2/81 11/35/77 51/89/79 52/92/81
f 33/10/82 50/9/82 56/93/82 53/94/82
o Куб
v -0.328175 6.556604 -1.092885
v -0.323600 7.209221 -1.092885
v -0.399093 6.476567 -4.433406
v -0.401594 7.269100 -4.433406
v 0.328069 6.556604 -1.092885
v 0.323597 7.209207 -1.092885
v 0.399093 6.476567 -4.433406
v 0.401594 7.269098 -4.433406
v -0.325902 6.880221 -1.092885
v -0.575653 6.875660 -4.433406
v 0.575653 6.875660 -4.433406
v 0.325899 6.879523 -1.092885
v -0.000000 6.300007 -4.433406
v -0.000000 7.369604 -4.433406
v -0.000000 6.413744 -1.092885
v -0.000000 7.209268 -1.092885
v -0.000000 6.879523 -1.092885
v -0.424829 6.450702 -4.262890
v -0.424692 7.300251 -4.262890
v 0.424826 6.450702 -4.262890
v 0.424691 7.300248 -4.262890
v 0.608341 6.875373 -4.262890
v -0.608342 6.875394 -4.262890
v -0.000000 7.404101 -4.262890
v -0.000000 6.262826 -4.262890
v -0.641894 6.875660 -4.433406
v -0.445017 6.430643 -4.433406
v -0.000000 6.233766 -4.433406
v -0.000000 7.432050 -4.433406
v 0.445017 7.320677 -4.433406
v 0.641894 6.875660 -4.433406
v 0.445017 6.430643 -4.433406
v -0.445017 7.320680 -4.433406
v -0.379643 6.495513 -4.143119
v -0.382023 7.249423 -4.143119
v 0.379643 6.495513 -4.143119
v 0.382023 7.249420 -4.143119
v -0.547599 6.875156 -4.143119
v 0.547598 6.875156 -4.143119
v -0.000000 6.327558 -4.143119
v -0.000000 7.345028 -4.143119
v -0.000000 6.875156 -4.143119
v -0.376502 6.503654 -2.677888
v 0.374144 7.254727 -2.677888
v 0.467120 6.877448 -2.677888
v -0.000000 7.306684 -2.677888
v -0.000000 6.338285 -2.677888
v -0.374146 7.254736 -2.677888
v 0.376448 6.503654 -2.677888
v -0.467122 6.877808 -2.677888
vn -0.9248 0.3624 0.1162
vn -0.9250 0.3620 0.1156
vn -0.9034 0.3952 0.1667
vn -0.0000 -0.9964 -0.0844
vn -0.2420 -0.9668 -0.0819
vn 0.9980 0.0023 0.0637
vn 0.9708 0.2317 0.0619
vn 0.9892 0.1333 0.0617
vn 0.9981 0.0040 0.0621
vn -0.0000 -0.0000 1.0000
vn 0.4017 -0.9147 0.0432
vn 0.4004 -0.9153 0.0432
vn -0.0000 0.9989 0.0472
vn -0.1340 0.9899 0.0468
vn -0.0742 0.9962 0.0461
vn -0.0000 0.9989 0.0462
vn 0.9717 -0.2277 0.0621
vn 0.9902 -0.1258 0.0614
vn 0.9109 -0.4030 -0.0887
vn -0.9253 -0.3612 0.1152
vn -0.9251 -0.3616 0.1158
vn -0.9036 -0.3952 0.1653
vn -0.4031 0.9111 -0.0865
vn 0.1340 0.9899 0.0468
vn 0.0743 0.9962 0.0461
vn -0.4017 -0.9148 0.0432
vn -0.4004 -0.9153 0.0432
vn 0.4031 0.9111 -0.0865
vn -0.3997 -0.9036 0.1538
vn -0.4019 -0.9102 0.1002
vn -0.4019 -0.9102 0.0999
vn 0.2375 0.9597 0.1503
vn -0.0000 0.9880 0.1547
vn -0.0000 0.9948 0.1022
vn 0.2155 0.9713 0.1007
vn -0.9718 -0.2274 0.0621
vn -0.9980 0.0026 0.0637
vn 0.9036 -0.3952 0.1653
vn 0.9251 -0.3617 0.1158
vn 0.9253 -0.3613 0.1152
vn -0.2375 0.9597 0.1503
vn -0.2155 0.9713 0.1007
vn 0.3997 -0.9036 0.1538
vn 0.4019 -0.9102 0.0999
vn 0.4019 -0.9102 0.1002
vn 0.9034 0.3952 0.1667
vn 0.9250 0.3619 0.1156
vn 0.9248 0.3623 0.1162
vn -0.9708 0.2319 0.0619
vn -0.0000 -0.0000 -1.0000
vn 0.9110 0.4030 -0.0873
vn 0.2420 -0.9668 -0.0819
vn -0.9109 -0.4030 -0.0887
vn -0.9110 0.4030 -0.0873
vn -0.9981 0.0043 0.0620
vn -0.9891 0.1335 0.0617
vn -0.9902 -0.1254 0.0614
vt 0.374863 0.432879
vt 0.326319 0.433923
vt 0.324436 0.415590
vt 0.375384 0.414470
vt 0.875173 0.852917
vt 0.875618 0.896918
vt 0.844677 0.896145
vt 0.844254 0.854288
vt 0.709882 0.475759
vt 0.747315 0.476275
vt 0.743369 0.645883
vt 0.708914 0.645883
vt 0.946170 0.152291
vt 0.946165 0.117016
vt 0.980783 0.117016
vt 0.981034 0.152211
vt 0.905050 0.457607
vt 0.873530 0.456876
vt 0.877906 0.287227
vt 0.905422 0.287859
vt 0.500726 0.475419
vt 0.539298 0.475646
vt 0.534302 0.645263
vt 0.500154 0.645262
vt 0.946178 0.202118
vt 0.981283 0.186831
vt 0.668756 0.476292
vt 0.675164 0.645883
vt 0.963322 0.700859
vt 0.962321 0.655835
vt 0.993219 0.657114
vt 0.994172 0.699944
vt 0.415202 0.433956
vt 0.417552 0.415626
vt 0.575129 0.739438
vt 0.575901 0.700417
vt 0.606808 0.699726
vt 0.606074 0.736845
vt 0.911079 0.186841
vt 0.911307 0.152296
vt 0.460332 0.475646
vt 0.466004 0.645263
vt 0.948967 0.456876
vt 0.943654 0.287227
vt 0.911548 0.117027
vt 0.575129 0.655206
vt 0.606074 0.656719
vt 0.955815 0.644839
vt 0.903853 0.645709
vt 0.904677 0.627354
vt 0.954280 0.626524
vt 0.452751 0.287714
vt 0.501665 0.287228
vt 0.501297 0.305576
vt 0.454660 0.306030
vt 0.410433 0.603545
vt 0.373310 0.603006
vt 0.660486 0.288370
vt 0.711413 0.287228
vt 0.710850 0.305635
vt 0.662348 0.306700
vt 0.546675 0.287714
vt 0.544294 0.306030
vt 0.866644 0.644839
vt 0.869155 0.626524
vt 0.753640 0.288336
vt 0.751261 0.306668
vt 0.331802 0.603528
vt 0.813424 0.011452
vt 0.782022 0.045999
vt 0.775542 0.043493
vt 0.810557 0.004972
vt 0.782022 0.092684
vt 0.775542 0.095551
vt 0.894210 0.090029
vt 0.886662 0.046391
vt 0.892771 0.043688
vt 0.901136 0.092045
vt 0.816568 0.124086
vt 0.863253 0.124086
vt 0.866120 0.130566
vt 0.814063 0.130566
vt 0.859448 0.011452
vt 0.862615 0.004972
vt 0.706735 0.219158
vt 0.752703 0.198821
vt 0.759884 0.240333
vt 0.730436 0.272730
vt 0.653163 0.242858
vt 0.686026 0.272730
vt 0.653163 0.198448
vt 0.683035 0.165586
vt 0.726816 0.165585
vt 0.962321 0.738729
vt 0.993219 0.735968
vt 0.875618 0.816448
vt 0.844677 0.819596
vt 0.606989 0.843556
vt 0.605976 0.880837
vt 0.575129 0.881860
vt 0.576093 0.846397
vt 0.606989 0.926527
vt 0.576093 0.925324
vt 0.371757 0.773134
vt 0.337285 0.773134
vt 0.405665 0.773134
s 1
usemtl Material
f 79/95/83 75/96/84 89/97/85 82/98/85
f 70/99/86 64/100/87 93/101/87 97/102/86
f 101/103/88 100/104/89 62/105/90 68/106/91
f 73/107/92 72/108/92 58/109/92 65/110/92
f 103/111/93 105/112/93 61/113/94 71/114/94
f 102/115/95 104/116/96 58/117/97 72/118/98
f 71/119/92 73/107/92 65/110/92 57/120/92
f 105/121/99 101/103/88 68/106/91 61/122/100
f 66/123/101 60/124/101 91/125/101 94/126/101
f 74/127/102 79/95/103 82/98/104 83/128/104
f 63/129/105 69/130/105 96/131/105 92/132/105
f 61/133/92 68/134/92 73/107/92 71/119/92
f 100/135/106 102/115/95 72/118/98 62/136/107
f 99/137/108 103/111/108 71/114/109 57/138/109
f 68/134/92 62/139/92 72/108/92 73/107/92
f 69/130/110 59/140/110 90/141/110 96/131/110
f 83/142/111 84/143/111 81/144/112 74/145/113
f 86/146/114 85/147/115 80/148/116 77/149/117
f 99/150/118 106/151/119 79/95/103 74/127/102
f 88/152/120 87/153/120 78/154/121 76/155/122
f 85/147/115 89/156/123 75/157/124 80/148/116
f 84/143/125 88/158/125 76/159/126 81/144/127
f 87/153/128 86/160/128 77/161/129 78/154/130
f 106/151/119 104/162/131 75/96/84 79/95/83
f 66/163/132 59/164/132 83/165/132 82/166/132
f 59/164/132 69/167/132 84/168/132 83/165/132
f 64/169/132 70/170/132 85/171/132 86/172/132
f 63/173/132 67/174/132 87/175/132 88/176/132
f 60/177/132 66/163/132 82/166/132 89/178/132
f 67/174/132 64/169/132 86/172/132 87/175/132
f 69/167/132 63/173/132 88/176/132 84/168/132
f 70/170/132 60/177/132 89/178/132 85/171/132
f 98/179/132 97/180/132 93/181/132 95/182/132
f 96/183/132 98/179/132 95/182/132 92/184/132
f 90/185/132 94/186/132 98/179/132 96/183/132
f 94/186/132 91/187/132 97/180/132 98/179/132
f 59/188/133 66/123/133 94/126/133 90/189/133
f 60/190/134 70/99/86 97/102/86 91/191/134
f 64/192/135 67/193/135 95/194/135 93/195/135
f 67/193/136 63/196/136 92/197/136 95/194/136
f 65/198/137 58/199/138 104/162/131 106/151/119
f 57/200/139 65/198/137 106/151/119 99/150/118
f 74/145/113 81/144/112 103/111/108 99/137/108
f 77/149/117 80/148/116 102/115/95 100/135/106
f 76/155/122 78/154/121 101/103/88 105/121/99
f 80/148/116 75/157/124 104/116/96 102/115/95
f 81/144/127 76/159/126 105/112/93 103/111/93
f 78/154/130 77/161/129 100/104/89 101/103/88
o Куб.001
v -0.306764 6.708539 -3.982272
v -0.306764 6.964220 -3.982272
v -0.350268 6.708292 -4.753771
v -0.350268 7.001017 -4.753771
v 0.300696 6.708539 -3.982272
v 0.300696 6.964220 -3.982272
v 0.354972 6.708292 -4.753771
v 0.354972 7.001017 -4.753771
v 0.131320 6.708292 -4.753771
v 0.131319 7.022387 -4.753771
v 0.108052 6.708539 -3.982272
v 0.108052 6.964220 -3.982272
v -0.109474 6.708292 -4.753771
v -0.099356 6.964220 -3.982272
v -0.109474 7.008111 -4.753771
v -0.099356 6.708539 -3.982272
v -0.331209 6.708539 -4.446971
v -0.331209 6.982741 -4.446971
v 0.600131 6.708539 -4.417377
v 0.325141 6.982741 -4.446971
v 0.116993 7.007202 -4.446971
v 0.116993 6.708539 -4.446971
v -0.107108 6.708539 -4.446971
v -0.107108 6.996714 -4.446971
v 0.600131 6.957823 -4.417377
v 0.325141 6.708539 -4.446971
v 0.617957 6.709392 -4.828601
v 0.399925 6.930263 -4.858196
v 0.617957 6.930263 -4.828601
v 0.399925 6.709392 -4.858196
v 0.339921 6.707807 -5.266694
v 0.339921 6.929979 -5.266694
v 0.165748 6.707807 -5.266694
v 0.165748 6.952161 -5.266694
v 0.116919 6.707559 -5.446105
v 0.116919 6.951345 -5.446105
v -0.075696 6.707559 -5.446105
v -0.075696 6.937078 -5.446105
v -0.314355 6.707450 -5.347772
v -0.314355 6.909821 -5.347772
v -0.126010 6.707450 -5.347772
v -0.126010 6.938360 -5.347772
v 0.344528 6.964113 -4.996858
v 0.145615 6.986507 -4.996858
v 0.145615 6.707929 -4.996858
v 0.344528 6.707929 -4.996858
v 0.121200 6.707805 -5.086563
v 0.121200 6.978827 -5.086563
v -0.095504 6.970176 -5.086563
v -0.095504 6.707805 -5.086563
v -0.335231 6.945249 -5.037396
v -0.335231 6.707750 -5.037396
v -0.120661 6.707750 -5.037397
v -0.120661 6.962285 -5.037396
vn -0.9984 -0.0000 0.0573
vn -0.9984 -0.0000 0.0574
vn -1.0000 -0.0000 0.0072
vn -1.0000 -0.0000 0.0045
vn 0.1094 0.9848 -0.1347
vn 0.1098 0.9849 -0.1342
vn 0.1178 0.9856 -0.1217
vn 0.8238 -0.0000 0.5669
vn -0.0000 -0.0000 1.0000
vn 0.0670 0.9958 0.0620
vn 0.0790 0.9966 0.0226
vn 0.0213 0.9978 0.0631
vn 0.0178 0.9971 0.0746
vn -0.0388 0.9976 0.0571
vn -0.0390 0.9978 0.0528
vn -0.0323 0.9979 0.0559
vn -0.0282 0.9972 0.0685
vn -0.0000 -1.0000 -0.0000
vn -0.0000 -1.0000 0.0004
vn 0.0001 -1.0000 -0.0003
vn 0.9998 -0.0000 -0.0217
vn 0.9998 -0.0000 -0.0211
vn 0.9999 -0.0000 -0.0119
vn -0.9982 -0.0000 -0.0600
vn -0.9982 -0.0000 -0.0594
vn -0.9977 -0.0000 -0.0671
vn 0.0271 0.9988 -0.0396
vn -0.0503 0.9975 -0.0505
vn -0.0000 -1.0000 0.0014
vn -0.0000 -1.0000 0.0012
vn -0.0000 -1.0000 0.0011
vn 0.1042 0.9936 -0.0448
vn -0.0490 0.9967 -0.0642
vn 0.9996 -0.0000 0.0269
vn 0.9996 -0.0000 0.0292
vn 0.9953 -0.0000 0.0968
vn -0.9986 -0.0000 0.0525
vn 0.0001 -1.0000 -0.0012
vn 0.0002 -1.0000 -0.0020
vn 0.0713 0.9969 -0.0342
vn 0.1345 -0.0000 -0.9909
vn 0.9991 -0.0000 0.0433
vn 0.0610 0.9941 -0.0899
vn -0.9839 -0.0000 -0.1789
vn -0.0000 -0.0000 -1.0000
vn -0.0000 -1.0000 0.0010
vn -0.0000 -1.0000 0.0005
vn -0.9978 -0.0000 -0.0666
vn -0.9978 -0.0000 -0.0659
vn -0.9972 -0.0000 -0.0744
vn 0.9995 -0.0000 -0.0311
vn 0.9996 -0.0000 -0.0300
vn 0.9999 -0.0000 -0.0171
vn -0.0526 0.9932 -0.1039
vn -0.0527 0.9932 -0.1036
vn -0.0557 0.9948 -0.0850
vn -0.9988 -0.0000 -0.0485
vn -0.9988 -0.0000 -0.0481
vn -0.9985 -0.0000 -0.0550
vn -0.0000 -1.0000 0.0007
vn -0.0000 -1.0000 0.0015
vn 0.9996 -0.0000 -0.0291
vn 0.9996 -0.0000 -0.0283
vn 0.9999 -0.0000 -0.0172
vn -0.0812 0.9871 -0.1382
vn -0.0814 0.9871 -0.1380
vn -0.1119 0.9889 -0.0974
vn -0.9983 -0.0000 -0.0587
vn -0.9991 -0.0000 -0.0419
vn 0.9995 -0.0000 -0.0304
vn 0.9992 -0.0000 -0.0394
vt 0.372145 0.548431
vt 0.400126 0.548409
vt 0.402015 0.579592
vt 0.372144 0.579615
vt 0.360866 0.762497
vt 0.381181 0.762568
vt 0.380731 0.790200
vt 0.362941 0.790129
vt 0.524162 0.888207
vt 0.549601 0.888207
vt 0.550253 0.938708
vt 0.524162 0.938708
vt 0.076381 0.922117
vt 0.050290 0.922117
vt 0.050290 0.900952
vt 0.076381 0.900952
vt 0.376733 0.659086
vt 0.379202 0.706423
vt 0.357942 0.706345
vt 0.357076 0.659086
vt 0.335083 0.706379
vt 0.312227 0.706423
vt 0.314747 0.659086
vt 0.335911 0.659086
vt 0.864517 0.779492
vt 0.863605 0.826912
vt 0.842364 0.826912
vt 0.844859 0.779492
vt 0.886473 0.826912
vt 0.885682 0.779492
vt 0.076381 0.962940
vt 0.050290 0.962940
vt 0.050290 0.943282
vt 0.076381 0.943282
vt 0.010475 0.933646
vt 0.038131 0.933688
vt 0.038102 0.969169
vt 0.013225 0.969131
vt 0.372112 0.608598
vt 0.396348 0.608579
vt 0.392758 0.640318
vt 0.372107 0.640335
vt 0.909341 0.826912
vt 0.906847 0.779492
vt 0.359385 0.737589
vt 0.334825 0.737634
vt 0.911286 0.858219
vt 0.886714 0.858219
vt 0.862143 0.858219
vt 0.382224 0.737657
vt 0.310260 0.737657
vt 0.839320 0.858219
vt 0.959981 0.308836
vt 0.930110 0.308802
vt 0.932010 0.277697
vt 0.959991 0.277729
vt 0.372107 0.501177
vt 0.398198 0.501156
vt 0.814303 0.823892
vt 0.834733 0.868875
vt 0.812484 0.865855
vt 0.407283 0.703485
vt 0.687294 0.809628
vt 0.664956 0.809628
vt 0.664956 0.787090
vt 0.687294 0.787090
vt 0.524250 0.847062
vt 0.546788 0.847062
vt 0.409113 0.745515
vt 0.386864 0.748534
vt 0.772801 0.431032
vt 0.800782 0.431032
vt 0.795427 0.473302
vt 0.772888 0.473303
vt 0.181545 0.392041
vt 0.181545 0.367106
vt 0.199308 0.369369
vt 0.199308 0.392041
vt 0.840386 0.883025
vt 0.860684 0.883025
vt 0.858629 0.910560
vt 0.840856 0.910560
vt 0.633340 0.455926
vt 0.661768 0.455884
vt 0.658304 0.483490
vt 0.633369 0.483527
vt 0.933849 0.332607
vt 0.959991 0.332637
vt 0.959973 0.359230
vt 0.937302 0.359204
vt 0.181545 0.246467
vt 0.181545 0.223046
vt 0.201189 0.221590
vt 0.201189 0.246467
vt 0.336272 0.771699
vt 0.358378 0.771671
vt 0.357954 0.808430
vt 0.338311 0.808476
vt 0.960936 0.813526
vt 0.987709 0.813487
vt 0.984386 0.850235
vt 0.960965 0.850269
vt 0.863175 0.892179
vt 0.885289 0.892179
vt 0.883267 0.928868
vt 0.863612 0.928868
vt 0.181545 0.319225
vt 0.181545 0.298574
vt 0.200754 0.295662
vt 0.200754 0.319225
vt 0.887856 0.887162
vt 0.909752 0.887162
vt 0.907621 0.918834
vt 0.888402 0.918834
vt 0.218798 0.956996
vt 0.244772 0.957048
vt 0.244742 0.987635
vt 0.221179 0.987588
vt 0.311831 0.766764
vt 0.333713 0.766709
vt 0.333178 0.798442
vt 0.313982 0.798533
vt 0.633340 0.431080
vt 0.665392 0.431032
vt 0.960936 0.779536
vt 0.991531 0.779492
vt 0.006079 0.900952
vt 0.038131 0.901001
vt 0.214177 0.929192
vt 0.244772 0.929253
s 1
usemtl Материал
f 123/201/140 124/202/141 110/203/142 109/204/143
f 150/205/144 149/206/145 138/207/146 140/208/146
f 125/209/147 131/210/147 112/211/147 111/212/147
f 122/213/148 120/214/148 108/215/148 107/216/148
f 112/217/149 126/218/150 127/219/151 118/220/152
f 130/221/153 124/222/154 108/223/155 120/224/156
f 117/225/157 128/226/158 132/227/159 111/228/157
f 129/229/158 128/226/158 117/225/157 122/230/157
f 111/231/148 112/232/148 118/233/148 117/234/148
f 154/235/160 153/236/161 141/237/162 142/238/162
f 158/239/163 157/240/164 146/241/165 145/242/165
f 123/243/158 129/229/158 122/230/157 107/244/157
f 127/219/151 130/221/153 120/224/156 118/220/152
f 117/234/148 118/233/148 120/214/148 122/213/148
f 116/245/166 121/246/167 130/221/153 127/219/151
f 109/247/168 119/248/169 129/229/158 123/243/158
f 119/248/169 115/249/170 128/226/158 129/229/158
f 114/250/171 116/245/166 127/219/151 126/218/150
f 121/246/167 110/251/172 124/222/154 130/221/153
f 115/249/170 113/252/169 132/227/159 128/226/158
f 113/253/173 114/254/174 126/255/175 132/256/175
f 107/257/176 108/258/176 124/202/141 123/201/140
f 125/259/177 132/227/159 136/260/178 133/261/178
f 112/217/149 131/262/179 126/218/150
f 125/259/177 111/228/157 132/227/159
f 133/263/180 136/264/180 134/265/180 135/266/180
f 131/210/181 125/209/181 133/267/181 135/268/181
f 126/218/150 131/262/179 135/269/182 134/270/182
f 132/271/183 126/272/183 134/273/183 136/274/183
f 139/275/184 140/276/184 138/277/184 137/278/184
f 152/279/185 151/280/185 139/281/186 137/282/186
f 151/283/187 150/284/188 140/285/189 139/286/189
f 149/287/190 152/288/191 137/289/192 138/290/192
f 143/291/184 144/292/184 142/293/184 141/294/184
f 155/295/193 154/296/194 142/297/195 144/298/195
f 156/299/196 155/300/197 144/301/198 143/302/198
f 153/303/170 156/304/170 143/305/199 141/306/199
f 145/307/184 146/308/184 148/309/184 147/310/184
f 159/311/168 158/312/200 145/313/185 147/314/185
f 160/315/201 159/316/202 147/317/203 148/318/203
f 157/319/204 160/320/205 148/321/206 146/322/206
f 114/254/174 113/253/173 152/288/191 149/287/190
f 115/323/207 116/324/207 150/284/188 151/283/187
f 113/252/169 115/249/170 151/280/185 152/279/185
f 116/245/166 114/250/171 149/206/145 150/205/144
f 115/249/170 119/248/169 156/304/170 153/303/170
f 119/325/208 121/326/208 155/300/197 156/299/196
f 121/246/167 116/245/166 154/296/194 155/295/193
f 116/327/209 115/328/209 153/236/161 154/235/160
f 110/251/172 121/246/167 160/320/205 157/319/204
f 121/329/210 119/330/210 159/316/202 160/315/201
f 119/248/169 109/247/168 158/312/200 159/311/168
f 109/204/143 110/203/142 157/240/164 158/239/163
o Куб.002
v -0.296852 6.695922 3.946156
v -0.296852 6.951603 3.946156
v -0.340357 6.695675 4.717653
v -0.340357 6.988400 4.717653
v 0.310607 6.695922 3.946156
v 0.310607 6.951603 3.946156
v 0.364883 6.695675 4.717653
v 0.364883 6.988400 4.717653
v 0.141231 6.695675 4.717654
v 0.141231 7.009770 4.717654
v 0.117964 6.695922 3.946156
v 0.117964 6.951603 3.946156
v -0.099563 6.695675 4.717654
v -0.089444 6.951603 3.946156
v -0.099563 6.995494 4.717654
v -0.089444 6.695922 3.946156
v -0.321298 6.695922 4.410854
v -0.321298 6.970125 4.410854
v 0.610043 6.695922 4.381259
v 0.335052 6.970125 4.410854
v 0.126904 6.994586 4.410854
v 0.126904 6.695922 4.410854
v -0.097197 6.695922 4.410854
v -0.097197 6.984097 4.410854
v 0.610043 6.945207 4.381259
v 0.335052 6.695922 4.410854
v 0.627868 6.696775 4.792484
v 0.409836 6.917645 4.822079
v 0.627868 6.917645 4.792484
v 0.409836 6.696775 4.822079
v 0.349832 6.695190 5.230577
v 0.349832 6.917362 5.230577
v 0.175660 6.695190 5.230577
v 0.175660 6.939545 5.230577
v 0.126830 6.694942 5.409986
v 0.126830 6.938729 5.409986
v -0.065785 6.694942 5.409986
v -0.065785 6.924461 5.409986
v -0.304444 6.694834 5.311653
v -0.304444 6.897204 5.311653
v -0.116098 6.694834 5.311653
v -0.116098 6.925744 5.311653
v 0.354439 6.951497 4.960740
v 0.155526 6.973890 4.960740
v 0.155526 6.695312 4.960740
v 0.354439 6.695312 4.960740
v 0.131112 6.695188 5.050445
v 0.131112 6.966210 5.050445
v -0.085593 6.957559 5.050445
v -0.085593 6.695188 5.050445
v -0.325319 6.932632 5.001279
v -0.325319 6.695134 5.001279
v -0.110750 6.695134 5.001279
v -0.110750 6.949669 5.001279
vn -0.9984 -0.0000 -0.0573
vn -0.9984 -0.0000 -0.0574
vn -1.0000 -0.0000 -0.0072
vn -1.0000 -0.0000 -0.0045
vn 0.1094 0.9848 0.1347
vn 0.1098 0.9849 0.1342
vn 0.1178 0.9856 0.1217
vn 0.8238 -0.0000 -0.5669
vn -0.0000 -0.0000 -1.0000
vn 0.0670 0.9958 -0.0620
vn 0.0790 0.9966 -0.0226
vn 0.0213 0.9978 -0.0631
vn 0.0178 0.9971 -0.0746
vn -0.0388 0.9976 -0.0571
vn -0.0390 0.9978 -0.0528
vn -0.0323 0.9979 -0.0559
vn -0.0282 0.9972 -0.0685
vn -0.0000 -1.0000 -0.0000
vn -0.0000 -1.0000 -0.0004
vn 0.0001 -1.0000 0.0003
vn 0.9998 -0.0000 0.0217
vn 0.9998 -0.0000 0.0211
vn 0.9999 -0.0000 0.0119
vn -0.9982 -0.0000 0.0600
vn -0.9982 -0.0000 0.0594
vn -0.9977 -0.0000 0.0671
vn 0.0271 0.9988 0.0396
vn -0.0503 0.9975 0.0505
vn -0.0000 -1.0000 -0.0014
vn -0.0000 -1.0000 -0.0012
vn -0.0000 -1.0000 -0.0011
vn 0.1042 0.9936 0.0448
vn -0.0490 0.9967 0.0642
vn 0.9996 -0.0000 -0.0269
vn 0.9996 -0.0000 -0.0292
vn 0.9953 -0.0000 -0.0968
vn -0.9986 -0.0000 -0.0525
vn 0.0001 -1.0000 0.0012
vn 0.0002 -1.0000 0.0020
vn 0.0713 0.9969 0.0342
vn 0.1345 -0.0000 0.9909
vn 0.9991 -0.0000 -0.0433
vn 0.0610 0.9941 0.0899
vn -0.9839 -0.0000 0.1789
vn -0.0000 -0.0000 1.0000
vn -0.0000 -1.0000 -0.0010
vn -0.0000 -1.0000 -0.0005
vn -0.9978 -0.0000 0.0666
vn -0.9978 -0.0000 0.0659
vn -0.9972 -0.0000 0.0744
vn 0.9995 -0.0000 0.0311
vn 0.9996 -0.0000 0.0300
vn 0.9999 -0.0000 0.0171
vn -0.0526 0.9932 0.1039
vn -0.0527 0.9932 0.1036
vn -0.0557 0.9948 0.0850
vn -0.9988 -0.0000 0.0485
vn -0.9988 -0.0000 0.0481
vn -0.9985 -0.0000 0.0550
vn -0.0000 -1.0000 -0.0007
vn -0.0000 -1.0000 -0.0015
vn 0.9996 -0.0000 0.0291
vn 0.9996 -0.0000 0.0283
vn 0.9999 -0.0000 0.0172
vn -0.0812 0.9871 0.1382
vn -0.0814 0.9871 0.1380
vn -0.1119 0.9889 0.0974
vn -0.9983 -0.0000 0.0587
vn -0.9991 -0.0000 0.0419
vn 0.9995 -0.0000 0.0304
vn 0.9992 -0.0000 0.0394
vt 0.383614 0.867910
vt 0.411595 0.867887
vt 0.413484 0.899070
vt 0.383613 0.899094
vt 0.481890 0.788925
vt 0.502206 0.788996
vt 0.501756 0.816627
vt 0.483965 0.816556
vt 0.661752 0.890128
vt 0.687190 0.890128
vt 0.687843 0.940629
vt 0.661752 0.940629
vt 0.993921 0.172818
vt 0.967830 0.172818
vt 0.967830 0.151653
vt 0.993921 0.151653
vt 0.497758 0.685514
vt 0.500226 0.732851
vt 0.478967 0.732773
vt 0.478100 0.685514
vt 0.456108 0.732807
vt 0.433251 0.732851
vt 0.435772 0.685514
vt 0.456936 0.685514
vt 0.753556 0.780474
vt 0.752643 0.827894
vt 0.731403 0.827894
vt 0.733898 0.780474
vt 0.775512 0.827894
vt 0.774721 0.780474
vt 0.993921 0.213641
vt 0.967830 0.213641
vt 0.967830 0.193983
vt 0.993921 0.193983
vt 0.950460 0.038774
vt 0.978116 0.038816
vt 0.978087 0.074296
vt 0.953210 0.074258
vt 0.383581 0.928076
vt 0.407817 0.928057
vt 0.404227 0.959797
vt 0.383576 0.959813
vt 0.798380 0.827894
vt 0.795886 0.780474
vt 0.480409 0.764017
vt 0.455850 0.764062
vt 0.800325 0.859201
vt 0.775753 0.859201
vt 0.751181 0.859201
vt 0.503248 0.764085
vt 0.431284 0.764085
vt 0.728359 0.859201
vt 0.959981 0.402527
vt 0.930110 0.402494
vt 0.932010 0.371389
vt 0.959991 0.371420
vt 0.383576 0.820655
vt 0.409667 0.820635
vt 0.703342 0.824874
vt 0.723772 0.869857
vt 0.701523 0.866837
vt 0.528307 0.729913
vt 0.199499 0.853799
vt 0.177161 0.853799
vt 0.177161 0.831260
vt 0.199499 0.831260
vt 0.661839 0.848983
vt 0.684378 0.848983
vt 0.530138 0.771943
vt 0.507889 0.774962
vt 0.946064 0.086455
vt 0.974046 0.086455
vt 0.968690 0.128726
vt 0.946152 0.128726
vt 0.181545 0.429135
vt 0.181545 0.404200
vt 0.199308 0.406463
vt 0.199308 0.429135
vt 0.729425 0.884007
vt 0.749723 0.884007
vt 0.747668 0.911543
vt 0.729895 0.911543
vt 0.677551 0.455926
vt 0.705978 0.455884
vt 0.702515 0.483490
vt 0.677580 0.483527
vt 0.933849 0.426299
vt 0.959991 0.426328
vt 0.959973 0.452922
vt 0.937302 0.452896
vt 0.181545 0.283503
vt 0.181545 0.260082
vt 0.201189 0.258626
vt 0.201189 0.283503
vt 0.457297 0.798126
vt 0.479403 0.798099
vt 0.478979 0.834858
vt 0.459336 0.834904
vt 0.960936 0.896462
vt 0.987709 0.896423
vt 0.984386 0.933171
vt 0.960965 0.933206
vt 0.752214 0.893161
vt 0.774328 0.893161
vt 0.772306 0.929850
vt 0.752651 0.929850
vt 0.181545 0.354947
vt 0.181545 0.334296
vt 0.200754 0.331384
vt 0.200754 0.354947
vt 0.776895 0.888144
vt 0.798791 0.888144
vt 0.796660 0.919816
vt 0.777441 0.919816
vt 0.261552 0.956996
vt 0.287526 0.957048
vt 0.287496 0.987635
vt 0.263932 0.987588
vt 0.432856 0.793191
vt 0.454737 0.793137
vt 0.454203 0.824870
vt 0.435006 0.824961
vt 0.677551 0.431080
vt 0.709603 0.431032
vt 0.960936 0.862473
vt 0.991531 0.862428
vt 0.946064 0.006079
vt 0.978116 0.006128
vt 0.256931 0.929192
vt 0.287526 0.929253
s 1
usemtl Материал
f 177/331/211 163/334/214 164/333/213 178/332/212
f 204/335/215 194/338/217 192/337/217 203/336/216
f 179/339/218 165/342/218 166/341/218 185/340/218
f 176/343/219 161/346/219 162/345/219 174/344/219
f 166/347/220 172/350/223 181/349/222 180/348/221
f 184/351/224 174/354/227 162/353/226 178/352/225
f 171/355/228 165/358/228 186/357/230 182/356/229
f 183/359/229 176/360/228 171/355/228 182/356/229
f 165/361/219 171/364/219 172/363/219 166/362/219
f 208/365/231 196/368/233 195/367/233 207/366/232
f 212/369/234 199/372/236 200/371/236 211/370/235
f 177/373/229 161/374/228 176/360/228 183/359/229
f 181/349/222 172/350/223 174/354/227 184/351/224
f 171/364/219 176/343/219 174/344/219 172/363/219
f 170/375/237 181/349/222 184/351/224 175/376/238
f 163/377/239 177/373/229 183/359/229 173/378/240
f 173/378/240 183/359/229 182/356/229 169/379/241
f 168/380/242 180/348/221 181/349/222 170/375/237
f 175/376/238 184/351/224 178/352/225 164/381/243
f 169/379/241 182/356/229 186/357/230 167/382/240
f 167/383/244 186/386/246 180/385/246 168/384/245
f 161/387/247 177/331/211 178/332/212 162/388/247
f 179/389/248 187/391/249 190/390/249 186/357/230
f 166/347/220 180/348/221 185/392/250
f 179/389/248 186/357/230 165/358/228
f 187/393/251 189/396/251 188/395/251 190/394/251
f 185/340/252 189/398/252 187/397/252 179/339/252
f 180/348/221 188/400/253 189/399/253 185/392/250
f 186/401/254 190/404/254 188/403/254 180/402/254
f 193/405/255 191/408/255 192/407/255 194/406/255
f 206/409/256 191/412/257 193/411/257 205/410/256
f 205/413/258 193/416/260 194/415/260 204/414/259
f 203/417/261 192/420/263 191/419/263 206/418/262
f 197/421/255 195/424/255 196/423/255 198/422/255
f 209/425/264 198/428/266 196/427/266 208/426/265
f 210/429/267 197/432/269 198/431/269 209/430/268
f 207/433/241 195/436/270 197/435/270 210/434/241
f 199/437/255 201/440/255 202/439/255 200/438/255
f 213/441/239 201/444/256 199/443/256 212/442/271
f 214/445/272 202/448/274 201/447/274 213/446/273
f 211/449/275 200/452/277 202/451/277 214/450/276
f 168/384/245 203/417/261 206/418/262 167/383/244
f 169/453/278 205/413/258 204/414/259 170/454/278
f 167/382/240 206/409/256 205/410/256 169/379/241
f 170/375/237 204/335/215 203/336/216 168/380/242
f 169/379/241 207/433/241 210/434/241 173/378/240
f 173/455/279 210/429/267 209/430/268 175/456/279
f 175/376/238 209/425/264 208/426/265 170/375/237
f 170/457/280 208/365/231 207/366/232 169/458/280
f 164/381/243 211/449/275 214/450/276 175/376/238
f 175/459/281 214/445/272 213/446/273 173/460/281
f 173/378/240 213/441/239 212/442/271 163/377/239
f 163/334/214 212/369/234 211/370/235 164/333/213
o Куб.003
v -0.318264 6.551776 1.045317
v -0.313689 7.204393 1.045317
v -0.389181 6.471740 4.385838
v -0.391683 7.264273 4.385838
v 0.337981 6.551776 1.045317
v 0.333508 7.204379 1.045317
v 0.409004 6.471739 4.385839
v 0.411506 7.264270 4.385839
v -0.315990 6.875393 1.045317
v -0.565742 6.870832 4.385838
v 0.585564 6.870831 4.385839
v 0.335810 6.874695 1.045317
v 0.009911 6.295179 4.385839
v 0.009911 7.364776 4.385839
v 0.009911 6.408916 1.045317
v 0.009911 7.204440 1.045317
v 0.009911 6.874695 1.045317
v -0.414918 6.445874 4.215322
v -0.414780 7.295424 4.215322
v 0.434737 6.445874 4.215322
v 0.434603 7.295420 4.215322
v 0.618253 6.870545 4.215322
v -0.598430 6.870566 4.215322
v 0.009911 7.399273 4.215322
v 0.009911 6.257998 4.215322
v -0.631983 6.870832 4.385838
v -0.435106 6.425815 4.385838
v 0.009911 6.228938 4.385839
v 0.009911 7.427222 4.385839
v 0.454928 7.315849 4.385839
v 0.651805 6.870831 4.385839
v 0.454928 6.425815 4.385839
v -0.435106 7.315852 4.385839
v -0.369732 6.490685 4.095551
v -0.372111 7.244595 4.095551
v 0.389554 6.490685 4.095552
v 0.391934 7.244592 4.095552
v -0.537687 6.870328 4.095551
v 0.557510 6.870328 4.095552
v 0.009911 6.322730 4.095552
v 0.009911 7.340200 4.095552
v 0.009911 6.870328 4.095552
v -0.366591 6.498825 2.630320
v 0.384055 7.249900 2.630320
v 0.477032 6.872620 2.630320
v 0.009911 7.301857 2.630320
v 0.009911 6.333457 2.630320
v -0.364235 7.249908 2.630320
v 0.386359 6.498825 2.630320
v -0.457210 6.872980 2.630320
vn -0.9248 0.3624 -0.1162
vn -0.9250 0.3620 -0.1156
vn -0.9034 0.3952 -0.1667
vn -0.0000 -0.9964 0.0844
vn -0.2420 -0.9668 0.0819
vn 0.9980 0.0023 -0.0637
vn 0.9708 0.2317 -0.0619
vn 0.9892 0.1333 -0.0617
vn 0.9981 0.0040 -0.0621
vn -0.0000 -0.0000 -1.0000
vn 0.4017 -0.9147 -0.0432
vn 0.4004 -0.9153 -0.0432
vn -0.0000 0.9989 -0.0472
vn -0.1340 0.9899 -0.0468
vn -0.0742 0.9962 -0.0461
vn -0.0000 0.9989 -0.0462
vn 0.9717 -0.2277 -0.0621
vn 0.9902 -0.1258 -0.0614
vn 0.9109 -0.4030 0.0887
vn -0.9253 -0.3612 -0.1152
vn -0.9251 -0.3616 -0.1158
vn -0.9036 -0.3952 -0.1653
vn -0.4031 0.9111 0.0865
vn 0.1340 0.9899 -0.0468
vn 0.0743 0.9962 -0.0461
vn -0.4017 -0.9148 -0.0432
vn -0.4004 -0.9153 -0.0432
vn 0.4031 0.9111 0.0865
vn -0.3997 -0.9036 -0.1538
vn -0.4019 -0.9102 -0.1002
vn -0.4019 -0.9102 -0.0999
vn 0.2375 0.9597 -0.1503
vn -0.0000 0.9880 -0.1547
vn -0.0000 0.9948 -0.1022
vn 0.2155 0.9713 -0.1007
vn -0.9718 -0.2274 -0.0621
vn -0.9980 0.0026 -0.0637
vn 0.9036 -0.3952 -0.1653
vn 0.9251 -0.3617 -0.1158
vn 0.9253 -0.3613 -0.1152
vn -0.2375 0.9597 -0.1503
vn -0.2155 0.9713 -0.1007
vn 0.3997 -0.9036 -0.1538
vn 0.4019 -0.9102 -0.0999
vn 0.4019 -0.9102 -0.1002
vn 0.9034 0.3952 -0.1667
vn 0.9250 0.3619 -0.1156
vn 0.9248 0.3623 -0.1162
vn -0.9708 0.2319 -0.0619
vn -0.0000 -0.0000 1.0000
vn 0.9110 0.4030 0.0873
vn 0.2420 -0.9668 0.0819
vn -0.9109 -0.4030 0.0887
vn -0.9110 0.4030 0.0873
vn -0.9981 0.0043 -0.0620
vn -0.9891 0.1335 -0.0617
vn -0.9902 -0.1254 -0.0614
vt 0.814011 0.305636
vt 0.765467 0.306680
vt 0.763584 0.288347
vt 0.814533 0.287227
vt 0.875174 0.943331
vt 0.875618 0.987332
vt 0.844677 0.986558
vt 0.844255 0.944702
vt 0.270733 0.603001
vt 0.308167 0.603518
vt 0.304220 0.773126
vt 0.269765 0.773125
vt 0.359527 0.940731
vt 0.359521 0.905456
vt 0.394139 0.905456
vt 0.394391 0.940651
vt 0.043377 0.803210
vt 0.011858 0.802479
vt 0.016234 0.632831
vt 0.043750 0.633462
vt 0.604593 0.475419
vt 0.643166 0.475646
vt 0.638170 0.645263
vt 0.604022 0.645262
vt 0.359534 0.990559
vt 0.394639 0.975271
vt 0.229607 0.603534
vt 0.236015 0.773126
vt 0.963322 0.793697
vt 0.962321 0.748673
vt 0.993219 0.749952
vt 0.994172 0.792782
vt 0.854351 0.306714
vt 0.856700 0.288383
vt 0.575129 0.833613
vt 0.575901 0.794592
vt 0.606808 0.793901
vt 0.606074 0.831020
vt 0.324436 0.975281
vt 0.324663 0.940736
vt 0.564200 0.475646
vt 0.569872 0.645263
vt 0.087295 0.802479
vt 0.081982 0.632831
vt 0.324904 0.905467
vt 0.575129 0.749381
vt 0.606074 0.750894
vt 0.094143 0.990442
vt 0.042180 0.991312
vt 0.043005 0.972957
vt 0.092608 0.972127
vt 0.556618 0.287714
vt 0.605533 0.287228
vt 0.605165 0.305576
vt 0.558527 0.306030
vt 0.849582 0.476302
vt 0.812458 0.475763
vt 0.221338 0.415613
vt 0.272264 0.414470
vt 0.271701 0.432877
vt 0.223199 0.433943
vt 0.650542 0.287714
vt 0.648162 0.306030
vt 0.004972 0.990442
vt 0.007482 0.972127
vt 0.314492 0.415578
vt 0.312113 0.433910
vt 0.770950 0.476285
vt 0.813424 0.146991
vt 0.782022 0.181537
vt 0.775542 0.179031
vt 0.810557 0.140510
vt 0.782022 0.228222
vt 0.775542 0.231089
vt 0.894210 0.225567
vt 0.886662 0.181929
vt 0.892771 0.179226
vt 0.901136 0.227583
vt 0.816568 0.259624
vt 0.863253 0.259624
vt 0.866120 0.266104
vt 0.814063 0.266104
vt 0.859448 0.146990
vt 0.862615 0.140510
vt 0.157659 0.854486
vt 0.203627 0.834150
vt 0.210807 0.875662
vt 0.181359 0.908059
vt 0.104087 0.878187
vt 0.136949 0.908059
vt 0.104087 0.833777
vt 0.133958 0.800914
vt 0.177739 0.800914
vt 0.962321 0.831567
vt 0.993219 0.828806
vt 0.875618 0.906862
vt 0.844677 0.910010
vt 0.436443 0.905456
vt 0.435429 0.942736
vt 0.404583 0.943760
vt 0.405547 0.908296
vt 0.436443 0.988427
vt 0.405547 0.987224
vt 0.810905 0.645891
vt 0.776434 0.645891
vt 0.844813 0.645891
s 1
usemtl Material
f 237/461/282 240/464/284 247/463/284 233/462/283
f 228/465/285 255/468/285 251/467/286 222/466/286
f 259/469/287 226/472/290 220/471/289 258/470/288
f 231/473/291 223/476/291 216/475/291 230/474/291
f 261/477/292 229/480/293 219/479/293 263/478/292
f 260/481/294 230/484/297 216/483/296 262/482/295
f 229/485/291 215/486/291 223/476/291 231/473/291
f 263/487/298 219/488/299 226/472/290 259/469/287
f 224/489/300 252/492/300 249/491/300 218/490/300
f 232/493/301 241/494/303 240/464/303 237/461/302
f 221/495/304 250/498/304 254/497/304 227/496/304
f 219/499/291 229/485/291 231/473/291 226/500/291
f 258/501/305 220/502/306 230/484/297 260/481/294
f 257/503/307 215/504/308 229/480/308 261/477/307
f 226/500/291 231/473/291 230/474/291 220/505/291
f 227/496/309 254/497/309 248/507/309 217/506/309
f 241/508/310 232/511/312 239/510/311 242/509/310
f 244/512/313 235/515/316 238/514/315 243/513/314
f 257/516/317 232/493/301 237/461/302 264/517/318
f 246/518/319 234/521/321 236/520/320 245/519/319
f 243/513/314 238/514/315 233/523/323 247/522/322
f 242/509/324 239/510/326 234/525/325 246/524/324
f 245/519/327 236/520/329 235/527/328 244/526/327
f 264/517/318 237/461/282 233/462/283 262/528/330
f 224/529/331 240/532/331 241/531/331 217/530/331
f 217/530/331 241/531/331 242/534/331 227/533/331
f 222/535/331 244/538/331 243/537/331 228/536/331
f 221/539/331 246/542/331 245/541/331 225/540/331
f 218/543/331 247/544/331 240/532/331 224/529/331
f 225/540/331 245/541/331 244/538/331 222/535/331
f 227/533/331 242/534/331 246/542/331 221/539/331
f 228/536/331 243/537/331 247/544/331 218/543/331
f 256/545/331 253/548/331 251/547/331 255/546/331
f 254/549/331 250/550/331 253/548/331 256/545/331
f 248/551/331 254/549/331 256/545/331 252/552/331
f 252/552/331 256/545/331 255/546/331 249/553/331
f 217/554/332 248/555/332 252/492/332 224/489/332
f 218/556/333 249/557/333 255/468/285 228/465/285
f 222/558/334 251/561/334 253/560/334 225/559/334
f 225/559/335 253/560/335 250/563/335 221/562/335
f 223/564/336 264/517/318 262/528/330 216/565/337
f 215/566/338 257/516/317 264/517/318 223/564/336
f 232/511/312 257/503/307 261/477/307 239/510/311
f 235/515/316 258/501/305 260/481/294 238/514/315
f 234/521/321 263/487/298 259/469/287 236/520/320
f 238/514/315 260/481/294 262/482/295 233/523/323
f 239/510/326 261/477/292 263/478/292 234/525/325
f 236/520/329 259/469/287 258/470/288 235/527/328
o Куб.004
v -0.743181 2.367127 -0.463047
v -0.428039 3.757817 -0.463047
v 0.743181 2.367127 -0.463047
v 0.428039 3.757817 -0.463047
v -0.000000 2.367127 -1.206228
v -0.000000 3.757817 -0.891086
v 0.279759 2.367127 -0.002093
v -0.279759 2.367127 -0.002093
v -0.421523 3.757817 0.002521
v 0.421523 3.757817 0.002521
vn -0.6982 0.1582 -0.6982
vn 0.6982 0.1582 -0.6982
vn -0.0000 -0.0033 1.0000
vn -0.0000 -1.0000 -0.0000
vn -0.8905 0.0548 0.4517
vn 0.8905 0.0548 0.4517
vn -0.0000 1.0000 -0.0000
vt 0.653163 0.155642
vt 0.677002 0.004972
vt 0.741759 0.004972
vt 0.765598 0.155642
vt 0.452751 0.805876
vt 0.476589 0.655206
vt 0.541347 0.655206
vt 0.565185 0.805876
vt 0.104087 0.782286
vt 0.104087 0.632831
vt 0.144619 0.639223
vt 0.130987 0.786529
vt 0.436870 0.783077
vt 0.436871 0.895512
vt 0.324436 0.895512
vt 0.324622 0.825588
vt 0.366947 0.783264
vt 0.189357 0.640209
vt 0.197253 0.790970
vt 0.885963 0.805730
vt 0.903923 0.655835
vt 0.948628 0.657842
vt 0.952377 0.805730
vt 0.686996 0.912044
vt 0.641206 0.866253
vt 0.641903 0.816448
vt 0.732089 0.816448
vt 0.732786 0.866253
s 1
usemtl Material
f 265/567/339 266/568/339 270/569/339 269/570/339
f 269/571/340 270/572/340 268/573/340 267/574/340
f 271/575/341 274/576/341 273/577/341 272/578/341
f 265/579/342 269/580/342 267/581/342 271/582/342 272/583/342
f 272/578/343 273/577/343 266/584/343 265/585/343
f 267/586/344 268/587/344 274/588/344 271/589/344
f 270/590/345 266/591/345 273/592/345 274/593/345 268/594/345
o Куб.006
v -0.322304 0.000000 -0.088067
v -0.333134 2.609032 -0.132588
v -0.322304 0.000000 -0.807182
v -0.333134 2.609032 -0.798856
v 0.622336 0.000000 -0.088067
v 0.333134 2.609032 -0.132588
v 0.548588 0.000000 -0.807182
v 0.333134 2.609032 -0.798856
v -0.309361 1.304516 -0.156361
v -0.309361 1.304516 -0.775083
v 0.309361 1.304516 -0.775083
v 0.309361 1.304516 -0.156361
v -0.395509 -0.075191 -0.057594
v -0.395509 1.422555 -0.089168
v -0.395509 -0.075191 -0.880187
v -0.395509 1.422555 -0.880187
v 0.833662 -0.075191 -0.057594
v 0.395509 1.612921 -0.089168
v 0.833662 -0.075191 -0.880187
v 0.395509 1.612921 -0.880187
v -0.314038 0.833107 -0.786683
v 0.395810 0.833107 -0.786683
v 0.422460 0.833107 -0.131682
v -0.314038 0.833107 -0.131682
v -0.395509 0.673682 -0.089168
v -0.395509 0.673682 -0.880187
v 0.502378 0.768865 -0.880187
v 0.502378 0.768865 -0.089168
vn -1.0000 -0.0040 -0.0000
vn -0.9998 -0.0182 -0.0000
vn -1.0000 -0.0041 -0.0000
vn -0.0000 0.0031 -1.0000
vn -0.0000 -0.0182 -0.9998
vn -0.0000 0.0042 -1.0000
vn 0.9967 0.0817 -0.0000
vn 0.9998 -0.0182 -0.0000
vn 0.9958 0.0902 -0.0159
vn -0.0000 0.0193 0.9998
vn -0.0000 -0.0182 0.9998
vn -0.0000 0.0169 0.9999
vn -0.0000 -1.0000 -0.0000
vn -0.0000 1.0000 -0.0000
vn -0.0000 0.0523 0.9986
vn 0.9688 0.2272 -0.0994
vn 0.9740 0.2146 -0.0721
vn -0.0000 0.0246 -0.9997
vn -1.0000 0.0099 -0.0000
vn 0.9836 0.1804 -0.0000
vn -1.0000 -0.0000 -0.0000
vn -0.0000 -0.0000 -1.0000
vn 0.9689 0.2474 -0.0000
vn 0.9921 0.1256 -0.0000
vn 0.9686 0.2487 -0.0000
vn -0.0010 0.0213 0.9998
vn -0.0000 -0.0000 1.0000
vn -0.0009 0.0209 0.9998
vn -0.2340 0.9722 -0.0000
vn -0.0018 0.0392 0.9992
vn 0.9309 0.3654 -0.0000
vt 0.819453 0.634214
vt 0.817027 0.501095
vt 0.885016 0.501095
vt 0.882590 0.634214
vt 0.433158 0.355437
vt 0.431284 0.222327
vt 0.499273 0.222609
vt 0.496294 0.355700
vt 0.729377 0.632002
vt 0.726803 0.501444
vt 0.794778 0.501095
vt 0.792500 0.631678
vt 0.245563 0.355614
vt 0.242583 0.222609
vt 0.310572 0.222327
vt 0.308700 0.355352
vt 0.165002 0.831260
vt 0.165002 0.920130
vt 0.091620 0.927656
vt 0.091620 0.831260
vt 0.214177 0.849044
vt 0.281693 0.849044
vt 0.281693 0.917033
vt 0.214177 0.917033
vt 0.234221 0.403814
vt 0.309376 0.403503
vt 0.800325 0.768315
vt 0.726803 0.767355
vt 0.795328 0.681054
vt 0.432481 0.403546
vt 0.504916 0.403847
vt 0.816934 0.682319
vt 0.883774 0.682319
vt 0.728447 0.680914
vt 0.837232 0.228071
vt 0.837232 0.151653
vt 0.893959 0.151038
vt 0.893959 0.227456
vt 0.530734 0.101922
vt 0.530734 0.025505
vt 0.611454 0.006079
vt 0.622359 0.092209
vt 0.568874 0.745723
vt 0.569309 0.659025
vt 0.626634 0.658115
vt 0.626199 0.744812
vt 0.426951 0.092184
vt 0.437855 0.006079
vt 0.518574 0.025499
vt 0.518576 0.101893
vt 0.752265 0.006079
vt 0.752265 0.131510
vt 0.668324 0.131510
vt 0.668324 0.006079
vt 0.512004 0.847062
vt 0.512004 0.929508
vt 0.431284 0.929508
vt 0.431284 0.847062
vt 0.812484 0.767333
vt 0.885866 0.767333
vt 0.431284 0.488568
vt 0.520154 0.488936
vt 0.214177 0.488997
vt 0.310572 0.488598
vt 0.393145 0.178369
vt 0.518576 0.178369
vt 0.568874 0.836491
vt 0.652797 0.836824
vt 0.530734 0.178339
vt 0.656165 0.178339
vt 0.834010 0.304490
vt 0.893959 0.303875
s 1
usemtl Материал
f 283/595/346 276/596/347 278/597/347 284/598/348
f 284/599/349 278/600/350 282/601/350 285/602/351
f 285/603/352 282/604/353 280/605/353 286/606/354
f 286/607/355 280/608/356 276/609/356 283/610/357
f 277/611/358 281/612/358 279/613/358 275/614/358
f 282/615/359 278/616/359 276/617/359 280/618/359
f 297/619/360 286/607/355 283/610/357 298/620/360
f 279/621/361 281/622/362 286/606/354 297/623/361
f 295/624/363 284/599/349 285/602/351 296/625/363
f 298/626/364 283/595/346 284/598/348 295/627/364
f 281/622/362 296/628/365 285/603/352 286/606/354
f 299/629/366 288/630/366 290/631/366 300/632/366
f 300/633/367 290/634/367 294/635/367 301/636/367
f 301/637/368 294/638/369 292/639/369 302/640/370
f 302/641/371 292/642/372 288/643/372 299/644/373
f 289/645/358 293/646/358 291/647/358 287/648/358
f 294/649/374 290/650/374 288/651/374 292/652/374
f 275/653/364 298/626/364 295/627/364 277/654/364
f 277/655/363 295/624/363 296/625/363 281/656/363
f 279/657/360 297/619/360 298/620/360 275/658/360
f 291/659/375 302/641/371 299/644/373 287/660/375
f 293/661/376 301/637/368 302/640/370 291/662/376
f 289/663/367 300/633/367 301/636/367 293/664/367
f 287/665/366 299/629/366 300/632/366 289/666/366
o Куб.007
v -0.322304 0.000000 0.092762
v -0.333134 2.609032 0.137283
v -0.322304 0.000000 0.811877
v -0.333134 2.609032 0.803550
v 0.622336 0.000000 0.092762
v 0.333134 2.609032 0.137283
v 0.548588 0.000000 0.811877
v 0.333134 2.609032 0.803550
v -0.309361 1.304516 0.161056
v -0.309361 1.304516 0.779778
v 0.309361 1.304516 0.779778
v 0.309361 1.304516 0.161056
v -0.395509 -0.075191 0.062289
v -0.395509 1.422555 0.093863
v -0.395509 -0.075191 0.884881
v -0.395509 1.422555 0.884881
v 0.833662 -0.075191 0.062289
v 0.395509 1.612921 0.093863
v 0.833662 -0.075191 0.884881
v 0.395509 1.612921 0.884881
v -0.314038 0.833107 0.791377
v 0.395810 0.833107 0.791377
v 0.422460 0.833107 0.136377
v -0.314038 0.833107 0.136377
v -0.395509 0.673682 0.093863
v -0.395509 0.673682 0.884881
v 0.502378 0.768865 0.884881
v 0.502378 0.768865 0.093863
vn -1.0000 -0.0040 -0.0000
vn -0.9998 -0.0182 -0.0000
vn -1.0000 -0.0041 -0.0000
vn -0.0000 0.0031 1.0000
vn -0.0000 -0.0182 0.9998
vn -0.0000 0.0042 1.0000
vn 0.9967 0.0817 -0.0000
vn 0.9998 -0.0182 -0.0000
vn 0.9958 0.0902 0.0159
vn -0.0000 0.0193 -0.9998
vn -0.0000 -0.0182 -0.9998
vn -0.0000 0.0169 -0.9999
vn -0.0000 -1.0000 -0.0000
vn -0.0000 1.0000 -0.0000
vn -0.0000 0.0523 -0.9986
vn 0.9688 0.2272 0.0994
vn 0.9740 0.2146 0.0721
vn -0.0000 0.0246 0.9997
vn -1.0000 0.0099 -0.0000
vn 0.9836 0.1804 -0.0000
vn -1.0000 -0.0000 -0.0000
vn -0.0000 -0.0000 1.0000
vn 0.9689 0.2474 -0.0000
vn 0.9921 0.1256 -0.0000
vn 0.9686 0.2487 -0.0000
vn -0.0010 0.0213 -0.9998
vn -0.0000 -0.0000 -1.0000
vn -0.0009 0.0209 -0.9998
vn -0.2340 0.9722 -0.0000
vn -0.0018 0.0392 -0.9992
vn 0.9309 0.3654 -0.0000
vt 0.013048 0.755674
vt 0.010623 0.622555
vt 0.078612 0.622555
vt 0.076186 0.755674
vt 0.534186 0.355437
vt 0.532312 0.222327
vt 0.600301 0.222609
vt 0.597323 0.355700
vt 0.750903 0.282559
vt 0.748330 0.152002
vt 0.816304 0.151653
vt 0.814026 0.282236
vt 0.354117 0.355614
vt 0.351137 0.222609
vt 0.419126 0.222327
vt 0.417253 0.355352
vt 0.933906 0.006079
vt 0.933906 0.094949
vt 0.860524 0.102475
vt 0.860524 0.006079
vt 0.898025 0.674726
vt 0.965540 0.674726
vt 0.965540 0.742715
vt 0.898025 0.742715
vt 0.342775 0.403814
vt 0.417930 0.403503
vt 0.821851 0.418873
vt 0.748330 0.417913
vt 0.816854 0.331612
vt 0.533509 0.403546
vt 0.605944 0.403847
vt 0.010530 0.803779
vt 0.077369 0.803779
vt 0.749973 0.331472
vt 0.837232 0.393067
vt 0.837232 0.316649
vt 0.917951 0.316649
vt 0.917951 0.393067
vt 0.431284 0.596938
vt 0.431284 0.520521
vt 0.512004 0.501095
vt 0.522909 0.587225
vt 0.157781 0.661866
vt 0.158023 0.613716
vt 0.202843 0.613894
vt 0.202601 0.662043
vt 0.039885 0.524211
vt 0.050789 0.438107
vt 0.131509 0.457526
vt 0.131510 0.533921
vt 0.848365 0.006079
vt 0.848365 0.131510
vt 0.764424 0.131510
vt 0.764424 0.006079
vt 0.649593 0.848983
vt 0.649593 0.931429
vt 0.568874 0.931429
vt 0.568874 0.848983
vt 0.006079 0.888793
vt 0.079461 0.888793
vt 0.532312 0.488568
vt 0.621182 0.488936
vt 0.322731 0.488997
vt 0.419126 0.488598
vt 0.006079 0.610397
vt 0.131510 0.610396
vt 0.157781 0.712276
vt 0.204390 0.712461
vt 0.431284 0.673355
vt 0.556715 0.673355
vt 0.834010 0.469486
vt 0.917951 0.469486
s 1
usemtl Материал
f 311/667/377 312/670/379 306/669/378 304/668/378
f 312/671/380 313/674/382 310/673/381 306/672/381
f 313/675/383 314/678/385 308/677/384 310/676/384
f 314/679/386 311/682/388 304/681/387 308/680/387
f 305/683/389 303/686/389 307/685/389 309/684/389
f 310/687/390 308/690/390 304/689/390 306/688/390
f 325/691/391 326/692/391 311/682/388 314/679/386
f 307/693/392 325/695/392 314/678/385 309/694/393
f 323/696/394 324/697/394 313/674/382 312/671/380
f 326/698/395 323/699/395 312/670/379 311/667/377
f 309/694/393 314/678/385 313/675/383 324/700/396
f 327/701/397 328/704/397 318/703/397 316/702/397
f 328/705/398 329/708/398 322/707/398 318/706/398
f 329/709/399 330/712/401 320/711/400 322/710/400
f 330/713/402 327/716/404 316/715/403 320/714/403
f 317/717/389 315/720/389 319/719/389 321/718/389
f 322/721/405 320/724/405 316/723/405 318/722/405
f 303/725/395 305/726/395 323/699/395 326/698/395
f 305/727/394 309/728/394 324/697/394 323/696/394
f 307/729/391 303/730/391 326/692/391 325/691/391
f 319/731/406 315/732/406 327/716/404 330/713/402
f 321/733/407 319/734/407 330/712/401 329/709/399
f 317/735/398 321/736/398 329/708/398 328/705/398
f 315/737/397 317/738/397 328/704/397 327/701/397
o Куб.005
v -0.743181 2.367127 0.463047
v -0.428039 3.757817 0.463047
v 0.743181 2.367127 0.463047
v 0.428039 3.757817 0.463047
v -0.000000 2.367127 1.206228
v -0.000000 3.757817 0.891086
v 0.279759 2.367127 0.002093
v -0.279759 2.367127 0.002093
v -0.421523 3.757817 -0.002521
v 0.421523 3.757817 -0.002521
vn -0.6982 0.1582 0.6982
vn 0.6982 0.1582 0.6982
vn -0.0000 -0.0033 -1.0000
vn -0.0000 -1.0000 -0.0000
vn -0.8905 0.0548 -0.4517
vn 0.8905 0.0548 -0.4517
vn -0.0000 1.0000 -0.0000
vt 0.763584 0.806505
vt 0.787423 0.655835
vt 0.852180 0.655835
vt 0.876019 0.806505
vt 0.641206 0.806505
vt 0.665044 0.655835
vt 0.729802 0.655835
vt 0.753640 0.806505
vt 0.221326 0.932525
vt 0.221326 0.783069
vt 0.261858 0.789461
vt 0.248226 0.936767
vt 0.565185 0.815820
vt 0.565185 0.928255
vt 0.452751 0.928255
vt 0.452937 0.858331
vt 0.495262 0.816007
vt 0.306596 0.790448
vt 0.314492 0.941209
vt 0.885963 0.965569
vt 0.903923 0.815674
vt 0.948628 0.817681
vt 0.952377 0.965569
vt 0.788520 0.912044
vt 0.742730 0.866253
vt 0.743427 0.816448
vt 0.833614 0.816448
vt 0.834311 0.866253
s 1
usemtl Material
f 331/739/408 335/742/408 336/741/408 332/740/408
f 335/743/409 333/746/409 334/745/409 336/744/409
f 337/747/410 338/750/410 339/749/410 340/748/410
f 331/751/411 338/755/411 337/754/411 333/753/411 335/752/411
f 338/750/412 331/757/412 332/756/412 339/749/412
f 333/758/413 337/761/413 340/760/413 334/759/413
f 336/762/414 334/766/414 340/765/414 339/764/414 332/763/414
o Цилиндр
v -0.000000 6.363295 -0.324350
v -0.000000 7.934136 -0.206207
v 0.229350 6.363295 -0.229350
v 0.145810 7.934136 -0.145810
v 0.324350 6.363295 0.000000
v 0.206207 7.934136 0.000000
v 0.229350 6.363295 0.229350
v 0.145810 7.934136 0.145810
v -0.000000 6.363295 0.324350
v -0.000000 7.934136 0.206207
v -0.229350 6.363295 0.229350
v -0.145810 7.934136 0.145810
v -0.324350 6.363295 -0.000000
v -0.206207 7.934136 0.000000
v -0.229350 6.363295 -0.229350
v -0.145810 7.934136 -0.145810
vn 0.3818 0.0693 -0.9217
vn 0.9217 0.0693 -0.3818
vn 0.9217 0.0693 0.3818
vn 0.3818 0.0693 0.9217
vn -0.3818 0.0693 0.9217
vn -0.9217 0.0693 0.3818
vn -0.0000 1.0000 -0.0000
vn -0.9217 0.0693 -0.3818
vn -0.3818 0.0693 -0.9217
vn -0.0000 -1.0000 -0.0000
vt 0.915937 0.662567
vt 0.920551 0.501885
vt 0.936656 0.501885
vt 0.941269 0.662567
vt 0.948044 0.501095
vt 0.959182 0.661326
vt 0.143669 0.598789
vt 0.148282 0.438107
vt 0.164387 0.438107
vt 0.169001 0.598789
vt 0.310260 0.980865
vt 0.321398 0.820635
vt 0.332786 0.821424
vt 0.328172 0.982107
vt 0.348891 0.821424
vt 0.353505 0.982107
vt 0.360279 0.820635
vt 0.371417 0.980865
vt 0.733150 0.469913
vt 0.721761 0.458525
vt 0.721762 0.442420
vt 0.733150 0.431032
vt 0.749255 0.431032
vt 0.760643 0.442420
vt 0.760643 0.458525
vt 0.749255 0.469913
vt 0.923445 0.940174
vt 0.928058 0.779492
vt 0.944164 0.779492
vt 0.948777 0.940174
vt 0.898024 0.661326
vt 0.909163 0.501095
vt 0.668324 0.186914
vt 0.668324 0.161581
vt 0.686236 0.143669
vt 0.711569 0.143669
vt 0.729481 0.161581
vt 0.729481 0.186914
vt 0.711569 0.204826
vt 0.686236 0.204826
s 1
usemtl Материал
f 341/767/415 342/768/415 344/769/415 343/770/415
f 343/770/416 344/769/416 346/771/416 345/772/416
f 345/773/417 346/774/417 348/775/417 347/776/417
f 347/777/418 348/778/418 350/779/418 349/780/418
f 349/780/419 350/779/419 352/781/419 351/782/419
f 351/782/420 352/781/420 354/783/420 353/784/420
f 344/785/421 342/786/421 356/787/421 354/788/421 352/789/421 350/790/421 348/791/421 346/792/421
f 353/793/422 354/794/422 356/795/422 355/796/422
f 355/797/423 356/798/423 342/768/423 341/767/423
f 341/799/424 343/800/424 345/801/424 347/802/424 349/803/424 351/804/424 353/805/424 355/806/424
o Куб.008
v 0.714250 7.762401 1.000000
v 0.714250 9.190902 0.933020
v 0.714250 7.762401 -1.000000
v 0.714250 9.190902 -0.933020
v -0.635367 7.965147 1.000000
v -0.578092 9.140534 1.000000
v -0.635367 7.965147 -1.000000
v -0.578092 9.140534 -1.000000
v 1.030313 7.476651 0.010563
v 0.825358 9.476651 0.010563
v -0.880837 7.768933 0.010563
v -0.806160 9.373764 0.010563
v 0.714250 8.258953 1.000000
v 0.714250 8.258953 -1.000000
v -0.714250 8.476651 -1.000000
v -0.714250 8.476651 1.000000
v -1.000000 8.476651 0.010563
v 1.233363 8.258953 0.010563
v 0.985503 8.398245 0.007842
vn 0.0224 0.0489 -0.9986
vn 0.0194 0.0124 -0.9997
vn 0.0522 -0.0107 -0.9986
vn -0.9611 0.0205 0.2755
vn -0.9425 0.1980 0.2690
vn -0.9616 0.0223 0.2735
vn 0.9740 0.0832 -0.2107
vn 0.9892 0.1469 0.0016
vn 0.9963 0.0856 0.0020
vn 0.0194 0.0124 0.9997
vn 0.0224 0.0489 0.9986
vn 0.0522 -0.0107 0.9986
vn -0.1501 -0.9887 0.0018
vn -0.1461 -0.9624 0.2292
vn -0.1501 -0.9887 0.0020
vn -0.0444 0.9634 0.2642
vn -0.0446 0.9649 -0.2589
vn -0.1463 -0.9634 -0.2246
vn 0.4770 0.8440 -0.2450
vn -0.9424 0.2036 0.2652
vn 0.9042 -0.1436 0.4023
vn -0.9517 -0.1546 -0.2652
vn -0.9631 0.0224 -0.2681
vn -0.9626 0.0205 -0.2702
vn -0.0000 -0.0000 1.0000
vn 0.0049 0.0324 0.9995
vn -0.9503 -0.1544 0.2704
vn -0.0000 -0.0000 -1.0000
vn 0.0049 0.0324 -0.9995
vn 0.9072 -0.1440 -0.3952
vn 0.9637 0.0191 0.2662
vn 0.9733 0.0836 0.2137
vn 0.9648 0.0188 -0.2623
vn -0.9438 0.2039 -0.2601
vn -0.9440 0.1983 -0.2639
vn -0.4726 -0.8457 -0.2479
vt 0.359948 0.501156
vt 0.214177 0.574042
vt 0.228071 0.506296
vt 0.096053 0.425323
vt 0.027057 0.425948
vt 0.099449 0.322813
vt 0.281097 0.795333
vt 0.198302 0.820353
vt 0.198546 0.725412
vt 0.714645 0.573981
vt 0.568874 0.501095
vt 0.700750 0.506235
vt 0.202018 0.110872
vt 0.162165 0.209431
vt 0.023895 0.209431
vt 0.006079 0.110828
vt 0.380986 0.109138
vt 0.358987 0.210168
vt 0.227022 0.210168
vt 0.214177 0.109127
vt 0.358994 0.006079
vt 0.227029 0.006079
vt 0.164236 0.006079
vt 0.025967 0.006079
vt 0.686623 0.774931
vt 0.664956 0.670496
vt 0.686623 0.659025
vt 0.006079 0.323716
vt 0.663309 0.418873
vt 0.633340 0.313128
vt 0.734826 0.306644
vt 0.736171 0.418358
vt 0.145665 0.222214
vt 0.169386 0.323738
vt 0.095019 0.221590
vt 0.706595 0.626177
vt 0.568874 0.646866
vt 0.568874 0.573981
vt 0.146699 0.425948
vt 0.359948 0.646927
vt 0.222227 0.626238
vt 0.359948 0.574042
vt 0.663309 0.222842
vt 0.736171 0.222327
vt 0.107910 0.713514
vt 0.113911 0.795333
vt 0.287098 0.713514
vt 0.026023 0.222214
vt 0.930110 0.151653
vt 0.955671 0.253684
vt 0.930110 0.265538
s 1
usemtl Материал
f 360/807/425 371/808/426 364/809/427
f 372/810/428 362/811/429 373/812/430
f 360/813/431 366/814/432 375/815/433
f 372/816/434 358/817/435 362/818/436
f 365/819/437 357/820/438 361/821/438 367/822/439
f 368/823/440 362/824/440 358/825/440 366/826/440
f 364/827/441 368/823/441 366/826/441 360/828/441
f 359/829/442 365/819/437 367/822/439 363/830/442
f 370/831/443 375/832/443 374/833/443
f 368/834/444 373/812/430 362/811/429
f 357/835/445 365/836/445 374/837/445 369/838/445
f 363/839/446 367/840/446 373/812/447 371/841/448
f 361/842/449 357/843/449 369/844/450 372/816/434
f 367/840/451 361/845/451 372/810/428 373/812/430
f 359/846/452 363/847/452 371/808/426 370/848/453
f 365/836/454 359/849/454 370/850/454 374/837/454
f 369/851/455 375/815/433 358/852/456
f 370/848/453 371/808/426 360/807/425
f 366/814/432 358/852/456 375/815/433
f 375/815/433 370/853/457 360/813/431
f 368/834/458 364/854/459 373/812/447
f 371/841/448 373/812/447 364/854/459
f 369/855/460 375/856/460 374/857/460
f 369/844/450 358/817/435 372/816/434
o Куб.009
v -1.032797 7.651458 1.207342
v -1.044973 9.251017 1.207342
v -1.190733 7.769720 -1.166082
v -1.044973 9.251017 -1.199845
v 0.844432 7.565741 1.139867
v 0.672832 9.409644 1.033158
v 0.754293 7.580238 -1.203398
v 0.672832 9.409644 -1.025661
v -1.074324 7.735249 -0.039905
v -1.044973 9.509145 0.003748
v 0.542540 7.689714 0.003748
v 0.672832 9.651928 0.003748
v -1.074324 8.870105 1.207342
v -1.074324 8.870105 -1.199845
v 0.468875 8.970024 -1.157480
v 0.672832 8.925854 1.139867
v 0.672832 9.006139 0.003748
v -1.074324 9.006139 0.003748
v -1.233638 8.120323 -1.352365
v 0.407662 8.338498 -1.103939
v 0.672832 8.131495 1.206364
v 0.672832 8.330635 0.003748
v -1.283708 8.165825 0.003748
v -1.074324 7.970374 1.371057
v -0.160015 7.814271 -1.255462
v -0.200746 9.471376 -1.058789
v -0.200746 7.509992 1.207342
v -0.200746 9.471376 1.066285
v -0.200746 9.710024 0.003748
v -0.265892 7.599853 0.003748
v -0.200746 8.870105 1.207342
v -0.302724 8.870105 -1.199845
v -0.333331 7.984057 -1.440539
v -0.200746 7.900497 1.336195
v 0.236043 9.471376 -1.058789
v 0.236043 7.420845 1.386854
v 0.236043 9.710024 0.003748
v 0.083076 8.702372 -1.416807
v 0.037166 8.256021 -1.199845
v 0.297139 7.631099 -1.375281
v 0.236043 9.471376 1.066285
v 0.138324 7.644784 0.003748
v 0.236043 8.596574 1.335147
v 0.236043 8.256021 1.207342
v -0.617170 7.645478 -1.362249
v -0.637535 9.471376 1.066285
v -0.670108 7.554922 0.003748
v -0.637535 8.564957 1.318357
v -0.637535 8.256021 1.207342
v -0.637535 9.471376 -1.058789
v -0.624333 7.436266 1.362872
v -0.637535 9.710024 0.003748
v -0.688524 8.722923 -1.406032
v -0.703827 8.256021 -1.199845
v -1.074324 8.111218 -1.131900
v 0.581415 7.933082 -1.172651
v 0.735762 7.932533 1.113460
v 0.607522 8.009367 0.003748
v -1.062480 8.031169 0.003748
v -1.074324 7.882065 1.207342
v -0.200746 7.882065 1.207342
v -0.246454 8.009924 -1.213799
v 0.236043 7.882065 1.207342
v 0.167480 7.951175 -1.278654
v -0.660389 7.953218 -1.245991
v -0.637535 7.882065 1.207342
v -1.074324 8.769932 1.207342
v -1.074324 8.747795 -1.224725
v 0.458890 8.812693 -1.127473
v 0.672832 8.820399 1.087053
v 0.672832 8.895947 0.003748
v -1.074324 8.895947 0.003748
v -0.307717 8.725567 -1.239109
v -0.200746 8.769932 1.207342
v 0.236043 8.631610 1.207342
v 0.075586 8.749129 -1.257309
v -0.691020 8.749129 -1.257309
v -0.637535 8.572075 1.207342
v -1.044973 9.409129 -0.598048
v 0.648416 7.619132 -0.628873
v -1.177417 7.424222 -0.586508
v 0.672832 9.557194 -0.598048
v 0.570854 8.972237 -0.605913
v -1.280577 8.792882 -0.598048
v -1.153981 8.225479 -0.674308
v 0.540247 8.318723 -0.579143
v -0.212954 7.707062 -0.625857
v -0.200746 9.862453 -0.661475
v 0.236043 9.610008 -0.598048
v 0.217731 7.637941 -0.685766
v -0.643639 7.600200 -0.679250
v -0.637535 9.610008 -0.598048
v 0.594468 7.955380 -0.613499
v -1.061798 8.104614 -0.564076
v -1.074324 8.821871 -0.610488
v 0.565861 8.838475 -0.590910
v -1.187035 7.370764 0.605545
v 0.672832 9.546631 0.605545
v -1.044973 9.409129 0.605545
v 0.607686 7.655461 0.605545
v -1.196501 8.686287 0.605545
v 0.672832 8.938122 0.605545
v 0.672832 8.293327 0.605545
v -1.048362 8.228403 0.605545
v -0.200746 9.862453 0.668972
v -0.233319 7.610530 0.605545
v 0.236043 9.610008 0.605545
v 0.187184 7.632996 0.605545
v -0.653821 7.532457 0.605545
v -0.637535 9.610008 0.605545
v -1.074324 7.900672 0.605545
v 0.640177 7.945716 0.605545
v 0.672832 8.832939 0.605545
v -1.074324 8.832939 0.605545
v -1.044973 9.398498 -0.662016
v 0.659670 7.611630 -0.696116
v -1.258653 8.801090 -0.662016
v -1.162448 8.214301 -0.746382
v -1.063130 8.105316 -0.624432
v -1.074324 8.813997 -0.675778
v -1.178833 7.460947 -0.648113
v 0.672832 9.546562 -0.662016
v 0.560014 8.968634 -0.670717
v 0.526154 8.317456 -0.641101
v -0.207327 7.718458 -0.692780
v -0.200746 9.599377 -0.662016
v 0.236043 9.599377 -0.662016
v 0.226172 7.637214 -0.759057
v -0.640825 7.605013 -0.751849
v -0.637535 9.599377 -0.662016
v 0.593081 7.949641 -0.679109
v 0.554491 8.832366 -0.654119
v -1.169453 7.402762 0.674149
v 0.672832 9.535229 0.674148
v 0.672832 8.930367 0.674148
v 0.672832 8.289075 0.674148
v -0.200746 9.598606 0.674148
v -0.229606 7.605408 0.674148
v 0.236043 9.598606 0.674148
v 0.192753 7.615150 0.694613
v -0.650460 7.521492 0.691879
v -0.637535 9.598606 0.674148
v 0.643900 7.938460 0.674148
v 0.672832 8.825756 0.674148
v -1.044973 9.397727 0.674148
v 0.615113 7.645217 0.674148
v -1.182573 8.707242 0.674148
v -1.051322 8.198989 0.692812
v -1.074324 7.898551 0.674148
v -1.074324 8.825756 0.674148
vn -0.9390 0.2977 -0.1721
vn -0.9392 0.2972 -0.1721
vn -0.9545 0.2371 -0.1809
vn -0.0149 0.3480 -0.9374
vn 0.0620 0.3364 -0.9397
vn 0.2525 0.2985 -0.9204
vn 1.0000 -0.0000 -0.0000
vn 0.0444 0.2215 0.9741
vn 0.0424 0.2280 0.9727
vn 0.0540 0.1907 0.9802
vn 0.0388 -0.9784 -0.2030
vn 0.0803 -0.9722 -0.2199
vn 0.0984 -0.9630 -0.2508
vn 0.0343 -0.9700 -0.2405
vn -0.2871 0.9268 0.2420
vn -0.4224 0.8825 0.2070
vn -0.4077 0.8755 0.2592
vn -0.2335 0.9290 0.2872
vn -0.3851 0.9190 -0.0846
vn -0.4374 0.8871 -0.1474
vn -0.4422 0.8969 -0.0000
vn -0.3576 0.9339 -0.0000
vn -0.0690 -0.9975 -0.0156
vn -0.0167 -0.9983 0.0561
vn 0.0539 -0.9985 0.0090
vn 0.0378 -0.9991 -0.0194
vn 0.9889 -0.0896 -0.1183
vn 0.9896 -0.1259 -0.0696
vn 0.9984 -0.0412 -0.0378
vn 0.9978 -0.0286 -0.0603
vn -0.9842 0.1754 0.0233
vn -0.9853 0.1704 0.0110
vn -0.9817 0.1882 0.0285
vn -0.9821 0.1866 0.0256
vn 0.2757 -0.9238 -0.2659
vn 0.9824 -0.0419 -0.1823
vn 0.9957 -0.0141 -0.0916
vn -0.4634 -0.6791 0.5693
vn 0.5241 -0.7557 -0.3926
vn -0.5223 -0.8479 -0.0908
vn -0.7469 -0.6562 0.1072
vn -0.6209 -0.7765 0.1074
vn -0.5254 -0.8443 0.1057
vn 0.0586 0.2524 -0.9659
vn 0.1794 0.1225 -0.9761
vn 0.2680 0.0823 -0.9599
vn 0.2767 0.3017 -0.9124
vn 0.9907 -0.0041 -0.1361
vn 0.9996 -0.0075 -0.0256
vn 0.9981 0.0424 -0.0458
vn 0.9763 0.0880 -0.1977
vn 0.2748 -0.3210 0.9063
vn 0.0202 -0.0097 0.9997
vn 0.2408 -0.1477 0.9593
vn 0.9962 0.0818 -0.0292
vn 0.9868 0.0186 -0.1611
vn 0.9950 -0.0441 -0.0892
vn 0.9955 -0.0828 -0.0462
vn -0.9987 0.0290 0.0413
vn -0.9957 -0.0518 0.0772
vn -0.9111 -0.3848 0.1475
vn 0.1113 0.0145 0.9937
vn 0.1380 -0.0057 0.9904
vn -0.0012 -0.1547 0.9880
vn -0.0000 -0.3120 0.9501
vn 0.3066 -0.6567 -0.6890
vn -0.4375 -0.8012 0.4083
vn 0.1806 -0.9797 -0.0875
vn 0.0613 -0.9937 -0.0936
vn 0.0992 -0.9937 -0.0516
vn 0.0832 -0.9947 -0.0612
vn 0.1747 0.9802 -0.0933
vn 0.2747 0.9607 0.0397
vn 0.2750 0.9615 -0.0000
vn 0.2049 0.9788 0.0020
vn 0.0962 0.9601 0.2625
vn -0.0000 0.9512 0.3086
vn 0.0727 0.9470 0.3129
vn 0.1148 -0.9934 -0.0040
vn 0.0866 -0.9835 -0.1589
vn 0.0538 -0.9797 -0.1930
vn 0.0159 -0.9998 -0.0072
vn 0.0498 0.2667 0.9625
vn 0.0516 0.2667 0.9624
vn -0.0111 0.2599 0.9656
vn -0.0107 0.2599 0.9656
vn 0.0282 0.3107 -0.9501
vn 0.0741 0.3134 -0.9467
vn -0.0133 0.3486 -0.9372
vn 0.0161 0.3446 -0.9386
vn 0.1680 0.2627 0.9502
vn 0.1445 0.9596 0.2414
vn 0.1462 0.9376 0.3156
vn 0.1214 0.9795 -0.1607
vn 0.1318 0.9913 0.0042
vn 0.5644 -0.7691 0.2999
vn 0.1796 0.0884 0.9798
vn 0.1043 -0.0510 0.9932
vn -0.3232 -0.7175 -0.6171
vn -0.1055 0.2991 -0.9484
vn 0.1070 -0.9870 0.1195
vn -0.1301 -0.9800 0.1506
vn 0.0065 -0.9775 0.2109
vn 0.0010 -0.9996 -0.0289
vn -0.3226 -0.7446 -0.5843
vn 0.3094 -0.9143 -0.2614
vn -0.2581 -0.3014 0.9179
vn 0.4634 -0.6791 0.5693
vn -0.2747 0.9607 0.0397
vn -0.2750 0.9615 -0.0000
vn -0.0100 0.2000 0.9797
vn -0.0088 0.1999 0.9798
vn 0.0152 0.2021 0.9792
vn 0.0384 0.2000 0.9790
vn -0.2265 0.2440 -0.9429
vn -0.2257 0.2028 -0.9529
vn -0.0827 0.2224 -0.9714
vn -0.0697 0.2851 -0.9560
vn -0.0644 0.2451 -0.9674
vn -0.0225 0.2429 -0.9698
vn 0.1819 0.2840 -0.9414
vn 0.2408 0.2639 0.9340
vn 0.0305 0.2407 0.9701
vn -0.9842 0.1756 0.0236
vn -0.9903 0.1379 0.0137
vn -0.9904 0.1372 0.0165
vn 0.9939 0.0886 0.0650
vn 0.9961 -0.0875 -0.0074
vn -0.1242 0.2128 0.9692
vn 0.9753 0.0066 -0.2207
vn 0.9406 0.1009 -0.3243
vn 0.3111 0.3099 -0.8984
vn -0.9790 0.1878 0.0797
vn -0.9772 0.1957 0.0821
vn -0.9706 0.2232 0.0904
vn -0.1110 0.1341 -0.9847
vn 0.6510 -0.7409 -0.1649
vn -0.4499 -0.8514 0.2695
vn 0.0031 0.1054 0.9944
vn 0.0214 0.1266 0.9917
vn 0.1238 0.0431 -0.9914
vn -0.0578 0.0828 -0.9949
vn -0.0690 0.0852 -0.9940
vn -0.0044 0.1135 -0.9935
vn 0.0092 0.1129 -0.9936
vn 0.2796 -0.0148 -0.9600
vn 0.1287 0.1105 0.9855
vn 0.1246 0.1064 0.9865
vn -0.9850 0.1685 0.0373
vn -0.9865 0.1589 0.0388
vn -0.9808 0.1923 0.0338
vn 0.3043 -0.1075 -0.9465
vn 0.1684 0.1431 0.9753
vn -0.9946 0.0530 0.0890
vn -0.9831 0.1769 0.0464
vn -0.9831 0.1779 0.0426
vn 0.9814 0.0895 -0.1697
vn 0.9786 -0.0700 -0.1933
vn -0.9826 0.1818 -0.0390
vn -0.9847 0.1727 -0.0233
vn -0.9866 0.1475 0.0693
vn -0.9866 0.1478 0.0694
vn 0.9646 0.2568 0.0598
vn 0.9682 0.2480 -0.0328
vn -0.0000 0.2294 -0.9733
vn -0.1357 0.2273 -0.9643
vn 0.1075 -0.9501 -0.2929
vn 0.1769 -0.9646 -0.1957
vn 0.2257 -0.9313 -0.2859
vn 0.0264 -0.9948 -0.0988
vn -0.1652 -0.9857 -0.0321
vn 0.1274 0.9606 -0.2469
vn 0.0846 0.9604 -0.2656
vn 0.1357 0.2273 -0.9643
vn -0.5936 -0.7913 -0.1467
vn -0.7567 -0.6532 0.0253
vn -0.6676 -0.7407 -0.0758
vn -0.3385 -0.9013 0.2704
vn 0.9808 -0.1535 -0.1205
vn 0.9724 -0.2253 -0.0601
vn -0.0748 -0.9966 0.0347
vn -0.2872 0.9270 -0.2411
vn -0.4225 0.8825 -0.2064
vn -0.9589 0.2833 -0.0163
vn -0.9552 0.2933 -0.0401
vn -0.9996 0.0220 -0.0150
vn -0.9992 -0.0305 -0.0261
vn 0.9981 -0.0588 -0.0184
vn 0.9902 -0.1235 -0.0649
vn 0.9872 -0.1291 -0.0933
vn -0.9837 0.1542 0.0925
vn -0.9935 0.1037 0.0459
vn -0.3851 0.9190 0.0846
vn -0.2747 0.9607 -0.0397
vn 0.1482 -0.9856 -0.0819
vn 0.1256 -0.9862 -0.1075
vn 0.0653 -0.9933 -0.0951
vn 0.1148 -0.9910 -0.0694
vn 0.1861 0.9778 0.0959
vn 0.1388 0.9766 0.1644
vn 0.2747 0.9607 -0.0397
vn 0.7548 -0.6559 -0.0108
vn -0.9793 0.1813 0.0901
vn -0.9795 0.1798 0.0905
vn -0.4374 0.8871 0.1474
vn 0.0685 -0.9907 -0.1173
vn -0.2337 0.9294 -0.2858
vn -0.4080 0.8757 -0.2581
vn -0.1938 -0.9803 -0.0391
vn -0.0907 -0.9957 0.0199
vn 0.9752 -0.1807 -0.1275
vn 0.9555 -0.2897 -0.0562
vn 0.9752 -0.0839 -0.2049
vn 0.9475 0.3188 -0.0236
vn 0.9775 0.1113 -0.1790
vn 0.1436 -0.9712 -0.1902
vn 0.3161 -0.9444 -0.0906
vn 0.0671 0.9460 -0.3172
vn -0.0000 0.9517 -0.3070
vn 0.1351 0.9357 -0.3260
vn -0.3027 -0.9476 -0.1025
vn -0.0628 -0.9532 -0.2957
vn 0.9443 0.3230 0.0628
vn 0.1077 -0.9941 0.0157
vn -0.9834 0.1532 0.0975
vn 0.1665 -0.9826 0.0817
vn -0.9971 0.0664 0.0383
vn -0.9997 0.0166 -0.0160
vn -0.9911 0.0731 0.1111
vn -0.9995 -0.0191 -0.0235
vn -0.0000 0.2589 0.9659
vn -0.1434 0.2562 0.9559
vn 0.1434 0.2562 0.9559
vt 0.890558 0.728003
vt 0.800696 0.721434
vt 0.827677 0.645556
vt 0.882617 0.649858
vt 0.299006 0.876762
vt 0.419307 0.896203
vt 0.413435 0.959750
vt 0.346415 0.932039
vt 0.495218 0.271654
vt 0.582672 0.271025
vt 0.564775 0.322952
vt 0.494904 0.338851
vt 0.949518 0.065269
vt 0.814888 0.066727
vt 0.849051 0.006755
vt 0.903724 0.003022
vt 0.201111 0.304568
vt 0.262160 0.303677
vt 0.292962 0.372733
vt 0.204145 0.406158
vt 0.359421 0.430734
vt 0.299641 0.431670
vt 0.299007 0.355315
vt 0.358871 0.374674
vt 0.359470 0.614596
vt 0.299690 0.615533
vt 0.300123 0.528036
vt 0.359903 0.527099
vt 0.212346 0.105254
vt 0.274328 0.115934
vt 0.255266 0.206176
vt 0.197002 0.204318
vt 0.499895 0.085869
vt 0.584925 0.087456
vt 0.599059 0.174182
vt 0.505687 0.174853
vt 0.891503 0.912159
vt 0.785133 0.904097
vt 0.777547 0.816179
vt 0.849889 0.821870
vt 0.177677 0.751458
vt 0.165553 0.763626
vt 0.118755 0.685841
vt 0.119574 0.686172
vt 0.480544 0.088121
vt 0.489755 0.174968
vt 0.199379 0.507224
vt 0.183721 0.510930
vt 0.186689 0.444227
vt 0.186072 0.444740
vt 0.480093 0.271763
vt 0.479618 0.331341
vt 0.124259 0.439819
vt 0.110141 0.421987
vt 0.174714 0.412202
vt 0.177677 0.416878
vt 0.055104 0.612912
vt 0.036582 0.632134
vt 0.004496 0.556055
vt 0.003022 0.553730
vt 0.235492 0.788544
vt 0.216388 0.774739
vt 0.183721 0.693638
vt 0.214432 0.718256
vt 0.901489 0.437948
vt 0.855018 0.454221
vt 0.843387 0.399606
vt 0.904096 0.377688
vt 0.351676 0.272385
vt 0.402497 0.272321
vt 0.380100 0.349271
vt 0.351542 0.336729
vt 0.679111 0.216156
vt 0.732767 0.214656
vt 0.691244 0.280601
vt 0.681449 0.279125
vt 0.352971 0.086078
vt 0.405292 0.090093
vt 0.408020 0.175556
vt 0.361282 0.175211
vt 0.693341 0.639989
vt 0.645964 0.637764
vt 0.664043 0.550839
vt 0.678405 0.552160
vt 0.674434 0.090216
vt 0.728090 0.088716
vt 0.677154 0.154553
vt 0.676772 0.153186
vt 0.041347 0.513407
vt 0.027569 0.497159
vt 0.087948 0.481987
vt 0.084721 0.478652
vt 0.228798 0.629860
vt 0.210608 0.634264
vt 0.215741 0.567168
vt 0.215124 0.567681
vt 0.087959 0.101813
vt 0.149547 0.111069
vt 0.138737 0.202461
vt 0.080473 0.200603
vt 0.485780 0.614726
vt 0.423717 0.622578
vt 0.423058 0.527164
vt 0.486213 0.527229
vt 0.485731 0.430863
vt 0.422576 0.430798
vt 0.422026 0.374739
vt 0.485180 0.374804
vt 0.079583 0.300297
vt 0.140222 0.299401
vt 0.141733 0.377229
vt 0.079896 0.397931
vt 0.945281 0.191077
vt 0.814887 0.192754
vt 0.814888 0.129741
vt 0.903724 0.129048
vt 0.299006 0.765176
vt 0.415644 0.769946
vt 0.417476 0.833074
vt 0.327760 0.820881
vt 0.894510 0.255711
vt 0.823153 0.256196
vt 0.548611 0.431243
vt 0.548068 0.379965
vt 0.548706 0.615053
vt 0.549116 0.527582
vt 0.261406 0.686388
vt 0.254627 0.687594
vt 0.680648 0.016922
vt 0.707901 0.026235
vt 0.324525 0.709362
vt 0.378464 0.711696
vt 0.005075 0.295798
vt 0.021028 0.371697
vt 0.010887 0.113600
vt 0.021710 0.190798
vt 0.262687 0.693638
vt 0.623386 0.154678
vt 0.612343 0.217779
vt 0.912958 0.634614
vt 0.864618 0.615279
vt 0.893665 0.557265
vt 0.940993 0.553805
vt 0.917528 0.486027
vt 0.887951 0.496928
vt 0.950645 0.421978
vt 0.626974 0.003022
vt 0.605103 0.094073
vt 0.771502 0.643463
vt 0.721215 0.547883
vt 0.304581 0.084770
vt 0.314780 0.174868
vt 0.648138 0.274063
vt 0.309151 0.272391
vt 0.299007 0.342050
vt 0.956220 0.355315
vt 0.766694 0.461728
vt 0.671965 0.460887
vt 0.674708 0.387510
vt 0.726268 0.384733
vt 0.849162 0.561200
vt 0.512611 0.816517
vt 0.512862 0.776383
vt 0.545435 0.763952
vt 0.512611 0.709362
vt 0.804166 0.149625
vt 0.778115 0.213388
vt 0.868769 0.639511
vt 0.777547 0.611483
vt 0.781378 0.556326
vt 0.897804 0.510977
vt 0.787181 0.501041
vt 0.787436 0.445649
vt 0.808843 0.022138
vt 0.781981 0.087210
vt 0.659388 0.442339
vt 0.571337 0.448539
vt 0.584405 0.369688
vt 0.678366 0.355315
vt 0.777547 0.389115
vt 0.808843 0.275564
vt 0.560198 0.633529
vt 0.555161 0.546147
vt 0.405002 0.081008
vt 0.479565 0.078889
vt 0.569783 0.457917
vt 0.657131 0.452690
vt 0.671638 0.469615
vt 0.771502 0.470886
vt 0.303497 0.075194
vt 0.352088 0.076603
vt 0.469359 0.772517
vt 0.469359 0.709362
vt 0.472823 0.709621
vt 0.506567 0.772280
vt 0.010905 0.104431
vt 0.088755 0.091312
vt 0.150696 0.101355
vt 0.213977 0.094724
vt 0.548660 0.624353
vt 0.485734 0.624026
vt 0.469359 0.835673
vt 0.472823 0.835932
vt 0.587244 0.851191
vt 0.555161 0.856295
vt 0.555161 0.756149
vt 0.571792 0.770086
vt 0.040398 0.641182
vt 0.061298 0.619951
vt 0.499279 0.076410
vt 0.583341 0.078238
vt 0.276355 0.106342
vt 0.359424 0.623897
vt 0.299644 0.624833
vt 0.798472 0.730537
vt 0.891503 0.737297
vt 0.649656 0.650570
vt 0.560772 0.643491
vt 0.481082 0.261858
vt 0.403062 0.262419
vt 0.352659 0.262441
vt 0.310550 0.262405
vt 0.766094 0.653184
vt 0.693193 0.649915
vt 0.359470 0.440595
vt 0.423717 0.430237
vt 0.079543 0.287735
vt 0.003022 0.286033
vt 0.200744 0.291549
vt 0.140052 0.289439
vt 0.485780 0.440725
vt 0.548661 0.441104
vt 0.496290 0.261749
vt 0.277393 0.412681
vt 0.277296 0.430321
vt 0.267450 0.433972
vt 0.267450 0.412202
vt 0.887449 0.921828
vt 0.785998 0.914119
vt 0.299691 0.441531
vt 0.261436 0.293658
vt 0.584271 0.261116
vt 0.358871 0.681893
vt 0.299007 0.703318
vt 0.227691 0.006190
vt 0.292962 0.033847
vt 0.498727 0.005233
vt 0.563281 0.025915
vt 0.475957 0.009622
vt 0.349284 0.005293
vt 0.407187 0.012978
vt 0.095446 0.003022
vt 0.160356 0.019678
vt 0.485180 0.682022
vt 0.422026 0.681957
vt 0.422579 0.623961
vt 0.548068 0.677604
vt 0.011057 0.027334
vt 0.299006 0.003022
vt 0.855939 0.996978
vt 0.801000 0.992675
vt 0.257075 0.412202
vt 0.261406 0.426830
vt 0.692038 0.727063
vt 0.678348 0.750105
vt 0.724058 0.728734
vt 0.565235 0.720911
vt 0.425351 0.772082
vt 0.460446 0.710069
vt 0.463315 0.709362
vt 0.463315 0.772375
vt 0.460446 0.836095
vt 0.463315 0.835388
s 1
usemtl Материал.001
f 492/858/461 490/859/462 379/860/463 389/861/463
f 413/862/464 410/863/465 383/864/466 390/865/466
f 510/866/467 509/867/467 381/868/467 391/869/467
f 423/870/468 421/871/469 377/872/470 388/873/470
f 515/874/471 521/875/472 380/876/473 411/877/474
f 517/878/475 520/879/476 377/880/477 421/881/478
f 467/882/479 454/883/480 385/884/481 427/885/482
f 465/886/483 455/887/484 386/888/485 417/889/486
f 458/890/487 457/891/488 387/892/489 392/893/490
f 476/894/491 474/895/492 385/896/493 393/897/494
f 489/898/495 476/899/495 393/900/495 447/901/495
f 471/902/496 458/890/487 392/893/490 446/903/497
f 453/904/498 423/905/498 388/906/498 442/907/498
f 519/908/467 510/866/467 391/869/467 445/909/467
f 451/910/499 413/911/499 390/912/499 444/913/499
f 495/914/500 492/915/500 389/916/500 443/917/500
f 494/918/501 493/919/502 394/920/503 430/921/503
f 439/922/504 414/923/505 395/924/506 431/925/507
f 518/926/508 511/927/509 396/928/510 432/929/511
f 441/930/512 424/931/513 399/932/514 435/933/512
f 468/934/515 461/935/516 397/936/517 433/937/518
f 486/938/519 479/939/520 398/940/521 434/941/521
f 438/942/522 419/943/523 409/944/524 436/945/525
f 452/946/526 428/947/526 407/948/526 448/949/526
f 450/950/527 418/951/527 406/952/527 449/953/527
f 466/954/528 462/955/529 405/956/530 422/957/531
f 464/958/532 463/959/533 404/960/534 412/961/535
f 514/962/536 512/963/537 403/964/537 416/965/538
f 516/966/539 513/967/540 402/968/541 426/969/542
f 418/970/543 416/971/544 403/972/545 406/973/546
f 428/974/547 425/975/548 401/976/549 407/977/550
f 391/978/551 381/979/551 416/971/544 418/970/543
f 509/980/552 514/962/536 416/965/538 381/981/553
f 457/982/554 464/958/532 412/961/535 387/983/555
f 445/984/556 391/985/556 418/951/556 450/950/556
f 432/986/557 396/987/558 419/943/523 438/942/522
f 448/949/559 407/948/559 413/911/559 451/910/559
f 462/955/529 465/886/483 417/889/486 405/956/530
f 513/967/540 515/874/471 411/877/474 402/968/541
f 407/977/550 401/976/549 410/863/465 413/862/464
f 389/988/560 379/989/560 425/975/548 428/974/547
f 508/990/561 516/966/539 426/969/542 376/991/562
f 456/992/563 466/954/528 422/957/531 384/993/564
f 443/917/565 389/916/565 428/947/565 452/946/565
f 429/994/566 430/921/566 394/920/566
f 436/945/525 409/944/524 424/931/513 441/930/567
f 449/953/568 406/952/568 423/905/568 453/904/568
f 463/959/569 467/882/479 427/885/482 404/960/570
f 512/963/537 517/878/475 421/881/478 403/964/537
f 406/973/546 403/972/545 421/871/469 423/870/468
f 402/995/571 436/945/572 441/930/573 426/996/574
f 378/997/575 430/998/576 440/999/577 420/1000/578
f 400/1001/579 437/1002/580 439/922/504 415/1003/581
f 380/1004/582 432/986/557 438/942/522 411/1005/583
f 420/1000/578 440/999/577 437/1002/580 400/1001/579
f 411/1005/583 438/942/522 436/945/572 402/995/571
f 472/1006/584 486/938/519 434/941/585 384/1007/586
f 455/1008/587 468/934/515 433/937/518 386/1009/588
f 426/996/574 441/930/573 435/933/589 376/1010/589
f 521/1011/590 518/926/508 432/929/511 380/1012/591
f 415/1003/581 439/922/504 431/925/507 382/1013/592
f 496/1014/593 494/1015/594 430/1016/595 378/1017/595
f 440/999/577 430/998/576 429/1018/596
f 414/1019/597 437/1020/597 408/1021/597
f 439/922/504 437/1002/580 414/923/505
f 408/1021/598 437/1020/598 429/1022/598
f 440/999/577 429/1018/596 437/1002/580
f 409/944/524 449/1023/599 453/1024/600 424/931/513
f 394/1025/601 443/1026/601 452/1027/602 429/1018/603
f 408/1028/604 448/1029/605 451/1030/606 414/923/505
f 396/987/558 445/1031/607 450/1032/608 419/943/523
f 419/943/523 450/1032/608 449/1023/599 409/944/524
f 429/1018/603 452/1027/602 448/1029/605 408/1028/604
f 493/1033/609 495/1034/610 443/1035/611 394/1036/611
f 414/923/505 451/1030/606 444/1037/612 395/924/506
f 511/927/509 519/908/467 445/909/467 396/928/510
f 424/931/513 453/1024/600 442/1038/613 399/932/514
f 461/935/516 471/902/496 446/903/497 397/936/517
f 479/939/520 489/1039/614 447/1040/615 398/940/616
f 499/1041/617 507/1042/618 471/902/496 461/935/516
f 398/940/616 447/1040/615 470/1043/619 460/1044/620
f 384/1007/586 434/941/585 469/1045/621 456/1046/622
f 491/1047/623 506/1048/624 468/934/515 455/1008/587
f 501/1049/625 505/1050/626 467/1051/626 463/1052/625
f 496/1053/627 504/1054/628 466/954/528 456/992/629
f 500/1055/630 503/1056/631 465/886/483 462/955/529
f 497/1057/632 502/1058/633 464/958/532 457/982/554
f 502/1059/634 501/1049/625 463/1052/625 464/1060/634
f 504/1054/628 500/1055/630 462/955/529 466/954/528
f 506/1048/624 499/1041/617 461/935/516 468/934/515
f 434/1061/635 398/1062/635 460/1063/636 469/1064/637
f 447/901/638 393/900/638 459/1065/638 470/1066/638
f 507/1042/618 498/1067/639 458/890/487 471/902/496
f 498/1067/639 497/1068/640 457/891/488 458/890/487
f 503/1056/631 491/1069/641 455/887/484 465/886/483
f 505/1070/642 490/1071/643 454/883/480 467/882/479
f 393/897/494 385/896/493 454/1072/644 459/1073/645
f 523/1074/646 525/1075/647 489/1039/614 479/939/520
f 397/936/517 446/903/497 488/1076/467 478/1077/648
f 386/1009/588 433/937/518 487/1078/649 475/1079/650
f 508/1080/651 524/1081/652 486/938/519 472/1006/584
f 404/960/570 427/885/482 485/1082/653 480/1083/654
f 384/993/564 422/957/531 484/1084/655 472/1085/656
f 405/956/530 417/889/486 483/1086/657 481/1087/658
f 387/983/555 412/961/535 482/1088/659 473/1089/660
f 422/957/531 405/956/530 481/1087/658 484/1084/655
f 412/961/535 404/960/534 480/1083/661 482/1088/659
f 524/1081/652 523/1074/646 479/939/520 486/938/519
f 433/937/518 397/936/517 478/1077/648 487/1078/649
f 446/903/497 392/893/490 477/1090/467 488/1076/467
f 525/1091/662 522/1092/662 476/1093/662 489/1094/662
f 522/1095/663 520/1096/664 474/895/492 476/894/491
f 427/885/482 385/884/481 474/1097/665 485/1082/653
f 417/889/486 386/888/485 475/1098/666 483/1086/657
f 392/893/490 387/892/489 473/1099/467 477/1090/467
f 425/1100/667 379/1101/668 490/1071/643 505/1070/642
f 415/1102/669 382/1103/670 491/1069/641 503/1056/631
f 390/1104/671 383/1105/672 497/1068/640 498/1067/639
f 444/1106/673 390/1104/671 498/1067/639 507/1042/618
f 431/1107/674 395/1108/675 499/1041/617 506/1048/624
f 420/1109/676 400/1110/677 500/1055/630 504/1054/628
f 410/1111/678 401/1112/679 501/1113/679 502/1058/633
f 383/1114/680 410/1111/678 502/1058/633 497/1057/632
f 400/1110/681 415/1102/669 503/1056/631 500/1055/630
f 378/1115/682 420/1109/676 504/1054/628 496/1053/627
f 401/1112/679 425/1100/667 505/1070/642 501/1113/679
f 382/1116/683 431/1107/674 506/1048/624 491/1047/623
f 395/1108/675 444/1106/673 507/1042/618 499/1041/617
f 460/1044/620 470/1043/619 495/1034/610 493/1033/609
f 456/1046/622 469/1045/621 494/1015/594 496/1014/593
f 469/1045/637 460/1044/636 493/1033/502 494/1015/501
f 470/1066/684 459/1065/684 492/915/684 495/914/684
f 459/1073/645 454/1072/644 490/859/462 492/858/461
f 388/1117/685 377/1118/685 520/1096/664 522/1095/663
f 442/907/686 388/906/686 522/1119/686 525/1120/686
f 435/1121/687 399/1122/688 523/1074/646 524/1081/652
f 376/1123/689 435/1121/687 524/1081/652 508/1080/651
f 399/1122/688 442/1124/690 525/1075/647 523/1074/646
f 478/1077/648 488/1076/467 519/908/467 511/927/509
f 475/1079/650 487/1078/649 518/926/508 521/1011/590
f 480/1125/691 485/1126/692 517/1127/692 512/1128/691
f 472/1085/656 484/1084/655 516/966/539 508/990/561
f 481/1087/658 483/1086/657 515/874/471 513/967/540
f 473/1089/660 482/1088/659 514/962/536 509/980/552
f 484/1084/655 481/1087/658 513/967/540 516/966/539
f 482/1129/693 480/1125/691 512/1128/691 514/1130/693
f 487/1078/649 478/1077/648 511/927/509 518/926/508
f 488/1076/467 477/1090/467 510/866/467 519/908/467
f 485/1082/653 474/1097/665 520/879/476 517/878/475
f 483/1086/657 475/1098/666 521/875/472 515/874/471
f 477/1090/467 473/1099/467 509/867/467 510/866/467
o Куб.010
v 0.497996 8.210737 1.159541
v 0.497996 9.355129 1.039927
v 0.497996 8.865055 -1.107508
v 0.497996 9.342232 -0.996252
v 0.804683 8.097356 1.159541
v 0.816150 9.215032 0.948449
v 1.014579 8.865055 -1.107508
v 0.913733 9.288762 -0.919978
v 0.497996 8.961404 0.003748
v 0.497996 9.622465 0.003748
v 1.095664 8.961404 0.003748
v 0.942992 9.484070 0.003748
v 0.483738 8.837803 0.443768
v 0.942992 9.382300 0.620781
v 0.497996 9.558043 0.620781
v 1.095772 8.837803 0.443768
v 0.497996 9.528232 -0.591232
v 1.095664 9.037409 -0.496252
v 0.497996 9.037409 -0.496252
v 0.942992 9.424485 -0.583192
v 0.497996 9.564898 0.555134
v 1.116609 8.806829 0.396954
v 0.477771 8.781498 0.396954
v 0.942992 9.393127 0.555134
v 0.497996 8.917001 -0.022866
v 0.942992 9.482908 -0.070624
v 0.497996 9.610685 -0.070624
v 1.120008 8.915554 -0.067928
vn -1.0000 -0.0000 -0.0000
vn 0.0956 0.3230 -0.9416
vn 0.9472 0.1732 0.2700
vn 0.9423 0.1614 0.2932
vn 0.8972 0.0852 0.4334
vn 0.1991 0.1408 0.9698
vn -0.0878 -0.7118 -0.6969
vn 0.3792 0.8777 0.2928
vn 0.3788 0.8800 0.2866
vn 0.3859 0.7988 0.4615
vn 0.2680 0.9574 -0.1072
vn 0.2687 0.9573 -0.1063
vn 0.3079 0.9512 0.0222
vn 0.3080 0.9511 0.0231
vn 0.0242 -0.7334 0.6794
vn 0.9502 0.3106 0.0269
vn 0.9511 0.3072 0.0332
vn 0.9575 0.2825 0.0586
vn 0.9574 0.2826 0.0587
vn -0.9999 0.0149 0.0002
vn -0.9998 0.0140 0.0171
vn -0.9999 0.0081 -0.0089
vn -0.9999 0.0069 -0.0076
vn -0.9998 0.0071 0.0178
vn -0.9994 0.0098 0.0331
vn -0.9993 0.0100 0.0347
vn 0.3444 0.9304 0.1253
vn 0.3433 0.9308 0.1254
vn 0.0148 -0.7302 0.6830
vn 0.9616 0.2634 0.0779
vn 0.9621 0.2555 0.0957
vn 0.9254 0.3154 -0.2102
vn 0.9405 0.3227 -0.1062
vn 0.9417 0.3233 -0.0931
vn -0.0000 -0.9625 0.2714
vn 0.2024 0.8955 -0.3964
vn 0.2295 0.9374 -0.2619
vn 0.2288 0.9364 -0.2661
vn 0.0188 -0.9201 -0.3913
vn -0.0107 -0.9658 -0.2592
vt 0.627647 0.170751
vt 0.494790 0.102899
vt 0.581629 0.002176
vt 0.727640 0.009771
vt 0.002176 0.957606
vt 0.002176 0.812138
vt 0.128138 0.821070
vt 0.155615 0.959098
vt 0.120414 0.446628
vt 0.297211 0.448793
vt 0.289628 0.556967
vt 0.002176 0.716165
vt 0.731991 0.440889
vt 0.776769 0.104688
vt 0.880877 0.082623
vt 0.826645 0.421402
vt 0.731991 0.445240
vt 0.914558 0.445240
vt 0.830390 0.736582
vt 0.738089 0.721003
vt 0.731991 0.033715
vt 0.869924 0.002176
vt 0.265817 0.242865
vt 0.337059 0.231484
vt 0.346632 0.251632
vt 0.272479 0.263954
vt 0.897200 0.196559
vt 0.895695 0.381118
vt 0.885228 0.369394
vt 0.885228 0.194616
vt 0.096111 0.293936
vt 0.116774 0.310293
vt 0.627154 0.447972
vt 0.389420 0.428523
vt 0.418541 0.265679
vt 0.608065 0.320389
vt 0.727640 0.713875
vt 0.409445 0.584871
vt 0.385953 0.447911
vt 0.607124 0.456744
vt 0.294580 0.429128
vt 0.377882 0.413848
vt 0.381602 0.433161
vt 0.899849 0.003663
vt 0.892368 0.190265
vt 0.885228 0.181155
vt 0.885228 0.002176
vt 0.106235 0.436036
vt 0.002176 0.002176
vt 0.142530 0.018048
vt 0.206081 0.101990
vt 0.094962 0.161086
vt 0.404431 0.718226
vt 0.558333 0.725954
vt 0.572031 0.865050
vt 0.393973 0.856109
vt 0.012270 0.720516
vt 0.145345 0.750316
vt 0.622997 0.316433
vt 0.428072 0.245331
vt 0.705123 0.726788
vt 0.701864 0.905040
vt 0.576382 0.908638
vt 0.576382 0.718226
vt 0.572031 0.995416
vt 0.385953 0.997825
vt 0.270050 0.090447
s 1
usemtl Материал.001
f 544/1131/694 542/1132/694 529/1133/694 528/1134/694
f 528/1135/695 529/1136/695 533/1137/695 532/1138/695
f 541/1139/696 539/1140/697 531/1141/698 530/1142/698
f 530/1143/699 531/1144/699 527/1145/699 526/1146/699
f 538/1147/700 541/1148/700 530/1149/700 526/1150/700
f 539/1151/701 540/1152/702 527/1145/703 531/1144/703
f 551/1153/704 552/1154/705 535/1155/706 537/1156/707
f 550/1157/708 553/1158/708 536/1159/708 534/1160/708
f 553/1161/709 551/1153/710 537/1156/711 536/1162/712
f 548/1163/713 546/1164/714 535/1165/715 534/1166/716
f 526/1167/717 527/1168/717 540/1169/718 538/1170/719
f 549/1171/720 546/1172/721 540/1173/702 539/1140/701
f 548/1174/722 547/1175/722 541/1176/722 538/1177/722
f 547/1178/723 549/1171/724 539/1140/697 541/1139/696
f 532/1179/725 533/1180/725 545/1181/726 543/1182/727
f 528/1183/728 532/1184/728 543/1185/728 544/1186/728
f 533/1137/729 529/1136/729 542/1187/730 545/1188/731
f 550/1189/694 552/1190/694 542/1132/694 544/1131/694
f 536/1162/712 537/1156/711 549/1171/724 547/1178/723
f 534/1191/732 536/1192/732 547/1193/732 548/1194/732
f 537/1156/707 535/1155/706 546/1172/721 549/1171/720
f 538/1170/719 540/1169/718 546/1164/714 548/1163/713
f 534/1166/716 535/1165/715 552/1190/694 550/1189/694
f 543/1182/727 545/1181/726 551/1153/710 553/1161/709
f 544/1186/733 543/1185/733 553/1195/733 550/1196/733
f 545/1181/731 542/1197/730 552/1154/705 551/1153/704
