# Blender 5.0.1
# www.blender.org
mtllib body.mtl
o body
v 0.292318 1.945109 -0.806142
v 0.566315 -1.308879 -1.410455
v 0.292318 2.027260 0.806142
v 0.566315 -1.308879 1.410455
v -0.292919 2.027260 -0.806142
v -0.566915 -1.308879 -1.410455
v -0.292919 2.027260 0.806142
v -0.566915 -1.308879 1.410455
v -1.158831 -1.308879 0.000000
v 0.501243 1.804227 0.000000
v -0.494642 2.130064 0.000000
v 1.158231 -1.308879 0.000000
v 0.335155 0.359190 -0.924153
v -0.335755 0.359190 0.924153
v 0.335155 0.359190 0.924153
v -0.335755 0.359190 -0.924153
v 0.685589 0.359190 0.000000
v -0.686190 0.359190 0.000000
v 0.501301 -1.043841 -1.248618
v 0.501301 -1.043841 1.248618
v -0.501901 -1.043841 -1.248618
v 1.025301 -1.043841 0.000000
v -1.025900 -1.043841 0.000000
v -0.501901 -1.043841 1.248618
vn 0.1796 0.9825 -0.0500
vn 0.3106 0.9494 -0.0462
vn 0.2167 0.9760 -0.0228
vn -0.0000 0.1518 0.9884
vn -0.0000 0.0706 0.9975
vn -0.9300 0.1434 -0.3383
vn -0.9487 0.0752 -0.3072
vn -0.9294 0.1455 -0.3392
vn -0.0000 -1.0000 -0.0000
vn 0.9313 0.1462 0.3336
vn 0.9514 0.0807 0.2972
vn 0.9307 0.1481 0.3346
vn 0.0023 0.1526 -0.9883
vn 0.0047 0.0723 -0.9974
vn 0.9300 0.1491 -0.3361
vn 0.9502 0.0829 -0.3004
vn 0.9306 0.1473 -0.3351
vn -0.9294 0.1455 0.3392
vn -0.9487 0.0752 0.3072
vn -0.9300 0.1434 0.3383
vn -0.0000 0.9920 0.1265
vn -0.8719 0.3328 0.3593
vn -0.8750 0.3237 0.3600
vn 0.8719 0.3328 -0.3593
vn 0.8750 0.3237 -0.3600
vn -0.0000 0.3929 -0.9196
vn 0.8750 0.3237 0.3600
vn 0.8719 0.3328 0.3593
vn -0.8750 0.3237 -0.3600
vn -0.8719 0.3328 -0.3593
vn -0.0000 0.3929 0.9196
vn -0.0000 0.5211 0.8535
vn -0.8369 0.4198 -0.3512
vn 0.8369 0.4198 0.3512
vn -0.0000 0.5211 -0.8535
vn 0.8369 0.4198 -0.3512
vn -0.8369 0.4198 0.3512
vn 0.2391 0.9709 0.0107
vn 0.1384 0.9862 -0.0911
vt 0.117780 0.513380
vt 0.154504 0.633569
vt 0.000000 0.633159
vt 0.777131 0.243923
vt 0.783496 0.000000
vt 0.870449 0.000000
vt 0.876814 0.243923
vt 0.231496 0.262012
vt 0.258875 0.000000
vt 0.360190 0.015876
vt 0.344570 0.259137
vt 0.654563 0.765653
vt 0.376712 0.660293
vt 0.518671 0.500023
vt 0.654563 0.551553
vt 0.551579 0.248150
vt 0.557022 0.032458
vt 0.679726 -0.000000
vt 0.698366 0.245009
vt 0.762215 0.743440
vt 0.754306 0.499592
vt 0.841803 0.506301
vt 0.861729 0.737641
vt 0.439378 0.231294
vt 0.454017 0.000000
vt 0.512603 0.925923
vt 0.376712 0.874394
vt 0.086187 0.240938
vt 0.134802 0.000000
vt 0.032440 0.513561
vt 0.024447 0.444026
vt 0.211994 0.471225
vt 0.400474 0.436398
vt 0.545289 0.458154
vt 0.760090 0.955597
vt 0.888530 0.948113
vt 0.734742 0.454099
vt 0.357935 0.467516
vt 0.762644 0.455607
vt 0.891301 0.455607
vt 0.754306 0.499591
vt 0.899639 0.499591
vt 0.211855 0.513380
vt 0.376712 0.509190
vt 0.540297 0.500023
vt 0.754306 0.495443
vt 0.754306 1.000000
vt 0.899393 0.991546
vt 0.376712 0.475448
vt 0.000000 0.482656
vt 0.119929 0.753085
vt 0.032249 0.753085
s 1
usemtl cloth
f 3/1/1 10/2/2 11/3/3
f 15/4/4 3/5/5 7/6/5 14/7/4
f 18/8/6 11/9/7 5/10/7 16/11/8
f 9/12/9 12/13/9 4/14/9 8/15/9
f 17/16/10 10/17/11 3/18/11 15/19/12
f 16/20/13 5/21/14 1/22/14 13/23/13
f 13/24/15 1/25/16 10/17/16 17/16/17
f 6/26/9 2/27/9 12/13/9 9/12/9
f 14/28/18 7/29/19 11/9/19 18/8/20
f 7/30/21 3/1/1 11/3/3
f 24/31/22 14/28/18 18/8/20 23/32/23
f 19/33/24 13/24/15 17/16/17 22/34/25
f 21/35/26 16/20/13 13/23/13 19/36/26
f 22/34/27 17/16/10 15/19/12 20/37/28
f 23/32/29 18/8/6 16/11/8 21/38/30
f 20/39/31 15/4/4 14/7/4 24/40/31
f 4/41/32 20/39/31 24/40/31 8/42/32
f 9/43/33 23/32/29 21/38/30 6/44/33
f 12/45/34 22/34/27 20/37/28 4/46/34
f 6/47/35 21/35/26 19/36/26 2/48/35
f 2/49/36 19/33/24 22/34/25 12/45/36
f 8/50/37 24/31/22 23/32/23 9/43/37
f 10/2/2 1/51/38 11/3/3
f 11/3/3 1/51/38 5/52/39
