# Blender 5.0.1
# www.blender.org
mtllib head.mtl
o head
v -0.599511 -0.690870 -0.802869
v -0.536731 0.655449 -0.871832
v 0.638603 -0.713384 -0.940778
v 0.529718 0.655449 -0.871832
v -0.842021 -0.903321 -0.019581
v -0.871362 0.822982 -0.019581
v 0.820141 -0.962017 -0.019581
v 0.812365 0.846078 -0.019581
v -0.562944 -0.112045 -0.988711
v 0.584009 -0.112045 -0.988711
v 1.124952 -0.266907 -0.019581
v -0.989978 -0.066016 -0.019581
v 0.950532 -0.038082 -0.019581
v -0.599511 -0.690870 0.763707
v -0.536731 0.655449 0.832670
v 0.638603 -0.713384 0.901616
v 0.529718 0.655449 0.832670
v -0.562944 -0.112045 0.949549
v 0.584009 -0.112045 0.949549
v -0.632309 -0.373278 0.438689
v -0.843029 1.417103 -0.156203
v -0.203624 -0.425991 -0.250650
v -0.706345 1.400296 -0.375995
v 0.016254 -0.061699 0.818190
v -0.536058 1.356495 0.082786
v 0.444939 -0.114412 0.128852
v -0.360562 1.334916 -0.199416
v -0.398091 1.079098 0.330711
v -0.854007 0.860070 0.063935
v -0.552657 0.823014 -0.420645
v -0.096740 1.042042 -0.153869
v -0.485055 1.746705 -0.111830
v 0.120658 -0.270201 -0.060899
v -0.308027 -0.217488 0.628440
v -0.712361 1.389605 -0.000017
v -0.505535 1.364172 -0.332599
v -0.639163 0.971198 0.218412
v -0.306483 0.930289 -0.316548
v 0.139725 -0.847357 -1.567303
v -0.234465 -0.933239 -0.019581
v -0.877075 -1.066089 -1.903096
v -0.629583 0.910325 -0.733565
v 0.125916 1.039336 -0.019581
v 0.146749 0.937447 -0.981987
v 0.441669 -0.642207 -1.401196
v 0.834110 0.920599 -0.872678
v -0.874084 -0.933239 -0.019581
v -0.924373 0.922898 -0.019581
v 0.073077 -0.386302 -0.019581
v 0.996084 0.931424 -0.019581
v -0.871441 0.542246 -1.071525
v 0.617130 0.535050 -1.195386
v 0.138348 0.458015 -1.321673
v 0.696624 0.066761 -0.019581
v -1.170641 0.596900 -0.019581
v -0.711282 -0.588295 -1.308487
v 0.568222 -0.422929 -1.320694
v 0.138348 -0.451448 -1.416755
v 0.670595 -0.433239 -0.019581
v -1.041178 -0.433239 -0.019581
v -1.072670 -0.482203 -1.670952
v 0.592676 -0.060112 -1.261795
v 0.138348 -0.112888 -1.349664
v 0.683610 -0.183239 -0.019581
v -1.053142 -0.112184 -0.019581
v -0.943174 -0.135333 -1.299984
v 0.604903 0.121297 -1.211232
v 0.138348 0.056391 -1.306657
v 0.690117 -0.058239 -0.019581
v -1.178363 0.136532 -0.019581
v -0.573468 -0.467350 -1.463797
v -0.776978 1.045928 -0.480012
v 0.589863 -0.474662 -0.776717
v 0.009580 -0.768528 -0.593209
v -0.908175 -0.877619 -0.874349
v 0.130116 1.170357 -0.550884
v 0.915097 1.055327 -0.415289
v 0.656877 0.184733 -0.510572
v -1.021041 0.578640 -0.605267
v -0.876230 -0.499205 -0.789560
v 0.619409 -0.428084 -0.525684
v -1.155635 -0.339891 -0.996707
v 0.638143 -0.121675 -0.518128
v -1.060768 0.072948 -0.788204
v 0.647510 0.031529 -0.514350
v 0.069692 -0.768134 -0.327958
v -1.149991 -1.243606 -0.837420
v 0.128016 1.100998 -0.249563
v 0.676750 0.125748 -0.265076
v 0.645002 -0.430661 -0.272633
v 0.660876 -0.152457 -0.268854
v 0.668813 -0.013355 -0.266965
v -0.850676 0.985150 -0.199701
v 0.625427 -0.441376 -0.451452
v -1.095841 0.583237 -0.250911
v -0.958704 -0.472003 -0.269581
v -1.533230 -0.537965 -0.596528
v -1.083761 0.065509 -0.386184
v 0.139725 -0.847357 1.528141
v -0.877075 -1.066089 1.863934
v -0.629583 0.910325 0.694403
v 0.146749 0.937447 0.942825
v 0.441669 -0.642207 1.362034
v 0.834110 0.920599 0.833516
v -0.871441 0.542246 1.032364
v 0.617130 0.535050 1.156224
v 0.138348 0.458015 1.282511
v -0.711282 -0.588295 1.269325
v 0.568222 -0.422929 1.281532
v 0.138348 -0.451448 1.377593
v -1.072670 -0.482203 1.631790
v 0.592676 -0.060112 1.222633
v 0.138348 -0.112888 1.310502
v -0.943174 -0.135333 1.260822
v 0.604903 0.121297 1.172070
v 0.138348 0.056391 1.267495
v -0.573468 -0.467350 1.424635
v -0.776978 1.045928 0.440850
v 0.589863 -0.474662 0.737555
v 0.009580 -0.768528 0.554047
v -0.908175 -0.877619 0.835187
v 0.130116 1.170357 0.511723
v 0.915097 1.055327 0.376127
v 0.656877 0.184733 0.471410
v -1.021041 0.578640 0.566105
v -0.876230 -0.499205 0.750398
v 0.619409 -0.428084 0.486522
v -1.155635 -0.339891 0.957546
v 0.638143 -0.121675 0.478966
v -1.060768 0.072948 0.749042
v 0.647510 0.031529 0.475188
v 0.069692 -0.768134 0.288796
v -1.149991 -1.243606 0.798258
v 0.128016 1.100998 0.210401
v 0.676750 0.125748 0.225914
v 0.645002 -0.430661 0.233471
v 0.660876 -0.152457 0.229693
v 0.668813 -0.013355 0.227803
v -0.850676 0.985150 0.160539
v 0.625427 -0.441376 0.412290
v -1.095841 0.583237 0.211749
v -0.958704 -0.472003 0.230419
v -1.533230 -0.537965 0.557366
v -1.083761 0.065509 0.347022
v 0.585403 0.081327 -1.074133
v 0.755167 0.816363 -0.837528
v 0.961992 -0.101236 -1.040215
v 0.965617 0.756909 -0.776671
v 0.010359 0.196713 -0.019581
v 0.475259 0.892308 -0.019581
v 1.068636 0.532604 -0.019581
v 0.884283 0.924799 -0.019581
v 0.174114 -0.161478 0.969342
v 0.450964 0.918311 0.777362
v 0.877921 -0.365974 1.035345
v 0.992884 0.683203 0.871566
v 0.475259 0.944842 -0.372037
v 1.037810 0.363731 -0.410309
v 0.010359 0.196713 -0.519581
v 0.848632 0.865902 -0.393522
v 0.475259 0.969145 0.480419
v 1.096250 0.358735 0.471820
v 0.010359 0.196713 0.480419
v 0.913851 0.921288 0.480419
v 0.651309 0.625725 -0.969517
v 0.994004 0.327220 -0.977510
v 1.044532 0.736571 -0.019581
v 0.242809 0.544510 -0.019581
v 0.242809 0.621348 0.980419
v 0.968054 0.058476 1.051055
v 1.094686 0.655638 -0.462780
v 0.242809 0.570776 -0.445809
v 1.099816 0.682684 0.490044
v 0.242809 0.582930 0.480419
v 0.099681 -0.316241 0.616652
v 1.061469 -0.616375 0.505593
v 0.899228 -0.240172 0.674933
v -0.008517 -0.242639 0.500019
v -0.293750 -1.884170 0.217588
v -0.205465 -0.840752 0.129303
v -0.293750 -1.884170 -0.256750
v -0.205465 -0.840752 -0.168465
v 0.180588 -1.884170 0.217588
v 0.092304 -0.840752 0.129303
v 0.180588 -1.884170 -0.256750
v 0.092304 -0.840752 -0.168465
v -0.056581 -1.884170 -0.365791
v -0.056580 -0.840752 -0.236917
v -0.056581 -1.884170 0.326629
v -0.056580 -0.840752 0.197755
v -0.402791 -1.884170 -0.019581
v -0.273916 -0.840752 -0.019581
v 0.289630 -1.884170 -0.019581
v 0.160755 -0.840752 -0.019581
v -0.056580 -0.840752 -0.019581
v -0.056581 -1.884170 -0.019581
vn -0.9240 -0.0025 -0.3823
vn -0.9127 0.1076 -0.3943
vn -0.9240 -0.0023 -0.3824
vn -0.0306 -0.0277 -0.9991
vn -0.0000 0.1506 -0.9886
vn -0.0312 -0.0314 -0.9990
vn -0.0082 0.9785 -0.2059
vn -0.0084 1.0000 -0.0000
vn -0.0395 -0.9642 -0.2622
vn 0.9126 0.1939 -0.3599
vn 0.8600 0.3733 -0.3478
vn 0.7513 0.5727 -0.3279
vn 0.9005 -0.1161 -0.4191
vn 0.9015 -0.2425 -0.3584
vn 0.8798 -0.3858 -0.2775
vn -0.0585 -0.1948 -0.9791
vn -0.9235 -0.1204 -0.3643
vn 0.9272 0.1314 -0.3509
vn 0.8752 0.0410 -0.4820
vn 0.9290 0.1452 -0.3406
vn -0.9240 -0.0025 0.3823
vn -0.9240 -0.0023 0.3824
vn -0.9127 0.1076 0.3943
vn -0.0306 -0.0277 0.9991
vn -0.0312 -0.0314 0.9990
vn -0.0000 0.1506 0.9886
vn -0.0082 0.9785 0.2059
vn -0.0395 -0.9642 0.2622
vn 0.9126 0.1939 0.3599
vn 0.7513 0.5727 0.3279
vn 0.8600 0.3733 0.3478
vn 0.9005 -0.1161 0.4191
vn 0.8798 -0.3858 0.2775
vn 0.9015 -0.2425 0.3584
vn -0.0585 -0.1948 0.9791
vn -0.9235 -0.1204 0.3643
vn 0.9272 0.1314 0.3509
vn 0.8752 0.0410 0.4820
vn 0.9290 0.1452 0.3406
vn -0.8409 -0.1845 -0.5088
vn 0.5696 0.2979 -0.7660
vn 0.6637 0.6542 0.3627
vn -0.6794 0.2644 0.6845
vn 0.2943 -0.9215 0.2535
vn 0.2665 0.4710 -0.8409
vn -0.5868 0.6936 -0.4179
vn 0.8450 0.1461 0.5143
vn -0.5783 0.1290 0.8056
vn -0.5860 0.5572 0.5883
vn 0.7665 0.4669 0.4410
vn 0.5401 0.0299 -0.8411
vn -0.8211 -0.2959 -0.4880
vn 0.4609 -0.0082 -0.8874
vn -0.5212 0.1564 0.8390
vn -0.4459 0.4010 0.8002
vn 0.2922 0.1287 -0.9477
vn 0.6721 0.3428 -0.6563
vn -0.3065 0.4566 0.8352
vn -0.6627 0.6191 -0.4214
vn 0.1323 0.5807 -0.8033
vn 0.1118 0.9604 0.2552
vn -0.1296 0.2007 -0.9711
vn 0.2120 -0.9686 0.1302
vn -0.1859 0.6465 -0.7399
vn -0.1030 0.9573 0.2702
vn 0.6004 -0.5057 0.6195
vn 0.9348 -0.2891 -0.2062
vn 0.9941 -0.0537 -0.0944
vn 0.2287 -0.0024 -0.9735
vn -0.9331 0.1933 -0.3033
vn 0.2624 0.3438 -0.9016
vn -0.0660 -0.9975 0.0257
vn -0.0319 0.6521 -0.7575
vn -0.4422 -0.8932 0.0813
vn 0.1860 0.1674 -0.9682
vn 0.9936 -0.0536 -0.0992
vn 0.2205 -0.8547 -0.4700
vn -0.6133 0.6723 -0.4145
vn 0.1583 0.2494 -0.9554
vn 0.9939 -0.0537 -0.0963
vn -0.0486 0.6323 -0.7732
vn 0.3542 -0.4468 -0.8215
vn 0.0566 -0.8114 -0.5817
vn 0.0604 0.1940 -0.9791
vn 0.9963 -0.0535 -0.0665
vn -0.8014 0.5374 -0.2625
vn 0.9962 -0.0578 -0.0651
vn 0.0051 -0.9836 -0.1801
vn 0.8987 -0.4319 -0.0768
vn -0.8870 0.3459 -0.3061
vn -0.9896 0.0664 -0.1277
vn 0.9969 -0.0355 -0.0707
vn 0.9399 -0.3034 -0.1566
vn 0.4902 -0.8622 0.1274
vn -0.1710 0.8499 -0.4984
vn 0.1216 -0.9825 0.1409
vn 0.1460 0.9103 -0.3873
vn -0.8475 0.5081 -0.1533
vn -0.8005 0.5562 -0.2232
vn -0.9603 0.0340 -0.2769
vn -0.9772 -0.0708 0.2002
vn -0.5755 -0.5631 0.5930
vn -0.9282 0.2984 0.2221
vn 0.9937 -0.0569 -0.0968
vn 0.9934 -0.0569 -0.0994
vn 0.9895 -0.1052 -0.0991
vn 0.9938 -0.0570 -0.0950
vn 0.4737 -0.8803 -0.0265
vn -0.1109 0.9728 0.2032
vn 0.4090 -0.6935 -0.5931
vn 0.1970 0.2357 -0.9517
vn -0.9944 0.0946 -0.0474
vn -0.6865 0.6482 -0.3295
vn -0.9351 0.3056 -0.1796
vn -0.6627 0.6191 0.4214
vn 0.1323 0.5807 0.8033
vn 0.1118 0.9604 -0.2552
vn -0.1296 0.2007 0.9711
vn 0.2120 -0.9686 -0.1302
vn -0.1859 0.6465 0.7399
vn -0.1030 0.9573 -0.2702
vn 0.6004 -0.5057 -0.6195
vn 0.9348 -0.2891 0.2062
vn 0.9941 -0.0537 0.0944
vn 0.2287 -0.0024 0.9735
vn -0.9331 0.1933 0.3033
vn 0.2624 0.3438 0.9016
vn -0.0660 -0.9975 -0.0257
vn -0.0319 0.6521 0.7575
vn -0.4422 -0.8932 -0.0813
vn 0.1860 0.1674 0.9682
vn 0.9936 -0.0536 0.0992
vn 0.2205 -0.8547 0.4700
vn -0.6133 0.6723 0.4145
vn 0.1583 0.2494 0.9554
vn 0.9939 -0.0537 0.0963
vn -0.0486 0.6323 0.7732
vn 0.3542 -0.4468 0.8215
vn 0.0566 -0.8114 0.5817
vn 0.0604 0.1940 0.9791
vn 0.9963 -0.0535 0.0665
vn -0.8014 0.5374 0.2625
vn 0.9962 -0.0578 0.0651
vn 0.0051 -0.9836 0.1801
vn 0.8987 -0.4319 0.0768
vn -0.8870 0.3459 0.3061
vn -0.9896 0.0664 0.1277
vn 0.9969 -0.0355 0.0707
vn 0.9399 -0.3034 0.1566
vn 0.4902 -0.8622 -0.1274
vn -0.1710 0.8499 0.4984
vn 0.1216 -0.9825 -0.1409
vn 0.1460 0.9103 0.3873
vn -0.8475 0.5081 0.1533
vn -0.8005 0.5562 0.2232
vn -0.9603 0.0340 0.2769
vn -0.9772 -0.0708 -0.2002
vn -0.5755 -0.5631 -0.5930
vn -0.9282 0.2984 -0.2221
vn 0.9937 -0.0569 0.0968
vn 0.9934 -0.0569 0.0994
vn 0.9895 -0.1052 0.0991
vn 0.9938 -0.0570 0.0950
vn 0.4737 -0.8803 0.0265
vn -0.1109 0.9728 -0.2032
vn 0.4090 -0.6935 0.5931
vn 0.1970 0.2357 0.9517
vn -0.9944 0.0946 0.0474
vn -0.6865 0.6482 0.3295
vn -0.9351 0.3056 0.1796
vn -0.6536 0.5705 -0.4973
vn 0.3562 0.3929 -0.8478
vn 0.0589 0.9982 -0.0116
vn 0.2222 -0.9593 0.1742
vn 0.6862 0.7189 -0.1108
vn -0.8426 0.5383 -0.0173
vn 0.0799 0.5239 0.8480
vn 0.0181 0.9971 -0.0736
vn 0.2221 -0.9593 -0.1744
vn 0.7766 0.6293 -0.0295
vn 0.6463 0.7628 -0.0197
vn -0.0530 -0.9054 0.4213
vn 0.1963 0.9691 -0.1494
vn -0.8420 0.5367 0.0543
vn 0.7663 0.6059 0.2139
vn -0.2593 -0.8895 0.3763
vn 0.1068 0.9785 0.1763
vn -0.8432 0.5341 -0.0616
vn -0.8446 0.5350 -0.0206
vn 0.9785 -0.0223 0.2050
vn -0.8413 0.5403 0.0153
vn 0.9775 -0.2017 -0.0625
vn 0.9965 0.0413 -0.0731
vn -0.1009 -0.0052 0.9949
vn -0.9421 0.2405 0.2338
vn 0.9972 -0.0615 0.0415
vn 0.1385 0.1543 -0.9783
vn -0.6832 0.3468 -0.6426
vn 0.9264 0.2079 -0.3139
vn 0.9622 0.0392 0.2696
vn 0.9719 -0.2103 0.1061
vn -0.0980 -0.0160 0.9951
vn 0.0576 0.1503 -0.9870
vn -0.9264 -0.0627 0.3713
vn 0.0996 -0.2285 -0.9684
vn 0.9421 -0.3301 -0.0595
vn 0.9304 0.3254 0.1686
vn 0.9953 -0.0637 -0.0728
vn 0.3132 0.9343 -0.1702
vn 0.3429 0.4163 -0.8421
vn 0.1164 0.2700 0.9558
vn 0.2866 0.8430 0.4552
vn -0.9029 0.1115 -0.4151
vn 0.4151 0.1115 -0.9029
vn 0.9029 0.1115 0.4151
vn -0.4151 0.1115 0.9029
vn -0.0000 -1.0000 -0.0000
vn -0.0000 1.0000 -0.0000
vn 0.4151 0.1115 0.9029
vn -0.4151 0.1115 -0.9029
vn 0.9029 0.1115 -0.4151
vn -0.9029 0.1115 0.4151
vt 0.603223 0.186490
vt 0.620386 0.018192
vt 0.739484 0.069533
vt 0.739484 0.217250
vt 0.129164 0.751804
vt 0.274654 0.753757
vt 0.277822 0.956483
vt 0.132571 0.969834
vt 0.727049 0.432875
vt 0.727049 0.635708
vt 0.564950 0.699085
vt 0.564950 0.378812
vt 0.366465 0.455487
vt 0.366465 0.692412
vt 0.188295 0.709224
vt 0.223318 0.394831
vt 0.370058 0.188805
vt 0.209473 0.201061
vt 0.209473 0.163144
vt 0.362116 0.089163
vt 0.209473 0.047965
vt 0.018193 0.745610
vt 0.018193 0.981807
vt 0.568374 0.342427
vt 0.693106 0.321374
vt 0.350691 0.315979
vt 0.209473 0.347566
vt 0.402850 0.164567
vt 0.443449 0.023204
vt 0.462866 0.751804
vt 0.459459 0.969834
vt 0.314208 0.956483
vt 0.317376 0.753757
vt 0.402850 0.432875
vt 0.402850 0.635708
vt 0.070331 0.422498
vt 0.018193 0.653616
vt 0.048889 0.188805
vt 0.056831 0.089163
vt 0.573837 0.745610
vt 0.573837 0.981807
vt 0.421026 0.278794
vt 0.068256 0.315979
vt 0.500000 0.000000
vt 0.625000 0.000000
vt 0.625000 0.250000
vt 0.500000 0.250000
vt 0.500000 0.375000
vt 0.625000 0.375000
vt 0.625000 0.500000
vt 0.500000 0.500000
vt 0.625000 0.750000
vt 0.500000 0.750000
vt 0.500000 0.875000
vt 0.625000 0.875000
vt 0.625000 1.000000
vt 0.500000 1.000000
vt 0.250000 0.500000
vt 0.375000 0.500000
vt 0.375000 0.750000
vt 0.250000 0.750000
vt 0.000000 0.000000
vt 0.375000 0.875000
vt 0.375000 1.000000
vt 0.375000 0.375000
vt 0.375000 0.000000
vt 0.375000 0.250000
vt 0.125000 0.500000
vt 0.125000 0.750000
vt 0.500000 0.187500
vt 0.625000 0.187500
vt 0.500000 0.375000
vt 0.750000 0.625000
vt 0.625000 0.625000
vt 0.625000 0.562500
vt 0.750000 0.562500
vt 0.750000 0.593750
vt 0.484375 0.250000
vt 0.484375 0.375000
vt 0.125000 0.593750
vt 0.250000 0.593750
vt 0.250000 0.625000
vt 0.125000 0.625000
vt 0.875000 0.593750
vt 0.875000 0.625000
vt 0.375000 0.593750
vt 0.375000 0.625000
vt 0.500000 0.562500
vt 0.484375 0.593750
vt 0.500000 0.593750
vt 0.500000 0.625000
vt 0.484375 0.625000
vt 0.484375 0.500000
vt 0.484375 0.187500
vt 0.437500 0.375000
vt 0.437500 0.593750
vt 0.437500 0.625000
vt 0.437500 0.250000
vt 0.437500 0.187500
vt 0.468750 0.187500
vt 0.468750 0.250000
vt 0.468750 0.375000
vt 0.468750 0.500000
vt 0.437500 0.500000
vt 0.468750 0.593750
vt 0.468750 0.625000
vt 0.484375 0.562500
vt 0.468750 0.562500
vt 0.468750 0.156250
vt 0.484375 0.156250
vt 0.437500 0.562500
vt 0.437500 0.156250
vt 0.375000 0.562500
vt 0.375000 0.156250
vt 0.375000 0.187500
vt 0.500000 0.156250
vt 0.250000 0.562500
vt 0.750000 0.500000
vt 0.875000 0.500000
vt 0.875000 0.562500
vt 0.125000 0.562500
vt 0.625000 0.156250
vt 0.500000 0.125000
vt 0.625000 0.125000
vt 0.484375 0.125000
vt 0.375000 0.125000
vt 0.437500 0.125000
vt 0.468750 0.125000
vt 0.500000 0.187500
vt 0.500000 0.250000
vt 0.500000 0.625000
vt 0.500000 0.187500
vt 0.500000 0.250000
vt 0.500000 0.500000
vt 0.935967 0.905085
vt 0.946970 0.786440
vt 0.965526 0.787206
vt 0.965526 0.906304
vt 0.000000 0.998780
vt 0.011003 0.880136
vt 0.029559 0.880901
vt 0.029559 1.000000
vt 0.905267 0.702928
vt 0.916270 0.584284
vt 0.934826 0.585050
vt 0.934826 0.704148
vt 0.853182 0.702928
vt 0.864185 0.584284
vt 0.882741 0.585050
vt 0.882741 0.704148
vt 0.905223 0.775448
vt 0.875638 0.775448
vt 0.888832 0.739798
vt 0.654368 0.981023
vt 0.640271 0.968932
vt 0.662651 0.958643
vt 0.672940 0.981023
vt 0.853182 0.756189
vt 0.948967 0.584284
vt 0.957352 0.702928
vt 0.979667 0.786440
vt 0.988052 0.905085
vt 0.853182 0.726605
vt 0.685030 0.966926
vt 0.685030 0.948354
vt 0.872442 0.704148
vt 0.043700 0.880136
vt 0.052085 0.998780
vt 0.896882 0.584284
vt 0.905267 0.702928
vt 0.640271 0.950361
vt 0.652361 0.936264
vt 0.670933 0.936264
vt 0.924482 0.752992
vt 0.924482 0.723408
vt 0.902026 0.704148
s 1
usemtl skin
f 12/1/1 6/2/2 2/3/2 9/4/3
f 9/5/4 2/6/5 4/7/5 10/8/6
f 4/9/7 2/10/7 6/11/8 8/12/8
f 1/13/9 3/14/9 7/15/9 5/16/9
f 10/17/10 13/18/11 11/19/12
f 3/20/13 11/19/14 7/21/15
f 1/22/16 9/5/4 10/8/6 3/23/16
f 5/24/17 12/1/1 9/4/3 1/25/17
f 10/17/10 4/26/18 13/18/11
f 3/20/13 10/17/19 11/19/14
f 8/27/20 13/18/11 4/26/18
f 12/1/21 18/28/22 15/29/23 6/2/23
f 18/30/24 19/31/25 17/32/26 15/33/26
f 17/34/27 8/12/8 6/11/8 15/35/27
f 14/36/28 5/16/28 7/15/28 16/37/28
f 19/38/29 11/19/30 13/18/31
f 16/39/32 7/21/33 11/19/34
f 14/40/35 16/41/35 19/31/25 18/30/24
f 5/24/36 14/42/36 18/28/22 12/1/21
f 19/38/29 13/18/31 17/43/37
f 16/39/32 11/19/34 19/38/38
f 8/27/39 17/43/37 13/18/31
f 191/135/213 192/136/213 182/137/213 181/138/213
f 187/139/214 188/140/214 186/141/214 185/142/214
f 193/143/215 194/144/215 184/145/215 183/146/215
f 189/147/216 190/148/216 180/149/216 179/150/216
f 191/151/217 181/152/217 196/153/217
f 186/154/218 188/155/218 195/156/218
f 194/157/218 186/154/218 195/156/218
f 181/152/217 187/158/217 196/153/217
f 183/146/219 184/145/219 190/159/219 189/160/219
f 181/138/220 182/137/220 188/161/220 187/162/220
f 187/158/217 185/163/217 196/153/217
f 194/157/218 195/156/218 184/164/218
f 190/165/218 184/164/218 195/156/218
f 185/163/217 193/166/217 196/153/217
f 185/142/221 186/141/221 194/167/221 193/168/221
f 179/150/222 180/149/222 192/169/222 191/170/222
f 188/155/218 182/171/218 195/156/218
f 182/171/218 192/172/218 195/156/218
f 192/172/218 180/173/218 195/156/218
f 190/165/218 195/156/218 180/173/218
f 191/151/217 196/153/217 179/174/217
f 189/175/217 179/174/217 196/153/217
f 189/175/217 196/153/217 183/176/217
f 193/166/217 183/176/217 196/153/217
usemtl hair
f 29/44/40 21/45/40 23/46/40 30/47/40
f 38/48/41 36/49/41 27/50/41 31/51/41
f 31/51/42 27/50/42 25/52/42 28/53/42
f 37/54/43 35/55/43 21/56/43 29/57/43
f 33/58/44 26/59/44 24/60/44 34/61/44
f 23/46/45 32/62/45 36/49/45
f 32/62/46 23/46/46 21/62/46
f 32/62/47 25/62/47 27/50/47
f 34/63/48 37/54/48 29/57/48 20/64/48
f 21/62/49 35/55/49 32/62/49
f 26/59/50 31/51/50 28/53/50 24/60/50
f 33/65/51 38/48/51 31/51/51 26/59/51
f 20/66/52 29/44/52 30/47/52 22/67/52
f 22/67/53 30/47/53 38/48/53 33/65/53
f 24/60/54 28/53/54 37/54/54 34/63/54
f 22/68/44 33/58/44 34/61/44 20/69/44
f 28/53/55 25/52/55 35/55/55 37/54/55
f 30/47/56 23/46/56 36/49/56 38/48/56
f 27/50/57 36/49/57 32/62/57
f 32/62/58 35/55/58 25/52/58
f 79/70/59 72/71/59 42/46/59 51/47/59
f 53/72/60 44/49/60 46/50/60 52/51/60
f 43/73/61 50/74/61 77/75/61 76/76/61 88/77/61
f 66/78/62 51/47/62 53/72/62 68/79/62
f 87/80/63 86/81/63 40/82/63 47/83/63
f 51/47/64 42/46/64 44/49/64 53/72/64
f 88/77/65 93/84/65 48/85/65 43/73/65
f 86/81/66 94/86/66 49/87/66 40/82/66
f 50/74/67 54/62/67 78/88/67 77/75/67
f 92/89/68 89/90/68 54/91/68 69/92/68
f 68/79/69 53/72/69 52/51/69 67/93/69
f 84/94/70 79/70/70 51/47/70 66/78/70
f 39/65/71 58/95/71 45/59/71
f 94/86/72 90/96/72 59/97/72 49/87/72
f 41/67/73 56/98/73 58/95/73 39/65/73
f 80/99/74 82/100/74 61/101/74 56/98/74
f 58/95/75 63/102/75 62/103/75 57/104/75
f 90/96/76 91/105/76 64/106/76 59/97/76
f 56/98/77 61/101/77 71/62/77
f 66/78/78 61/101/78 84/94/78
f 63/102/79 68/79/79 67/93/79 62/103/79
f 91/105/80 92/89/80 69/92/80 64/106/80
f 61/101/81 66/78/81 68/79/81 63/102/81
f 63/102/82 71/62/82 61/101/82
f 58/95/83 56/98/83 71/62/83
f 58/95/84 71/62/84 63/102/84
f 62/103/85 67/93/85 85/107/85 83/108/85
f 97/109/86 98/110/86 84/94/86 82/100/86
f 57/104/87 62/103/87 83/108/87 81/111/87
f 96/112/88 97/109/88 82/100/88 80/99/88
f 45/59/89 57/104/89 81/111/89 73/113/89
f 87/114/90 96/112/90 80/99/90 75/115/90
f 98/110/91 95/116/91 79/70/91 84/94/91
f 67/93/92 52/51/92 78/88/92 85/107/92
f 52/51/93 46/50/93 77/75/93 78/88/93
f 39/58/94 45/59/94 73/113/94 74/117/94
f 44/118/95 42/119/95 72/120/95 76/76/95
f 41/68/96 39/58/96 74/117/96 75/121/96
f 46/50/97 44/118/97 76/76/97 77/75/97
f 95/116/98 93/122/98 72/71/98 79/70/98
f 55/123/99 48/124/99 93/122/99 95/116/99
f 70/125/100 55/123/100 95/116/100 98/110/100
f 47/126/101 60/127/101 96/112/101 87/114/101
f 60/127/102 65/128/102 97/109/102 96/112/102
f 65/128/103 70/125/103 98/110/103 97/109/103
f 83/108/104 85/107/104 92/89/104 91/105/104
f 81/111/105 83/108/105 91/105/105 90/96/105
f 73/113/106 81/111/106 90/96/106 94/86/106
f 85/107/107 78/88/107 89/90/107 92/89/107
f 74/117/108 73/113/108 94/86/108 86/81/108
f 76/76/109 72/120/109 93/84/109 88/77/109
f 75/121/110 74/117/110 86/81/110 87/80/110
f 57/104/111 45/59/111 58/95/111
f 75/115/112 80/99/112 41/68/112
f 56/98/113 41/68/113 80/99/113
f 82/100/114 84/94/114 61/101/114
f 125/70/115 105/47/115 101/46/115 118/71/115
f 107/72/116 106/51/116 104/50/116 102/49/116
f 43/73/117 134/77/117 122/76/117 123/75/117 50/74/117
f 114/78/118 116/79/118 107/72/118 105/47/118
f 133/80/119 47/83/119 40/82/119 132/81/119
f 105/47/120 107/72/120 102/49/120 101/46/120
f 134/77/121 43/73/121 48/85/121 139/84/121
f 132/81/122 40/82/122 49/87/122 140/86/122
f 50/74/123 123/75/123 124/88/123 54/62/123
f 138/89/124 69/92/124 54/91/124 135/90/124
f 116/79/125 115/93/125 106/51/125 107/72/125
f 130/94/126 114/78/126 105/47/126 125/70/126
f 99/65/127 103/59/127 110/95/127
f 140/86/128 49/87/128 59/97/128 136/96/128
f 100/67/129 99/65/129 110/95/129 108/98/129
f 126/99/130 108/98/130 111/101/130 128/100/130
f 110/95/131 109/104/131 112/103/131 113/102/131
f 136/96/132 59/97/132 64/106/132 137/105/132
f 108/98/133 117/62/133 111/101/133
f 114/78/134 130/94/134 111/101/134
f 113/102/135 112/103/135 115/93/135 116/79/135
f 137/105/136 64/106/136 69/92/136 138/89/136
f 111/101/137 113/102/137 116/79/137 114/78/137
f 113/102/138 111/101/138 117/62/138
f 110/95/139 117/62/139 108/98/139
f 110/95/140 113/102/140 117/62/140
f 112/103/141 129/108/141 131/107/141 115/93/141
f 143/109/142 128/100/142 130/94/142 144/110/142
f 109/104/143 127/111/143 129/108/143 112/103/143
f 142/112/144 126/99/144 128/100/144 143/109/144
f 103/59/145 119/113/145 127/111/145 109/104/145
f 133/114/146 121/115/146 126/99/146 142/112/146
f 144/110/147 130/94/147 125/70/147 141/116/147
f 115/93/148 131/107/148 124/88/148 106/51/148
f 106/51/149 124/88/149 123/75/149 104/50/149
f 99/58/150 120/117/150 119/113/150 103/59/150
f 102/118/151 122/76/151 118/120/151 101/119/151
f 100/68/152 121/121/152 120/117/152 99/58/152
f 104/50/153 123/75/153 122/76/153 102/118/153
f 141/116/154 125/70/154 118/71/154 139/122/154
f 55/123/155 141/116/155 139/122/155 48/124/155
f 70/125/156 144/110/156 141/116/156 55/123/156
f 47/126/157 133/114/157 142/112/157 60/127/157
f 60/127/158 142/112/158 143/109/158 65/128/158
f 65/128/159 143/109/159 144/110/159 70/125/159
f 129/108/160 137/105/160 138/89/160 131/107/160
f 127/111/161 136/96/161 137/105/161 129/108/161
f 119/113/162 140/86/162 136/96/162 127/111/162
f 131/107/163 138/89/163 135/90/163 124/88/163
f 120/117/164 132/81/164 140/86/164 119/113/164
f 122/76/165 134/77/165 139/84/165 118/120/165
f 121/121/166 133/80/166 132/81/166 120/117/166
f 109/104/167 110/95/167 103/59/167
f 121/115/168 100/68/168 126/99/168
f 108/98/169 126/99/169 100/68/169
f 128/100/170 111/101/170 130/94/170
f 172/129/171 157/71/171 146/46/171 165/130/171
f 148/50/172 165/130/172 146/46/172
f 160/75/173 157/120/173 150/85/173 152/74/173
f 159/121/174 158/113/174 151/87/174 149/83/174
f 171/88/175 160/75/175 152/74/175 167/131/175
f 174/132/176 169/133/176 154/46/176 161/71/176
f 156/50/177 154/46/177 169/133/177
f 164/75/178 152/74/178 150/85/178 161/120/178
f 163/121/179 149/83/179 151/87/179 162/113/179
f 173/88/180 167/131/180 152/74/180 164/75/180
f 160/75/181 171/88/181 148/50/181
f 145/68/182 147/59/182 158/113/182 159/121/182
f 146/46/183 157/120/183 160/75/183
f 168/123/184 150/124/184 157/71/184 172/129/184
f 164/75/185 156/50/185 173/88/185
f 155/59/186 153/67/186 175/67/186 176/59/186
f 161/120/187 154/46/187 164/75/187
f 168/123/188 174/132/188 161/71/188 150/124/188
f 149/126/189 163/115/189 174/132/189 168/123/189
f 173/88/190 170/134/190 162/113/190
f 149/126/191 168/123/191 172/129/191 159/115/191
f 171/88/192 158/113/192 166/134/192
f 162/113/193 151/87/193 167/131/193 173/88/193
f 169/133/194 153/67/194 170/134/194
f 163/115/195 153/67/195 169/133/195 174/132/195
f 158/113/196 171/88/196 167/131/196 151/87/196
f 145/67/197 165/130/197 166/134/197 147/59/197
f 159/115/198 172/129/198 165/130/198 145/67/198
f 166/134/199 148/50/199 171/88/199
f 170/134/200 173/88/200 156/50/200
f 170/134/201 155/59/201 162/113/201
f 155/59/202 170/134/202 153/67/202
f 175/68/203 178/121/203 177/113/203 176/59/203
f 153/67/204 163/115/204 178/115/204 175/67/204
f 163/121/205 162/113/205 177/113/205 178/121/205
f 162/113/206 155/59/206 177/113/206
f 177/113/207 155/59/207 176/59/207
f 166/134/208 158/113/208 147/59/208
f 148/50/209 146/46/209 160/75/209
f 166/134/210 165/130/210 148/50/210
f 170/134/211 156/50/211 169/133/211
f 156/50/212 164/75/212 154/46/212
