# Blender 5.0.1
# www.blender.org
mtllib la.mtl
o leftArm
v -0.449523 -2.765244 0.234466
v -0.403123 -0.131007 0.300069
v -0.449523 -2.765244 -0.119755
v -0.403123 -0.131007 -0.317371
v 0.260717 -2.613270 0.234466
v 0.214317 -0.131007 0.300069
v 0.260717 -2.613270 -0.119755
v 0.214317 -0.131007 -0.317371
v -0.344409 -1.405503 0.261156
v -0.344409 -1.405503 -0.238855
v 0.155603 -1.405503 -0.238855
v 0.155603 -1.405503 0.261156
v -0.447447 -3.419551 0.234466
v -0.447447 -3.419551 -0.119755
v 0.407604 -3.158018 0.234466
v 0.407604 -3.158018 -0.119755
v 0.149955 -3.487061 -0.145298
v 0.150922 -3.488051 0.234466
v 0.334161 -2.995022 0.234466
v 0.334161 -2.995022 -0.116792
v 0.717964 -2.494301 0.203537
v 0.717964 -2.494301 -0.088827
v 0.791408 -2.809389 0.203537
v 0.791408 -2.809389 -0.088827
v 0.403157 -4.017928 0.234465
v 0.403157 -4.017928 0.000813
v 0.196978 -4.090234 0.000160
v 0.196978 -4.090234 0.234465
v -0.148263 -3.453801 0.234466
v -0.148263 -3.453801 -0.135764
v 0.143000 -4.258278 0.000104
v 0.143000 -4.258278 0.234465
v -0.108230 -4.224028 0.234466
v -0.108230 -4.224028 -0.000298
v -0.417738 -4.148407 0.234466
v -0.417738 -4.148407 0.000813
v -0.178389 -4.182658 0.234466
v -0.178389 -4.182658 -0.000185
v -0.039725 -2.677557 -0.145705
v -0.052972 -0.131007 -0.412876
v -0.012584 -1.405503 -0.264199
v 0.173950 -3.789142 0.234465
v 0.405380 -3.587973 0.234465
v 0.173466 -3.788648 -0.072568
v 0.405380 -3.587973 -0.059471
v 0.146477 -3.872669 -0.072597
v -0.128246 -3.838914 -0.068031
v -0.128246 -3.838914 0.234466
v 0.146961 -3.873164 0.234465
v -0.432592 -3.783980 -0.059471
v -0.432592 -3.783980 0.234466
v -0.163326 -3.818229 -0.067975
v -0.163326 -3.818229 0.234466
v -0.594403 -0.754662 0.500297
v -0.361200 0.433829 0.267111
v -0.594403 -0.754662 -0.502291
v -0.361200 0.433829 -0.187987
v 0.405597 -0.754662 0.500297
v 0.172394 0.433829 0.267111
v 0.405597 -0.754662 -0.502291
v 0.172394 0.433829 -0.187987
v -0.759665 -0.754662 0.000429
v -0.449383 0.433829 0.000385
v 0.570858 -0.754662 0.000429
v 0.260576 0.433829 0.000385
v -0.094403 -0.754662 -0.667571
v -0.094403 0.433829 -0.276179
v -0.094403 -0.754662 0.665539
v -0.094403 0.433829 0.355284
v -0.094403 0.433829 0.000375
v -0.094403 -0.754662 0.000410
v -0.524651 -0.606569 0.430549
v -0.524651 -0.606569 -0.422992
v 0.335845 -0.606569 -0.422992
v 0.335845 -0.606569 0.430549
v 0.478051 -0.606569 0.000414
v -0.666858 -0.606569 0.000414
v -0.094403 -0.606569 0.572739
v -0.094403 -0.606569 -0.565215
vn -0.9999 0.0146 -0.0000
vn -0.9989 -0.0460 -0.0000
vn -0.9999 0.0126 -0.0000
vn -0.1156 -0.0906 -0.9892
vn -0.1737 -0.0941 -0.9803
vn 0.0425 -0.0932 -0.9947
vn 0.0424 -0.0911 -0.9949
vn 0.9999 0.0170 -0.0000
vn 0.9989 -0.0460 -0.0000
vn 0.9998 0.0193 -0.0000
vn 0.0013 -0.0256 0.9997
vn -0.0000 -0.0305 0.9995
vn 0.0221 -0.0028 0.9998
vn 0.0011 -0.0087 1.0000
vn -0.0000 -0.0000 1.0000
vn 0.0203 0.0043 0.9998
vn -0.0000 1.0000 -0.0000
vn 0.9962 0.0867 -0.0000
vn 0.0142 -0.0437 -0.9989
vn -0.0554 -0.0405 -0.9976
vn -0.9993 0.0372 -0.0000
vn -0.9993 0.0381 -0.0000
vn -0.9992 -0.0407 -0.0000
vn 0.0857 -0.1134 -0.9898
vn -0.9998 -0.0209 -0.0000
vn -0.9998 -0.0220 -0.0000
vn -0.2518 0.9678 -0.0000
vn -0.0515 -0.0870 -0.9949
vn -0.0527 -0.0773 -0.9956
vn 0.1038 -0.0041 -0.9946
vn 0.0888 0.0168 -0.9959
vn 0.0631 0.0133 0.9979
vn 0.9117 0.4108 -0.0000
vn 0.9782 0.2076 -0.0000
vn 0.9763 0.2163 -0.0000
vn 0.9739 0.2270 -0.0000
vn 0.0558 0.0130 -0.9984
vn 0.0602 0.0096 -0.9981
vn 0.3762 -0.9266 -0.0000
vn 0.3309 -0.9437 -0.0000
vn -0.9970 -0.0768 0.0014
vn -0.9970 -0.0768 0.0015
vn -0.9970 -0.0769 0.0008
vn 0.2308 -0.1624 -0.9594
vn 0.1735 -0.1801 -0.9682
vn 1.0000 -0.0052 -0.0000
vn -0.1351 -0.9908 -0.0000
vn -0.9987 -0.0519 -0.0000
vn 1.0000 -0.0098 -0.0016
vn 1.0000 -0.0098 -0.0015
vn 1.0000 -0.0097 -0.0009
vn -0.1417 -0.9899 -0.0000
vn 0.9991 -0.0413 -0.0000
vn 0.0924 -0.0241 -0.9954
vn -0.0575 -0.1762 -0.9827
vn -0.0486 -0.1693 -0.9844
vn 0.1926 -0.0895 -0.9772
vn 0.2664 -0.0875 -0.9599
vn -0.9970 -0.0768 0.0019
vn 0.9999 -0.0099 -0.0021
vn 0.1204 -0.1912 -0.9741
vn 0.0829 -0.2275 -0.9702
vn -0.0413 -0.1821 -0.9824
vn -0.0356 -0.1776 -0.9834
vn -0.0289 -0.1785 -0.9835
vn -0.0222 -0.1743 -0.9844
vn -0.0384 -0.1709 -0.9845
vn -0.0276 -0.1642 -0.9860
vn -0.8724 0.3788 -0.3088
vn -0.9157 0.2066 -0.3448
vn -0.8688 0.3892 -0.3063
vn 0.2849 0.4192 -0.8620
vn 0.3035 0.2551 -0.9181
vn 0.2847 0.4209 -0.8613
vn 0.8822 0.3696 0.2917
vn 0.9313 0.1947 0.3079
vn 0.8801 0.3752 0.2910
vn -0.2916 0.3696 0.8823
vn -0.3078 0.1947 0.9313
vn -0.2909 0.3752 0.8801
vn -0.0000 -1.0000 -0.0000
vn 0.8688 0.3892 -0.3063
vn 0.9157 0.2066 -0.3448
vn 0.8724 0.3788 -0.3088
vn -0.8801 0.3752 0.2910
vn -0.9313 0.1947 0.3079
vn -0.8822 0.3696 0.2917
vn 0.2909 0.3752 0.8801
vn 0.3078 0.1947 0.9313
vn 0.2916 0.3696 0.8823
vn -0.2847 0.4209 -0.8613
vn -0.3035 0.2551 -0.9181
vn -0.2849 0.4192 -0.8620
vn -0.2624 0.5486 -0.7938
vn 0.2697 0.5113 0.8160
vn -0.8159 0.5114 0.2698
vn 0.8119 0.5178 -0.2696
vn -0.2697 0.5113 0.8160
vn 0.8159 0.5114 0.2698
vn 0.2624 0.5486 -0.7938
vn -0.8119 0.5178 -0.2696
vt 0.500000 0.000000
vt 0.625000 0.000000
vt 0.625000 0.250000
vt 0.500000 0.250000
vt 0.625000 0.391775
vt 0.500000 0.415908
vt 0.500000 0.500000
vt 0.625000 0.500000
vt 0.625000 0.750000
vt 0.500000 0.750000
vt 0.625000 1.000000
vt 0.500000 1.000000
vt 0.375000 0.750000
vt 0.375000 1.000000
vt 0.375000 0.937500
vt 0.375000 0.875000
vt 0.733225 0.500000
vt 0.875000 0.500000
vt 0.875000 0.750000
vt 0.375000 0.500000
vt 0.375000 0.394246
vt 0.375000 0.250000
vt 0.375000 0.000000
vt 0.000000 0.000000
vt 0.187500 0.125000
vt 0.250000 0.750000
vt 0.250000 0.500000
vt 0.250000 0.750000
vt 0.250000 0.500000
vt 0.187500 0.750000
vt 0.187500 0.500000
vt 0.375000 0.937500
vt 0.125000 0.500000
vt 0.125000 0.750000
vt 0.799852 0.981376
vt 0.795963 0.981376
vt 0.795963 0.977486
vt 0.799852 0.977486
vt 0.799852 0.973598
vt 0.795963 0.973598
vt 0.795963 0.969709
vt 0.799852 0.969709
vt 0.799852 0.965820
vt 0.795963 0.965820
vt 0.795963 0.961932
vt 0.799852 0.961932
vt 0.799852 0.958044
vt 0.795963 0.958044
vt 0.795963 0.954155
vt 0.799852 0.954155
vt 0.803740 0.977486
vt 0.803740 0.973598
vt 0.815406 0.985263
vt 0.788186 0.965820
vt 0.795963 0.985263
vt 0.803740 0.969709
vt 0.799852 0.985263
vt 0.803740 0.965820
vt 0.803740 0.961932
vt 0.792075 0.965820
vt 0.803740 0.981376
vt 0.803740 0.985263
vt 0.803740 0.958044
vt 0.803740 0.954155
s 1
usemtl skin
f 9/1/1 2/2/2 4/3/2 10/4/3
f 10/4/4 4/3/5 40/5/6 41/6/7
f 11/7/8 8/8/9 6/9/9 12/10/10
f 12/10/11 6/9/12 2/11/12 9/12/11
f 5/13/13 1/14/14 13/14/15 29/15/15 18/16/15 15/13/15 19/13/16
f 8/8/17 40/17/17 4/18/17 2/19/17 6/9/17
f 5/13/13 12/10/11 9/12/11 1/14/14
f 7/20/18 11/7/8 12/10/10 5/13/18
f 10/4/4 41/6/7 39/21/19 3/22/20
f 1/23/21 9/1/1 10/4/3 3/22/22
f 51/23/23 50/22/23 36/22/23 35/23/23
f 39/21/19 17/24/24 3/22/20
f 1/23/21 3/22/22 14/22/25 13/23/26
f 7/20/27 5/13/27 21/13/27 22/20/27
f 17/24/24 30/25/28 14/22/29 3/22/20
f 43/13/15 42/16/15 28/16/15 25/13/15
f 16/20/30 17/24/24 20/20/31
f 5/13/13 19/13/16 23/13/32 21/13/32
f 20/20/33 19/13/33 15/13/34 16/20/35
f 22/20/36 21/13/36 23/13/36 24/20/36
f 24/20/37 20/20/31 22/20/38
f 19/13/39 20/20/39 24/20/39 23/13/39
f 28/26/40 27/27/40 26/20/40 25/13/40
f 42/28/41 44/29/42 27/27/43 28/26/43
f 45/20/44 44/29/45 17/27/24
f 45/20/46 43/13/46 25/13/46 26/20/46
f 33/30/47 34/31/47 31/27/47 32/26/47
f 49/16/15 48/32/15 33/15/15 32/16/15
f 48/30/48 47/31/48 34/31/48 33/30/48
f 46/27/49 49/26/50 32/26/51 31/27/51
f 36/33/52 38/31/52 37/30/52 35/34/52
f 52/31/53 53/30/53 37/30/53 38/31/53
f 53/15/15 51/14/15 35/14/15 37/15/15
f 17/24/24 7/20/54 20/20/31
f 7/20/54 22/20/38 20/20/31
f 17/27/24 16/20/30 45/20/44
f 14/22/29 30/31/28 52/31/55
f 52/31/55 50/22/56 14/22/29
f 11/7/57 7/20/54 39/21/19 41/6/7
f 7/20/54 17/24/24 39/21/19
f 41/6/7 40/5/6 8/8/58 11/7/57
f 16/20/35 15/13/34 43/13/46 45/20/46
f 18/26/59 17/27/59 44/29/42 42/28/41
f 15/13/15 18/16/15 42/16/15 43/13/15
f 17/27/60 18/26/60 49/26/50 46/27/49
f 29/30/48 30/31/48 47/31/48 48/30/48
f 18/16/15 29/15/15 48/32/15 49/16/15
f 29/15/15 13/14/15 51/14/15 53/15/15
f 30/31/53 29/30/53 53/30/53 52/31/53
f 13/23/26 14/22/25 50/22/23 51/23/23
f 45/20/44 26/20/61 44/29/45
f 27/27/62 44/29/45 26/20/61
f 30/25/28 17/27/24 46/27/63
f 30/25/28 46/27/63 47/31/64
f 46/27/63 31/27/65 47/31/64
f 34/31/66 47/31/64 31/27/65
f 38/31/67 50/22/56 52/31/55
f 36/22/68 50/22/56 38/31/67
usemtl cloth
f 77/35/69 63/36/70 57/37/70 73/38/71
f 79/39/72 67/40/73 61/41/73 74/42/74
f 76/43/75 65/44/76 59/45/76 75/46/77
f 78/47/78 69/48/79 55/49/79 72/50/80
f 56/51/81 66/52/81 71/53/81
f 63/54/17 55/55/17 70/53/17
f 67/40/17 57/37/17 70/53/17
f 66/52/81 60/56/81 71/53/81
f 74/42/82 61/41/83 65/44/83 76/43/84
f 72/57/85 55/55/86 63/36/86 77/35/87
f 60/56/81 64/58/81 71/53/81
f 57/37/17 63/54/17 70/53/17
f 55/55/17 69/48/17 70/53/17
f 64/58/81 58/59/81 71/53/81
f 75/46/88 59/45/89 69/48/89 78/47/90
f 73/38/91 57/37/92 67/40/92 79/39/93
f 61/41/17 67/40/17 70/53/17
f 65/44/17 61/41/17 70/60/17
f 69/48/17 59/45/17 70/53/17
f 65/44/17 70/60/17 59/45/17
f 62/61/81 56/51/81 71/53/81
f 62/61/81 71/53/81 54/62/81
f 68/63/81 54/62/81 71/53/81
f 68/63/81 71/53/81 58/59/81
f 56/51/94 73/38/91 79/39/93 66/52/94
f 58/59/95 75/46/88 78/47/90 68/63/95
f 54/62/96 72/57/85 77/35/87 62/61/96
f 60/56/97 74/42/82 76/43/84 64/58/97
f 68/63/98 78/47/78 72/50/80 54/64/98
f 64/58/99 76/43/75 75/46/77 58/59/99
f 66/52/100 79/39/72 74/42/74 60/56/100
f 62/61/101 77/35/69 73/38/71 56/51/101
