# Blender 5.0.1
# www.blender.org
mtllib ll.mtl
o leftLeg
v -0.542978 -3.137673 0.430034
v -0.747601 0.308799 0.519564
v -0.542978 -3.137673 -0.471763
v -0.488809 0.308799 -0.436106
v 0.864034 -3.137673 0.519809
v 0.444086 0.308799 0.519564
v 0.713840 -3.137673 -0.561538
v 0.444086 0.308799 -0.436106
v -0.486818 -1.328846 0.430034
v -0.486818 -1.328846 -0.471763
v 0.414978 -1.328846 -0.471763
v 0.414978 -1.328846 0.430034
vn -0.9560 -0.1381 -0.2589
vn -0.9792 -0.0958 -0.1789
vn -0.9989 -0.0094 -0.0455
vn -0.0139 0.0266 -0.9995
vn -0.0000 0.0218 -0.9998
vn -0.0000 0.0363 -0.9993
vn 0.9972 0.0749 -0.0000
vn 0.9998 -0.0178 -0.0000
vn 0.9961 0.0849 -0.0228
vn -0.0000 0.0009 1.0000
vn -0.0000 -0.0546 0.9985
vn -0.0129 -0.0141 0.9998
vn -0.0000 -1.0000 -0.0000
vn -0.0000 1.0000 -0.0000
vn -0.0446 0.0163 0.9989
vn 0.9633 0.2325 -0.1338
vn 0.9724 0.2130 -0.0954
vn -0.0499 0.0164 -0.9986
vn -0.9995 0.0310 -0.0000
vn -0.9999 0.0150 -0.0000
vn -0.0712 0.0022 -0.9975
vn -0.0637 0.0020 0.9980
vt 0.742768 0.393220
vt 0.853182 0.396349
vt 0.751385 0.579971
vt 0.606250 0.185829
vt 0.605711 0.000185
vt 0.711410 0.000000
vt 0.708425 0.185650
vt 0.287569 0.586294
vt 0.289589 0.402552
vt 0.397773 0.400653
vt 0.389655 0.584502
vt 0.320366 0.193014
vt 0.305963 0.007929
vt 0.440758 -0.000000
vt 0.422371 0.187014
vt 0.482404 0.953541
vt 0.472229 0.811101
vt 0.594783 0.794079
vt 0.584608 0.953541
vt 0.961492 0.314166
vt 0.961492 0.419895
vt 0.853182 0.449225
vt 0.853182 0.314166
vt 0.281390 0.400653
vt 0.404598 0.794079
vt 0.281390 0.794079
vt 0.742768 0.390780
vt 0.746367 0.784545
vt 0.853182 0.581867
vt 0.848165 0.786440
vt 0.600126 0.390780
vt 0.440758 0.391288
s 1
usemtl skin
f 2/1/1 4/2/2 9/3/3
f 10/4/4 4/5/5 8/6/5 11/7/6
f 11/8/7 8/9/8 6/10/8 12/11/9
f 12/12/10 6/13/11 2/14/11 9/15/12
f 3/16/13 7/17/13 5/18/13 1/19/13
f 8/20/14 4/21/14 2/22/14 6/23/14
f 5/24/15 12/12/10 9/15/12
f 5/25/16 7/26/17 12/11/9
f 11/7/6 7/27/18 10/4/4
f 1/28/19 9/3/3 10/29/20 3/30/19
f 7/26/17 11/8/7 12/11/9
f 10/4/4 7/27/18 3/31/21
f 5/24/15 9/15/12 1/32/22
f 4/2/2 10/29/20 9/3/3
