# Blender 5.0.1
# www.blender.org
mtllib ra.mtl
o rightArm
v -0.449524 -2.767013 -0.235535
v -0.403124 -0.132776 -0.301138
v -0.449524 -2.767013 0.118685
v -0.403124 -0.132776 0.316301
v 0.260717 -2.615039 -0.235535
v 0.214316 -0.132776 -0.301138
v 0.260717 -2.615039 0.118685
v 0.214316 -0.132776 0.271163
v -0.344410 -1.407272 -0.262227
v -0.344410 -1.407272 0.237785
v 0.155602 -1.407272 0.237785
v 0.155602 -1.407272 -0.262227
v -0.447447 -3.421320 -0.235536
v -0.447447 -3.421320 0.118685
v 0.407604 -3.159787 -0.235535
v 0.407604 -3.159787 0.118685
v 0.149955 -3.488830 0.144228
v 0.150921 -3.489820 -0.235535
v 0.334160 -2.996791 -0.235535
v 0.334160 -2.996791 0.115722
v 0.717964 -2.496070 -0.204607
v 0.717964 -2.496070 0.087757
v 0.791407 -2.811159 -0.204607
v 0.791407 -2.811159 0.087757
v 0.403156 -4.019696 -0.235535
v 0.403156 -4.019696 -0.001883
v 0.196977 -4.092004 -0.001230
v 0.196977 -4.092003 -0.235535
v -0.148263 -3.455570 -0.235535
v -0.148263 -3.455570 0.134693
v 0.142999 -4.260047 -0.001174
v 0.142999 -4.260047 -0.235535
v -0.108231 -4.225797 -0.235535
v -0.108231 -4.225797 -0.000773
v -0.417738 -4.150177 -0.235536
v -0.417738 -4.150177 -0.001883
v -0.178389 -4.184426 -0.235535
v -0.178389 -4.184426 -0.000885
v -0.039725 -2.679326 0.144636
v -0.052972 -0.132776 0.366668
v -0.012585 -1.407272 0.263129
v -0.432593 -3.785749 0.058401
v -0.432593 -3.785749 -0.235536
v -0.163326 -3.819998 0.066904
v -0.163326 -3.819998 -0.235535
v 0.146477 -3.874439 0.071527
v -0.128247 -3.840683 0.066960
v -0.128247 -3.840683 -0.235535
v 0.146960 -3.874933 -0.235535
v 0.173949 -3.790911 -0.235535
v 0.405380 -3.589742 -0.235535
v 0.173466 -3.790417 0.071499
v 0.405380 -3.589742 0.058401
v -0.594404 -0.822479 -0.501367
v -0.361201 0.366012 -0.268181
v -0.594404 -0.822479 0.501221
v -0.361201 0.366012 0.186917
v 0.405596 -0.822479 -0.501367
v 0.172393 0.366012 -0.268181
v 0.405596 -0.822479 0.501221
v 0.172393 0.366012 0.186917
v -0.759665 -0.822479 -0.001498
v -0.449383 0.366012 -0.001454
v 0.570858 -0.822479 -0.001498
v 0.260576 0.366012 -0.001454
v -0.094404 -0.822479 0.666501
v -0.094404 0.366012 0.275109
v -0.094404 -0.822479 -0.666609
v -0.094404 0.366012 -0.356353
v -0.094404 0.366012 -0.001444
v -0.094404 -0.822479 -0.001480
v -0.524652 -0.674386 -0.431619
v -0.524652 -0.674386 0.421923
v 0.335844 -0.674386 0.421923
v 0.335844 -0.674386 -0.431619
v 0.478051 -0.674386 -0.001484
v -0.666858 -0.674386 -0.001484
v -0.094404 -0.674386 -0.573809
v -0.094404 -0.674386 0.564146
vn -0.9999 0.0146 -0.0000
vn -0.9999 0.0126 -0.0000
vn -0.9989 -0.0460 -0.0000
vn -0.0840 -0.0811 0.9932
vn 0.0582 -0.0773 0.9953
vn 0.0752 -0.0658 0.9950
vn -0.1100 -0.0751 0.9911
vn 0.9998 0.0177 -0.0000
vn 0.9998 0.0193 -0.0000
vn 0.9989 -0.0460 -0.0000
vn 0.0013 -0.0256 -0.9997
vn -0.0000 -0.0305 -0.9995
vn 0.0221 -0.0028 -0.9998
vn 0.0203 0.0043 -0.9998
vn -0.0000 -0.0000 -1.0000
vn 0.0011 -0.0087 -1.0000
vn -0.0000 1.0000 -0.0000
vn 0.9962 0.0867 -0.0000
vn -0.0554 -0.0405 0.9976
vn 0.0142 -0.0436 0.9989
vn -0.9993 0.0372 -0.0000
vn -0.9993 0.0381 -0.0000
vn -0.9992 -0.0407 -0.0000
vn 0.0857 -0.1134 0.9898
vn -0.9998 -0.0220 -0.0000
vn -0.9998 -0.0209 -0.0000
vn -0.2518 0.9678 -0.0000
vn -0.0527 -0.0773 0.9956
vn -0.0515 -0.0870 0.9949
vn 0.1038 -0.0041 0.9946
vn 0.0888 0.0168 0.9959
vn 0.0631 0.0133 -0.9979
vn 0.9117 0.4108 -0.0000
vn 0.9763 0.2163 -0.0000
vn 0.9782 0.2076 -0.0000
vn 0.9739 0.2270 -0.0000
vn 0.0558 0.0130 0.9984
vn 0.0602 0.0096 0.9981
vn 0.3762 -0.9266 -0.0000
vn 0.3309 -0.9437 -0.0000
vn -0.9970 -0.0768 -0.0014
vn -0.9970 -0.0769 -0.0008
vn -0.9970 -0.0768 -0.0015
vn 1.0000 -0.0052 -0.0000
vn -0.1351 -0.9908 -0.0000
vn -0.9987 -0.0519 -0.0000
vn 1.0000 -0.0098 0.0016
vn 1.0000 -0.0097 0.0009
vn 1.0000 -0.0098 0.0015
vn -0.1417 -0.9899 -0.0000
vn 0.9991 -0.0413 -0.0000
vn 0.0924 -0.0241 0.9954
vn 0.1931 -0.0728 0.9785
vn 0.2670 -0.0536 0.9622
vn 0.9999 -0.0099 0.0021
vn -0.9970 -0.0768 -0.0019
vn -0.0575 -0.1762 0.9827
vn -0.0486 -0.1693 0.9844
vn -0.0384 -0.1709 0.9845
vn -0.0276 -0.1642 0.9860
vn -0.0413 -0.1821 0.9824
vn -0.0356 -0.1776 0.9834
vn -0.0222 -0.1743 0.9844
vn -0.0289 -0.1785 0.9835
vn 0.1735 -0.1801 0.9682
vn 0.2308 -0.1624 0.9594
vn 0.0829 -0.2275 0.9702
vn 0.1204 -0.1912 0.9741
vn -0.8724 0.3788 0.3088
vn -0.8688 0.3892 0.3063
vn -0.9157 0.2066 0.3448
vn 0.2849 0.4192 0.8620
vn 0.2847 0.4209 0.8613
vn 0.3035 0.2551 0.9181
vn 0.8822 0.3696 -0.2917
vn 0.8801 0.3752 -0.2910
vn 0.9313 0.1947 -0.3079
vn -0.2916 0.3696 -0.8823
vn -0.2909 0.3752 -0.8801
vn -0.3078 0.1947 -0.9313
vn -0.0000 -1.0000 -0.0000
vn 0.8688 0.3892 0.3063
vn 0.8724 0.3788 0.3088
vn 0.9157 0.2066 0.3448
vn -0.8801 0.3752 -0.2910
vn -0.8822 0.3696 -0.2917
vn -0.9313 0.1947 -0.3079
vn 0.2909 0.3752 -0.8801
vn 0.2916 0.3696 -0.8823
vn 0.3078 0.1947 -0.9313
vn -0.2847 0.4209 0.8613
vn -0.2849 0.4192 0.8620
vn -0.3035 0.2551 0.9181
vn -0.2624 0.5486 0.7938
vn 0.2697 0.5113 -0.8160
vn -0.8159 0.5114 -0.2698
vn 0.8119 0.5178 0.2696
vn -0.2697 0.5113 -0.8160
vn 0.8159 0.5114 -0.2698
vn 0.2624 0.5486 0.7938
vn -0.8119 0.5178 0.2696
vt 0.215823 0.778177
vt 0.272491 0.778177
vt 0.281390 0.922765
vt 0.211413 0.922765
vt 0.131613 0.146306
vt 0.094145 0.145304
vt 0.101489 -0.000000
vt 0.140730 0.001873
vt 0.468024 0.544480
vt 0.411356 0.544480
vt 0.406941 0.400653
vt 0.476918 0.400653
vt 0.212826 0.323326
vt 0.269493 0.323326
vt 0.276173 0.467786
vt 0.206197 0.467786
vt 0.200897 0.186434
vt 0.192575 0.143169
vt 0.184252 0.124696
vt 0.213343 0.087292
vt 0.247250 0.091174
vt 0.281157 0.095056
vt 0.281390 0.169211
vt 0.476352 0.692642
vt 0.476352 0.762619
vt 0.406941 0.762619
vt 0.406941 0.692642
vt 0.446304 0.681818
vt 0.454525 0.681818
vt 0.414380 0.681818
vt 0.140730 0.301173
vt 0.094583 0.290117
vt 0.218853 0.624576
vt 0.258998 0.624576
vt 0.218854 0.509121
vt 0.218853 0.467786
vt 0.245334 0.467786
vt 0.252167 0.509121
vt 0.071747 0.380945
vt 0.218854 0.550457
vt 0.258999 0.550457
vt 0.640271 0.936264
vt 0.636766 0.989378
vt 0.603631 0.989378
vt 0.600126 0.936264
vt 0.139401 0.374903
vt 0.105532 0.377940
vt 0.184505 0.075968
vt 0.184758 0.027240
vt 0.208125 0.019045
vt 0.210734 0.053169
vt 0.043012 0.343623
vt 0.051588 0.325445
vt 0.149053 0.199904
vt 0.140730 0.164194
vt 0.091896 0.880136
vt 0.092230 0.899054
vt 0.052085 0.899054
vt 0.052087 0.880136
vt 0.210365 0.880136
vt 0.210365 0.916263
vt 0.177230 0.916265
vt 0.177230 0.880137
vt -0.000000 0.303891
vt 0.008844 0.268538
vt 0.211413 0.976602
vt 0.214918 0.922765
vt 0.248053 0.922765
vt 0.251223 0.976602
vt 0.201363 0.942820
vt 0.177230 0.942820
vt 0.177230 0.916339
vt 0.201363 0.916265
vt 0.979007 0.940615
vt 0.979007 0.974809
vt 0.952452 0.974808
vt 0.944210 0.940556
vt 0.085399 0.947689
vt 0.078568 0.996323
vt 0.052087 0.996323
vt 0.052086 0.947689
vt 0.406941 0.790485
vt 0.406941 0.762619
vt 0.433502 0.762619
vt 0.433548 0.790485
vt 0.213793 0.043646
vt 0.214243 -0.000000
vt 0.242715 0.003882
vt 0.244982 0.047528
vt 0.177230 0.923835
vt 0.177230 0.967534
vt 0.150623 0.967533
vt 0.142947 0.923835
vt 0.100470 0.923744
vt 0.108709 0.880136
vt 0.135270 0.880136
vt 0.135270 0.923686
vt 0.460075 0.762733
vt 0.460075 0.789213
vt 0.433548 0.789213
vt 0.433548 0.762619
vt 0.958760 0.745285
vt 0.951079 0.786422
vt 0.924485 0.786422
vt 0.924483 0.745285
vt 0.248958 0.049872
vt 0.250666 0.008570
vt 0.277792 0.012452
vt 0.279474 0.053754
vt 0.060556 0.282545
vt 0.074991 0.145249
vt 0.070811 0.000568
vt 0.966442 0.704148
vt 0.924482 0.704148
vt 0.092230 0.967353
vt 0.135270 0.967235
vt 0.177230 0.880136
vt 0.135270 0.880136
vt 0.979007 0.906421
vt 0.935967 0.906304
vt 0.106338 0.419844
vt 0.136850 0.416655
vt 0.107143 0.461749
vt 0.134300 0.458407
vt 0.071184 0.425269
vt 0.102331 0.422101
vt 0.099129 0.466261
vt 0.070621 0.469594
vt 0.068268 0.415744
vt 0.042286 0.392795
vt 0.064789 0.450544
vt 0.041559 0.441967
vt 0.799852 0.981376
vt 0.799852 0.977486
vt 0.795963 0.977486
vt 0.795963 0.981376
vt 0.799852 0.973598
vt 0.799852 0.969709
vt 0.795963 0.969709
vt 0.795963 0.973598
vt 0.799852 0.965820
vt 0.799852 0.961932
vt 0.795963 0.961932
vt 0.795963 0.965820
vt 0.799852 0.958044
vt 0.799852 0.954155
vt 0.795963 0.954155
vt 0.795963 0.958044
vt 0.803740 0.977486
vt 0.815406 0.985263
vt 0.803740 0.973598
vt 0.788186 0.965820
vt 0.795963 0.985263
vt 0.803740 0.969709
vt 0.799852 0.985263
vt 0.803740 0.965820
vt 0.803740 0.961932
vt 0.792075 0.965820
vt 0.803740 0.981376
vt 0.803740 0.985263
vt 0.803740 0.958044
vt 0.803740 0.954155
s 1
usemtl skin
f 9/1/1 10/2/2 4/3/3 2/4/3
f 10/5/4 41/6/5 40/7/6 4/8/7
f 11/9/8 12/10/9 6/11/10 8/12/10
f 12/13/11 9/14/11 2/15/12 6/16/12
f 5/17/13 19/18/14 15/19/15 18/20/15 29/21/15 13/22/15 1/23/16
f 8/24/17 6/25/17 2/26/17 4/27/17 40/28/17
f 5/17/13 1/23/16 9/14/11 12/13/11
f 7/29/18 5/30/18 12/10/9 11/9/8
f 10/5/4 3/31/19 39/32/20 41/6/5
f 1/33/21 3/34/22 10/2/2 9/1/1
f 43/35/23 35/36/23 36/37/23 42/38/23
f 39/32/20 3/31/19 17/39/24
f 1/33/21 13/40/25 14/41/26 3/34/22
f 7/42/27 22/43/27 21/44/27 5/45/27
f 17/39/24 3/31/19 14/46/28 30/47/29
f 51/48/15 25/49/15 28/50/15 50/51/15
f 16/52/30 20/53/31 17/39/24
f 5/17/13 21/54/32 23/55/32 19/18/14
f 20/56/33 16/57/34 15/58/35 19/59/33
f 22/60/36 24/61/36 23/62/36 21/63/36
f 24/64/37 22/65/38 20/53/31
f 19/66/39 23/67/39 24/68/39 20/69/39
f 28/70/40 25/71/40 26/72/40 27/73/40
f 50/74/41 28/75/42 27/76/42 52/77/43
f 53/78/44 26/79/44 25/80/44 51/81/44
f 33/82/45 32/83/45 31/84/45 34/85/45
f 49/86/15 32/87/15 33/88/15 48/89/15
f 48/90/46 33/91/46 34/92/46 47/93/46
f 46/94/47 31/95/48 32/96/48 49/97/49
f 36/98/50 35/99/50 37/100/50 38/101/50
f 44/102/51 38/103/51 37/104/51 45/105/51
f 45/106/15 37/107/15 35/108/15 43/109/15
f 17/39/24 20/53/31 7/110/52
f 7/110/52 20/53/31 22/65/38
f 11/111/53 41/6/5 39/32/20 7/110/52
f 7/110/52 39/32/20 17/39/24
f 41/6/5 11/111/53 8/112/54 40/7/6
f 29/21/15 45/106/15 43/109/15 13/22/15
f 30/113/51 44/102/51 45/105/51 29/114/51
f 13/40/25 43/35/23 42/38/23 14/41/26
f 17/115/55 46/94/47 49/97/49 18/116/55
f 29/117/46 48/90/46 47/93/46 30/118/46
f 18/20/15 49/86/15 48/89/15 29/21/15
f 16/57/34 53/78/44 51/81/44 15/58/35
f 18/119/56 50/74/41 52/77/43 17/120/56
f 15/19/15 51/48/15 50/51/15 18/20/15
f 14/46/28 44/121/57 30/47/29
f 42/122/58 44/121/57 14/46/28
f 44/121/57 42/122/58 38/123/59
f 36/124/60 38/123/59 42/122/58
f 46/125/61 30/47/29 47/126/62
f 30/47/29 46/125/61 17/39/24
f 34/127/63 31/128/64 47/126/62
f 46/125/61 47/126/62 31/128/64
f 52/129/65 53/130/66 17/39/24
f 17/39/24 53/130/66 16/52/30
f 27/131/67 26/132/68 52/129/65
f 26/132/68 53/130/66 52/129/65
usemtl cloth
f 77/133/69 73/134/70 57/135/71 63/136/71
f 79/137/72 74/138/73 61/139/74 67/140/74
f 76/141/75 75/142/76 59/143/77 65/144/77
f 78/145/78 72/146/79 55/147/80 69/148/80
f 56/149/81 71/150/81 66/151/81
f 63/152/17 70/150/17 55/153/17
f 67/140/17 70/150/17 57/135/17
f 66/151/81 71/150/81 60/154/81
f 74/138/82 76/141/83 65/144/84 61/139/84
f 72/155/85 77/133/86 63/136/87 55/153/87
f 60/154/81 71/150/81 64/156/81
f 57/135/17 70/150/17 63/152/17
f 55/153/17 70/150/17 69/148/17
f 64/156/81 71/150/81 58/157/81
f 75/142/88 78/145/89 69/148/90 59/143/90
f 73/134/91 79/137/92 67/140/93 57/135/93
f 61/139/17 70/150/17 67/140/17
f 65/144/17 70/158/17 61/139/17
f 69/148/17 70/150/17 59/143/17
f 65/144/17 59/143/17 70/158/17
f 62/159/81 71/150/81 56/149/81
f 62/159/81 54/160/81 71/150/81
f 68/161/81 71/150/81 54/160/81
f 68/161/81 58/157/81 71/150/81
f 56/149/94 66/151/94 79/137/92 73/134/91
f 58/157/95 68/161/95 78/145/89 75/142/88
f 54/160/96 62/159/96 77/133/86 72/155/85
f 60/154/97 64/156/97 76/141/83 74/138/82
f 68/161/98 54/162/98 72/146/79 78/145/78
f 64/156/99 58/157/99 75/142/76 76/141/75
f 66/151/100 60/154/100 74/138/73 79/137/72
f 62/159/101 56/149/101 73/134/70 77/133/69
