# Blender 5.0.1
# www.blender.org
mtllib rl.mtl
o rightLeg
v -0.542978 -3.139696 -0.430034
v -0.747601 0.306776 -0.519564
v -0.542978 -3.139696 0.471763
v -0.488809 0.306776 0.436106
v 0.864034 -3.139696 -0.519809
v 0.444086 0.306776 -0.519564
v 0.713840 -3.139696 0.561538
v 0.444086 0.306776 0.436106
v -0.486818 -1.330869 -0.430034
v -0.486818 -1.330869 0.471763
v 0.414978 -1.330869 0.471763
v 0.414978 -1.330869 -0.430034
vn -0.9560 -0.1381 0.2589
vn -0.9989 -0.0094 0.0455
vn -0.9792 -0.0958 0.1789
vn -0.0139 0.0266 0.9995
vn -0.0000 0.0363 0.9993
vn -0.0000 0.0218 0.9998
vn 0.9972 0.0749 -0.0000
vn 0.9961 0.0849 0.0228
vn 0.9998 -0.0178 -0.0000
vn -0.0000 0.0009 -1.0000
vn -0.0129 -0.0141 -0.9998
vn -0.0000 -0.0546 -0.9985
vn -0.0000 -1.0000 -0.0000
vn -0.0000 1.0000 -0.0000
vn -0.0446 0.0163 -0.9989
vn 0.9633 0.2325 0.1338
vn 0.9724 0.2130 0.0954
vn -0.0499 0.0164 0.9986
vn -0.9995 0.0310 -0.0000
vn -0.9999 0.0150 -0.0000
vn -0.0712 0.0022 0.9975
vn -0.0637 0.0020 -0.9980
vt 0.853182 0.000000
vt 0.844565 0.186751
vt 0.742768 0.003129
vt 0.736644 0.576609
vt 0.634469 0.576430
vt 0.631484 0.390780
vt 0.737182 0.390965
vt 0.593947 0.586294
vt 0.491861 0.584503
vt 0.483743 0.400653
vt 0.591927 0.402552
vt 0.561149 0.193014
vt 0.459145 0.187014
vt 0.440758 -0.000000
vt 0.575553 0.007929
vt 0.965561 0.314166
vt 0.863357 0.314166
vt 0.853182 0.154704
vt 0.975736 0.171726
vt 0.853182 0.449225
vt 0.961492 0.449225
vt 0.961492 0.584284
vt 0.853182 0.554954
vt 0.600126 0.400653
vt 0.476918 0.794079
vt 0.600126 0.794079
vt 0.600126 0.781560
vt 0.849583 0.391325
vt 0.747786 0.393220
vt 0.742768 0.188647
vt 0.742768 0.781560
vt 0.440758 0.391288
s 1
usemtl skin
f 2/1/1 9/2/2 4/3/3
f 10/4/4 11/5/5 8/6/6 4/7/6
f 11/8/7 12/9/8 6/10/9 8/11/9
f 12/12/10 9/13/11 2/14/12 6/15/12
f 3/16/13 1/17/13 5/18/13 7/19/13
f 8/20/14 6/21/14 2/22/14 4/23/14
f 5/24/15 9/13/11 12/12/10
f 5/25/16 12/9/8 7/26/17
f 11/5/5 10/4/4 7/27/18
f 1/28/19 3/29/19 10/30/20 9/2/2
f 7/26/17 12/9/8 11/8/7
f 10/4/4 3/31/21 7/27/18
f 5/24/15 1/32/22 9/13/11
f 4/3/3 9/2/2 10/30/20
