# Blender 5.0.1
# www.blender.org
mtllib arm.mtl
o Куб.001
v -0.235676 -1.510212 0.235676
v -0.192193 0.209135 0.192193
v -0.235676 -1.510212 -0.235676
v -0.192193 0.209135 -0.192193
v 0.235676 -1.510212 0.235676
v 0.192193 0.209135 0.192193
v 0.235676 -1.510212 -0.235676
v 0.192193 0.209135 -0.192193
v -0.271092 -0.301639 0.271092
v -0.271092 -0.301639 -0.271092
v 0.271092 -0.301639 -0.271092
v 0.271092 -0.301639 0.271092
v -0.285587 -1.073666 -0.285587
v 0.285587 -1.073666 -0.285587
v 0.285587 -1.073666 0.285587
v -0.285587 -1.073666 0.285587
v -0.290261 -1.537477 -0.000000
v -0.251012 0.027872 0.251012
v -0.232787 0.243371 -0.000000
v -0.289714 -1.362136 -0.289714
v 0.000000 -1.537477 -0.290261
v -0.000000 0.243371 -0.232787
v 0.289714 -1.362136 -0.289714
v 0.290261 -1.537477 0.000000
v 0.232787 0.243371 -0.000000
v 0.289714 -1.362136 0.289714
v -0.000000 -1.537477 0.290261
v 0.000000 0.243371 0.232787
v -0.276613 -0.695606 0.276613
v -0.251012 0.027872 -0.251012
v 0.251012 0.027872 -0.251012
v 0.251012 0.027872 0.251012
v -0.000000 -0.301639 0.372752
v 0.372752 -0.301639 0.000000
v 0.000000 -0.301639 -0.372752
v -0.372752 -0.301639 -0.000000
v -0.276613 -0.695606 -0.276613
v 0.276613 -0.695606 -0.276613
v 0.276613 -0.695606 0.276613
v -0.289714 -1.362136 0.289714
v -0.392682 -1.073666 -0.000000
v 0.000000 -1.073666 -0.392682
v 0.392682 -1.073666 0.000000
v -0.000000 -1.073666 0.392682
v -0.345076 0.031248 -0.000000
v 0.000000 0.031248 -0.345076
v 0.345076 0.031248 0.000000
v -0.000000 0.031248 0.345076
v 0.000000 -1.594695 -0.000000
v -0.000000 0.315219 0.000000
v 0.000000 -0.695606 0.380343
v 0.380343 -0.695606 0.000000
v 0.000000 -0.695606 -0.380343
v -0.380343 -0.695606 -0.000000
v -0.399304 -1.364824 0.000000
v -0.000000 -1.364824 -0.399304
v 0.399304 -1.364824 -0.000000
v -0.000000 -1.364824 0.399304
vn -0.9334 0.0779 0.3504
vn -0.8588 0.4179 0.2964
vn -0.8588 0.4179 -0.2964
vn -0.9334 0.0779 -0.3504
vn -0.3504 0.0779 -0.9334
vn -0.2964 0.4179 -0.8588
vn 0.2964 0.4179 -0.8588
vn 0.3504 0.0779 -0.9334
vn 0.9334 0.0779 -0.3504
vn 0.8588 0.4179 -0.2964
vn 0.8588 0.4179 0.2964
vn 0.9334 0.0779 0.3504
vn 0.3504 0.0779 0.9334
vn 0.2964 0.4179 0.8588
vn -0.2964 0.4179 0.8588
vn -0.3504 0.0779 0.9334
vn -0.1737 -0.9693 -0.1737
vn 0.1737 -0.9693 -0.1737
vn 0.1737 -0.9693 0.1737
vn -0.1737 -0.9693 0.1737
vn 0.2571 0.9316 -0.2571
vn -0.2571 0.9316 -0.2571
vn -0.2571 0.9316 0.2571
vn 0.2571 0.9316 0.2571
vn 0.3510 0.0305 0.9359
vn 0.3511 0.0180 0.9362
vn -0.3511 0.0180 0.9362
vn -0.3510 0.0305 0.9359
vn 0.9359 0.0305 -0.3510
vn 0.9362 0.0180 -0.3511
vn 0.9362 0.0180 0.3511
vn 0.9359 0.0305 0.3510
vn -0.3510 0.0305 -0.9359
vn -0.3511 0.0180 -0.9362
vn 0.3511 0.0180 -0.9362
vn 0.3510 0.0305 -0.9359
vn -0.9359 0.0305 0.3510
vn -0.9362 0.0180 0.3511
vn -0.9362 0.0180 -0.3511
vn -0.9359 0.0305 -0.3510
vn -0.8334 -0.4722 0.2873
vn -0.9357 0.0199 0.3523
vn -0.9357 0.0199 -0.3523
vn -0.8334 -0.4722 -0.2873
vn -0.2873 -0.4722 -0.8334
vn -0.3523 0.0199 -0.9357
vn 0.3523 0.0199 -0.9357
vn 0.2873 -0.4722 -0.8334
vn 0.8334 -0.4722 -0.2873
vn 0.9357 0.0199 -0.3523
vn 0.9357 0.0199 0.3523
vn 0.8334 -0.4722 0.2873
vn 0.2873 -0.4722 0.8334
vn 0.3523 0.0199 0.9357
vn -0.3523 0.0199 0.9357
vn -0.2873 -0.4722 0.8334
vt 0.546884 0.000000
vt 0.585942 0.000000
vt 0.585394 0.125000
vt 0.542062 0.125000
vt 0.625000 0.000000
vt 0.625000 0.125000
vt 0.625000 0.250000
vt 0.585284 0.250000
vt 0.541624 0.250000
vt 0.585284 0.375000
vt 0.541624 0.375000
vt 0.625000 0.375000
vt 0.625000 0.500000
vt 0.585881 0.500000
vt 0.541624 0.500000
vt 0.587672 0.625000
vt 0.541624 0.625000
vt 0.648873 0.625000
vt 0.625000 0.750000
vt 0.585881 0.750000
vt 0.541624 0.750000
vt 0.585394 0.875000
vt 0.542062 0.875000
vt 0.625000 0.875000
vt 0.625000 1.000000
vt 0.585942 1.000000
vt 0.546884 1.000000
vt 0.125000 0.500000
vt 0.250000 0.500000
vt 0.247392 0.625000
vt 0.125000 0.625000
vt 0.375000 0.500000
vt 0.348918 0.625000
vt 0.375000 0.750000
vt 0.250000 0.750000
vt 0.125000 0.750000
vt 0.750000 0.500000
vt 0.752387 0.625000
vt 0.875000 0.500000
vt 0.875000 0.625000
vt 0.875000 0.750000
vt 0.750000 0.750000
vt 0.445121 0.750000
vt 0.492378 0.750000
vt 0.492323 0.875000
vt 0.444462 0.875000
vt 0.492047 1.000000
vt 0.437210 1.000000
vt 0.445121 0.500000
vt 0.492378 0.500000
vt 0.492378 0.625000
vt 0.445121 0.625000
vt 0.541624 0.500000
vt 0.541624 0.625000
vt 0.541624 0.750000
vt 0.492378 0.750000
vt 0.445121 0.750000
vt 0.445121 0.250000
vt 0.492378 0.250000
vt 0.492378 0.375000
vt 0.445121 0.375000
vt 0.541624 0.375000
vt 0.437210 0.000000
vt 0.492047 0.000000
vt 0.492323 0.125000
vt 0.444462 0.125000
vt 0.492378 0.250000
vt 0.445121 0.250000
vt 0.375000 0.000000
vt 0.406105 0.000000
vt 0.406929 0.125000
vt 0.375000 0.125000
vt 0.407094 0.250000
vt 0.375000 0.250000
vt 0.407094 0.375000
vt 0.375000 0.375000
vt 0.445121 0.375000
vt 0.445121 0.500000
vt 0.406442 0.500000
vt 0.404486 0.625000
vt 0.445121 0.625000
vt 0.406442 0.750000
vt 0.406929 0.875000
vt 0.375000 0.875000
vt 0.406105 1.000000
vt 0.375000 1.000000
s 0
usemtl Material
f 9/1/1 18/2/1 45/3/1 36/4/1
f 18/2/2 2/5/2 19/6/2 45/3/2
f 45/3/3 19/6/3 4/7/3 30/8/3
f 36/4/4 45/3/4 30/8/4 10/9/4
f 10/9/5 30/8/5 46/10/5 35/11/5
f 30/8/6 4/7/6 22/12/6 46/10/6
f 46/10/7 22/12/7 8/13/7 31/14/7
f 35/11/8 46/10/8 31/14/8 11/15/8
f 11/15/9 31/14/9 47/16/9 34/17/9
f 31/14/10 8/13/10 25/18/10 47/16/10
f 47/16/11 25/18/11 6/19/11 32/20/11
f 34/17/12 47/16/12 32/20/12 12/21/12
f 12/21/13 32/20/13 48/22/13 33/23/13
f 32/20/14 6/19/14 28/24/14 48/22/14
f 48/22/15 28/24/15 2/25/15 18/26/15
f 33/23/16 48/22/16 18/26/16 9/27/16
f 3/28/17 21/29/17 49/30/17 17/31/17
f 21/29/18 7/32/18 24/33/18 49/30/18
f 49/30/19 24/33/19 5/34/19 27/35/19
f 17/31/20 49/30/20 27/35/20 1/36/20
f 8/13/21 22/37/21 50/38/21 25/18/21
f 22/37/22 4/39/22 19/40/22 50/38/22
f 50/38/23 19/40/23 2/41/23 28/42/23
f 25/18/24 50/38/24 28/42/24 6/19/24
f 15/43/25 39/44/25 51/45/25 44/46/25
f 39/44/26 12/21/26 33/23/26 51/45/26
f 51/45/27 33/23/27 9/27/27 29/47/27
f 44/46/28 51/45/28 29/47/28 16/48/28
f 14/49/29 38/50/29 52/51/29 43/52/29
f 38/50/30 11/53/30 34/54/30 52/51/30
f 52/51/31 34/54/31 12/55/31 39/56/31
f 43/52/32 52/51/32 39/56/32 15/57/32
f 13/58/33 37/59/33 53/60/33 42/61/33
f 37/59/34 10/9/34 35/62/34 53/60/34
f 53/60/35 35/62/35 11/53/35 38/50/35
f 42/61/36 53/60/36 38/50/36 14/49/36
f 16/63/37 29/64/37 54/65/37 41/66/37
f 29/64/38 9/1/38 36/4/38 54/65/38
f 54/65/39 36/4/39 10/9/39 37/67/39
f 41/66/40 54/65/40 37/67/40 13/68/40
f 1/69/41 40/70/41 55/71/41 17/72/41
f 40/70/42 16/63/42 41/66/42 55/71/42
f 55/71/43 41/66/43 13/68/43 20/73/43
f 17/72/44 55/71/44 20/73/44 3/74/44
f 3/74/45 20/73/45 56/75/45 21/76/45
f 20/73/46 13/68/46 42/77/46 56/75/46
f 56/75/47 42/77/47 14/78/47 23/79/47
f 21/76/48 56/75/48 23/79/48 7/32/48
f 7/32/49 23/79/49 57/80/49 24/33/49
f 23/79/50 14/78/50 43/81/50 57/80/50
f 57/80/51 43/81/51 15/43/51 26/82/51
f 24/33/52 57/80/52 26/82/52 5/34/52
f 5/34/53 26/82/53 58/83/53 27/84/53
f 26/82/54 15/43/54 44/46/54 58/83/54
f 58/83/55 44/46/55 16/48/55 40/85/55
f 27/84/56 58/83/56 40/85/56 1/86/56
