# Blender 5.0.1
# www.blender.org
mtllib collisey.mtl
o Cube
v 1.560492 0.999999 -14.000000
v 1.560492 -1.000001 -14.000000
v -1.560492 0.999999 -14.000000
v -1.560492 -1.000001 -14.000000
v -1.593926 0.999999 -13.996232
v -1.593926 -1.000001 -13.996232
v -4.636661 0.999999 -13.301747
v -4.636661 -1.000001 -13.301747
v -4.668418 0.999999 -13.290635
v -4.668418 -1.000001 -13.290635
v -7.480328 0.999999 -11.936491
v -7.480328 -1.000001 -11.936491
v -7.508816 0.999999 -11.918591
v -7.508816 -1.000001 -11.918591
v -9.948899 0.999999 -9.972689
v -9.948899 -1.000001 -9.972689
v -9.972690 0.999999 -9.948898
v -9.972690 -1.000001 -9.948898
v -11.918591 0.999999 -7.508815
v -11.918591 -1.000001 -7.508815
v -11.936493 0.999999 -7.480325
v -11.936493 -1.000001 -7.480325
v -13.290637 1.000000 -4.668415
v -13.290637 -1.000000 -4.668415
v -13.301749 1.000000 -4.636659
v -13.301749 -1.000000 -4.636659
v -13.996234 1.000000 -1.593924
v -13.996234 -1.000000 -1.593924
v -14.000000 1.000000 -1.560492
v -14.000000 -1.000000 -1.560492
v -14.000000 1.000000 1.560492
v -14.000000 -1.000000 1.560492
v -13.996233 1.000000 1.593927
v -13.996233 -1.000000 1.593927
v -13.301748 1.000000 4.636662
v -13.301748 -1.000000 4.636662
v -13.290634 1.000000 4.668419
v -13.290634 -1.000000 4.668419
v -11.936490 1.000001 7.480329
v -11.936490 -0.999999 7.480329
v -11.918591 1.000001 7.508819
v -11.918591 -0.999999 7.508819
v -9.972688 1.000001 9.948902
v -9.972688 -0.999999 9.948902
v -9.948900 1.000001 9.972691
v -9.948900 -0.999999 9.972691
v -7.508816 1.000001 11.918592
v -7.508816 -0.999999 11.918592
v -7.480326 1.000001 11.936492
v -7.480326 -0.999999 11.936492
v -4.668415 1.000001 13.290636
v -4.668415 -0.999999 13.290636
v -4.636660 1.000001 13.301747
v -4.636660 -0.999999 13.301747
v -1.593926 1.000001 13.996232
v -1.593926 -0.999999 13.996232
v -1.560491 1.000001 14.000000
v -1.560491 -0.999999 14.000000
v 1.560493 1.000001 14.000000
v 1.560493 -0.999999 14.000000
v 1.593925 1.000001 13.996232
v 1.593925 -0.999999 13.996232
v 4.636660 1.000001 13.301747
v 4.636660 -0.999999 13.301747
v 4.668421 1.000001 13.290636
v 4.668421 -0.999999 13.290636
v 7.480331 1.000001 11.936491
v 7.480331 -0.999999 11.936491
v 7.508816 1.000001 11.918590
v 7.508816 -0.999999 11.918590
v 9.948900 1.000001 9.972688
v 9.948900 -0.999999 9.972688
v 9.972692 1.000001 9.948898
v 9.972692 -0.999999 9.948898
v 11.918594 1.000001 7.508814
v 11.918594 -0.999999 7.508814
v 11.936490 1.000001 7.480329
v 11.936490 -0.999999 7.480329
v 13.290636 1.000000 4.668419
v 13.290636 -1.000000 4.668419
v 13.301750 1.000000 4.636655
v 13.301750 -1.000000 4.636655
v 13.996234 1.000000 1.593920
v 13.996234 -1.000000 1.593920
v 14.000000 1.000000 1.560492
v 14.000000 -1.000000 1.560492
v 14.000000 1.000000 -1.560492
v 14.000000 -1.000000 -1.560492
v 13.996233 1.000000 -1.593927
v 13.996233 -1.000000 -1.593927
v 13.301748 1.000000 -4.636662
v 13.301748 -1.000000 -4.636662
v 13.290635 1.000000 -4.668419
v 13.290635 -1.000000 -4.668419
v 11.936491 0.999999 -7.480330
v 11.936491 -1.000001 -7.480330
v 11.918590 0.999999 -7.508819
v 11.918590 -1.000001 -7.508819
v 9.972687 0.999999 -9.948902
v 9.972687 -1.000001 -9.948902
v 9.948900 0.999999 -9.972688
v 9.948900 -1.000001 -9.972688
v 7.508817 0.999999 -11.918590
v 7.508817 -1.000001 -11.918590
v 7.480327 0.999999 -11.936491
v 7.480327 -1.000001 -11.936491
v 4.668417 0.999999 -13.290635
v 4.668417 -1.000001 -13.290635
v 4.636659 0.999999 -13.301747
v 4.636659 -1.000001 -13.301747
v 1.593924 0.999999 -13.996232
v 1.593924 -1.000001 -13.996232
v -3.154408 3.059999 -13.728978
v -3.154408 1.059999 -13.728978
v -6.099996 3.059999 -12.697448
v -6.099996 1.059999 -12.697448
v -6.130305 3.059999 -12.682841
v -6.130305 1.059999 -12.682841
v -8.772504 3.059999 -11.021718
v -8.772504 1.059999 -11.021718
v -8.798804 3.059999 -11.000734
v -8.798804 1.059999 -11.000734
v -11.005123 3.059999 -8.793316
v -11.005123 1.059999 -8.793316
v -11.026093 3.059999 -8.767004
v -11.026093 1.059999 -8.767004
v -12.685898 3.059999 -6.123978
v -12.685898 1.059999 -6.123978
v -12.700488 3.059999 -6.093661
v -12.700488 1.059999 -6.093661
v -13.730549 3.060000 -3.147560
v -13.730549 1.060000 -3.147560
v -13.738028 3.060000 -3.114754
v -13.738028 1.060000 -3.114754
v -14.086694 3.060000 -0.013307
v -14.086694 1.060000 -0.013307
v -14.086685 3.060000 0.020337
v -14.086685 1.060000 0.020337
v -13.736473 3.060000 3.121611
v -13.736473 1.060000 3.121611
v -13.728978 3.060000 3.154408
v -13.728978 1.060000 3.154408
v -12.697448 3.060000 6.099996
v -12.697448 1.060000 6.099996
v -12.682842 3.060000 6.130307
v -12.682842 1.060000 6.130307
v -11.021719 3.060001 8.772505
v -11.021719 1.060001 8.772505
v -11.000732 3.060001 8.798804
v -11.000732 1.060001 8.798804
v -8.793314 3.060001 11.005123
v -8.793314 1.060001 11.005123
v -8.767004 3.060001 11.026096
v -8.767004 1.060001 11.026096
v -6.123976 3.060001 12.685900
v -6.123976 1.060001 12.685900
v -6.093663 3.060001 12.700489
v -6.093663 1.060001 12.700489
v -3.147560 3.060001 13.730551
v -3.147560 1.060001 13.730551
v -3.114756 3.060001 13.738028
v -3.114756 1.060001 13.738028
v -0.013308 3.060001 14.086693
v -0.013308 1.060001 14.086693
v 0.020335 3.060001 14.086684
v 0.020335 1.060001 14.086684
v 3.121608 3.060001 13.736472
v 3.121608 1.060001 13.736472
v 3.154409 3.060001 13.728978
v 3.154409 1.060001 13.728978
v 6.099997 3.060001 12.697448
v 6.099997 1.060001 12.697448
v 6.130304 3.060001 12.682841
v 6.130304 1.060001 12.682841
v 8.772503 3.060001 11.021718
v 8.772503 1.060001 11.021718
v 8.798807 3.060001 11.000734
v 8.798807 1.060001 11.000734
v 11.005126 3.060001 8.793314
v 11.005126 1.060001 8.793314
v 11.026093 3.060001 8.767004
v 11.026093 1.060001 8.767004
v 12.685898 3.060000 6.123976
v 12.685898 1.060000 6.123976
v 12.700491 3.060000 6.093660
v 12.700491 1.060000 6.093660
v 13.730552 3.060000 3.147558
v 13.730552 1.060000 3.147558
v 13.738028 3.060000 3.114759
v 13.738028 1.060000 3.114759
v 14.086695 3.060000 0.013311
v 14.086695 1.060000 0.013311
v 14.086685 3.060000 -0.020341
v 14.086685 1.060000 -0.020341
v 13.736472 3.060000 -3.121614
v 13.736472 1.060000 -3.121614
v 13.728978 3.060000 -3.154408
v 13.728978 1.060000 -3.154408
v 12.697448 3.059999 -6.099996
v 12.697448 1.059999 -6.099996
v 12.682842 3.059999 -6.130307
v 12.682842 1.059999 -6.130307
v 11.021719 3.059999 -8.772505
v 11.021719 1.059999 -8.772505
v 11.000733 3.059999 -8.798805
v 11.000733 1.059999 -8.798805
v 8.793315 3.059999 -11.005124
v 8.793315 1.059999 -11.005124
v 8.767002 3.059999 -11.026096
v 8.767002 1.059999 -11.026096
v 6.123976 3.059999 -12.685900
v 6.123976 1.059999 -12.685900
v 6.093664 3.059999 -12.700487
v 6.093664 1.059999 -12.700487
v 3.147562 3.059999 -13.730548
v 3.147562 1.059999 -13.730548
v 3.114757 3.059999 -13.738028
v 3.114757 1.059999 -13.738028
v 0.013309 3.059999 -14.086693
v 0.013309 1.059999 -14.086693
v -0.020336 3.059999 -14.086684
v -0.020336 1.059999 -14.086684
v -3.121609 3.059999 -13.736472
v -3.121609 1.059999 -13.736472
v -7.514759 5.119998 -11.914845
v -7.514759 3.119998 -11.914845
v -9.953873 5.119998 -9.967727
v -9.953873 3.119998 -9.967727
v -9.977651 5.119998 -9.943923
v -9.977651 3.119998 -9.943923
v -11.922336 5.119998 -7.502870
v -11.922336 3.119998 -7.502869
v -11.940222 5.119998 -7.474371
v -11.940222 3.119998 -7.474371
v -13.292963 5.119998 -4.661788
v -13.292963 3.119999 -4.661787
v -13.304060 5.119998 -4.630024
v -13.304060 3.119999 -4.630024
v -13.997026 5.119999 -1.586943
v -13.997026 3.119999 -1.586943
v -14.000776 5.119999 -1.553508
v -14.000776 3.119999 -1.553508
v -13.999220 5.119999 1.567475
v -13.999220 3.119999 1.567475
v -13.995436 5.119999 1.600910
v -13.995436 3.119999 1.600910
v -13.299435 5.119999 4.643298
v -13.299435 3.119999 4.643298
v -13.288306 5.119999 4.675047
v -13.288306 3.119999 4.675048
v -11.932759 5.119999 7.486282
v -11.932759 3.119999 7.486283
v -11.914845 5.119999 7.514760
v -11.914845 3.119999 7.514760
v -9.967727 5.120000 9.953873
v -9.967727 3.120000 9.953873
v -9.943924 5.120000 9.977653
v -9.943924 3.120000 9.977653
v -7.502869 5.120000 11.922337
v -7.502869 3.120000 11.922337
v -7.474370 5.120000 11.940222
v -7.474370 3.120000 11.940222
v -4.661785 5.120000 13.292964
v -4.661785 3.120000 13.292964
v -4.630022 5.120000 13.304062
v -4.630022 3.120000 13.304062
v -1.586941 5.120000 13.997028
v -1.586941 3.120000 13.997028
v -1.553509 5.120000 14.000778
v -1.553509 3.120000 14.000778
v 1.567475 5.120000 13.999222
v 1.567475 3.120000 13.999222
v 1.600908 5.120000 13.995436
v 1.600908 3.120000 13.995436
v 4.643297 5.120000 13.299433
v 4.643297 3.120000 13.299433
v 4.675046 5.120000 13.288305
v 4.675046 3.120000 13.288305
v 7.486279 5.120000 11.932759
v 7.486279 3.120000 11.932759
v 7.514760 5.120000 11.914845
v 7.514760 3.120000 11.914845
v 9.953874 5.120000 9.967726
v 9.953874 3.120000 9.967726
v 9.977650 5.120000 9.943924
v 9.977650 3.120000 9.943924
v 11.922335 5.119999 7.502869
v 11.922335 3.119999 7.502869
v 11.940225 5.119999 7.474370
v 11.940225 3.119999 7.474371
v 13.292967 5.119999 4.661785
v 13.292967 3.119999 4.661785
v 13.304060 5.119999 4.630023
v 13.304060 3.119999 4.630023
v 13.997026 5.119999 1.586942
v 13.997026 3.119999 1.586942
v 14.000778 5.119999 1.553506
v 14.000778 3.119999 1.553506
v 13.999222 5.119999 -1.567478
v 13.999222 3.119999 -1.567478
v 13.995436 5.119999 -1.600904
v 13.995436 3.119999 -1.600904
v 13.299437 5.119998 -4.643293
v 13.299437 3.119999 -4.643293
v 13.288305 5.119998 -4.675053
v 13.288305 3.119999 -4.675052
v 11.932757 5.119998 -7.486287
v 11.932757 3.119998 -7.486286
v 11.914845 5.119998 -7.514760
v 11.914845 3.119998 -7.514760
v 9.967727 5.119998 -9.953873
v 9.967727 3.119998 -9.953873
v 9.943923 5.119998 -9.977653
v 9.943923 3.119998 -9.977653
v 7.502869 5.119998 -11.922337
v 7.502869 3.119998 -11.922337
v 7.474370 5.119998 -11.940223
v 7.474370 3.119998 -11.940223
v 4.661786 5.119998 -13.292965
v 4.661786 3.119998 -13.292965
v 4.630021 5.119998 -13.304062
v 4.630021 3.119998 -13.304062
v 1.586940 5.119998 -13.997027
v 1.586940 3.119998 -13.997027
v 1.553511 5.119998 -14.000776
v 1.553511 3.119998 -14.000776
v -1.567473 5.119998 -13.999220
v -1.567473 3.119998 -13.999220
v -1.600906 5.119998 -13.995436
v -1.600906 3.119998 -13.995436
v -4.643294 5.119998 -13.299434
v -4.643294 3.119998 -13.299434
v -4.675047 5.119998 -13.288304
v -4.675047 3.119998 -13.288304
v -7.486280 5.119998 -11.932758
v -7.486280 3.119998 -11.932758
v -11.030462 7.179998 -8.761508
v -11.030462 5.179998 -8.761507
v -12.688950 7.179998 -6.117652
v -12.688950 5.179998 -6.117652
v -12.703524 7.179998 -6.087328
v -12.703524 5.179998 -6.087328
v -13.732116 7.179999 -3.140713
v -13.732116 5.179999 -3.140713
v -13.739577 7.179999 -3.107905
v -13.739577 5.179999 -3.107905
v -14.086697 7.179999 -0.006286
v -14.086697 5.179999 -0.006285
v -14.086672 7.179999 0.027359
v -14.086672 5.179999 0.027360
v -13.734913 7.179999 3.128458
v -13.734913 5.179999 3.128458
v -13.727402 7.179999 3.161252
v -13.727402 5.179999 3.161252
v -12.694403 7.179999 6.106326
v -12.694403 5.179999 6.106326
v -12.679781 7.179999 6.136630
v -12.679781 5.179999 6.136630
v -11.017342 7.179999 8.777999
v -11.017342 5.179999 8.778000
v -10.996345 7.179999 8.804287
v -10.996345 5.179999 8.804288
v -8.787826 7.180000 11.009505
v -8.787826 5.180000 11.009506
v -8.761506 7.180000 11.030461
v -8.761506 5.180000 11.030462
v -6.117652 7.180000 12.688949
v -6.117652 5.180000 12.688950
v -6.087327 7.180000 12.703525
v -6.087327 5.180000 12.703526
v -3.140712 7.180000 13.732116
v -3.140712 5.180000 13.732117
v -3.107904 7.180000 13.739576
v -3.107904 5.180000 13.739577
v -0.006284 7.180000 14.086696
v -0.006284 5.180000 14.086697
v 0.027363 7.180000 14.086673
v 0.027363 5.180000 14.086674
v 3.128460 7.180000 13.734913
v 3.128460 5.180000 13.734914
v 3.161253 7.180000 13.727403
v 3.161253 5.180000 13.727404
v 6.106326 7.180000 12.694404
v 6.106326 5.180000 12.694405
v 6.136629 7.180000 12.679780
v 6.136629 5.180000 12.679781
v 8.777999 7.180000 11.017340
v 8.777999 5.180000 11.017341
v 8.804287 7.180000 10.996346
v 8.804287 5.180000 10.996346
v 11.009504 7.179999 8.787826
v 11.009504 5.179999 8.787827
v 11.030463 7.179999 8.761504
v 11.030463 5.179999 8.761505
v 12.688950 7.179999 6.117651
v 12.688950 5.179999 6.117651
v 12.703524 7.179999 6.087328
v 12.703524 5.179999 6.087328
v 13.732115 7.179999 3.140712
v 13.732115 5.179999 3.140712
v 13.739580 7.179999 3.107903
v 13.739580 5.179999 3.107903
v 14.086699 7.179999 0.006281
v 14.086699 5.179999 0.006282
v 14.086671 7.179999 -0.027362
v 14.086671 5.179999 -0.027361
v 13.734913 7.179999 -3.128459
v 13.734913 5.179999 -3.128459
v 13.727404 7.179998 -3.161257
v 13.727404 5.179998 -3.161257
v 12.694405 7.179998 -6.106329
v 12.694405 5.179998 -6.106329
v 12.679783 7.179998 -6.136625
v 12.679783 5.179998 -6.136625
v 11.017344 7.179998 -8.777998
v 11.017344 5.179998 -8.777997
v 10.996343 7.179998 -8.804292
v 10.996343 5.179998 -8.804291
v 8.787823 7.179998 -11.009509
v 8.787823 5.179998 -11.009508
v 8.761506 7.179998 -11.030463
v 8.761506 5.179998 -11.030462
v 6.117652 7.179998 -12.688951
v 6.117652 5.179998 -12.688950
v 6.087327 7.179998 -12.703526
v 6.087327 5.179998 -12.703526
v 3.140712 7.179998 -13.732118
v 3.140712 5.179998 -13.732117
v 3.107904 7.179998 -13.739579
v 3.107904 5.179998 -13.739578
v 0.006283 7.179998 -14.086699
v 0.006283 5.179998 -14.086699
v -0.027363 7.179998 -14.086674
v -0.027363 5.179998 -14.086673
v -3.128461 7.179998 -13.734914
v -3.128461 5.179998 -13.734913
v -3.161251 7.179998 -13.727404
v -3.161251 5.179998 -13.727403
v -6.106323 7.179998 -12.694405
v -6.106323 5.179998 -12.694404
v -6.136627 7.179998 -12.679784
v -6.136627 5.179998 -12.679783
v -8.777997 7.179998 -11.017343
v -8.777997 5.179998 -11.017342
v -8.804287 7.179998 -10.996346
v -8.804287 5.179998 -10.996345
v -11.009505 7.179998 -8.787827
v -11.009505 5.179998 -8.787826
v -13.306381 9.239999 -4.623389
v -13.306381 7.239998 -4.623389
v -13.997829 9.239999 -1.579961
v -13.997829 7.239999 -1.579961
v -14.001562 9.239999 -1.546523
v -14.001562 7.239999 -1.546523
v -13.998447 9.239999 1.574462
v -13.998447 7.239999 1.574462
v -13.994647 9.239999 1.607892
v -13.994647 7.239999 1.607892
v -13.297127 9.239999 4.649937
v -13.297127 7.239999 4.649937
v -13.285982 9.239999 4.681682
v -13.285982 7.239999 4.681682
v -11.929031 9.240000 7.492241
v -11.929031 7.239999 7.492241
v -11.911102 9.240000 7.520710
v -11.911102 7.239999 7.520710
v -9.962765 9.240000 9.958854
v -9.962765 7.240000 9.958854
v -9.938950 9.240000 9.982622
v -9.938950 7.240000 9.982622
v -7.496923 9.240000 11.926089
v -7.496923 7.240000 11.926089
v -7.468417 9.240000 11.943961
v -7.468417 7.240000 11.943961
v -4.655155 9.240000 13.295300
v -4.655155 7.240000 13.295300
v -4.623389 9.240000 13.306380
v -4.623389 7.240000 13.306380
v -1.579960 9.240000 13.997828
v -1.579960 7.240000 13.997828
v -1.546522 9.240000 14.001562
v -1.546522 7.240000 14.001562
v 1.574464 9.240000 13.998447
v 1.574464 7.240000 13.998447
v 1.607894 9.240000 13.994645
v 1.607894 7.240000 13.994645
v 4.649938 9.240000 13.297125
v 4.649938 7.240000 13.297125
v 4.681685 9.240000 13.285981
v 4.681685 7.240000 13.285981
v 7.492245 9.240000 11.929030
v 7.492245 7.240000 11.929030
v 7.520712 9.240000 11.911104
v 7.520712 7.240000 11.911104
v 9.958855 9.240000 9.962766
v 9.958855 7.240000 9.962766
v 9.982622 9.240000 9.938949
v 9.982622 7.240000 9.938949
v 11.926089 9.240000 7.496922
v 11.926089 7.239999 7.496922
v 11.943960 9.240000 7.468418
v 11.943960 7.239999 7.468418
v 13.295300 9.239999 4.655157
v 13.295300 7.239999 4.655157
v 13.306381 9.239999 4.623387
v 13.306381 7.239999 4.623387
v 13.997829 9.239999 1.579958
v 13.997829 7.239999 1.579958
v 14.001562 9.239999 1.546522
v 14.001562 7.239999 1.546522
v 13.998447 9.239999 -1.574463
v 13.998447 7.239999 -1.574463
v 13.994648 9.239999 -1.607897
v 13.994648 7.239999 -1.607897
v 13.297127 9.239999 -4.649940
v 13.297127 7.239998 -4.649940
v 13.285981 9.239999 -4.681684
v 13.285981 7.239998 -4.681684
v 11.929030 9.239998 -7.492243
v 11.929030 7.239998 -7.492243
v 11.911103 9.239998 -7.520714
v 11.911103 7.239998 -7.520714
v 9.962765 9.239998 -9.958858
v 9.962765 7.239998 -9.958858
v 9.938953 9.239998 -9.982620
v 9.938953 7.239998 -9.982620
v 7.496927 9.239998 -11.926089
v 7.496927 7.239998 -11.926089
v 7.468414 9.239998 -11.943965
v 7.468414 7.239998 -11.943965
v 4.655151 9.239998 -13.295303
v 4.655151 7.239998 -13.295303
v 4.623389 9.239998 -13.306382
v 4.623389 7.239998 -13.306382
v 1.579960 9.239998 -13.997830
v 1.579960 7.239998 -13.997830
v 1.546521 9.239998 -14.001564
v 1.546521 7.239998 -14.001564
v -1.574464 9.239998 -13.998449
v -1.574464 7.239998 -13.998449
v -1.607895 9.239998 -13.994648
v -1.607895 7.239998 -13.994648
v -4.649939 9.239998 -13.297128
v -4.649939 7.239998 -13.297128
v -4.681685 9.239998 -13.285982
v -4.681685 7.239998 -13.285982
v -7.492245 9.239998 -11.929030
v -7.492245 7.239998 -11.929030
v -7.520709 9.239998 -11.911105
v -7.520709 7.239998 -11.911105
v -9.958852 9.239998 -9.962768
v -9.958852 7.239998 -9.962768
v -9.982620 9.239998 -9.938951
v -9.982620 7.239998 -9.938951
v -11.926088 9.239998 -7.496924
v -11.926088 7.239998 -7.496924
v -11.943960 9.239998 -7.468418
v -11.943960 7.239998 -7.468418
v -13.295300 9.239999 -4.655157
v -13.295300 7.239998 -4.655157
v -14.086683 11.299998 0.034391
v -14.086683 9.299998 0.034391
v -13.733376 11.299998 3.135318
v -13.733376 9.299998 3.135318
v -13.725847 11.299998 3.168111
v -13.725847 9.299998 3.168111
v -12.691377 11.299998 6.112673
v -12.691377 9.299998 6.112674
v -12.676740 11.299998 6.142969
v -12.676740 9.299998 6.142970
v -11.012979 11.299999 8.783513
v -11.012979 9.299999 8.783513
v -10.991968 11.299999 8.809793
v -10.991968 9.299999 8.809793
v -8.782345 11.299999 11.013910
v -8.782345 9.299999 11.013910
v -8.756014 11.299999 11.034855
v -8.756014 9.299999 11.034855
v -6.111328 11.299999 12.692024
v -6.111328 9.299999 12.692024
v -6.080995 11.299999 12.706585
v -6.080995 9.299999 12.706585
v -3.133861 11.299999 13.733707
v -3.133861 9.299999 13.733707
v -3.101051 11.299999 13.741154
v -3.101051 9.299999 13.741154
v 0.000749 11.299999 14.086725
v 0.000749 9.299999 14.086725
v 0.034392 11.299999 14.086682
v 0.034392 9.299999 14.086682
v 3.135319 11.299999 13.733375
v 3.135319 9.299999 13.733375
v 3.168113 11.299999 13.725847
v 3.168113 9.299999 13.725847
v 6.112675 11.299999 12.691377
v 6.112675 9.299999 12.691377
v 6.142970 11.299999 12.676738
v 6.142970 9.299999 12.676738
v 8.783515 11.299999 11.012977
v 8.783515 9.299999 11.012977
v 8.809795 11.299999 10.991967
v 8.809795 9.299999 10.991967
v 11.013914 11.299999 8.782343
v 11.013914 9.299999 8.782343
v 11.034857 11.299999 8.756015
v 11.034857 9.299999 8.756015
v 12.692026 11.299998 6.111328
v 12.692026 9.299998 6.111329
v 12.706585 11.299998 6.080995
v 12.706585 9.299998 6.080996
v 13.733707 11.299998 3.133860
v 13.733707 9.299998 3.133860
v 13.741153 11.299998 3.101051
v 13.741153 9.299998 3.101051
v 14.086725 11.299998 -0.000748
v 14.086725 9.299998 -0.000748
v 14.086683 11.299998 -0.034394
v 14.086683 9.299998 -0.034394
v 13.733376 11.299998 -3.135322
v 13.733376 9.299998 -3.135322
v 13.725847 11.299998 -3.168112
v 13.725847 9.299998 -3.168112
v 12.691377 11.299998 -6.112674
v 12.691377 9.299998 -6.112673
v 12.676741 11.299998 -6.142973
v 12.676741 9.299998 -6.142972
v 11.012978 11.299997 -8.783518
v 11.012978 9.299997 -8.783518
v 10.991967 11.299997 -8.809794
v 10.991967 9.299997 -8.809794
v 8.782344 11.299997 -11.013913
v 8.782344 9.299997 -11.013913
v 8.756014 11.299997 -11.034860
v 8.756014 9.299997 -11.034860
v 6.111327 11.299997 -12.692029
v 6.111327 9.299997 -12.692029
v 6.080999 11.299997 -12.706584
v 6.080999 9.299997 -12.706584
v 3.133865 11.299997 -13.733708
v 3.133865 9.299997 -13.733708
v 3.101047 11.299997 -13.741156
v 3.101047 9.299997 -13.741156
v -0.000753 11.299997 -14.086727
v -0.000753 9.299997 -14.086727
v -0.034392 11.299997 -14.086684
v -0.034392 9.299997 -14.086684
v -3.135319 11.299997 -13.733377
v -3.135319 9.299997 -13.733377
v -3.168113 11.299997 -13.725849
v -3.168113 9.299997 -13.725849
v -6.112675 11.299997 -12.691379
v -6.112675 9.299997 -12.691379
v -6.142971 11.299997 -12.676741
v -6.142971 9.299997 -12.676741
v -8.783516 11.299997 -11.012980
v -8.783516 9.299997 -11.012980
v -8.809795 11.299997 -10.991968
v -8.809795 9.299997 -10.991968
v -11.013914 11.299997 -8.782344
v -11.013914 9.299997 -8.782344
v -11.034854 11.299997 -8.756017
v -11.034854 9.299997 -8.756017
v -12.692023 11.299998 -6.111331
v -12.692023 9.299998 -6.111331
v -12.706584 11.299998 -6.080998
v -12.706584 9.299998 -6.080997
v -13.733706 11.299998 -3.133864
v -13.733706 9.299998 -3.133864
v -13.741153 11.299998 -3.101052
v -13.741153 9.299998 -3.101052
v -14.086725 11.299998 0.000747
v -14.086725 9.299998 0.000747
vn -0.0000 -0.0000 1.0000
vn 0.2225 -0.0000 0.9749
vn 0.4339 -0.0000 0.9010
vn 0.6235 -0.0000 0.7818
vn 0.7818 -0.0000 0.6235
vn 0.9010 -0.0000 0.4339
vn 0.9749 -0.0000 0.2225
vn 1.0000 -0.0000 -0.0000
vn 0.9749 -0.0000 -0.2225
vn 0.9010 -0.0000 -0.4339
vn 0.7818 -0.0000 -0.6235
vn 0.6235 -0.0000 -0.7818
vn 0.4339 -0.0000 -0.9010
vn 0.2225 -0.0000 -0.9749
vn -0.0000 -0.0000 -1.0000
vn -0.2225 -0.0000 -0.9749
vn -0.4339 -0.0000 -0.9010
vn -0.6235 -0.0000 -0.7818
vn -0.7818 -0.0000 -0.6235
vn -0.9010 -0.0000 -0.4339
vn -0.9749 -0.0000 -0.2225
vn -1.0000 -0.0000 -0.0000
vn -0.9749 -0.0000 0.2225
vn -0.9010 -0.0000 0.4339
vn -0.7818 -0.0000 0.6235
vn -0.6235 -0.0000 0.7818
vn -0.4339 -0.0000 0.9010
vn -0.2225 -0.0000 0.9749
vn 0.3305 -0.0000 0.9438
vn 0.5322 -0.0000 0.8466
vn 0.7073 -0.0000 0.7069
vn 0.8469 -0.0000 0.5318
vn 0.9440 -0.0000 0.3300
vn 0.9937 -0.0000 0.1117
vn 0.9937 -0.0000 -0.1122
vn 0.9438 -0.0000 -0.3305
vn 0.8466 -0.0000 -0.5322
vn 0.7069 -0.0000 -0.7073
vn 0.5318 -0.0000 -0.8469
vn 0.3300 -0.0000 -0.9440
vn 0.1117 -0.0000 -0.9937
vn -0.1122 -0.0000 -0.9937
vn -0.3305 -0.0000 -0.9438
vn -0.5322 -0.0000 -0.8466
vn -0.7073 -0.0000 -0.7069
vn -0.8469 -0.0000 -0.5318
vn -0.9440 -0.0000 -0.3300
vn -0.9937 -0.0000 -0.1117
vn -0.9937 -0.0000 0.1122
vn -0.9438 -0.0000 0.3305
vn -0.8466 -0.0000 0.5322
vn -0.7069 -0.0000 0.7073
vn -0.5318 -0.0000 0.8469
vn -0.3300 -0.0000 0.9440
vn -0.1117 -0.0000 0.9937
vn 0.1122 -0.0000 0.9937
vn 0.6239 -0.0000 0.7815
vn 0.7821 -0.0000 0.6231
vn 0.9012 -0.0000 0.4334
vn 0.9750 -0.0000 0.2220
vn 1.0000 -0.0000 -0.0005
vn 0.9748 -0.0000 -0.2230
vn 0.9008 -0.0000 -0.4343
vn 0.7815 -0.0000 -0.6239
vn 0.6231 -0.0000 -0.7821
vn 0.4334 -0.0000 -0.9012
vn 0.2220 -0.0000 -0.9750
vn -0.0005 -0.0000 -1.0000
vn -0.2230 -0.0000 -0.9748
vn -0.4343 -0.0000 -0.9008
vn -0.6239 -0.0000 -0.7815
vn -0.7821 -0.0000 -0.6231
vn -0.9012 -0.0000 -0.4334
vn -0.9750 -0.0000 -0.2220
vn -1.0000 -0.0000 0.0005
vn -0.9748 -0.0000 0.2230
vn -0.9008 -0.0000 0.4343
vn -0.7815 -0.0000 0.6239
vn -0.6231 -0.0000 0.7821
vn -0.4334 -0.0000 0.9012
vn -0.2220 -0.0000 0.9750
vn 0.0005 -0.0000 1.0000
vn 0.2230 -0.0000 0.9748
vn 0.4343 -0.0000 0.9008
vn 0.8471 -0.0000 0.5314
vn 0.9441 -0.0000 0.3296
vn 0.9938 -0.0000 0.1112
vn 0.9936 -0.0000 -0.1127
vn 0.9436 -0.0000 -0.3310
vn 0.8463 -0.0000 -0.5327
vn 0.7066 -0.0000 -0.7076
vn 0.5314 -0.0000 -0.8471
vn 0.3296 -0.0000 -0.9441
vn 0.1112 -0.0000 -0.9938
vn -0.1127 -0.0000 -0.9936
vn -0.3310 -0.0000 -0.9436
vn -0.5327 -0.0000 -0.8463
vn -0.7076 -0.0000 -0.7066
vn -0.8471 -0.0000 -0.5314
vn -0.9441 -0.0000 -0.3296
vn -0.9938 -0.0000 -0.1112
vn -0.9936 -0.0000 0.1127
vn -0.9436 -0.0000 0.3310
vn -0.8463 -0.0000 0.5327
vn -0.7066 -0.0000 0.7076
vn -0.5314 -0.0000 0.8471
vn -0.3296 -0.0000 0.9441
vn -0.1112 -0.0000 0.9938
vn 0.1127 -0.0000 0.9936
vn 0.3310 -0.0000 0.9436
vn 0.5327 -0.0000 0.8463
vn 0.7076 -0.0000 0.7066
vn 0.9751 -0.0000 0.2215
vn 1.0000 -0.0000 -0.0010
vn 0.9747 -0.0000 -0.2235
vn 0.9005 -0.0000 -0.4348
vn 0.7812 -0.0000 -0.6243
vn 0.6227 -0.0000 -0.7825
vn 0.4330 -0.0000 -0.9014
vn 0.2215 -0.0000 -0.9751
vn -0.0010 -0.0000 -1.0000
vn -0.2235 -0.0000 -0.9747
vn -0.4348 -0.0000 -0.9005
vn -0.6243 -0.0000 -0.7812
vn -0.7825 -0.0000 -0.6227
vn -0.9014 -0.0000 -0.4330
vn -0.9751 -0.0000 -0.2215
vn -1.0000 -0.0000 0.0010
vn -0.9747 -0.0000 0.2235
vn -0.9005 -0.0000 0.4348
vn -0.7812 -0.0000 0.6243
vn -0.6227 -0.0000 0.7825
vn -0.4330 -0.0000 0.9014
vn -0.2215 -0.0000 0.9751
vn 0.0010 -0.0000 1.0000
vn 0.2235 -0.0000 0.9747
vn 0.4348 -0.0000 0.9005
vn 0.6243 -0.0000 0.7812
vn 0.7825 -0.0000 0.6227
vn 0.9014 -0.0000 0.4330
vn 0.9936 -0.0000 -0.1132
vn 0.9435 -0.0000 -0.3315
vn 0.8461 -0.0000 -0.5331
vn 0.7062 -0.0000 -0.7080
vn 0.5310 -0.0000 -0.8474
vn 0.3291 -0.0000 -0.9443
vn 0.1107 -0.0000 -0.9939
vn -0.1132 -0.0000 -0.9936
vn -0.3315 -0.0000 -0.9435
vn -0.5331 -0.0000 -0.8461
vn -0.7080 -0.0000 -0.7062
vn -0.8474 -0.0000 -0.5310
vn -0.9443 -0.0000 -0.3291
vn -0.9939 -0.0000 -0.1107
vn -0.9936 -0.0000 0.1132
vn -0.9435 -0.0000 0.3315
vn -0.8461 -0.0000 0.5331
vn -0.7062 -0.0000 0.7080
vn -0.5310 -0.0000 0.8474
vn -0.3291 -0.0000 0.9443
vn -0.1107 -0.0000 0.9939
vn 0.1132 -0.0000 0.9936
vn 0.3315 -0.0000 0.9435
vn 0.5331 -0.0000 0.8461
vn 0.7080 -0.0000 0.7062
vn 0.8474 -0.0000 0.5310
vn 0.9443 -0.0000 0.3291
vn 0.9939 -0.0000 0.1107
vt 0.375000 0.500000
vt 0.625000 0.500000
vt 0.625000 0.750000
vt 0.375000 0.750000
s 1
usemtl Материал
f 2/1/1 1/2/1 3/3/1 4/4/1
f 6/1/2 5/2/2 7/3/2 8/4/2
f 10/1/3 9/2/3 11/3/3 12/4/3
f 14/1/4 13/2/4 15/3/4 16/4/4
f 18/1/5 17/2/5 19/3/5 20/4/5
f 22/1/6 21/2/6 23/3/6 24/4/6
f 26/1/7 25/2/7 27/3/7 28/4/7
f 30/1/8 29/2/8 31/3/8 32/4/8
f 34/1/9 33/2/9 35/3/9 36/4/9
f 38/1/10 37/2/10 39/3/10 40/4/10
f 42/1/11 41/2/11 43/3/11 44/4/11
f 46/1/12 45/2/12 47/3/12 48/4/12
f 50/1/13 49/2/13 51/3/13 52/4/13
f 54/1/14 53/2/14 55/3/14 56/4/14
f 58/1/15 57/2/15 59/3/15 60/4/15
f 62/1/16 61/2/16 63/3/16 64/4/16
f 66/1/17 65/2/17 67/3/17 68/4/17
f 70/1/18 69/2/18 71/3/18 72/4/18
f 74/1/19 73/2/19 75/3/19 76/4/19
f 78/1/20 77/2/20 79/3/20 80/4/20
f 82/1/21 81/2/21 83/3/21 84/4/21
f 86/1/22 85/2/22 87/3/22 88/4/22
f 90/1/23 89/2/23 91/3/23 92/4/23
f 94/1/24 93/2/24 95/3/24 96/4/24
f 98/1/25 97/2/25 99/3/25 100/4/25
f 102/1/26 101/2/26 103/3/26 104/4/26
f 106/1/27 105/2/27 107/3/27 108/4/27
f 110/1/28 109/2/28 111/3/28 112/4/28
f 114/1/29 113/2/29 115/3/29 116/4/29
f 118/1/30 117/2/30 119/3/30 120/4/30
f 122/1/31 121/2/31 123/3/31 124/4/31
f 126/1/32 125/2/32 127/3/32 128/4/32
f 130/1/33 129/2/33 131/3/33 132/4/33
f 134/1/34 133/2/34 135/3/34 136/4/34
f 138/1/35 137/2/35 139/3/35 140/4/35
f 142/1/36 141/2/36 143/3/36 144/4/36
f 146/1/37 145/2/37 147/3/37 148/4/37
f 150/1/38 149/2/38 151/3/38 152/4/38
f 154/1/39 153/2/39 155/3/39 156/4/39
f 158/1/40 157/2/40 159/3/40 160/4/40
f 162/1/41 161/2/41 163/3/41 164/4/41
f 166/1/42 165/2/42 167/3/42 168/4/42
f 170/1/43 169/2/43 171/3/43 172/4/43
f 174/1/44 173/2/44 175/3/44 176/4/44
f 178/1/45 177/2/45 179/3/45 180/4/45
f 182/1/46 181/2/46 183/3/46 184/4/46
f 186/1/47 185/2/47 187/3/47 188/4/47
f 190/1/48 189/2/48 191/3/48 192/4/48
f 194/1/49 193/2/49 195/3/49 196/4/49
f 198/1/50 197/2/50 199/3/50 200/4/50
f 202/1/51 201/2/51 203/3/51 204/4/51
f 206/1/52 205/2/52 207/3/52 208/4/52
f 210/1/53 209/2/53 211/3/53 212/4/53
f 214/1/54 213/2/54 215/3/54 216/4/54
f 218/1/55 217/2/55 219/3/55 220/4/55
f 222/1/56 221/2/56 223/3/56 224/4/56
f 226/1/57 225/2/57 227/3/57 228/4/57
f 230/1/58 229/2/58 231/3/58 232/4/58
f 234/1/59 233/2/59 235/3/59 236/4/59
f 238/1/60 237/2/60 239/3/60 240/4/60
f 242/1/61 241/2/61 243/3/61 244/4/61
f 246/1/62 245/2/62 247/3/62 248/4/62
f 250/1/63 249/2/63 251/3/63 252/4/63
f 254/1/64 253/2/64 255/3/64 256/4/64
f 258/1/65 257/2/65 259/3/65 260/4/65
f 262/1/66 261/2/66 263/3/66 264/4/66
f 266/1/67 265/2/67 267/3/67 268/4/67
f 270/1/68 269/2/68 271/3/68 272/4/68
f 274/1/69 273/2/69 275/3/69 276/4/69
f 278/1/70 277/2/70 279/3/70 280/4/70
f 282/1/71 281/2/71 283/3/71 284/4/71
f 286/1/72 285/2/72 287/3/72 288/4/72
f 290/1/73 289/2/73 291/3/73 292/4/73
f 294/1/74 293/2/74 295/3/74 296/4/74
f 298/1/75 297/2/75 299/3/75 300/4/75
f 302/1/76 301/2/76 303/3/76 304/4/76
f 306/1/77 305/2/77 307/3/77 308/4/77
f 310/1/78 309/2/78 311/3/78 312/4/78
f 314/1/79 313/2/79 315/3/79 316/4/79
f 318/1/80 317/2/80 319/3/80 320/4/80
f 322/1/81 321/2/81 323/3/81 324/4/81
f 326/1/82 325/2/82 327/3/82 328/4/82
f 330/1/83 329/2/83 331/3/83 332/4/83
f 334/1/84 333/2/84 335/3/84 336/4/84
f 338/1/85 337/2/85 339/3/85 340/4/85
f 342/1/86 341/2/86 343/3/86 344/4/86
f 346/1/87 345/2/87 347/3/87 348/4/87
f 350/1/88 349/2/88 351/3/88 352/4/88
f 354/1/89 353/2/89 355/3/89 356/4/89
f 358/1/90 357/2/90 359/3/90 360/4/90
f 362/1/91 361/2/91 363/3/91 364/4/91
f 366/1/92 365/2/92 367/3/92 368/4/92
f 370/1/93 369/2/93 371/3/93 372/4/93
f 374/1/94 373/2/94 375/3/94 376/4/94
f 378/1/95 377/2/95 379/3/95 380/4/95
f 382/1/96 381/2/96 383/3/96 384/4/96
f 386/1/97 385/2/97 387/3/97 388/4/97
f 390/1/98 389/2/98 391/3/98 392/4/98
f 394/1/99 393/2/99 395/3/99 396/4/99
f 398/1/100 397/2/100 399/3/100 400/4/100
f 402/1/101 401/2/101 403/3/101 404/4/101
f 406/1/102 405/2/102 407/3/102 408/4/102
f 410/1/103 409/2/103 411/3/103 412/4/103
f 414/1/104 413/2/104 415/3/104 416/4/104
f 418/1/105 417/2/105 419/3/105 420/4/105
f 422/1/106 421/2/106 423/3/106 424/4/106
f 426/1/107 425/2/107 427/3/107 428/4/107
f 430/1/108 429/2/108 431/3/108 432/4/108
f 434/1/109 433/2/109 435/3/109 436/4/109
f 438/1/110 437/2/110 439/3/110 440/4/110
f 442/1/111 441/2/111 443/3/111 444/4/111
f 446/1/112 445/2/112 447/3/112 448/4/112
f 450/1/113 449/2/113 451/3/113 452/4/113
f 454/1/114 453/2/114 455/3/114 456/4/114
f 458/1/115 457/2/115 459/3/115 460/4/115
f 462/1/116 461/2/116 463/3/116 464/4/116
f 466/1/117 465/2/117 467/3/117 468/4/117
f 470/1/118 469/2/118 471/3/118 472/4/118
f 474/1/119 473/2/119 475/3/119 476/4/119
f 478/1/120 477/2/120 479/3/120 480/4/120
f 482/1/121 481/2/121 483/3/121 484/4/121
f 486/1/122 485/2/122 487/3/122 488/4/122
f 490/1/123 489/2/123 491/3/123 492/4/123
f 494/1/124 493/2/124 495/3/124 496/4/124
f 498/1/125 497/2/125 499/3/125 500/4/125
f 502/1/126 501/2/126 503/3/126 504/4/126
f 506/1/127 505/2/127 507/3/127 508/4/127
f 510/1/128 509/2/128 511/3/128 512/4/128
f 514/1/129 513/2/129 515/3/129 516/4/129
f 518/1/130 517/2/130 519/3/130 520/4/130
f 522/1/131 521/2/131 523/3/131 524/4/131
f 526/1/132 525/2/132 527/3/132 528/4/132
f 530/1/133 529/2/133 531/3/133 532/4/133
f 534/1/134 533/2/134 535/3/134 536/4/134
f 538/1/135 537/2/135 539/3/135 540/4/135
f 542/1/136 541/2/136 543/3/136 544/4/136
f 546/1/137 545/2/137 547/3/137 548/4/137
f 550/1/138 549/2/138 551/3/138 552/4/138
f 554/1/139 553/2/139 555/3/139 556/4/139
f 558/1/140 557/2/140 559/3/140 560/4/140
f 562/1/141 561/2/141 563/3/141 564/4/141
f 566/1/142 565/2/142 567/3/142 568/4/142
f 570/1/143 569/2/143 571/3/143 572/4/143
f 574/1/144 573/2/144 575/3/144 576/4/144
f 578/1/145 577/2/145 579/3/145 580/4/145
f 582/1/146 581/2/146 583/3/146 584/4/146
f 586/1/147 585/2/147 587/3/147 588/4/147
f 590/1/148 589/2/148 591/3/148 592/4/148
f 594/1/149 593/2/149 595/3/149 596/4/149
f 598/1/150 597/2/150 599/3/150 600/4/150
f 602/1/151 601/2/151 603/3/151 604/4/151
f 606/1/152 605/2/152 607/3/152 608/4/152
f 610/1/153 609/2/153 611/3/153 612/4/153
f 614/1/154 613/2/154 615/3/154 616/4/154
f 618/1/155 617/2/155 619/3/155 620/4/155
f 622/1/156 621/2/156 623/3/156 624/4/156
f 626/1/157 625/2/157 627/3/157 628/4/157
f 630/1/158 629/2/158 631/3/158 632/4/158
f 634/1/159 633/2/159 635/3/159 636/4/159
f 638/1/160 637/2/160 639/3/160 640/4/160
f 642/1/161 641/2/161 643/3/161 644/4/161
f 646/1/162 645/2/162 647/3/162 648/4/162
f 650/1/163 649/2/163 651/3/163 652/4/163
f 654/1/164 653/2/164 655/3/164 656/4/164
f 658/1/165 657/2/165 659/3/165 660/4/165
f 662/1/166 661/2/166 663/3/166 664/4/166
f 666/1/167 665/2/167 667/3/167 668/4/167
f 670/1/168 669/2/168 671/3/168 672/4/168
