# Blender 5.0.1
# www.blender.org
mtllib arm.mtl
o Куб.001
v -0.235676 -1.510212 0.235676
v -0.192193 0.209135 0.192193
v -0.235676 -1.510212 -0.235676
v -0.192193 0.209135 -0.192193
v 0.235676 -1.510212 0.235676
v 0.192193 0.209135 0.192193
v 0.235676 -1.510212 -0.235676
v 0.192193 0.209135 -0.192193
v -0.271092 -0.301639 0.271092
v -0.271092 -0.301639 -0.271092
v 0.271092 -0.301639 -0.271092
v 0.271092 -0.301639 0.271092
v -0.285587 -1.073666 -0.285587
v 0.285587 -1.073666 -0.285587
v 0.285587 -1.073666 0.285587
v -0.285587 -1.073666 0.285587
v -0.290261 -1.537477 0.000000
v -0.251012 0.027872 0.251012
v -0.232787 0.243371 -0.000000
v -0.289714 -1.362136 -0.289714
v 0.000000 -1.537477 -0.290261
v 0.000000 0.243371 -0.232787
v 0.289714 -1.362136 -0.289714
v 0.290261 -1.537477 0.000000
v 0.232787 0.243371 -0.000000
v 0.289714 -1.362136 0.289714
v 0.000000 -1.537477 0.290261
v 0.000000 0.243371 0.232787
v -0.276613 -0.695606 0.276613
v -0.251012 0.027872 -0.251012
v 0.251012 0.027872 -0.251012
v 0.251012 0.027872 0.251012
v 0.000000 -0.301639 0.372752
v 0.372752 -0.301639 0.000000
v 0.000000 -0.301639 -0.372752
v -0.372752 -0.301639 0.000000
v -0.276613 -0.695606 -0.276613
v 0.276613 -0.695606 -0.276613
v 0.276613 -0.695606 0.276613
v -0.289714 -1.362136 0.289714
v -0.392682 -1.073666 0.000000
v 0.000000 -1.073666 -0.392682
v 0.392682 -1.073666 0.000000
v 0.000000 -1.073666 0.392682
v -0.345076 0.031248 -0.000000
v 0.000000 0.031248 -0.345076
v 0.345076 0.031248 -0.000000
v 0.000000 0.031248 0.345076
v 0.000000 -1.594695 0.000000
v 0.000000 0.315219 -0.000000
v 0.000000 -0.695606 0.380343
v 0.380343 -0.695606 0.000000
v 0.000000 -0.695606 -0.380343
v -0.380343 -0.695606 0.000000
v -0.399304 -1.364824 0.000000
v 0.000000 -1.364824 -0.399304
v 0.399304 -1.364824 0.000000
v 0.000000 -1.364824 0.399304
v -0.257287 -0.399021 0.217989
v -0.197506 0.281640 0.197506
v -0.257287 -0.399021 -0.217989
v -0.197506 0.281640 -0.197506
v 0.178690 -0.399021 0.217989
v 0.197506 0.281640 0.197506
v 0.178690 -0.399021 -0.217989
v 0.197506 0.281640 -0.197506
v -0.326939 -0.293375 0.326939
v -0.326939 -0.293375 -0.326939
v 0.326939 -0.293375 -0.326939
v 0.326939 -0.293375 0.326939
v -0.342499 -0.481141 -0.333766
v -0.342499 -0.481141 0.333766
v 0.325033 -0.481141 -0.333766
v 0.325033 -0.481141 0.333766
v -0.467662 -0.481141 0.000000
v -0.276625 0.028966 0.276625
v -0.234260 0.334357 0.000000
v -0.344783 -0.457665 -0.343692
v -0.008733 -0.481141 -0.458929
v -0.000000 0.334357 -0.234260
v 0.342600 -0.457665 -0.343692
v 0.450196 -0.481141 -0.000000
v 0.234260 0.334357 -0.000000
v 0.342600 -0.457665 0.343692
v -0.008733 -0.481141 0.458929
v 0.000000 0.334357 0.234260
v -0.344783 -0.457665 0.343692
v -0.276625 0.028966 -0.276625
v 0.276625 0.028966 -0.276625
v 0.276625 0.028966 0.276625
v 0.000000 -0.293375 0.449541
v 0.449541 -0.293375 0.000000
v 0.000000 -0.293375 -0.449541
v -0.449541 -0.293375 -0.000000
v -0.303502 -0.390023 0.000000
v -0.042169 -0.390023 -0.261333
v 0.219164 -0.390023 0.000000
v -0.042169 -0.390023 0.261333
v -0.320488 -0.440146 -0.294855
v -0.320488 -0.440146 0.294855
v 0.269222 -0.440146 -0.294855
v 0.269222 -0.440146 0.294855
v -0.379230 0.034164 0.000000
v -0.000000 0.034164 -0.379230
v 0.379230 0.034164 -0.000000
v 0.000000 0.034164 0.379230
v -0.048193 -0.371140 -0.000000
v -0.000000 0.444988 0.000000
v -0.001092 -0.457665 0.472576
v 0.471484 -0.457665 0.000000
v -0.001092 -0.457665 -0.472576
v -0.473668 -0.457665 -0.000000
v -0.430690 -0.439259 0.000000
v -0.025916 -0.439259 -0.404774
v 0.378858 -0.439259 -0.000000
v -0.025916 -0.439259 0.404774
vn -0.9334 0.0779 0.3504
vn -0.8588 0.4179 0.2964
vn -0.8588 0.4179 -0.2964
vn -0.9334 0.0779 -0.3504
vn -0.3504 0.0779 -0.9334
vn -0.2964 0.4179 -0.8588
vn 0.2964 0.4179 -0.8588
vn 0.3504 0.0779 -0.9334
vn 0.9334 0.0779 -0.3504
vn 0.8588 0.4179 -0.2964
vn 0.8588 0.4179 0.2964
vn 0.9334 0.0779 0.3504
vn 0.3504 0.0779 0.9334
vn 0.2964 0.4179 0.8588
vn -0.2964 0.4179 0.8588
vn -0.3504 0.0779 0.9334
vn -0.1737 -0.9693 -0.1737
vn 0.1737 -0.9693 -0.1737
vn 0.1737 -0.9693 0.1737
vn -0.1737 -0.9693 0.1737
vn 0.2571 0.9316 -0.2571
vn -0.2571 0.9316 -0.2571
vn -0.2571 0.9316 0.2571
vn 0.2571 0.9316 0.2571
vn 0.3517 0.0252 0.9358
vn 0.3510 0.0243 0.9361
vn 0.3511 0.0180 0.9362
vn -0.3510 0.0243 0.9361
vn -0.3511 0.0180 0.9362
vn -0.3517 0.0252 0.9358
vn 0.9358 0.0252 -0.3517
vn 0.9361 0.0243 -0.3510
vn 0.9362 0.0180 -0.3511
vn 0.9361 0.0243 0.3510
vn 0.9362 0.0180 0.3511
vn 0.9358 0.0252 0.3517
vn -0.3517 0.0252 -0.9358
vn -0.3510 0.0243 -0.9361
vn -0.3511 0.0180 -0.9362
vn 0.3510 0.0243 -0.9361
vn 0.3511 0.0180 -0.9362
vn 0.3517 0.0252 -0.9358
vn -0.9358 0.0252 0.3517
vn -0.9361 0.0243 0.3510
vn -0.9362 0.0180 0.3511
vn -0.9361 0.0243 -0.3510
vn -0.9362 0.0180 -0.3511
vn -0.9358 0.0252 -0.3517
vn -0.8334 -0.4722 0.2873
vn -0.9357 0.0199 0.3523
vn -0.9357 0.0199 -0.3523
vn -0.8334 -0.4722 -0.2873
vn -0.2873 -0.4722 -0.8334
vn -0.3523 0.0199 -0.9357
vn 0.3523 0.0199 -0.9357
vn 0.2873 -0.4722 -0.8334
vn 0.8334 -0.4722 -0.2873
vn 0.9357 0.0199 -0.3523
vn 0.9357 0.0199 0.3523
vn 0.8334 -0.4722 0.2873
vn 0.2873 -0.4722 0.8334
vn 0.3523 0.0199 0.9357
vn -0.3523 0.0199 0.9357
vn -0.2873 -0.4722 0.8334
vn -0.9180 0.1970 0.3442
vn -0.8673 0.3949 0.3031
vn -0.8673 0.3949 -0.3031
vn -0.9180 0.1970 -0.3442
vn -0.3442 0.1970 -0.9180
vn -0.3031 0.3949 -0.8673
vn 0.3031 0.3949 -0.8673
vn 0.3442 0.1970 -0.9180
vn 0.9180 0.1970 -0.3442
vn 0.8673 0.3949 -0.3031
vn 0.8673 0.3949 0.3031
vn 0.9180 0.1970 0.3442
vn 0.3442 0.1970 0.9180
vn 0.3031 0.3949 0.8673
vn -0.3031 0.3949 0.8673
vn -0.3442 0.1970 0.9180
vn 0.0650 -0.9958 0.0650
vn -0.0624 -0.9961 0.0624
vn -0.0624 -0.9961 -0.0624
vn 0.0650 -0.9958 -0.0650
vn 0.3570 0.8632 -0.3570
vn -0.3570 0.8632 -0.3570
vn -0.3570 0.8632 0.3570
vn 0.3570 0.8632 0.3570
vn 0.2932 -0.5500 0.7820
vn 0.3482 0.1279 0.9286
vn -0.3480 0.1324 0.9281
vn -0.3226 -0.3950 0.8602
vn 0.7137 -0.6472 -0.2677
vn 0.9291 0.1241 -0.3484
vn 0.9291 0.1241 0.3484
vn 0.7137 -0.6472 0.2677
vn -0.3226 -0.3950 -0.8602
vn -0.3480 0.1324 -0.9281
vn 0.3482 0.1279 -0.9286
vn 0.2932 -0.5500 -0.7820
vn -0.9106 -0.2330 0.3415
vn -0.9276 0.1362 0.3479
vn -0.9276 0.1362 -0.3479
vn -0.9106 -0.2330 -0.3415
vn 0.3804 -0.9151 0.1337
vn 0.3804 -0.9151 -0.1337
vn 0.7199 -0.6393 -0.2704
vn 0.7199 -0.6393 0.2704
vn -0.1155 -0.9374 0.3285
vn 0.1243 -0.9270 0.3537
vn 0.2400 -0.7311 0.6386
vn -0.2083 -0.8059 0.5543
vn -0.3080 -0.9452 -0.1084
vn -0.3080 -0.9452 0.1084
vn -0.4958 -0.8482 0.1864
vn -0.4958 -0.8482 -0.1864
vn 0.1243 -0.9270 -0.3537
vn -0.1155 -0.9374 -0.3285
vn -0.2083 -0.8059 -0.5543
vn 0.2400 -0.7311 -0.6386
vt 0.546884 0.000000
vt 0.585942 0.000000
vt 0.585394 0.125000
vt 0.542062 0.125000
vt 0.625000 0.000000
vt 0.625000 0.125000
vt 0.625000 0.250000
vt 0.585284 0.250000
vt 0.541624 0.250000
vt 0.585284 0.375000
vt 0.541624 0.375000
vt 0.625000 0.375000
vt 0.625000 0.500000
vt 0.585881 0.500000
vt 0.541624 0.500000
vt 0.587672 0.625000
vt 0.541624 0.625000
vt 0.648873 0.625000
vt 0.625000 0.750000
vt 0.585881 0.750000
vt 0.541624 0.750000
vt 0.585394 0.875000
vt 0.542062 0.875000
vt 0.625000 0.875000
vt 0.625000 1.000000
vt 0.585942 1.000000
vt 0.546884 1.000000
vt 0.125000 0.500000
vt 0.250000 0.500000
vt 0.247392 0.625000
vt 0.125000 0.625000
vt 0.375000 0.500000
vt 0.348918 0.625000
vt 0.375000 0.750000
vt 0.250000 0.750000
vt 0.125000 0.750000
vt 0.750000 0.500000
vt 0.752387 0.625000
vt 0.875000 0.500000
vt 0.875000 0.625000
vt 0.875000 0.750000
vt 0.750000 0.750000
vt 0.445121 0.750000
vt 0.492378 0.750000
vt 0.492323 0.875000
vt 0.444462 0.875000
vt 0.492047 1.000000
vt 0.437210 1.000000
vt 0.445121 0.500000
vt 0.492378 0.500000
vt 0.492378 0.625000
vt 0.445121 0.625000
vt 0.445121 0.250000
vt 0.492378 0.250000
vt 0.492378 0.375000
vt 0.445121 0.375000
vt 0.437210 0.000000
vt 0.492047 0.000000
vt 0.492323 0.125000
vt 0.444462 0.125000
vt 0.375000 0.000000
vt 0.406105 0.000000
vt 0.406929 0.125000
vt 0.375000 0.125000
vt 0.407094 0.250000
vt 0.375000 0.250000
vt 0.407094 0.375000
vt 0.375000 0.375000
vt 0.406442 0.500000
vt 0.404486 0.625000
vt 0.406442 0.750000
vt 0.406929 0.875000
vt 0.375000 0.875000
vt 0.406105 1.000000
vt 0.375000 1.000000
vt 0.000000 0.000000
s 1
usemtl Material.003
f 9/1/1 18/2/1 45/3/1 36/4/1
f 18/2/2 2/5/2 19/6/2 45/3/2
f 45/3/3 19/6/3 4/7/3 30/8/3
f 36/4/4 45/3/4 30/8/4 10/9/4
f 10/9/5 30/8/5 46/10/5 35/11/5
f 30/8/6 4/7/6 22/12/6 46/10/6
f 46/10/7 22/12/7 8/13/7 31/14/7
f 35/11/8 46/10/8 31/14/8 11/15/8
f 11/15/9 31/14/9 47/16/9 34/17/9
f 31/14/10 8/13/10 25/18/10 47/16/10
f 47/16/11 25/18/11 6/19/11 32/20/11
f 34/17/12 47/16/12 32/20/12 12/21/12
f 12/21/13 32/20/13 48/22/13 33/23/13
f 32/20/14 6/19/14 28/24/14 48/22/14
f 48/22/15 28/24/15 2/25/15 18/26/15
f 33/23/16 48/22/16 18/26/16 9/27/16
f 3/28/17 21/29/17 49/30/17 17/31/17
f 21/29/18 7/32/18 24/33/18 49/30/18
f 49/30/19 24/33/19 5/34/19 27/35/19
f 17/31/20 49/30/20 27/35/20 1/36/20
f 8/13/21 22/37/21 50/38/21 25/18/21
f 22/37/22 4/39/22 19/40/22 50/38/22
f 50/38/23 19/40/23 2/41/23 28/42/23
f 25/18/24 50/38/24 28/42/24 6/19/24
f 15/43/25 39/44/26 51/45/26 44/46/25
f 39/44/26 12/21/27 33/23/27 51/45/26
f 51/45/28 33/23/29 9/27/29 29/47/28
f 44/46/30 51/45/28 29/47/28 16/48/30
f 14/49/31 38/50/32 52/51/32 43/52/31
f 38/50/32 11/15/33 34/17/33 52/51/32
f 52/51/34 34/17/35 12/21/35 39/44/34
f 43/52/36 52/51/34 39/44/34 15/43/36
f 13/53/37 37/54/38 53/55/38 42/56/37
f 37/54/38 10/9/39 35/11/39 53/55/38
f 53/55/40 35/11/41 11/15/41 38/50/40
f 42/56/42 53/55/40 38/50/40 14/49/42
f 16/57/43 29/58/44 54/59/44 41/60/43
f 29/58/44 9/1/45 36/4/45 54/59/44
f 54/59/46 36/4/47 10/9/47 37/54/46
f 41/60/48 54/59/46 37/54/46 13/53/48
f 1/61/49 40/62/49 55/63/49 17/64/49
f 40/62/50 16/57/43 41/60/43 55/63/50
f 55/63/51 41/60/48 13/53/48 20/65/51
f 17/64/52 55/63/52 20/65/52 3/66/52
f 3/66/53 20/65/53 56/67/53 21/68/53
f 20/65/54 13/53/37 42/56/37 56/67/54
f 56/67/55 42/56/42 14/49/42 23/69/55
f 21/68/56 56/67/56 23/69/56 7/32/56
f 7/32/57 23/69/57 57/70/57 24/33/57
f 23/69/58 14/49/31 43/52/31 57/70/58
f 57/70/59 43/52/36 15/43/36 26/71/59
f 24/33/60 57/70/60 26/71/60 5/34/60
f 5/34/61 26/71/61 58/72/61 27/73/61
f 26/71/62 15/43/25 44/46/25 58/72/62
f 58/72/63 44/46/30 16/48/30 40/74/63
f 27/73/64 58/72/64 40/74/64 1/75/64
s 0
f 67/76/65 76/76/65 103/76/65 94/76/65
f 76/76/66 60/76/66 77/76/66 103/76/66
f 103/76/67 77/76/67 62/76/67 88/76/67
f 94/76/68 103/76/68 88/76/68 68/76/68
f 68/76/69 88/76/69 104/76/69 93/76/69
f 88/76/70 62/76/70 80/76/70 104/76/70
f 104/76/71 80/76/71 66/76/71 89/76/71
f 93/76/72 104/76/72 89/76/72 69/76/72
f 69/76/73 89/76/73 105/76/73 92/76/73
f 89/76/74 66/76/74 83/76/74 105/76/74
f 105/76/75 83/76/75 64/76/75 90/76/75
f 92/76/76 105/76/76 90/76/76 70/76/76
f 70/76/77 90/76/77 106/76/77 91/76/77
f 90/76/78 64/76/78 86/76/78 106/76/78
f 106/76/79 86/76/79 60/76/79 76/76/79
f 91/76/80 106/76/80 76/76/80 67/76/80
f 61/76/81 96/76/81 107/76/81 95/76/81
f 96/76/82 65/76/82 97/76/82 107/76/82
f 107/76/83 97/76/83 63/76/83 98/76/83
f 95/76/84 107/76/84 98/76/84 59/76/84
f 66/76/85 80/76/85 108/76/85 83/76/85
f 80/76/86 62/76/86 77/76/86 108/76/86
f 108/76/87 77/76/87 60/76/87 86/76/87
f 83/76/88 108/76/88 86/76/88 64/76/88
f 74/76/89 84/76/89 109/76/89 85/76/89
f 84/76/90 70/76/90 91/76/90 109/76/90
f 109/76/91 91/76/91 67/76/91 87/76/91
f 85/76/92 109/76/92 87/76/92 72/76/92
f 73/76/93 81/76/93 110/76/93 82/76/93
f 81/76/94 69/76/94 92/76/94 110/76/94
f 110/76/95 92/76/95 70/76/95 84/76/95
f 82/76/96 110/76/96 84/76/96 74/76/96
f 71/76/97 78/76/97 111/76/97 79/76/97
f 78/76/98 68/76/98 93/76/98 111/76/98
f 111/76/99 93/76/99 69/76/99 81/76/99
f 79/76/100 111/76/100 81/76/100 73/76/100
f 72/76/101 87/76/101 112/76/101 75/76/101
f 87/76/102 67/76/102 94/76/102 112/76/102
f 112/76/103 94/76/103 68/76/103 78/76/103
f 75/76/104 112/76/104 78/76/104 71/76/104
f 61/76/105 95/76/105 113/76/105 99/76/105
f 95/76/106 59/76/106 100/76/106 113/76/106
f 113/76/107 100/76/107 72/76/107 75/76/107
f 99/76/108 113/76/108 75/76/108 71/76/108
f 65/76/109 96/76/109 114/76/109 101/76/109
f 96/76/110 61/76/110 99/76/110 114/76/110
f 114/76/111 99/76/111 71/76/111 79/76/111
f 101/76/112 114/76/112 79/76/112 73/76/112
f 63/76/113 97/76/113 115/76/113 102/76/113
f 97/76/114 65/76/114 101/76/114 115/76/114
f 115/76/115 101/76/115 73/76/115 82/76/115
f 102/76/116 115/76/116 82/76/116 74/76/116
f 59/76/117 98/76/117 116/76/117 100/76/117
f 98/76/118 63/76/118 102/76/118 116/76/118
f 116/76/119 102/76/119 74/76/119 85/76/119
f 100/76/120 116/76/120 85/76/120 72/76/120
