# Blender 5.0.1
# www.blender.org
mtllib body.mtl
o Куб.002
v -0.387922 -0.928681 0.532513
v -0.293137 1.394170 0.367253
v -0.387922 -1.039692 -0.532513
v -0.293137 1.394170 -0.367253
v 0.387922 -0.928682 0.532513
v 0.293137 1.394170 0.367253
v 0.387922 -1.039692 -0.532513
v 0.293137 1.394170 -0.367253
v -0.428223 0.459998 0.546656
v -0.428223 0.476058 -0.546656
v 0.428223 0.459998 -0.546656
v 0.428223 0.454645 0.546656
v -0.417911 0.993966 0.523574
v -0.417911 0.993966 -0.523574
v 0.417911 0.993966 -0.523574
v 0.417911 0.993966 0.523574
v -0.459961 -0.202340 -0.619366
v 0.459961 -0.266580 -0.619366
v 0.459961 -0.263324 0.619366
v -0.459961 -0.241911 0.619366
v -0.565190 -1.098061 -0.742370
v -0.565190 -0.990777 0.742370
v 0.565190 -1.114122 -0.742370
v 0.565190 -0.996130 0.742370
v -0.724149 -1.071873 -0.405984
v -0.777136 -1.042412 -0.000000
v -0.724149 -1.013955 0.405984
v -0.407685 1.123456 0.510763
v -0.384436 1.242084 0.481635
v -0.341597 1.336904 0.427965
v -0.334170 1.413979 0.217465
v -0.354646 1.423929 -0.000000
v -0.334170 1.413979 -0.217465
v -0.489337 -0.453933 -0.655250
v -0.522537 -0.713191 -0.692730
v -0.550756 -0.940954 -0.724279
v 0.309088 -1.126699 -0.951162
v -0.000000 -1.127211 -1.020759
v -0.309088 -1.117164 -0.951162
v -0.173578 1.413979 -0.418661
v -0.000000 1.423929 -0.444314
v 0.173578 1.413979 -0.418661
v 0.489337 -0.512904 -0.655250
v 0.522537 -0.759364 -0.692730
v 0.550756 -0.971318 -0.724279
v 0.724149 -1.023992 0.405984
v 0.777135 -1.057133 -0.000000
v 0.724149 -1.089271 -0.405984
v 0.334170 1.413979 -0.217465
v 0.354646 1.423929 -0.000000
v 0.334170 1.413979 0.217465
v 0.489337 -0.485535 0.655250
v 0.522537 -0.700748 0.692730
v 0.550756 -0.880450 0.724279
v -0.309088 -0.976526 0.951162
v 0.000000 -0.972334 1.020759
v 0.309088 -0.978701 0.951162
v 0.173578 1.413979 0.418661
v 0.000000 1.423929 0.444314
v -0.173578 1.413979 0.418661
v -0.441204 -0.037823 0.591109
v -0.431827 0.144609 0.570533
v -0.428583 0.309259 0.556196
v -0.423464 0.864635 -0.530690
v -0.426571 0.736326 -0.535694
v -0.427926 0.607360 -0.540408
v 0.423464 0.864384 -0.530690
v 0.426571 0.734319 -0.535694
v 0.427926 0.600585 -0.540409
v 0.423464 0.864301 0.530690
v 0.426571 0.733650 0.535694
v 0.427926 0.598326 0.540409
v 0.234185 0.454728 0.700403
v 0.000000 0.455314 0.751652
v -0.234185 0.456903 0.700403
v 0.548661 0.456903 -0.298953
v 0.588807 0.455314 -0.000000
v 0.548661 0.454728 0.298953
v -0.234185 0.474301 -0.700403
v 0.000000 0.470035 -0.751652
v 0.234185 0.464766 -0.700403
v -0.548661 0.464766 0.298953
v -0.588807 0.470035 0.000000
v -0.548661 0.474301 -0.298953
v -0.427926 0.600585 0.540409
v -0.426571 0.734319 0.535694
v -0.423464 0.864384 0.530690
v -0.341597 1.336904 -0.427965
v -0.384436 1.242084 -0.481635
v -0.407685 1.123456 -0.510764
v 0.341597 1.336904 -0.427965
v 0.384436 1.242084 -0.481635
v 0.407685 1.123456 -0.510764
v 0.341597 1.336904 0.427965
v 0.384436 1.242084 0.481635
v 0.407685 1.123456 0.510764
v 0.228545 0.993966 0.670829
v -0.000000 0.993966 0.719914
v -0.228545 0.993966 0.670829
v 0.535448 0.993966 -0.286330
v 0.574627 0.993966 0.000000
v 0.535448 0.993966 0.286330
v -0.228545 0.993966 -0.670829
v 0.000000 0.993966 -0.719914
v 0.228545 0.993966 -0.670829
v -0.535448 0.993966 0.286330
v -0.574627 0.993966 0.000000
v -0.535448 0.993966 -0.286330
v -0.428583 0.339237 -0.556196
v -0.431827 0.187698 -0.570533
v -0.441204 0.010740 -0.591109
v 0.428583 0.308873 -0.556196
v 0.431827 0.141525 -0.570533
v 0.441204 -0.048230 -0.591109
v 0.428583 0.299137 0.556196
v 0.431827 0.129218 0.570533
v 0.441204 -0.057480 0.591109
v -0.550756 -0.870329 0.724279
v -0.522537 -0.685357 0.692730
v -0.489337 -0.465879 0.655250
v -0.589324 -0.228429 0.338716
v -0.632446 -0.214095 -0.000000
v -0.589324 -0.203777 -0.338716
v -0.251541 -0.212835 -0.793562
v 0.000000 -0.231055 -0.851628
v 0.251541 -0.250978 -0.793562
v 0.589324 -0.273370 -0.338716
v 0.632446 -0.272982 0.000000
v 0.589325 -0.268579 0.338716
v 0.251541 -0.259521 0.793562
v -0.000000 -0.256022 0.851628
v -0.251541 -0.250822 0.793562
v -0.439239 -1.000941 -0.315092
v -0.464602 -0.959884 0.000000
v -0.439239 -0.935079 0.315092
v 0.229116 -1.031611 -0.605889
v -0.000000 -1.027552 -0.642408
v -0.229116 -1.031612 -0.605889
v 0.439239 -0.935079 0.315092
v 0.464601 -0.959884 -0.000000
v 0.439239 -1.000941 -0.315092
v -0.229116 -0.904408 0.605889
v 0.000000 -0.892216 0.642408
v 0.229116 -0.904408 0.605889
v -0.557631 -1.157815 -0.738586
v -0.522270 -1.143356 -0.700955
v -0.457754 -1.090467 -0.622435
v -0.457754 -0.963108 0.622435
v -0.522270 -1.006772 0.700955
v -0.557631 -1.027776 0.738586
v 0.557631 -1.164590 -0.738586
v 0.522270 -1.145363 -0.700955
v 0.457754 -1.090718 -0.622435
v 0.557631 -1.030035 0.738586
v 0.522270 -1.007441 0.700955
v 0.457754 -0.963192 0.622435
v -0.522333 1.123640 0.279329
v -0.492444 1.243551 0.263432
v -0.433624 1.342385 0.236383
v -0.560544 1.123823 -0.000000
v -0.528412 1.245018 -0.000000
v -0.464445 1.347182 0.000000
v -0.522333 1.123640 -0.279329
v -0.492444 1.243551 -0.263432
v -0.433624 1.342385 -0.236383
v -0.222957 1.123640 -0.654398
v -0.210268 1.243551 -0.616953
v -0.188678 1.342385 -0.543260
v 0.000000 1.123823 -0.702271
v 0.000000 1.245018 -0.662014
v -0.000000 1.347182 -0.581874
v 0.222957 1.123640 -0.654398
v 0.210268 1.243551 -0.616953
v 0.188678 1.342385 -0.543260
v 0.522333 1.123640 -0.279329
v 0.492444 1.243551 -0.263432
v 0.433624 1.342385 -0.236383
v 0.560544 1.123823 0.000000
v 0.528412 1.245018 -0.000000
v 0.464445 1.347182 -0.000000
v 0.522333 1.123640 0.279329
v 0.492444 1.243551 0.263432
v 0.433624 1.342385 0.236383
v 0.222957 1.123640 0.654398
v 0.210268 1.243551 0.616953
v 0.188678 1.342385 0.543260
v 0.000000 1.123823 0.702271
v -0.000000 1.245018 0.662014
v 0.000000 1.347182 0.581874
v -0.222957 1.123640 0.654398
v -0.210268 1.243551 0.616953
v -0.188678 1.342385 0.543260
v -0.238537 -0.968492 -0.331205
v -0.000000 -0.958658 -0.347284
v 0.238537 -0.968492 -0.331205
v -0.249252 -0.921676 0.000000
v -0.000000 -0.908883 0.000000
v 0.249252 -0.921676 -0.000000
v -0.238537 -0.898299 0.331205
v -0.000000 -0.884694 0.347284
v 0.238537 -0.898299 0.331205
v 0.183144 1.456365 -0.229449
v 0.000000 1.470716 -0.240914
v -0.183144 1.456365 -0.229449
v 0.192294 1.470716 0.000000
v -0.000000 1.486381 -0.000000
v -0.192294 1.470716 -0.000000
v 0.183144 1.456365 0.229449
v -0.000000 1.470716 0.240914
v -0.183144 1.456365 0.229449
v 0.241283 -0.055709 0.757358
v 0.236155 0.129892 0.730995
v 0.234381 0.299350 0.712626
v -0.000000 -0.053072 0.812775
v 0.000000 0.131720 0.784483
v -0.000000 0.300475 0.764769
v -0.241283 -0.047724 0.757358
v -0.236155 0.136145 0.730995
v -0.234381 0.303461 0.712626
v 0.565292 -0.057237 -0.323263
v 0.553278 0.133326 -0.312010
v 0.549122 0.303109 -0.304170
v 0.606655 -0.060227 -0.000000
v 0.593762 0.129600 -0.000000
v 0.589301 0.300210 0.000000
v 0.565292 -0.059531 0.323263
v 0.553278 0.128760 0.312010
v 0.549122 0.299208 0.304170
v -0.241283 0.002827 -0.757358
v -0.236155 0.182214 -0.730995
v -0.234381 0.335861 -0.712626
v 0.000000 -0.013325 -0.812775
v -0.000000 0.169805 -0.784483
v -0.000000 0.327778 -0.764769
v 0.241283 -0.032187 -0.757358
v 0.236155 0.154799 -0.730995
v 0.234381 0.317833 -0.712626
v -0.565292 -0.022674 0.323263
v -0.553278 0.157618 0.312010
v -0.549122 0.318185 0.304170
v -0.606655 -0.006170 -0.000000
v -0.593762 0.171925 -0.000000
v -0.589301 0.328043 -0.000000
v -0.565292 0.006648 -0.323263
v -0.553278 0.183347 -0.312010
v -0.549122 0.336003 -0.304170
v 0.234022 0.598362 0.692398
v 0.233281 0.733660 0.686358
v 0.231582 0.864302 0.679947
v 0.000000 0.598609 0.743062
v -0.000000 0.733733 0.736579
v -0.000000 0.864311 0.729699
v -0.234022 0.599279 0.692398
v -0.233281 0.733932 0.686358
v -0.231582 0.864336 0.679947
v 0.548280 0.599279 -0.295536
v 0.546544 0.733932 -0.292958
v 0.542563 0.864336 -0.290221
v 0.588398 0.598609 -0.000000
v 0.586535 0.733733 0.000000
v 0.582263 0.864311 0.000000
v 0.548280 0.598362 0.295536
v 0.546544 0.733660 0.292958
v 0.542563 0.864302 0.290221
v -0.234022 0.606619 -0.692398
v -0.233281 0.736107 -0.686358
v -0.231582 0.864608 -0.679947
v -0.000000 0.604819 -0.743062
v 0.000000 0.735574 -0.736579
v -0.000000 0.864541 -0.729699
v 0.234022 0.602596 -0.692399
v 0.233281 0.734915 -0.686358
v 0.231582 0.864459 -0.679947
v -0.548280 0.602596 0.295536
v -0.546544 0.734915 0.292958
v -0.542563 0.864459 0.290221
v -0.588398 0.604819 -0.000000
v -0.586535 0.735574 0.000000
v -0.582263 0.864541 0.000000
v -0.548280 0.606619 -0.295536
v -0.546544 0.736107 -0.292958
v -0.542563 0.864608 -0.290221
v -0.705656 -0.884195 0.396090
v -0.669501 -0.688417 0.378837
v -0.626963 -0.459026 0.358340
v -0.757290 -0.901846 0.000000
v -0.718489 -0.693503 0.000000
v -0.672838 -0.452535 0.000000
v -0.705656 -0.921395 -0.396090
v -0.669501 -0.701474 -0.378837
v -0.626963 -0.449729 -0.358340
v -0.301195 -0.958476 -0.927983
v -0.285763 -0.728649 -0.887561
v -0.267606 -0.466996 -0.839539
v 0.000000 -0.971275 -0.995884
v 0.000000 -0.744382 -0.952504
v 0.000000 -0.484865 -0.900969
v 0.301195 -0.976505 -0.927983
v 0.285763 -0.756064 -0.887561
v 0.267606 -0.502010 -0.839539
v 0.705656 -0.954289 -0.396090
v 0.669501 -0.751495 -0.378837
v 0.626963 -0.513614 -0.358340
v 0.757290 -0.929679 -0.000000
v 0.718489 -0.735827 -0.000000
v 0.672838 -0.506591 -0.000000
v 0.705656 -0.903172 0.396090
v 0.669501 -0.717275 0.378837
v 0.626963 -0.495883 0.358340
v 0.301195 -0.866090 0.927983
v 0.285763 -0.690100 0.887561
v 0.267606 -0.478615 0.839539
v -0.000000 -0.860250 0.995884
v 0.000000 -0.684948 0.952504
v -0.000000 -0.474261 0.900969
v -0.301195 -0.861979 0.927983
v -0.285763 -0.683848 0.887561
v -0.267606 -0.470630 0.839539
v -0.579344 -1.057423 -0.343919
v -0.619505 -1.018363 -0.000000
v -0.579344 -0.987153 0.343919
v -0.668396 -1.110966 -0.383453
v -0.716865 -1.072417 0.000000
v -0.668396 -1.036389 0.383453
v -0.714369 -1.127408 -0.403929
v -0.766586 -1.091649 -0.000000
v -0.714369 -1.056614 0.403929
v 0.253146 -1.103542 -0.789441
v -0.000000 -1.105424 -0.845155
v -0.253146 -1.103393 -0.789441
v 0.285818 -1.163104 -0.897653
v -0.000000 -1.167773 -0.963079
v -0.285819 -1.161912 -0.897653
v 0.304980 -1.181674 -0.946258
v -0.000000 -1.185718 -1.015464
v -0.304980 -1.177651 -0.946258
v 0.579344 -0.987309 0.343919
v 0.619505 -1.018593 0.000000
v 0.579344 -1.057694 -0.343919
v 0.668396 -1.037644 0.383453
v 0.716865 -1.074257 0.000000
v 0.668396 -1.113140 -0.383453
v 0.714369 -1.060848 0.403929
v 0.766586 -1.097860 -0.000000
v 0.714369 -1.134748 -0.403929
v -0.253146 -0.941305 0.789441
v -0.000000 -0.931532 0.845155
v 0.253146 -0.941339 0.789441
v -0.285818 -0.986426 0.897653
v 0.000000 -0.978900 0.963079
v 0.285819 -0.986698 0.897653
v -0.304980 -1.009687 0.946258
v 0.000000 -1.003791 1.015464
v 0.304980 -1.010604 0.946258
vn -0.9579 0.2551 0.1317
vn -0.8401 0.5292 0.1189
vn -0.9579 0.2551 -0.1317
vn -0.8401 0.5292 -0.1189
vn -0.8902 0.1139 0.4411
vn -0.8618 0.2727 0.4277
vn -0.7477 0.5485 0.3743
vn -0.5451 0.7933 0.2712
vn -0.5704 0.8163 0.0910
vn -0.5704 0.8163 -0.0910
vn -0.5451 0.7933 -0.2712
vn -0.7477 0.5485 -0.3743
vn -0.8618 0.2727 -0.4277
vn -0.8902 0.1139 -0.4411
vn -0.9851 0.1069 -0.1348
vn -0.9851 0.1069 0.1348
vn -0.2005 0.3101 -0.9293
vn -0.1718 0.6103 -0.7733
vn 0.2005 0.3101 -0.9293
vn 0.1718 0.6103 -0.7733
vn -0.6090 0.1255 -0.7832
vn -0.5866 0.2985 -0.7529
vn -0.5007 0.5857 -0.6373
vn -0.3516 0.8208 -0.4502
vn -0.1211 0.8669 -0.4836
vn 0.1211 0.8669 -0.4836
vn 0.3516 0.8208 -0.4502
vn 0.5007 0.5857 -0.6373
vn 0.5866 0.2985 -0.7529
vn 0.6090 0.1255 -0.7832
vn 0.2082 0.1317 -0.9692
vn -0.2082 0.1317 -0.9692
vn 0.9579 0.2551 -0.1317
vn 0.8401 0.5292 -0.1189
vn 0.9579 0.2551 0.1317
vn 0.8401 0.5292 0.1189
vn 0.8902 0.1139 -0.4411
vn 0.8618 0.2727 -0.4277
vn 0.7477 0.5485 -0.3743
vn 0.5451 0.7933 -0.2712
vn 0.5704 0.8163 -0.0910
vn 0.5704 0.8163 0.0910
vn 0.5451 0.7933 0.2712
vn 0.7477 0.5485 0.3743
vn 0.8618 0.2727 0.4277
vn 0.8902 0.1139 0.4411
vn 0.9851 0.1069 0.1348
vn 0.9851 0.1069 -0.1348
vn 0.2005 0.3101 0.9293
vn 0.1718 0.6103 0.7733
vn -0.2005 0.3101 0.9293
vn -0.1718 0.6103 0.7733
vn 0.6090 0.1255 0.7832
vn 0.5866 0.2985 0.7529
vn 0.5007 0.5857 0.6373
vn 0.3516 0.8208 0.4502
vn 0.1211 0.8669 0.4836
vn -0.1211 0.8669 0.4836
vn -0.3516 0.8208 0.4502
vn -0.5007 0.5857 0.6373
vn -0.5866 0.2985 0.7529
vn -0.6090 0.1255 0.7832
vn -0.2082 0.1317 0.9692
vn 0.2082 0.1317 0.9692
vn 0.0505 -0.9886 0.1415
vn -0.0505 -0.9886 0.1415
vn 0.0516 -0.9963 0.0690
vn -0.0516 -0.9963 0.0690
vn 0.1630 -0.9620 0.2193
vn 0.0543 -0.9726 0.2262
vn -0.0543 -0.9726 0.2262
vn -0.1630 -0.9620 0.2193
vn -0.1711 -0.9750 0.1421
vn -0.1746 -0.9826 0.0635
vn -0.1724 -0.9848 -0.0207
vn -0.0578 -0.9980 -0.0248
vn 0.0578 -0.9980 -0.0248
vn 0.1724 -0.9848 -0.0207
vn 0.1746 -0.9826 0.0635
vn 0.1711 -0.9750 0.1421
vn 0.0815 0.9945 -0.0651
vn -0.0815 0.9945 -0.0651
vn 0.0815 0.9945 0.0651
vn -0.0815 0.9945 0.0651
vn 0.2659 0.9404 -0.2122
vn 0.0893 0.9708 -0.2227
vn -0.0893 0.9708 -0.2227
vn -0.2659 0.9404 -0.2122
vn -0.2755 0.9587 -0.0704
vn -0.2755 0.9587 0.0704
vn -0.2659 0.9404 0.2122
vn -0.0893 0.9708 0.2227
vn 0.0893 0.9708 0.2227
vn 0.2659 0.9404 0.2122
vn 0.2755 0.9587 0.0704
vn 0.2755 0.9587 -0.0704
vn 0.2213 0.1454 0.9643
vn 0.2184 0.1103 0.9696
vn -0.2172 0.1461 0.9651
vn -0.2160 0.1111 0.9701
vn 0.6330 0.1639 0.7566
vn 0.6325 0.1211 0.7650
vn 0.6286 0.0838 0.7732
vn 0.6232 0.0557 0.7800
vn 0.2151 0.0796 0.9733
vn -0.2140 0.0802 0.9735
vn -0.6224 0.0570 0.7806
vn -0.6265 0.0858 0.7747
vn -0.6285 0.1233 0.7680
vn -0.6271 0.1652 0.7612
vn -0.2169 0.1827 0.9589
vn 0.2228 0.1823 0.9577
vn 0.9896 0.0685 -0.1268
vn 0.9912 0.0281 -0.1295
vn 0.9894 0.0690 0.1275
vn 0.9911 0.0280 0.1298
vn 0.9015 0.1303 -0.4128
vn 0.9040 0.0859 -0.4189
vn 0.9031 0.0479 -0.4267
vn 0.9007 0.0234 -0.4339
vn 0.9912 0.0053 -0.1320
vn 0.9912 0.0053 0.1320
vn 0.9005 0.0230 0.4342
vn 0.9026 0.0475 0.4278
vn 0.9030 0.0872 0.4208
vn 0.9000 0.1364 0.4140
vn 0.9848 0.1209 0.1248
vn 0.9850 0.1189 -0.1252
vn -0.2115 0.1486 -0.9660
vn -0.2125 0.1197 -0.9698
vn 0.2298 0.1453 -0.9623
vn 0.2234 0.1160 -0.9678
vn -0.6282 0.1571 -0.7620
vn -0.6291 0.1266 -0.7669
vn -0.6267 0.0932 -0.7737
vn -0.6224 0.0629 -0.7801
vn -0.2124 0.0880 -0.9732
vn 0.2173 0.0853 -0.9724
vn 0.6244 0.0580 -0.7790
vn 0.6314 0.0859 -0.7707
vn 0.6375 0.1194 -0.7612
vn 0.6398 0.1535 -0.7531
vn 0.2338 0.1701 -0.9573
vn -0.2097 0.1717 -0.9626
vn -0.9887 0.0728 0.1309
vn -0.9909 0.0302 0.1309
vn -0.9895 0.0734 -0.1247
vn -0.9912 0.0309 -0.1288
vn -0.8962 0.1385 0.4214
vn -0.9007 0.0904 0.4250
vn -0.9017 0.0498 0.4295
vn -0.9002 0.0241 0.4348
vn -0.9912 0.0057 0.1322
vn -0.9912 0.0058 -0.1319
vn -0.9005 0.0260 -0.4340
vn -0.9027 0.0531 -0.4271
vn -0.9029 0.0924 -0.4197
vn -0.9001 0.1337 -0.4146
vn -0.9851 0.1218 -0.1215
vn -0.9836 0.1234 0.1313
vn 0.2108 0.0458 0.9764
vn 0.2100 0.0510 0.9764
vn -0.2107 0.0459 0.9765
vn -0.2100 0.0511 0.9764
vn 0.6185 0.0399 0.7848
vn 0.6154 0.0361 0.7874
vn 0.6137 0.0457 0.7882
vn 0.6124 0.0696 0.7875
vn 0.2094 0.0735 0.9751
vn -0.2094 0.0735 0.9751
vn -0.6124 0.0696 0.7875
vn -0.6137 0.0459 0.7882
vn -0.6153 0.0364 0.7874
vn -0.6182 0.0405 0.7850
vn -0.2121 0.0568 0.9756
vn 0.2124 0.0565 0.9755
vn 0.9908 0.0145 -0.1348
vn 0.9903 0.0327 -0.1353
vn 0.9908 0.0145 0.1349
vn 0.9903 0.0327 0.1353
vn 0.8983 0.0171 -0.4390
vn 0.8968 0.0223 -0.4419
vn 0.8957 0.0375 -0.4431
vn 0.8943 0.0625 -0.4430
vn 0.9891 0.0583 -0.1353
vn 0.9891 0.0583 0.1353
vn 0.8943 0.0625 0.4430
vn 0.8957 0.0374 0.4431
vn 0.8968 0.0222 0.4420
vn 0.8983 0.0169 0.4391
vn 0.9910 0.0043 0.1338
vn 0.9910 0.0043 -0.1338
vn -0.2106 0.0476 -0.9764
vn -0.2099 0.0518 -0.9763
vn 0.2111 0.0471 -0.9763
vn 0.2101 0.0516 -0.9763
vn -0.6182 0.0435 -0.7848
vn -0.6153 0.0378 -0.7874
vn -0.6137 0.0465 -0.7882
vn -0.6124 0.0697 -0.7874
vn -0.2094 0.0737 -0.9750
vn 0.2095 0.0736 -0.9750
vn 0.6124 0.0696 -0.7874
vn 0.6138 0.0460 -0.7881
vn 0.6156 0.0367 -0.7872
vn 0.6189 0.0412 -0.7844
vn 0.2132 0.0595 -0.9752
vn -0.2115 0.0607 -0.9755
vn -0.9907 0.0149 0.1349
vn -0.9902 0.0330 0.1354
vn -0.9908 0.0150 -0.1348
vn -0.9903 0.0332 -0.1353
vn -0.8982 0.0174 0.4393
vn -0.8967 0.0225 0.4421
vn -0.8956 0.0377 0.4432
vn -0.8943 0.0625 0.4430
vn -0.9891 0.0584 0.1353
vn -0.9891 0.0584 -0.1353
vn -0.8943 0.0626 -0.4430
vn -0.8957 0.0381 -0.4431
vn -0.8967 0.0232 -0.4419
vn -0.8983 0.0184 -0.4390
vn -0.9910 0.0046 -0.1338
vn -0.9910 0.0045 0.1339
vn -0.9750 0.1860 0.1211
vn -0.9741 0.1881 0.1257
vn -0.9754 0.1761 -0.1329
vn -0.9755 0.1799 -0.1268
vn -0.8955 0.1641 0.4138
vn -0.8882 0.2030 0.4122
vn -0.8870 0.2032 0.4146
vn -0.8900 0.1822 0.4179
vn -0.9772 0.1680 0.1298
vn -0.9791 0.1627 -0.1219
vn -0.8947 0.1667 -0.4144
vn -0.8899 0.1795 -0.4193
vn -0.8879 0.1741 -0.4259
vn -0.8924 0.1347 -0.4307
vn -0.9816 0.1339 -0.1362
vn -0.9823 0.1437 0.1199
vn -0.2085 0.1833 -0.9607
vn -0.2076 0.1905 -0.9595
vn 0.2220 0.1869 -0.9570
vn 0.2280 0.1931 -0.9543
vn -0.6192 0.1446 -0.7718
vn -0.6162 0.1794 -0.7669
vn -0.6192 0.1863 -0.7628
vn -0.6240 0.1792 -0.7606
vn -0.2080 0.1867 -0.9601
vn 0.2330 0.1876 -0.9542
vn 0.6361 0.1816 -0.7499
vn 0.6288 0.1932 -0.7532
vn 0.6219 0.1893 -0.7599
vn 0.6211 0.1555 -0.7681
vn 0.2182 0.1568 -0.9632
vn -0.2118 0.1527 -0.9653
vn 0.9724 0.1897 -0.1361
vn 0.9731 0.1895 -0.1311
vn 0.9736 0.1974 0.1149
vn 0.9736 0.1959 0.1175
vn 0.8905 0.1489 -0.4299
vn 0.8861 0.1874 -0.4239
vn 0.8893 0.1889 -0.4165
vn 0.8953 0.1703 -0.4117
vn 0.9779 0.1663 -0.1266
vn 0.9778 0.1707 0.1211
vn 0.8941 0.1837 0.4084
vn 0.8900 0.2082 0.4055
vn 0.8896 0.2107 0.4053
vn 0.8956 0.1732 0.4098
vn 0.9809 0.1561 0.1163
vn 0.9792 0.1483 -0.1382
vn 0.2187 0.2355 0.9469
vn 0.2203 0.2329 0.9472
vn -0.2148 0.2342 0.9482
vn -0.2147 0.2320 0.9487
vn 0.6271 0.1975 0.7535
vn 0.6241 0.2278 0.7474
vn 0.6260 0.2250 0.7467
vn 0.6298 0.2039 0.7496
vn 0.2221 0.2154 0.9509
vn -0.2156 0.2152 0.9525
vn -0.6230 0.2031 0.7553
vn -0.6204 0.2223 0.7522
vn -0.6205 0.2236 0.7517
vn -0.6255 0.1922 0.7562
vn -0.2168 0.2097 0.9534
vn 0.2188 0.2114 0.9526
vn 0.4702 -0.8697 0.1501
vn 0.4880 -0.8726 0.0212
vn 0.3219 -0.9379 0.1297
vn 0.3871 -0.9214 0.0337
vn 0.3270 -0.9124 0.2461
vn 0.3466 -0.9264 0.1471
vn 0.3544 -0.9341 0.0442
vn 0.3489 -0.9350 -0.0642
vn 0.4448 -0.8876 -0.1199
vn 0.3920 -0.9145 -0.1001
vn -0.8755 -0.2220 0.4291
vn -0.9658 -0.2168 0.1424
vn -0.9752 -0.1914 -0.1113
vn -0.8988 -0.1559 -0.4097
vn 0.2231 -0.9550 0.1956
vn 0.3964 -0.8762 0.2742
vn -0.0931 -0.8820 0.4620
vn 0.0903 -0.8837 0.4593
vn -0.0611 -0.9423 0.3291
vn 0.0478 -0.9502 0.3079
vn -0.2124 -0.9164 0.3392
vn -0.0724 -0.9314 0.3567
vn 0.0721 -0.9315 0.3564
vn 0.2116 -0.9169 0.3383
vn 0.2598 -0.8828 0.3915
vn 0.1328 -0.9586 0.2517
vn -0.6344 -0.1168 -0.7641
vn -0.2221 -0.0909 -0.9708
vn 0.2201 -0.0952 -0.9708
vn 0.6324 -0.1328 -0.7631
vn -0.1793 -0.9377 0.2976
vn -0.2672 -0.8777 0.3978
vn -0.4975 -0.8673 0.0203
vn -0.4822 -0.8629 0.1513
vn -0.4439 -0.8957 0.0270
vn -0.3987 -0.9066 0.1382
vn -0.3497 -0.9346 -0.0644
vn -0.3554 -0.9337 0.0441
vn -0.3480 -0.9259 0.1472
vn -0.3286 -0.9117 0.2465
vn -0.4087 -0.8690 0.2787
vn -0.3017 -0.9257 0.2282
vn 0.8948 -0.1864 -0.4058
vn 0.9673 -0.2306 -0.1060
vn 0.9560 -0.2544 0.1462
vn 0.8680 -0.2482 0.4301
vn -0.4248 -0.8982 -0.1133
vn -0.4509 -0.8842 -0.1219
vn 0.1112 -0.9254 -0.3624
vn -0.1118 -0.9250 -0.3631
vn 0.1140 -0.9050 -0.4099
vn -0.1167 -0.9027 -0.4141
vn 0.2335 -0.9575 -0.1695
vn 0.0806 -0.9788 -0.1881
vn -0.0806 -0.9788 -0.1882
vn -0.2338 -0.9573 -0.1698
vn -0.3133 -0.9095 -0.2734
vn -0.3136 -0.9044 -0.2894
vn 0.6103 -0.2091 0.7641
vn 0.2139 -0.1687 0.9622
vn -0.2148 -0.1656 0.9625
vn -0.6135 -0.1967 0.7648
vn 0.3013 -0.9122 -0.2777
vn 0.3108 -0.9109 -0.2713
vt 0.578125 0.062500
vt 0.593750 0.062500
vt 0.593750 0.125000
vt 0.578125 0.125000
vt 0.609375 0.062500
vt 0.609375 0.125000
vt 0.593750 0.187500
vt 0.578125 0.187500
vt 0.609375 0.187500
vt 0.562500 0.000000
vt 0.578125 0.000000
vt 0.562500 0.062500
vt 0.593750 0.000000
vt 0.609375 0.000000
vt 0.625000 0.000000
vt 0.625000 0.062500
vt 0.625000 0.125000
vt 0.625000 0.187500
vt 0.625000 0.250000
vt 0.609375 0.250000
vt 0.593750 0.250000
vt 0.578125 0.250000
vt 0.562500 0.187500
vt 0.562500 0.250000
vt 0.562500 0.125000
vt 0.578125 0.312500
vt 0.593750 0.312500
vt 0.593750 0.375000
vt 0.578125 0.375000
vt 0.609375 0.312500
vt 0.609375 0.375000
vt 0.593831 0.437500
vt 0.578135 0.437500
vt 0.609548 0.437500
vt 0.562500 0.312500
vt 0.625000 0.312500
vt 0.625000 0.375000
vt 0.625000 0.437500
vt 0.625000 0.500000
vt 0.611328 0.500000
vt 0.594401 0.500000
vt 0.578206 0.500000
vt 0.562500 0.437500
vt 0.562500 0.500000
vt 0.562500 0.375000
vt 0.578359 0.562500
vt 0.595622 0.562500
vt 0.596354 0.625000
vt 0.578451 0.625000
vt 0.616323 0.562500
vt 0.618815 0.625000
vt 0.595622 0.687500
vt 0.578359 0.687500
vt 0.616323 0.687500
vt 0.562500 0.562500
vt 0.646525 0.562500
vt 0.651042 0.625000
vt 0.646525 0.687500
vt 0.625000 0.750000
vt 0.611328 0.750000
vt 0.594401 0.750000
vt 0.578206 0.750000
vt 0.562500 0.687500
vt 0.562500 0.750000
vt 0.562500 0.625000
vt 0.578135 0.812500
vt 0.593831 0.812500
vt 0.593750 0.875000
vt 0.578125 0.875000
vt 0.609548 0.812500
vt 0.609375 0.875000
vt 0.593750 0.937500
vt 0.578125 0.937500
vt 0.609375 0.937500
vt 0.562500 0.812500
vt 0.625000 0.812500
vt 0.625000 0.875000
vt 0.625000 0.937500
vt 0.625000 1.000000
vt 0.609375 1.000000
vt 0.593750 1.000000
vt 0.578125 1.000000
vt 0.562500 0.937500
vt 0.562500 1.000000
vt 0.562500 0.875000
vt 0.218217 0.590427
vt 0.250000 0.588749
vt 0.250000 0.625000
vt 0.216789 0.625000
vt 0.281783 0.590427
vt 0.283211 0.625000
vt 0.250000 0.661251
vt 0.218217 0.659573
vt 0.281783 0.659573
vt 0.198313 0.569414
vt 0.219472 0.561755
vt 0.191475 0.592109
vt 0.250000 0.557943
vt 0.280528 0.561755
vt 0.301687 0.569414
vt 0.308525 0.592109
vt 0.311904 0.625000
vt 0.308525 0.657891
vt 0.301687 0.680586
vt 0.280528 0.688245
vt 0.250000 0.692057
vt 0.219472 0.688245
vt 0.191475 0.657891
vt 0.198313 0.680586
vt 0.188096 0.625000
vt 0.694275 0.562500
vt 0.751790 0.562500
vt 0.752604 0.625000
vt 0.696940 0.625000
vt 0.812724 0.562500
vt 0.812826 0.625000
vt 0.751790 0.687500
vt 0.694275 0.687500
vt 0.812724 0.687500
vt 0.687500 0.500000
vt 0.750000 0.500000
vt 0.812500 0.500000
vt 0.875000 0.500000
vt 0.875000 0.562500
vt 0.875000 0.625000
vt 0.875000 0.687500
vt 0.875000 0.750000
vt 0.812500 0.750000
vt 0.750000 0.750000
vt 0.687500 0.750000
vt 0.453125 0.812500
vt 0.468750 0.812500
vt 0.468750 0.875000
vt 0.453125 0.875000
vt 0.484375 0.812500
vt 0.484375 0.875000
vt 0.468750 0.937500
vt 0.453125 0.937500
vt 0.484375 0.937500
vt 0.437500 0.750000
vt 0.453125 0.750000
vt 0.437500 0.812500
vt 0.468750 0.750000
vt 0.484375 0.750000
vt 0.500000 0.750000
vt 0.500000 0.812500
vt 0.500000 0.875000
vt 0.500000 0.937500
vt 0.500000 1.000000
vt 0.484375 1.000000
vt 0.468750 1.000000
vt 0.453125 1.000000
vt 0.437500 0.937500
vt 0.437500 1.000000
vt 0.437500 0.875000
vt 0.453125 0.562500
vt 0.468750 0.562500
vt 0.468750 0.625000
vt 0.453125 0.625000
vt 0.484375 0.562500
vt 0.484375 0.625000
vt 0.468750 0.687500
vt 0.453125 0.687500
vt 0.484375 0.687500
vt 0.437500 0.500000
vt 0.453125 0.500000
vt 0.437500 0.562500
vt 0.468750 0.500000
vt 0.484375 0.500000
vt 0.500000 0.500000
vt 0.500000 0.562500
vt 0.500000 0.625000
vt 0.500000 0.687500
vt 0.500000 0.750000
vt 0.484375 0.750000
vt 0.468750 0.750000
vt 0.453125 0.750000
vt 0.437500 0.687500
vt 0.437500 0.750000
vt 0.437500 0.625000
vt 0.453125 0.312500
vt 0.468750 0.312500
vt 0.468750 0.375000
vt 0.453125 0.375000
vt 0.484375 0.312500
vt 0.484375 0.375000
vt 0.468750 0.437500
vt 0.453125 0.437500
vt 0.484375 0.437500
vt 0.437500 0.250000
vt 0.453125 0.250000
vt 0.437500 0.312500
vt 0.468750 0.250000
vt 0.484375 0.250000
vt 0.500000 0.250000
vt 0.500000 0.312500
vt 0.500000 0.375000
vt 0.500000 0.437500
vt 0.437500 0.437500
vt 0.437500 0.375000
vt 0.453125 0.062500
vt 0.468750 0.062500
vt 0.468750 0.125000
vt 0.453125 0.125000
vt 0.484375 0.062500
vt 0.484375 0.125000
vt 0.468750 0.187500
vt 0.453125 0.187500
vt 0.484375 0.187500
vt 0.437500 0.000000
vt 0.453125 0.000000
vt 0.437500 0.062500
vt 0.468750 0.000000
vt 0.484375 0.000000
vt 0.500000 0.000000
vt 0.500000 0.062500
vt 0.500000 0.125000
vt 0.500000 0.187500
vt 0.484375 0.250000
vt 0.468750 0.250000
vt 0.453125 0.250000
vt 0.437500 0.187500
vt 0.437500 0.250000
vt 0.437500 0.125000
vt 0.515625 0.812500
vt 0.531250 0.812500
vt 0.531250 0.875000
vt 0.515625 0.875000
vt 0.546875 0.812500
vt 0.546875 0.875000
vt 0.531250 0.937500
vt 0.515625 0.937500
vt 0.546875 0.937500
vt 0.515625 0.750000
vt 0.531250 0.750000
vt 0.546875 0.750000
vt 0.546875 1.000000
vt 0.531250 1.000000
vt 0.515625 1.000000
vt 0.515625 0.562500
vt 0.531250 0.562500
vt 0.531250 0.625000
vt 0.515625 0.625000
vt 0.546875 0.562500
vt 0.546875 0.625000
vt 0.531250 0.687500
vt 0.515625 0.687500
vt 0.546875 0.687500
vt 0.515625 0.500000
vt 0.531250 0.500000
vt 0.546875 0.500000
vt 0.562500 0.500000
vt 0.562500 0.562500
vt 0.562500 0.625000
vt 0.562500 0.750000
vt 0.546875 0.750000
vt 0.531250 0.750000
vt 0.515625 0.312500
vt 0.531250 0.312500
vt 0.531250 0.375000
vt 0.515625 0.375000
vt 0.546875 0.312500
vt 0.546875 0.375000
vt 0.531250 0.437500
vt 0.515625 0.437500
vt 0.546875 0.437500
vt 0.515625 0.250000
vt 0.531250 0.250000
vt 0.546875 0.250000
vt 0.562500 0.250000
vt 0.562500 0.312500
vt 0.562500 0.375000
vt 0.562500 0.437500
vt 0.515625 0.062500
vt 0.531250 0.062500
vt 0.531250 0.125000
vt 0.515625 0.125000
vt 0.546875 0.062500
vt 0.546875 0.125000
vt 0.531250 0.187500
vt 0.515625 0.187500
vt 0.546875 0.187500
vt 0.515625 0.000000
vt 0.531250 0.000000
vt 0.546875 0.000000
vt 0.546875 0.250000
vt 0.531250 0.250000
vt 0.515625 0.250000
vt 0.390625 0.062500
vt 0.406250 0.062500
vt 0.406250 0.125000
vt 0.390625 0.125000
vt 0.421875 0.062500
vt 0.421875 0.125000
vt 0.406250 0.187500
vt 0.390625 0.187500
vt 0.421875 0.187500
vt 0.375000 0.000000
vt 0.390625 0.000000
vt 0.375000 0.062500
vt 0.406250 0.000000
vt 0.421875 0.000000
vt 0.421875 0.250000
vt 0.406250 0.250000
vt 0.390625 0.250000
vt 0.375000 0.187500
vt 0.375000 0.250000
vt 0.375000 0.125000
vt 0.390625 0.312500
vt 0.406250 0.312500
vt 0.406250 0.375000
vt 0.390625 0.375000
vt 0.421875 0.312500
vt 0.421875 0.375000
vt 0.406263 0.437500
vt 0.390653 0.437500
vt 0.421877 0.437500
vt 0.375000 0.312500
vt 0.437500 0.312500
vt 0.437500 0.375000
vt 0.437500 0.437500
vt 0.437500 0.500000
vt 0.421888 0.500000
vt 0.406354 0.500000
vt 0.390891 0.500068
vt 0.375000 0.437500
vt 0.375000 0.500000
vt 0.375000 0.375000
vt 0.391527 0.562771
vt 0.406550 0.562500
vt 0.406668 0.625000
vt 0.391950 0.625000
vt 0.421913 0.562500
vt 0.421927 0.625000
vt 0.406550 0.687500
vt 0.391526 0.687229
vt 0.421913 0.687500
vt 0.376069 0.565527
vt 0.437500 0.562500
vt 0.437500 0.625000
vt 0.437500 0.687500
vt 0.421888 0.750000
vt 0.406354 0.750000
vt 0.390891 0.749932
vt 0.376069 0.684473
vt 0.375000 0.750000
vt 0.377664 0.625000
vt 0.390653 0.812500
vt 0.406263 0.812500
vt 0.406250 0.875000
vt 0.390625 0.875000
vt 0.421877 0.812500
vt 0.421875 0.875000
vt 0.406250 0.937500
vt 0.390625 0.937500
vt 0.421875 0.937500
vt 0.375000 0.812500
vt 0.421875 1.000000
vt 0.406250 1.000000
vt 0.390625 1.000000
vt 0.375000 0.937500
vt 0.375000 1.000000
vt 0.375000 0.875000
vt 0.172321 0.588752
vt 0.167067 0.625000
vt 0.151368 0.625000
vt 0.157052 0.582187
vt 0.172321 0.661248
vt 0.157052 0.667813
vt 0.137778 0.625000
vt 0.141906 0.573595
vt 0.141906 0.676406
vt 0.191475 0.592109
vt 0.188449 0.559502
vt 0.188096 0.625000
vt 0.191475 0.657891
vt 0.188449 0.690498
vt 0.175936 0.702371
vt 0.159727 0.717148
vt 0.125000 0.750000
vt 0.125000 0.687500
vt 0.125000 0.625000
vt 0.125000 0.562500
vt 0.159727 0.532852
vt 0.125000 0.500000
vt 0.175936 0.547629
vt 0.284098 0.542152
vt 0.250000 0.536436
vt 0.250000 0.521729
vt 0.291032 0.527759
vt 0.215903 0.542152
vt 0.208981 0.527759
vt 0.250000 0.510188
vt 0.300409 0.514496
vt 0.199618 0.514496
vt 0.280528 0.561755
vt 0.311564 0.559502
vt 0.219472 0.561755
vt 0.187500 0.500000
vt 0.250000 0.500000
vt 0.312500 0.500000
vt 0.340539 0.532920
vt 0.324168 0.547629
vt 0.327716 0.661248
vt 0.332985 0.625000
vt 0.349049 0.625000
vt 0.343248 0.667813
vt 0.327716 0.588752
vt 0.343248 0.582187
vt 0.363547 0.625000
vt 0.358996 0.676134
vt 0.358996 0.573866
vt 0.308525 0.657891
vt 0.311564 0.690498
vt 0.311904 0.625000
vt 0.308525 0.592109
vt 0.376069 0.565527
vt 0.377664 0.625000
vt 0.376069 0.684473
vt 0.340539 0.717080
vt 0.324168 0.702371
vt 0.215903 0.707848
vt 0.250000 0.713564
vt 0.250000 0.728271
vt 0.208981 0.722241
vt 0.284098 0.707848
vt 0.291032 0.722241
vt 0.250000 0.739813
vt 0.199618 0.735504
vt 0.300409 0.735504
vt 0.312500 0.750000
vt 0.250000 0.750000
vt 0.187500 0.750000
s 0
usemtl Material.003
f 157/1/1 158/2/1 161/3/1 160/4/1
f 158/2/2 159/5/2 162/6/2 161/3/2
f 160/4/3 161/3/3 164/7/3 163/8/3
f 161/3/4 162/6/4 165/9/4 164/7/4
f 13/10/5 28/11/5 157/1/5 106/12/5
f 28/11/6 29/13/6 158/2/6 157/1/6
f 29/13/7 30/14/7 159/5/7 158/2/7
f 30/14/8 2/15/8 31/16/8 159/5/8
f 159/5/9 31/16/9 32/17/9 162/6/9
f 162/6/10 32/17/10 33/18/10 165/9/10
f 165/9/11 33/18/11 4/19/11 88/20/11
f 164/7/12 165/9/12 88/20/12 89/21/12
f 163/8/13 164/7/13 89/21/13 90/22/13
f 108/23/14 163/8/14 90/22/14 14/24/14
f 107/25/15 160/4/15 163/8/15 108/23/15
f 106/12/16 157/1/16 160/4/16 107/25/16
f 166/26/17 167/27/17 170/28/17 169/29/17
f 167/27/18 168/30/18 171/31/18 170/28/18
f 169/29/19 170/28/19 173/32/19 172/33/19
f 170/28/20 171/31/20 174/34/20 173/32/20
f 14/24/21 90/22/21 166/26/21 103/35/21
f 90/22/22 89/21/22 167/27/22 166/26/22
f 89/21/23 88/20/23 168/30/23 167/27/23
f 88/20/24 4/19/24 40/36/24 168/30/24
f 168/30/25 40/36/25 41/37/25 171/31/25
f 171/31/26 41/37/26 42/38/26 174/34/26
f 174/34/27 42/38/27 8/39/27 91/40/27
f 173/32/28 174/34/28 91/40/28 92/41/28
f 172/33/29 173/32/29 92/41/29 93/42/29
f 105/43/30 172/33/30 93/42/30 15/44/30
f 104/45/31 169/29/31 172/33/31 105/43/31
f 103/35/32 166/26/32 169/29/32 104/45/32
f 175/46/33 176/47/33 179/48/33 178/49/33
f 176/47/34 177/50/34 180/51/34 179/48/34
f 178/49/35 179/48/35 182/52/35 181/53/35
f 179/48/36 180/51/36 183/54/36 182/52/36
f 15/44/37 93/42/37 175/46/37 100/55/37
f 93/42/38 92/41/38 176/47/38 175/46/38
f 92/41/39 91/40/39 177/50/39 176/47/39
f 91/40/40 8/39/40 49/56/40 177/50/40
f 177/50/41 49/56/41 50/57/41 180/51/41
f 180/51/42 50/57/42 51/58/42 183/54/42
f 183/54/43 51/58/43 6/59/43 94/60/43
f 182/52/44 183/54/44 94/60/44 95/61/44
f 181/53/45 182/52/45 95/61/45 96/62/45
f 102/63/46 181/53/46 96/62/46 16/64/46
f 101/65/47 178/49/47 181/53/47 102/63/47
f 100/55/48 175/46/48 178/49/48 101/65/48
f 184/66/49 185/67/49 188/68/49 187/69/49
f 185/67/50 186/70/50 189/71/50 188/68/50
f 187/69/51 188/68/51 191/72/51 190/73/51
f 188/68/52 189/71/52 192/74/52 191/72/52
f 16/64/53 96/62/53 184/66/53 97/75/53
f 96/62/54 95/61/54 185/67/54 184/66/54
f 95/61/55 94/60/55 186/70/55 185/67/55
f 94/60/56 6/59/56 58/76/56 186/70/56
f 186/70/57 58/76/57 59/77/57 189/71/57
f 189/71/58 59/77/58 60/78/58 192/74/58
f 192/74/59 60/78/59 2/79/59 30/80/59
f 191/72/60 192/74/60 30/80/60 29/81/60
f 190/73/61 191/72/61 29/81/61 28/82/61
f 99/83/62 190/73/62 28/82/62 13/84/62
f 98/85/63 187/69/63 190/73/63 99/83/63
f 97/75/64 184/66/64 187/69/64 98/85/64
f 193/86/65 194/87/65 197/88/65 196/89/65
f 194/87/66 195/90/66 198/91/66 197/88/66
f 196/89/67 197/88/67 200/92/67 199/93/67
f 197/88/68 198/91/68 201/94/68 200/92/68
f 3/95/69 138/96/69 193/86/69 133/97/69
f 138/96/70 137/98/70 194/87/70 193/86/70
f 137/98/71 136/99/71 195/90/71 194/87/71
f 136/99/72 7/100/72 141/101/72 195/90/72
f 195/90/73 141/101/73 140/102/73 198/91/73
f 198/91/74 140/102/74 139/103/74 201/94/74
f 201/94/75 139/103/75 5/104/75 144/105/75
f 200/92/76 201/94/76 144/105/76 143/106/76
f 199/93/77 200/92/77 143/106/77 142/107/77
f 135/108/78 199/93/78 142/107/78 1/109/78
f 134/110/79 196/89/79 199/93/79 135/108/79
f 133/97/80 193/86/80 196/89/80 134/110/80
f 202/111/81 203/112/81 206/113/81 205/114/81
f 203/112/82 204/115/82 207/116/82 206/113/82
f 205/114/83 206/113/83 209/117/83 208/118/83
f 206/113/84 207/116/84 210/119/84 209/117/84
f 8/39/85 42/120/85 202/111/85 49/56/85
f 42/120/86 41/121/86 203/112/86 202/111/86
f 41/121/87 40/122/87 204/115/87 203/112/87
f 40/122/88 4/123/88 33/124/88 204/115/88
f 204/115/89 33/124/89 32/125/89 207/116/89
f 207/116/90 32/125/90 31/126/90 210/119/90
f 210/119/91 31/126/91 2/127/91 60/128/91
f 209/117/92 210/119/92 60/128/92 59/129/92
f 208/118/93 209/117/93 59/129/93 58/130/93
f 51/58/94 208/118/94 58/130/94 6/59/94
f 50/57/95 205/114/95 208/118/95 51/58/95
f 49/56/96 202/111/96 205/114/96 50/57/96
f 211/131/97 212/132/97 215/133/97 214/134/97
f 212/132/98 213/135/98 216/136/98 215/133/98
f 214/134/99 215/133/99 218/137/99 217/138/99
f 215/133/100 216/136/100 219/139/100 218/137/100
f 19/140/101 117/141/101 211/131/101 130/142/101
f 117/141/102 116/143/102 212/132/102 211/131/102
f 116/143/103 115/144/103 213/135/103 212/132/103
f 115/144/104 12/145/104 73/146/104 213/135/104
f 213/135/105 73/146/105 74/147/105 216/136/105
f 216/136/106 74/147/106 75/148/106 219/139/106
f 219/139/107 75/148/107 9/149/107 63/150/107
f 218/137/108 219/139/108 63/150/108 62/151/108
f 217/138/109 218/137/109 62/151/109 61/152/109
f 132/153/110 217/138/110 61/152/110 20/154/110
f 131/155/111 214/134/111 217/138/111 132/153/111
f 130/142/112 211/131/112 214/134/112 131/155/112
f 220/156/113 221/157/113 224/158/113 223/159/113
f 221/157/114 222/160/114 225/161/114 224/158/114
f 223/159/115 224/158/115 227/162/115 226/163/115
f 224/158/116 225/161/116 228/164/116 227/162/116
f 18/165/117 114/166/117 220/156/117 127/167/117
f 114/166/118 113/168/118 221/157/118 220/156/118
f 113/168/119 112/169/119 222/160/119 221/157/119
f 112/169/120 11/170/120 76/171/120 222/160/120
f 222/160/121 76/171/121 77/172/121 225/161/121
f 225/161/122 77/172/122 78/173/122 228/164/122
f 228/164/123 78/173/123 12/174/123 115/175/123
f 227/162/124 228/164/124 115/175/124 116/176/124
f 226/163/125 227/162/125 116/176/125 117/177/125
f 129/178/126 226/163/126 117/177/126 19/179/126
f 128/180/127 223/159/127 226/163/127 129/178/127
f 127/167/128 220/156/128 223/159/128 128/180/128
f 229/181/129 230/182/129 233/183/129 232/184/129
f 230/182/130 231/185/130 234/186/130 233/183/130
f 232/184/131 233/183/131 236/187/131 235/188/131
f 233/183/132 234/186/132 237/189/132 236/187/132
f 17/190/133 111/191/133 229/181/133 124/192/133
f 111/191/134 110/193/134 230/182/134 229/181/134
f 110/193/135 109/194/135 231/185/135 230/182/135
f 109/194/136 10/195/136 79/196/136 231/185/136
f 231/185/137 79/196/137 80/197/137 234/186/137
f 234/186/138 80/197/138 81/198/138 237/189/138
f 237/189/139 81/198/139 11/170/139 112/169/139
f 236/187/140 237/189/140 112/169/140 113/168/140
f 235/188/141 236/187/141 113/168/141 114/166/141
f 126/199/142 235/188/142 114/166/142 18/165/142
f 125/200/143 232/184/143 235/188/143 126/199/143
f 124/192/144 229/181/144 232/184/144 125/200/144
f 238/201/145 239/202/145 242/203/145 241/204/145
f 239/202/146 240/205/146 243/206/146 242/203/146
f 241/204/147 242/203/147 245/207/147 244/208/147
f 242/203/148 243/206/148 246/209/148 245/207/148
f 20/210/149 61/211/149 238/201/149 121/212/149
f 61/211/150 62/213/150 239/202/150 238/201/150
f 62/213/151 63/214/151 240/205/151 239/202/151
f 63/214/152 9/215/152 82/216/152 240/205/152
f 240/205/153 82/216/153 83/217/153 243/206/153
f 243/206/154 83/217/154 84/218/154 246/209/154
f 246/209/155 84/218/155 10/195/155 109/219/155
f 245/207/156 246/209/156 109/219/156 110/220/156
f 244/208/157 245/207/157 110/220/157 111/221/157
f 123/222/158 244/208/158 111/221/158 17/223/158
f 122/224/159 241/204/159 244/208/159 123/222/159
f 121/212/160 238/201/160 241/204/160 122/224/160
f 247/225/161 248/226/161 251/227/161 250/228/161
f 248/226/162 249/229/162 252/230/162 251/227/162
f 250/228/163 251/227/163 254/231/163 253/232/163
f 251/227/164 252/230/164 255/233/164 254/231/164
f 12/145/165 72/234/165 247/225/165 73/146/165
f 72/234/166 71/235/166 248/226/166 247/225/166
f 71/235/167 70/236/167 249/229/167 248/226/167
f 70/236/168 16/64/168 97/75/168 249/229/168
f 249/229/169 97/75/169 98/85/169 252/230/169
f 252/230/170 98/85/170 99/83/170 255/233/170
f 255/233/171 99/83/171 13/84/171 87/237/171
f 254/231/172 255/233/172 87/237/172 86/238/172
f 253/232/173 254/231/173 86/238/173 85/239/173
f 75/148/174 253/232/174 85/239/174 9/149/174
f 74/147/175 250/228/175 253/232/175 75/148/175
f 73/146/176 247/225/176 250/228/176 74/147/176
f 256/240/177 257/241/177 260/242/177 259/243/177
f 257/241/178 258/244/178 261/245/178 260/242/178
f 259/243/179 260/242/179 263/246/179 262/247/179
f 260/242/180 261/245/180 264/248/180 263/246/180
f 11/170/181 69/249/181 256/240/181 76/171/181
f 69/249/182 68/250/182 257/241/182 256/240/182
f 68/250/183 67/251/183 258/244/183 257/241/183
f 67/251/184 15/252/184 100/253/184 258/244/184
f 258/244/185 100/253/185 101/254/185 261/245/185
f 261/245/186 101/254/186 102/63/186 264/248/186
f 264/248/187 102/63/187 16/255/187 70/256/187
f 263/246/188 264/248/188 70/256/188 71/257/188
f 262/247/189 263/246/189 71/257/189 72/234/189
f 78/173/190 262/247/190 72/234/190 12/174/190
f 77/172/191 259/243/191 262/247/191 78/173/191
f 76/171/192 256/240/192 259/243/192 77/172/192
f 265/258/193 266/259/193 269/260/193 268/261/193
f 266/259/194 267/262/194 270/263/194 269/260/194
f 268/261/195 269/260/195 272/264/195 271/265/195
f 269/260/196 270/263/196 273/266/196 272/264/196
f 10/195/197 66/267/197 265/258/197 79/196/197
f 66/267/198 65/268/198 266/259/198 265/258/198
f 65/268/199 64/269/199 267/262/199 266/259/199
f 64/269/200 14/270/200 103/271/200 267/262/200
f 267/262/201 103/271/201 104/272/201 270/263/201
f 270/263/202 104/272/202 105/273/202 273/266/202
f 273/266/203 105/273/203 15/252/203 67/251/203
f 272/264/204 273/266/204 67/251/204 68/250/204
f 271/265/205 272/264/205 68/250/205 69/249/205
f 81/198/206 271/265/206 69/249/206 11/170/206
f 80/197/207 268/261/207 271/265/207 81/198/207
f 79/196/208 265/258/208 268/261/208 80/197/208
f 274/274/209 275/275/209 278/276/209 277/277/209
f 275/275/210 276/278/210 279/279/210 278/276/210
f 277/277/211 278/276/211 281/280/211 280/281/211
f 278/276/212 279/279/212 282/282/212 281/280/212
f 9/215/213 85/283/213 274/274/213 82/216/213
f 85/283/214 86/284/214 275/275/214 274/274/214
f 86/284/215 87/285/215 276/278/215 275/275/215
f 87/285/216 13/10/216 106/12/216 276/278/216
f 276/278/217 106/12/217 107/25/217 279/279/217
f 279/279/218 107/25/218 108/23/218 282/282/218
f 282/282/219 108/23/219 14/24/219 64/286/219
f 281/280/220 282/282/220 64/286/220 65/287/220
f 280/281/221 281/280/221 65/287/221 66/288/221
f 84/218/222 280/281/222 66/288/222 10/195/222
f 83/217/223 277/277/223 280/281/223 84/218/223
f 82/216/224 274/274/224 277/277/224 83/217/224
f 283/289/225 284/290/225 287/291/225 286/292/225
f 284/290/226 285/293/226 288/294/226 287/291/226
f 286/292/227 287/291/227 290/295/227 289/296/227
f 287/291/228 288/294/228 291/297/228 290/295/228
f 22/298/229 118/299/229 283/289/229 27/300/229
f 118/299/230 119/301/230 284/290/230 283/289/230
f 119/301/231 120/302/231 285/293/231 284/290/231
f 120/302/232 20/210/232 121/212/232 285/293/232
f 285/293/233 121/212/233 122/224/233 288/294/233
f 288/294/234 122/224/234 123/222/234 291/297/234
f 291/297/235 123/222/235 17/223/235 34/303/235
f 290/295/236 291/297/236 34/303/236 35/304/236
f 289/296/237 290/295/237 35/304/237 36/305/237
f 25/306/238 289/296/238 36/305/238 21/307/238
f 26/308/239 286/292/239 289/296/239 25/306/239
f 27/300/240 283/289/240 286/292/240 26/308/240
f 292/309/241 293/310/241 296/311/241 295/312/241
f 293/310/242 294/313/242 297/314/242 296/311/242
f 295/312/243 296/311/243 299/315/243 298/316/243
f 296/311/244 297/314/244 300/317/244 299/315/244
f 21/307/245 36/305/245 292/309/245 39/318/245
f 36/305/246 35/304/246 293/310/246 292/309/246
f 35/304/247 34/303/247 294/313/247 293/310/247
f 34/303/248 17/223/248 124/319/248 294/313/248
f 294/313/249 124/319/249 125/320/249 297/314/249
f 297/314/250 125/320/250 126/321/250 300/317/250
f 300/317/251 126/321/251 18/322/251 43/323/251
f 299/315/252 300/317/252 43/323/252 44/324/252
f 298/316/253 299/315/253 44/324/253 45/325/253
f 37/326/254 298/316/254 45/325/254 23/327/254
f 38/328/255 295/312/255 298/316/255 37/326/255
f 39/318/256 292/309/256 295/312/256 38/328/256
f 301/329/257 302/330/257 305/331/257 304/332/257
f 302/330/258 303/333/258 306/334/258 305/331/258
f 304/332/259 305/331/259 308/335/259 307/336/259
f 305/331/260 306/334/260 309/337/260 308/335/260
f 23/327/261 45/325/261 301/329/261 48/338/261
f 45/325/262 44/324/262 302/330/262 301/329/262
f 44/324/263 43/323/263 303/333/263 302/330/263
f 43/323/264 18/322/264 127/339/264 303/333/264
f 303/333/265 127/339/265 128/340/265 306/334/265
f 306/334/266 128/340/266 129/341/266 309/337/266
f 309/337/267 129/341/267 19/140/267 52/342/267
f 308/335/268 309/337/268 52/342/268 53/343/268
f 307/336/269 308/335/269 53/343/269 54/344/269
f 46/345/270 307/336/270 54/344/270 24/346/270
f 47/347/271 304/332/271 307/336/271 46/345/271
f 48/338/272 301/329/272 304/332/272 47/347/272
f 310/348/273 311/349/273 314/350/273 313/351/273
f 311/349/274 312/352/274 315/353/274 314/350/274
f 313/351/275 314/350/275 317/354/275 316/355/275
f 314/350/276 315/353/276 318/356/276 317/354/276
f 24/346/277 54/344/277 310/348/277 57/357/277
f 54/344/278 53/343/278 311/349/278 310/348/278
f 53/343/279 52/342/279 312/352/279 311/349/279
f 52/342/280 19/140/280 130/142/280 312/352/280
f 312/352/281 130/142/281 131/155/281 315/353/281
f 315/353/282 131/155/282 132/153/282 318/356/282
f 318/356/283 132/153/283 20/154/283 120/358/283
f 317/354/284 318/356/284 120/358/284 119/359/284
f 316/355/285 317/354/285 119/359/285 118/360/285
f 55/361/286 316/355/286 118/360/286 22/362/286
f 56/363/287 313/351/287 316/355/287 55/361/287
f 57/357/288 310/348/288 313/351/288 56/363/288
f 319/364/289 320/365/289 323/366/289 322/367/289
f 320/365/290 321/368/290 324/369/290 323/366/290
f 322/367/291 323/366/291 326/370/291 325/371/291
f 323/366/292 324/369/292 327/372/292 326/370/292
f 3/95/293 133/373/293 319/364/293 147/374/293
f 133/373/294 134/375/294 320/365/294 319/364/294
f 134/375/295 135/376/295 321/368/295 320/365/295
f 135/376/296 1/109/296 148/377/296 321/368/296
f 321/368/297 148/377/297 149/378/297 324/369/297
f 324/369/298 149/378/298 150/379/298 327/372/298
f 327/372/299 150/379/299 22/380/299 27/381/299
f 326/370/300 327/372/300 27/381/300 26/382/300
f 325/371/301 326/370/301 26/382/301 25/383/301
f 145/384/302 325/371/302 25/383/302 21/385/302
f 146/386/303 322/367/303 325/371/303 145/384/303
f 147/374/304 319/364/304 322/367/304 146/386/304
f 328/387/305 329/388/305 332/389/305 331/390/305
f 329/388/306 330/391/306 333/392/306 332/389/306
f 331/390/307 332/389/307 335/393/307 334/394/307
f 332/389/308 333/392/308 336/395/308 335/393/308
f 7/100/309 136/396/309 328/387/309 153/397/309
f 136/396/310 137/98/310 329/388/310 328/387/310
f 137/98/311 138/398/311 330/391/311 329/388/311
f 138/398/312 3/95/312 147/374/312 330/391/312
f 330/391/313 147/374/313 146/386/313 333/392/313
f 333/392/314 146/386/314 145/384/314 336/395/314
f 336/395/315 145/384/315 21/385/315 39/399/315
f 335/393/316 336/395/316 39/399/316 38/400/316
f 334/394/317 335/393/317 38/400/317 37/401/317
f 151/402/318 334/394/318 37/401/318 23/327/318
f 152/403/319 331/390/319 334/394/319 151/402/319
f 153/397/320 328/387/320 331/390/320 152/403/320
f 337/404/321 338/405/321 341/406/321 340/407/321
f 338/405/322 339/408/322 342/409/322 341/406/322
f 340/407/323 341/406/323 344/410/323 343/411/323
f 341/406/324 342/409/324 345/412/324 344/410/324
f 5/104/325 139/413/325 337/404/325 156/414/325
f 139/413/326 140/415/326 338/405/326 337/404/326
f 140/415/327 141/416/327 339/408/327 338/405/327
f 141/416/328 7/100/328 153/397/328 339/408/328
f 339/408/329 153/397/329 152/403/329 342/409/329
f 342/409/330 152/403/330 151/402/330 345/412/330
f 345/412/331 151/402/331 23/327/331 48/417/331
f 344/410/332 345/412/332 48/417/332 47/418/332
f 343/411/333 344/410/333 47/418/333 46/419/333
f 154/420/334 343/411/334 46/419/334 24/346/334
f 155/421/335 340/407/335 343/411/335 154/420/335
f 156/414/336 337/404/336 340/407/336 155/421/336
f 346/422/337 347/423/337 350/424/337 349/425/337
f 347/423/338 348/426/338 351/427/338 350/424/338
f 349/425/339 350/424/339 353/428/339 352/429/339
f 350/424/340 351/427/340 354/430/340 353/428/340
f 1/109/341 142/107/341 346/422/341 148/377/341
f 142/107/342 143/106/342 347/423/342 346/422/342
f 143/106/343 144/105/343 348/426/343 347/423/343
f 144/105/344 5/104/344 156/414/344 348/426/344
f 348/426/345 156/414/345 155/421/345 351/427/345
f 351/427/346 155/421/346 154/420/346 354/430/346
f 354/430/347 154/420/347 24/346/347 57/431/347
f 353/428/348 354/430/348 57/431/348 56/432/348
f 352/429/349 353/428/349 56/432/349 55/433/349
f 150/379/350 352/429/350 55/433/350 22/380/350
f 149/378/351 349/425/351 352/429/351 150/379/351
f 148/377/352 346/422/352 349/425/352 149/378/352
