# Blender 5.0.1
# www.blender.org
mtllib head.mtl
o Куб.004
v -0.500000 -0.416374 -0.500000
v -0.500000 0.583626 -0.500000
v 0.500000 -0.416374 -0.500000
v 0.500000 0.583626 -0.500000
v -0.609568 -0.525942 0.000000
v -0.816619 -0.716030 -0.296650
v -0.572933 -0.213024 -0.572933
v -0.609568 0.083626 -0.609568
v -0.572933 0.380276 -0.572933
v -0.572933 0.656559 -0.296650
v -0.609568 0.607983 -0.000000
v 0.377624 -0.489307 -0.296650
v 0.609568 -0.525942 -0.000000
v 0.609568 0.607983 -0.000000
v 0.572933 0.656559 -0.296650
v 0.572933 0.380276 -0.572933
v 0.609568 0.083626 -0.609568
v 0.572933 -0.213024 -0.572933
v -0.296650 -0.489307 -0.572933
v -0.000000 -0.504842 -1.022017
v 0.296650 -0.489307 -0.572933
v 0.296650 0.656559 -0.572933
v -0.000000 0.693194 -0.609568
v -0.296650 0.656559 -0.572933
v -0.728990 -0.232531 -0.316157
v -1.002877 -0.162091 -0.333140
v -0.728990 0.399783 -0.316157
v -0.781829 -0.249515 0.000000
v -0.839506 0.083626 -0.000000
v -1.039747 0.315591 -0.000000
v 0.507562 -0.249515 -0.000000
v 0.565240 0.083626 -0.000000
v 0.733208 0.416766 0.000000
v 0.533681 -0.232531 -0.316157
v 0.586520 0.225029 -0.333140
v 0.728990 0.399783 -0.316157
v 0.316157 -0.232531 -0.728990
v 0.429034 -0.059336 -1.044703
v 0.316157 0.385886 -0.763712
v -0.000000 -0.099272 -0.850178
v -0.000000 0.083626 -0.839506
v 0.000000 0.412129 -0.924845
v -0.316157 -0.232531 -0.728990
v -0.522563 0.083626 -1.071536
v -0.316157 0.437864 -0.812150
v -0.333140 -0.698203 -0.000000
v 0.000000 -0.755881 -0.000000
v 0.333140 -0.698203 0.000000
v -0.316157 -0.645364 -0.316157
v 0.000000 -0.698203 -0.333140
v 0.120848 -0.587719 -0.316157
v 0.333140 0.780244 -0.000000
v -0.000000 0.837921 -0.000000
v -0.333140 0.780244 0.000000
v 0.316157 0.812616 -0.316157
v -0.000000 0.865455 -0.333140
v -0.316157 0.812616 -0.316157
v -0.500000 -0.416374 0.500000
v -0.500000 0.583626 0.500000
v 0.500000 -0.416374 0.500000
v 0.500000 0.583626 0.500000
v -0.609568 -0.525942 -0.000000
v -0.816619 -0.716030 0.296650
v -0.572933 -0.213024 0.572933
v -0.609568 0.083626 0.609568
v -0.572933 0.380276 0.572933
v -0.572933 0.656559 0.296650
v -0.609568 0.607983 0.000000
v 0.572933 -0.489307 0.296650
v 0.609568 -0.525942 0.000000
v 0.609568 0.607983 0.000000
v 0.572933 0.656559 0.296650
v 0.572933 0.380276 0.572933
v 0.609568 0.083626 0.609568
v 0.572933 -0.213024 0.572933
v -0.296650 -0.489307 0.572933
v -0.000000 -0.504842 1.022017
v 0.296650 -0.489307 0.572933
v 0.296650 0.656559 0.572933
v -0.000000 0.693194 0.609568
v -0.296650 0.656559 0.572933
v -0.728990 -0.232531 0.316157
v -1.002877 -0.162091 0.333140
v -0.728990 0.399783 0.316157
v -0.781829 -0.249515 -0.000000
v -0.839506 0.083626 0.000000
v -1.039747 0.315591 0.000000
v 0.507562 -0.249515 0.000000
v 0.565240 0.083626 0.000000
v 0.733208 0.416766 -0.000000
v 0.728990 -0.232531 0.316157
v 0.781829 0.083626 0.333140
v 0.728990 0.399783 0.316157
v 0.316157 -0.232531 0.728990
v 0.429034 -0.059336 1.044703
v 0.316157 0.385886 0.763712
v -0.000000 -0.099272 0.850178
v -0.000000 0.083626 0.839506
v 0.000000 0.412129 0.924845
v -0.316157 -0.232531 0.728990
v -0.522563 0.083626 1.071536
v -0.316157 0.437864 0.812150
v -0.333140 -0.698203 0.000000
v 0.000000 -0.755881 0.000000
v 0.333140 -0.698203 -0.000000
v -0.316157 -0.645364 0.316157
v 0.000000 -0.698203 0.333140
v 0.316157 -0.587719 0.316157
v 0.333140 0.780244 0.000000
v -0.000000 0.837921 0.000000
v -0.333140 0.780244 -0.000000
v 0.316157 0.812616 0.316157
v -0.000000 0.865455 0.333140
v -0.316157 0.812616 0.316157
v -0.505429 0.631133 0.101038
v -0.491864 1.027531 0.101038
v -0.505429 0.631133 -0.101038
v -0.491864 1.027531 -0.101038
v -0.303353 0.631133 0.101038
v -0.308857 0.941839 0.101038
v -0.303353 0.631133 -0.101038
v -0.308857 0.941839 -0.101038
v -0.404391 0.631133 -0.143124
v -0.400360 0.984685 -0.143124
v -0.404391 0.631133 0.143124
v -0.400360 0.984685 0.143124
v -0.547515 0.631133 0.000000
v -0.529978 1.045378 0.000000
v -0.261267 0.631133 0.000000
v -0.270742 0.923992 0.000000
v -0.231769 1.117025 0.000000
v -0.404391 0.631133 0.000000
v -0.647876 0.803631 0.138240
v -0.647876 0.803631 -0.138240
v -0.377577 0.745495 -0.138240
v -0.377577 0.745495 0.138240
v -0.512726 0.774563 0.195821
v -0.512726 0.774563 -0.195821
v -0.321283 0.733388 0.000000
v -0.704170 0.815738 0.000000
v -0.500000 -0.500000 0.500000
v -0.500000 0.500000 0.500000
v -0.500000 -0.500000 -0.500000
v -0.500000 0.500000 -0.500000
v 0.500000 -0.500000 0.500000
v 0.500000 0.500000 0.500000
v 0.500000 -0.500000 -0.500000
v 0.500000 0.500000 -0.500000
v -0.609568 -0.609568 0.000000
v -0.609568 0.000000 0.609568
v -0.609568 0.609568 -0.000000
v -0.609568 -0.000000 -0.609568
v 0.000000 -0.609568 -0.609568
v 0.000000 0.609568 -0.609568
v 0.609568 -0.000000 -0.609568
v 0.609568 -0.609568 0.000000
v 0.609568 0.609568 -0.000000
v 0.609568 0.000000 0.609568
v 0.000000 -0.609568 0.609568
v 0.000000 0.609568 0.609568
v -0.839506 0.000000 0.000000
v 0.000000 -0.000000 -0.839506
v 0.839506 0.000000 0.000000
v 0.000000 0.000000 0.839506
v 0.000000 -0.839506 0.000000
v 0.000000 0.839506 -0.000000
vn -0.7354 -0.5901 0.3331
vn -0.5576 -0.4814 -0.6763
vn -0.6647 -0.0857 -0.7422
vn -0.4661 -0.5008 -0.7293
vn -0.7251 0.3009 -0.6194
vn -0.7504 0.4674 -0.4674
vn -0.6629 0.7155 -0.2208
vn -0.9579 -0.0998 0.2692
vn 0.9897 -0.1375 0.0387
vn 0.8519 -0.5181 -0.0769
vn 0.8473 0.5303 -0.0291
vn 0.7504 0.4674 -0.4674
vn 0.9637 -0.1957 -0.1813
vn 0.9844 -0.1069 0.1395
vn 0.8885 -0.3954 0.2327
vn 0.9396 -0.1071 -0.3250
vn -0.2964 -0.5654 -0.7697
vn 0.4272 -0.2273 -0.8751
vn 0.1901 -0.4879 -0.8519
vn -0.3433 -0.2362 -0.9091
vn 0.4674 -0.4674 -0.7504
vn 0.7420 -0.5370 -0.4013
vn 0.7111 0.3929 -0.5830
vn 0.4942 0.4942 -0.7152
vn 0.2926 0.6519 -0.6995
vn -0.1729 0.7346 -0.6560
vn -0.5666 0.5666 -0.5983
vn -0.8093 0.4653 -0.3586
vn -0.7428 -0.5397 -0.3962
vn -0.4674 -0.4674 -0.7504
vn -0.6810 -0.0026 -0.7323
vn 0.6810 -0.0026 -0.7323
vn -0.1697 -0.9708 -0.1697
vn 0.3380 -0.8784 -0.3380
vn 0.4103 -0.7735 -0.4831
vn 0.3658 -0.9245 -0.1072
vn 0.4641 -0.8671 -0.1813
vn -0.3496 -0.8765 -0.3311
vn -0.0988 -0.6700 -0.7358
vn -0.1193 -0.9603 0.2521
vn -0.8939 0.4321 0.1196
vn 0.1650 0.9825 0.0863
vn -0.1650 0.9825 0.0863
vn -0.5214 0.8507 0.0668
vn -0.4674 0.7504 -0.4674
vn -0.1678 0.8367 -0.5213
vn 0.1678 0.8367 -0.5213
vn 0.4674 0.7504 -0.4674
vn 0.5214 0.8507 0.0668
vn -0.2477 0.4714 -0.8464
vn 0.3724 0.3972 -0.8388
vn -0.7354 -0.5901 -0.3331
vn -0.5576 -0.4814 0.6763
vn -0.6647 -0.0857 0.7422
vn -0.4661 -0.5008 0.7293
vn -0.7251 0.3009 0.6194
vn -0.7504 0.4674 0.4674
vn -0.6629 0.7155 0.2208
vn -0.9579 -0.0998 -0.2692
vn 0.8239 -0.1258 -0.5525
vn 0.9346 -0.1738 -0.3102
vn 0.8473 0.5303 0.0291
vn 0.7504 0.4674 0.4674
vn 0.8367 0.1678 0.5213
vn 0.8367 -0.1678 0.5213
vn 0.7504 -0.4674 0.4674
vn 0.9559 -0.0866 -0.2807
vn -0.2964 -0.5654 0.7697
vn 0.4272 -0.2273 0.8751
vn 0.1901 -0.4879 0.8519
vn -0.3433 -0.2362 0.9091
vn 0.4674 -0.4674 0.7504
vn 0.7420 -0.5370 0.4013
vn 0.7111 0.3929 0.5830
vn 0.4942 0.4942 0.7152
vn 0.2926 0.6519 0.6995
vn -0.1729 0.7346 0.6560
vn -0.5666 0.5666 0.5983
vn -0.8093 0.4653 0.3586
vn -0.7428 -0.5397 0.3962
vn -0.4674 -0.4674 0.7504
vn -0.6810 -0.0026 0.7323
vn 0.6810 -0.0026 0.7323
vn -0.1697 -0.9708 0.1697
vn 0.2489 -0.9360 0.2489
vn 0.4459 -0.8607 0.2457
vn 0.3891 -0.8350 0.3891
vn 0.3922 -0.8767 0.2786
vn -0.3496 -0.8765 0.3311
vn -0.0988 -0.6700 0.7358
vn -0.1193 -0.9603 -0.2521
vn -0.8939 0.4321 -0.1196
vn 0.1650 0.9825 -0.0863
vn -0.1650 0.9825 -0.0863
vn -0.5214 0.8507 -0.0668
vn -0.4674 0.7504 0.4674
vn -0.1678 0.8367 0.5213
vn 0.1678 0.8367 0.5213
vn 0.4674 0.7504 0.4674
vn 0.5214 0.8507 -0.0668
vn -0.2477 0.4714 0.8464
vn 0.3724 0.3972 0.8388
vn -0.7390 0.5678 -0.3627
vn 0.4078 0.0202 -0.9128
vn 0.8928 -0.2384 0.3821
vn -0.2788 0.3570 0.8915
vn -0.0000 -1.0000 -0.0000
vn -0.1157 0.8724 0.4748
vn 0.7507 0.0496 0.6588
vn 0.4078 0.0202 0.9128
vn -0.2788 0.3570 -0.8915
vn 0.7507 0.0496 -0.6588
vn -0.1157 0.8724 -0.4748
vn 0.8928 -0.2384 -0.3821
vn -0.7390 0.5678 0.3627
vn -0.7252 -0.6351 0.2660
vn 0.8294 0.4594 -0.3178
vn -0.3853 -0.5223 -0.7607
vn 0.3830 -0.0504 0.9224
vn -0.3853 -0.5223 0.7607
vn 0.8294 0.4594 0.3178
vn 0.3830 -0.0504 -0.9224
vn -0.7252 -0.6351 -0.2660
vn -0.9015 -0.3061 0.3061
vn -0.9015 0.3061 0.3061
vn -0.9015 0.3061 -0.3061
vn -0.9015 -0.3061 -0.3061
vn -0.3061 -0.3061 -0.9015
vn -0.3061 0.3061 -0.9015
vn 0.3061 0.3061 -0.9015
vn 0.3061 -0.3061 -0.9015
vn 0.9015 -0.3061 -0.3061
vn 0.9015 0.3061 -0.3061
vn 0.9015 0.3061 0.3061
vn 0.9015 -0.3061 0.3061
vn 0.3061 -0.3061 0.9015
vn 0.3061 0.3061 0.9015
vn -0.3061 0.3061 0.9015
vn -0.3061 -0.3061 0.9015
vn -0.3061 -0.9015 -0.3061
vn 0.3061 -0.9015 -0.3061
vn 0.3061 -0.9015 0.3061
vn -0.3061 -0.9015 0.3061
vn 0.3061 0.9015 -0.3061
vn -0.3061 0.9015 -0.3061
vn -0.3061 0.9015 0.3061
vn 0.3061 0.9015 0.3061
vt 0.437500 0.062500
vt 0.500000 0.062500
vt 0.500000 0.125000
vt 0.437500 0.125000
vt 0.562500 0.062500
vt 0.562500 0.125000
vt 0.000000 0.000000
vt 0.375000 0.000000
vt 0.437500 0.000000
vt 0.375000 0.062500
vt 0.500000 0.000000
vt 0.562500 0.000000
vt 0.625000 0.000000
vt 0.625000 0.062500
vt 0.625000 0.125000
vt 0.375000 0.125000
vt 0.437500 0.625000
vt 0.500000 0.625000
vt 0.500000 0.687500
vt 0.437500 0.687500
vt 0.562500 0.625000
vt 0.562500 0.687500
vt 0.625000 0.625000
vt 0.625000 0.687500
vt 0.625000 0.750000
vt 0.562500 0.750000
vt 0.500000 0.750000
vt 0.437500 0.750000
vt 0.375000 0.687500
vt 0.375000 0.750000
vt 0.375000 0.625000
vt 0.437500 0.812500
vt 0.500000 0.812500
vt 0.500000 0.875000
vt 0.437500 0.875000
vt 0.562500 0.875000
vt 0.562500 0.812500
vt 0.500000 0.937500
vt 0.437500 0.937500
vt 0.562500 0.937500
vt 0.375000 0.812500
vt 0.625000 0.812500
vt 0.625000 0.875000
vt 0.625000 0.937500
vt 0.625000 1.000000
vt 0.562500 1.000000
vt 0.500000 1.000000
vt 0.437500 1.000000
vt 0.375000 0.937500
vt 0.375000 1.000000
vt 0.375000 0.875000
vt 0.187500 0.625000
vt 0.250000 0.625000
vt 0.250000 0.687500
vt 0.187500 0.687500
vt 0.312500 0.625000
vt 0.312500 0.687500
vt 0.312500 0.750000
vt 0.250000 0.750000
vt 0.187500 0.750000
vt 0.125000 0.687500
vt 0.125000 0.750000
vt 0.125000 0.625000
vt 0.687500 0.625000
vt 0.750000 0.625000
vt 0.750000 0.687500
vt 0.687500 0.687500
vt 0.812500 0.625000
vt 0.812500 0.687500
vt 0.875000 0.625000
vt 0.875000 0.687500
vt 0.875000 0.750000
vt 0.812500 0.750000
vt 0.750000 0.750000
vt 0.687500 0.750000
vt 0.500000 0.125000
vt 0.500000 0.250000
vt 0.625000 0.250000
vt 0.625000 0.125000
vt 0.500000 0.375000
vt 0.500000 0.500000
vt 0.625000 0.500000
vt 0.625000 0.375000
vt 0.500000 0.625000
vt 0.500000 0.750000
vt 0.500000 0.875000
vt 0.500000 1.000000
vt 0.625000 1.000000
vt 0.625000 0.875000
vt 0.250000 0.750000
vt 0.375000 0.625000
vt 0.750000 0.750000
vt 0.875000 0.750000
vt 0.875000 0.625000
vt 0.125000 0.625000
vt 0.125000 0.750000
vt 0.125000 0.500000
vt 0.250000 0.500000
vt 0.750000 0.500000
vt 0.875000 0.500000
vt 0.375000 0.500000
vt 0.500000 0.000000
vt 0.625000 0.000000
vt 0.375000 0.000000
vt 0.375000 0.125000
vt 0.375000 0.250000
vt 0.375000 0.375000
vt 0.375000 0.875000
vt 0.375000 1.000000
s 0
usemtl Material.003
f 25/1/1 28/4/1 29/3/1 26/2/1
f 27/5/2 29/7/2 30/6/2
f 1/8/3 6/10/3 25/1/3 7/9/3
f 7/9/4 25/1/4 26/2/4 8/11/4
f 8/11/5 26/2/5 27/5/5 9/12/5
f 9/12/6 27/5/6 10/14/6 2/13/6
f 27/5/7 30/6/7 11/15/7 10/14/7
f 6/10/8 5/16/8 28/4/8 25/1/8
f 31/17/9 34/20/9 35/19/9 32/18/9
f 32/18/10 35/19/10 36/22/10 33/21/10
f 33/21/11 36/22/11 15/24/11 14/23/11
f 36/22/12 16/26/12 4/25/12 15/24/12
f 35/19/13 17/27/13 16/26/13 36/22/13
f 34/20/14 18/28/14 17/27/14 35/19/14
f 12/29/15 3/30/15 18/28/15 34/20/15
f 13/31/16 12/29/16 34/20/16 31/17/16
f 37/32/17 40/35/17 41/34/17 38/33/17
f 42/36/18 39/37/18 41/7/18
f 40/35/19 43/39/19 44/38/19 41/34/19
f 45/40/20 42/36/20 41/7/20
f 3/30/21 21/41/21 37/32/21 18/28/21
f 18/28/22 37/32/22 38/33/22 17/27/22
f 17/27/23 38/33/23 39/37/23 16/26/23
f 16/26/24 39/37/24 22/42/24 4/25/24
f 39/37/25 42/36/25 23/43/25 22/42/25
f 42/36/26 45/40/26 24/44/26 23/43/26
f 45/40/27 9/46/27 2/45/27 24/44/27
f 44/38/28 8/47/28 9/46/28 45/40/28
f 43/39/29 7/48/29 8/47/29 44/38/29
f 19/49/30 1/50/30 7/48/30 43/39/30
f 20/51/31 19/49/31 43/39/31 40/35/31
f 21/41/32 20/51/32 40/35/32 37/32/32
f 46/52/33 49/55/33 50/54/33 47/53/33
f 47/53/34 50/54/34 51/57/34 48/56/34
f 48/56/35 51/57/35 12/29/35 13/31/35
f 51/57/36 21/58/36 3/30/36 12/29/36
f 50/54/37 20/59/37 21/58/37 51/57/37
f 49/55/38 19/60/38 20/59/38 50/54/38
f 6/61/39 1/62/39 19/60/39 49/55/39
f 5/63/40 6/61/40 49/55/40 46/52/40
f 27/5/41 26/2/41 29/7/41
f 52/64/42 55/67/42 56/66/42 53/65/42
f 53/65/43 56/66/43 57/69/43 54/68/43
f 54/68/44 57/69/44 10/71/44 11/70/44
f 57/69/45 24/73/45 2/72/45 10/71/45
f 56/66/46 23/74/46 24/73/46 57/69/46
f 55/67/47 22/75/47 23/74/47 56/66/47
f 15/24/48 4/25/48 22/75/48 55/67/48
f 14/23/49 15/24/49 55/67/49 52/64/49
f 39/37/50 38/33/50 41/7/50
f 45/40/51 41/34/51 44/38/51
f 82/1/52 83/2/52 86/3/52 85/4/52
f 84/5/53 87/6/53 86/7/53
f 58/8/54 64/9/54 82/1/54 63/10/54
f 64/9/55 65/11/55 83/2/55 82/1/55
f 65/11/56 66/12/56 84/5/56 83/2/56
f 66/12/57 59/13/57 67/14/57 84/5/57
f 84/5/58 67/14/58 68/15/58 87/6/58
f 63/10/59 82/1/59 85/4/59 62/16/59
f 88/17/60 89/18/60 92/19/60 91/20/60
f 89/18/61 90/21/61 93/22/61 92/19/61
f 90/21/62 71/23/62 72/24/62 93/22/62
f 93/22/63 72/24/63 61/25/63 73/26/63
f 92/19/64 93/22/64 73/26/64 74/27/64
f 91/20/65 92/19/65 74/27/65 75/28/65
f 69/29/66 91/20/66 75/28/66 60/30/66
f 70/31/67 88/17/67 91/20/67 69/29/67
f 94/32/68 95/33/68 98/34/68 97/35/68
f 99/36/69 98/7/69 96/37/69
f 97/35/70 98/34/70 101/38/70 100/39/70
f 102/40/71 98/7/71 99/36/71
f 60/30/72 75/28/72 94/32/72 78/41/72
f 75/28/73 74/27/73 95/33/73 94/32/73
f 74/27/74 73/26/74 96/37/74 95/33/74
f 73/26/75 61/25/75 79/42/75 96/37/75
f 96/37/76 79/42/76 80/43/76 99/36/76
f 99/36/77 80/43/77 81/44/77 102/40/77
f 102/40/78 81/44/78 59/45/78 66/46/78
f 101/38/79 102/40/79 66/46/79 65/47/79
f 100/39/80 101/38/80 65/47/80 64/48/80
f 76/49/81 100/39/81 64/48/81 58/50/81
f 77/51/82 97/35/82 100/39/82 76/49/82
f 78/41/83 94/32/83 97/35/83 77/51/83
f 103/52/84 104/53/84 107/54/84 106/55/84
f 104/53/85 105/56/85 108/57/85 107/54/85
f 105/56/86 70/31/86 69/29/86 108/57/86
f 108/57/87 69/29/87 60/30/87 78/58/87
f 107/54/88 108/57/88 78/58/88 77/59/88
f 106/55/89 107/54/89 77/59/89 76/60/89
f 63/61/90 106/55/90 76/60/90 58/62/90
f 62/63/91 103/52/91 106/55/91 63/61/91
f 84/5/92 86/7/92 83/2/92
f 109/64/93 110/65/93 113/66/93 112/67/93
f 110/65/94 111/68/94 114/69/94 113/66/94
f 111/68/95 68/70/95 67/71/95 114/69/95
f 114/69/96 67/71/96 59/72/96 81/73/96
f 113/66/97 114/69/97 81/73/97 80/74/97
f 112/67/98 113/66/98 80/74/98 79/75/98
f 72/24/99 112/67/99 79/75/99 61/25/99
f 71/23/100 109/64/100 112/67/100 72/24/100
f 96/37/101 98/7/101 95/33/101
f 102/40/102 101/38/102 98/34/102
f 140/76/103 128/79/103 118/78/103 134/77/103
f 138/80/104 124/83/104 122/82/104 135/81/104
f 139/84/105 130/23/105 120/25/105 136/85/105
f 137/86/106 126/89/106 116/88/106 133/87/106
f 132/53/107 129/91/107 119/30/107 125/90/107
f 131/65/108 128/94/108 116/93/108 126/92/108
f 130/23/109 131/65/109 126/92/109 120/25/109
f 127/95/107 132/53/107 125/90/107 115/96/107
f 136/85/110 120/25/110 126/89/110 137/86/110
f 134/77/111 118/78/111 124/83/111 138/80/111
f 117/97/107 123/98/107 132/53/107 127/95/107
f 122/82/112 124/99/112 131/65/112 130/23/112
f 124/99/113 118/100/113 128/94/113 131/65/113
f 123/98/107 121/101/107 129/91/107 132/53/107
f 135/81/114 122/82/114 130/23/114 139/84/114
f 133/102/115 116/103/115 128/79/115 140/76/115
f 115/104/116 133/102/116 140/76/116 127/105/116
f 121/101/117 135/81/117 139/84/117 129/91/117
f 117/106/118 134/77/118 138/80/118 123/107/118
f 119/30/119 136/85/119 137/86/119 125/108/119
f 125/108/120 137/86/120 133/87/120 115/109/120
f 129/91/121 139/84/121 136/85/121 119/30/121
f 123/107/122 138/80/122 135/81/122 121/101/122
f 127/105/123 140/76/123 134/77/123 117/106/123
s 1
f 141/7/124 150/7/124 161/7/124 149/7/124
f 150/7/125 142/7/125 151/7/125 161/7/125
f 161/7/126 151/7/126 144/7/126 152/7/126
f 149/7/127 161/7/127 152/7/127 143/7/127
f 143/7/128 152/7/128 162/7/128 153/7/128
f 152/7/129 144/7/129 154/7/129 162/7/129
f 162/7/130 154/7/130 148/7/130 155/7/130
f 153/7/131 162/7/131 155/7/131 147/7/131
f 147/7/132 155/7/132 163/7/132 156/7/132
f 155/7/133 148/7/133 157/7/133 163/7/133
f 163/7/134 157/7/134 146/7/134 158/7/134
f 156/7/135 163/7/135 158/7/135 145/7/135
f 145/7/136 158/7/136 164/7/136 159/7/136
f 158/7/137 146/7/137 160/7/137 164/7/137
f 164/7/138 160/7/138 142/7/138 150/7/138
f 159/7/139 164/7/139 150/7/139 141/7/139
f 143/7/140 153/7/140 165/7/140 149/7/140
f 153/7/141 147/7/141 156/7/141 165/7/141
f 165/7/142 156/7/142 145/7/142 159/7/142
f 149/7/143 165/7/143 159/7/143 141/7/143
f 148/7/144 154/7/144 166/7/144 157/7/144
f 154/7/145 144/7/145 151/7/145 166/7/145
f 166/7/146 151/7/146 142/7/146 160/7/146
f 157/7/147 166/7/147 160/7/147 146/7/147
