# Blender 5.0.1
# www.blender.org
mtllib ak47.mtl
o Cube
v -0.385806 0.599888 0.208702
v -0.444343 1.572068 0.208702
v -0.385806 0.889027 -5.790119
v -0.444343 1.572068 -6.946984
v 0.385806 0.599888 0.208702
v 0.444343 1.572068 0.208702
v 0.385806 0.889027 -5.790119
v 0.444343 1.572068 -6.946984
v -0.605129 1.168001 0.018984
v -0.530179 2.098496 0.018984
v -0.512762 1.198225 -2.800254
v -0.455950 1.903544 -2.800254
v 0.605129 1.168001 0.018984
v 0.530179 2.098496 0.018984
v 0.512762 1.198225 -2.800254
v 0.455950 1.903544 -2.800254
v -0.530179 2.098496 -2.800254
v -0.605129 1.168001 -2.800254
v 0.605129 1.168001 -2.800254
v 0.530179 2.098496 -2.800254
v -0.348164 1.786726 -5.766552
v -0.386157 1.315043 -5.766552
v 0.386157 1.315043 -5.766552
v 0.348164 1.786726 -5.766552
v -0.455950 1.903544 -5.766552
v -0.512762 1.198225 -5.766552
v 0.512762 1.198225 -5.766552
v 0.455950 1.903544 -5.766552
v -0.348164 1.786726 -8.508318
v -0.386157 1.315043 -8.508318
v 0.386157 1.315043 -8.508318
v 0.348164 1.786726 -8.508318
v -0.111210 1.690389 -8.179558
v -0.111210 2.452811 -8.179558
v -0.111210 1.690389 -8.401977
v -0.111210 2.452811 -8.401977
v 0.111210 1.690389 -8.179558
v 0.111210 2.452811 -8.179558
v 0.111210 1.690389 -8.401977
v 0.111210 2.452811 -8.401977
vn -0.9974 -0.0716 -0.0016
vn -0.0000 -0.8611 -0.5084
vn 0.9974 -0.0716 -0.0016
vn -0.0000 -0.0000 1.0000
vn -0.0000 -0.9988 -0.0481
vn -0.0000 1.0000 -0.0000
vn -0.9968 0.0803 -0.0000
vn 0.9968 0.0803 -0.0000
vn -0.0000 -1.0000 -0.0000
vn -0.0000 -0.0000 -1.0000
vn -1.0000 -0.0000 -0.0000
vn 1.0000 -0.0000 -0.0000
vt 0.375000 0.000000
vt 0.625000 0.000000
vt 0.625000 0.250000
vt 0.375000 0.250000
vt 0.625000 0.500000
vt 0.375000 0.500000
vt 0.625000 0.750000
vt 0.375000 0.750000
vt 0.625000 1.000000
vt 0.375000 1.000000
vt 0.125000 0.500000
vt 0.125000 0.750000
vt 0.875000 0.500000
vt 0.875000 0.750000
vt 0.594751 0.268912
vt 0.594750 0.481088
vt 0.405250 0.267735
vt 0.405250 0.482265
vt 0.563365 0.454834
vt 0.436635 0.456908
vt 0.563365 0.295166
vt 0.436635 0.293092
s 0
usemtl Material
f 1/1/1 2/2/1 4/3/1 3/4/1
f 3/4/2 4/3/2 8/5/2 7/6/2
f 7/6/3 8/5/3 6/7/3 5/8/3
f 5/8/4 6/7/4 2/9/4 1/10/4
f 3/11/5 7/6/5 5/8/5 1/12/5
f 8/5/6 4/13/6 2/14/6 6/7/6
f 9/1/7 10/2/7 17/3/7 18/4/7
f 12/15/6 16/16/6 28/16/6 25/15/6
f 19/6/8 20/5/8 14/7/8 13/8/8
f 13/8/4 14/7/4 10/9/4 9/10/4
f 18/11/9 19/6/9 13/8/9 9/12/9
f 20/5/6 17/13/6 10/14/6 14/7/6
f 12/15/10 11/17/10 18/4/10 17/3/10
f 11/17/10 15/18/10 19/6/10 18/4/10
f 16/16/10 12/15/10 17/3/10 20/5/10
f 15/18/10 16/16/10 20/5/10 19/6/10
f 24/19/8 23/20/8 31/20/8 32/19/8
f 11/17/7 12/15/7 25/15/7 26/17/7
f 16/16/8 15/18/8 27/18/8 28/16/8
f 15/18/9 11/17/9 26/17/9 27/18/9
f 21/21/10 22/22/10 26/17/10 25/15/10
f 22/22/10 23/20/10 27/18/10 26/17/10
f 24/19/10 21/21/10 25/15/10 28/16/10
f 23/20/10 24/19/10 28/16/10 27/18/10
f 30/22/10 29/21/10 32/19/10 31/20/10
f 23/20/9 22/22/9 30/22/9 31/20/9
f 21/21/6 24/19/6 32/19/6 29/21/6
f 22/22/7 21/21/7 29/21/7 30/22/7
f 33/1/11 34/2/11 36/3/11 35/4/11
f 35/4/10 36/3/10 40/5/10 39/6/10
f 39/6/12 40/5/12 38/7/12 37/8/12
f 37/8/4 38/7/4 34/9/4 33/10/4
f 35/11/9 39/6/9 37/8/9 33/12/9
f 40/5/6 36/13/6 34/14/6 38/7/6
o Cube.002
v 0.292669 1.000000 -1.647536
v 0.389992 -1.000000 -1.116018
v 0.292669 1.000000 -0.146330
v 0.389992 -1.000000 0.883982
v -0.292669 1.000000 -1.647536
v -0.389992 -1.000000 -1.116018
v -0.292669 1.000000 -0.146330
v -0.389992 -1.000000 0.883982
v -0.111210 1.690389 -8.517994
vn -0.0000 1.0000 -0.0000
vn -0.0000 0.4580 0.8890
vn -0.9988 0.0486 -0.0000
vn -0.0000 -1.0000 -0.0000
vn 0.9988 0.0486 -0.0000
vn -0.0000 -0.2568 -0.9665
vt 0.625000 0.500000
vt 0.875000 0.500000
vt 0.875000 0.750000
vt 0.625000 0.750000
vt 0.375000 0.750000
vt 0.625000 1.000000
vt 0.375000 1.000000
vt 0.375000 0.000000
vt 0.625000 0.000000
vt 0.625000 0.250000
vt 0.375000 0.250000
vt 0.125000 0.500000
vt 0.375000 0.500000
vt 0.125000 0.750000
s 0
usemtl Материал.003
f 41/23/13 45/24/13 47/25/13 43/26/13
f 44/27/14 43/26/14 47/28/14 48/29/14
f 48/30/15 47/31/15 45/32/15 46/33/15
f 46/34/16 42/35/16 44/27/16 48/36/16
f 42/35/17 41/23/17 43/26/17 44/27/17
f 46/33/18 45/32/18 41/23/18 42/35/18
o Куб.003
v -0.410533 0.722664 -3.609746
v -0.492073 1.262549 -3.609746
v -0.410533 0.722664 -5.609746
v -0.492073 1.262549 -5.609746
v 0.410533 0.722664 -3.609746
v 0.492073 1.262549 -3.609746
v 0.410533 0.722664 -5.609746
v 0.492073 1.262549 -5.609746
vn -0.9888 -0.1493 -0.0000
vn -0.0000 -0.0000 -1.0000
vn 0.9888 -0.1493 -0.0000
vn -0.0000 -0.0000 1.0000
vn -0.0000 -1.0000 -0.0000
vn -0.0000 1.0000 -0.0000
vt 0.375000 0.000000
vt 0.625000 0.000000
vt 0.625000 0.250000
vt 0.375000 0.250000
vt 0.625000 0.500000
vt 0.375000 0.500000
vt 0.625000 0.750000
vt 0.375000 0.750000
vt 0.625000 1.000000
vt 0.375000 1.000000
vt 0.125000 0.500000
vt 0.125000 0.750000
vt 0.875000 0.500000
vt 0.875000 0.750000
s 0
usemtl Материал.003
f 50/37/19 51/38/19 53/39/19 52/40/19
f 52/40/20 53/39/20 57/41/20 56/42/20
f 56/42/21 57/41/21 55/43/21 54/44/21
f 54/44/22 55/43/22 51/45/22 50/46/22
f 52/47/23 56/42/23 54/44/23 50/48/23
f 57/41/24 53/49/24 51/50/24 55/43/24
o Куб.004
v -0.500323 -0.046003 2.489115
v -0.536569 2.195612 2.489115
v -0.360426 0.708684 -0.090199
v -0.386537 1.861266 -0.090200
v 0.500323 -0.046003 2.489115
v 0.536569 2.195612 2.489115
v 0.360426 0.708684 -0.090199
v 0.386537 1.861266 -0.090200
vn -0.9982 -0.0183 -0.0576
vn -0.0000 -0.0000 -1.0000
vn 0.9982 -0.0183 -0.0576
vn -0.0000 -0.0000 1.0000
vn -0.0000 -0.9598 -0.2808
vn -0.0000 0.9917 -0.1286
vt 0.375000 0.000000
vt 0.625000 0.000000
vt 0.625000 0.250000
vt 0.375000 0.250000
vt 0.625000 0.500000
vt 0.375000 0.500000
vt 0.625000 0.750000
vt 0.375000 0.750000
vt 0.625000 1.000000
vt 0.375000 1.000000
vt 0.125000 0.500000
vt 0.125000 0.750000
vt 0.875000 0.500000
vt 0.875000 0.750000
s 0
usemtl Материал.003
f 58/51/25 59/52/25 61/53/25 60/54/25
f 60/54/26 61/53/26 65/55/26 64/56/26
f 64/56/27 65/55/27 63/57/27 62/58/27
f 62/58/28 63/57/28 59/59/28 58/60/28
f 60/61/29 64/56/29 62/58/29 58/62/29
f 65/55/30 61/63/30 59/64/30 63/57/30
o Куб.005
v -0.365713 -1.387073 -3.335228
v -0.365713 1.000000 -1.988841
v -0.365713 -0.612927 -4.703079
v -0.365713 1.000000 -3.560565
v 0.365713 -1.387073 -3.335228
v 0.365713 1.000000 -1.988841
v 0.365713 -0.612927 -4.703079
v 0.365713 1.000000 -3.560565
v -0.365713 -0.262892 -2.421477
v -0.365713 0.124181 -3.891264
v 0.365713 0.124181 -3.891264
v 0.365713 -0.262892 -2.421477
vn -1.0000 -0.0000 -0.0000
vn -0.0000 0.3532 -0.9355
vn 1.0000 -0.0000 -0.0000
vn -0.0000 -0.3241 0.9460
vn -0.0000 -0.8703 -0.4925
vn -0.0000 1.0000 -0.0000
vn -0.0000 -0.6307 0.7760
vn -0.0000 0.7404 -0.6722
vt 0.500000 0.000000
vt 0.625000 0.000000
vt 0.625000 0.250000
vt 0.500000 0.250000
vt 0.625000 0.500000
vt 0.500000 0.500000
vt 0.625000 0.750000
vt 0.500000 0.750000
vt 0.625000 1.000000
vt 0.500000 1.000000
vt 0.125000 0.500000
vt 0.375000 0.500000
vt 0.375000 0.750000
vt 0.125000 0.750000
vt 0.875000 0.500000
vt 0.875000 0.750000
vt 0.375000 1.000000
vt 0.375000 0.250000
vt 0.375000 0.000000
s 0
usemtl Материал.004
f 74/65/31 67/66/31 69/67/31 75/68/31
f 75/68/32 69/67/32 73/69/32 76/70/32
f 76/70/33 73/69/33 71/71/33 77/72/33
f 77/72/34 71/71/34 67/73/34 74/74/34
f 68/75/35 72/76/35 70/77/35 66/78/35
f 73/69/36 69/79/36 67/80/36 71/71/36
f 70/77/37 77/72/37 74/74/37 66/81/37
f 72/76/33 76/70/33 77/72/33 70/77/33
f 68/82/38 75/68/38 76/70/38 72/76/38
f 66/83/31 74/65/31 75/68/31 68/82/31
