# Blender 5.0.1
# www.blender.org
mtllib pistol.mtl
o Cube
v 0.331289 1.000000 -0.654990
v 0.331289 -1.000000 -0.499514
v 0.331289 1.000000 0.122581
v 0.331289 -1.000000 0.499514
v -0.331289 1.000000 -0.654990
v -0.331289 -1.000000 -0.499514
v -0.331289 1.000000 0.122581
v -0.331289 -1.000000 0.499514
v -0.385663 0.763212 0.477738
v -0.342287 1.291314 0.383821
v -0.385663 0.763212 -2.636096
v -0.342287 1.291314 -2.847927
v 0.385663 0.763212 0.477738
v 0.342287 1.291314 0.383821
v 0.385663 0.763212 -2.636096
v 0.342287 1.291314 -2.847927
v -0.476368 0.969336 0.502466
v -0.408549 1.613395 0.408549
v -0.476368 0.969336 -3.027955
v -0.408549 1.613395 -3.027955
v 0.476368 0.969336 0.502466
v 0.408549 1.613395 0.408549
v 0.476368 0.969336 -3.027955
v 0.408549 1.613395 -3.027955
v -0.358284 1.095581 0.133967
v -0.358284 1.812149 0.133967
v -0.358284 1.095581 -0.133967
v -0.358284 1.812149 -0.133967
v 0.358284 1.095581 0.133967
v 0.358284 1.812149 0.133967
v 0.358284 1.095581 -0.133967
v 0.358284 1.812149 -0.133967
v -0.000005 1.095581 -0.133967
v -0.000005 1.715948 -0.133967
v -0.000005 1.095581 0.133967
v -0.000005 1.715948 0.133967
v -0.274658 1.187140 -2.588640
v -0.274658 1.564872 -2.588640
v -0.274658 1.274357 -2.878014
v -0.274658 1.823673 -2.878014
v 0.274658 1.187140 -2.588640
v 0.274658 1.564872 -2.588640
v 0.274658 1.274357 -2.878014
v 0.274658 1.823673 -2.878014
v -0.274747 0.925171 -2.653584
v -0.274747 1.474663 -2.653584
v -0.206399 0.993518 -3.114632
v -0.206399 1.406316 -3.114632
v 0.274747 0.925171 -2.653584
v 0.274747 1.474663 -2.653584
v 0.206399 0.993518 -3.114632
v 0.206399 1.406316 -3.114632
v -0.274747 1.474663 -3.114632
v -0.274747 0.925171 -3.114632
v 0.274747 0.925171 -3.114632
v 0.274747 1.474663 -3.114632
v -0.206399 0.993518 -3.017626
v -0.206399 1.406316 -3.017626
v 0.206399 0.993518 -3.017626
v 0.206399 1.406316 -3.017626
v 0.276603 0.745762 -1.498961
v 0.276603 0.167961 -1.253187
v 0.276603 0.823399 -0.509182
v 0.276603 0.075650 -0.395180
v -0.276603 0.745762 -1.498961
v -0.276603 0.167961 -1.253187
v -0.276603 0.823399 -0.509182
v -0.276603 0.075650 -0.395180
v 0.276603 0.919666 -0.432818
v 0.276603 0.825700 -1.630767
v 0.276603 0.084127 -1.315331
v 0.276603 -0.026337 -0.288591
v -0.276603 -0.026337 -0.288591
v -0.276603 0.919666 -0.432818
v -0.276603 0.825700 -1.630767
v -0.276603 0.084127 -1.315331
v -0.181782 0.561160 -0.640175
v -0.181782 0.959796 -0.569555
v -0.181782 0.241135 -1.014726
v -0.181782 0.944211 -0.921100
v 0.181782 0.561160 -0.640175
v 0.181782 0.959796 -0.569555
v 0.181782 0.241135 -1.014726
v 0.181782 0.944211 -0.921100
vn -0.0000 1.0000 -0.0000
vn -0.0000 0.1852 0.9827
vn -1.0000 -0.0000 -0.0000
vn -0.0000 -1.0000 -0.0000
vn 1.0000 -0.0000 -0.0000
vn -0.0000 -0.0775 -0.9970
vn -0.9966 0.0819 -0.0000
vn -0.0000 -0.3723 -0.9281
vn 0.9966 0.0819 -0.0000
vn -0.0000 0.1751 0.9846
vn -0.9945 0.1047 -0.0000
vn -0.0000 -0.0000 -1.0000
vn 0.9945 0.1047 -0.0000
vn -0.0000 0.1443 0.9895
vn -0.0000 -0.0000 1.0000
vn 0.2593 0.9658 -0.0000
vn -0.2593 0.9658 -0.0000
vn -0.0000 -0.9575 -0.2886
vn -0.0000 0.7454 0.6666
vn -0.0000 -0.1507 -0.9886
vn -0.0000 -0.3914 -0.9202
vn -0.0000 0.3914 0.9202
vn -0.0000 -0.9969 0.0782
vn -0.0000 0.9943 0.1070
vn -0.1606 -0.9840 0.0772
vn -0.1606 -0.1488 -0.9757
vn -0.0000 -0.9943 -0.1070
vn -0.0000 0.1320 -0.9912
vn -0.0000 -0.1744 0.9847
vn -0.0000 -0.7603 0.6496
vn -0.0000 0.9990 -0.0443
vt 0.625000 0.500000
vt 0.875000 0.500000
vt 0.875000 0.750000
vt 0.625000 0.750000
vt 0.375000 0.750000
vt 0.625000 1.000000
vt 0.375000 1.000000
vt 0.375000 0.000000
vt 0.625000 0.000000
vt 0.625000 0.250000
vt 0.375000 0.250000
vt 0.125000 0.500000
vt 0.375000 0.500000
vt 0.125000 0.750000
vt 0.375000 0.374998
vt 0.625000 0.374998
vt 0.375000 0.875002
vt 0.625000 0.875002
vt 0.249998 0.500000
vt 0.249998 0.750000
vt 0.750002 0.500000
vt 0.750002 0.750000
vt 0.593904 0.468904
vt 0.406096 0.468904
vt 0.593904 0.281096
vt 0.406096 0.281096
vt 0.403653 0.020420
vt 0.595586 0.022809
vt 0.595586 0.727191
vt 0.403653 0.729580
vt 0.399729 0.230260
vt 0.599867 0.228143
vt 0.599867 0.521857
vt 0.399729 0.519740
s 0
usemtl Material
f 1/1/1 5/2/1 7/3/1 3/4/1
f 4/5/2 3/4/2 7/6/2 8/7/2
f 8/8/3 7/9/3 5/10/3 6/11/3
f 6/12/4 2/13/4 4/5/4 8/14/4
f 2/13/5 1/1/5 3/4/5 4/5/5
f 6/11/6 5/10/6 1/1/6 2/13/6
f 9/8/7 10/9/7 12/10/7 11/11/7
f 11/11/8 12/10/8 16/1/8 15/13/8
f 15/13/9 16/1/9 14/4/9 13/5/9
f 13/5/10 14/4/10 10/6/10 9/7/10
f 11/12/4 15/13/4 13/5/4 9/14/4
f 16/1/1 12/2/1 10/3/1 14/4/1
f 17/8/11 18/9/11 20/10/11 19/11/11
f 19/11/12 20/10/12 24/1/12 23/13/12
f 23/13/13 24/1/13 22/4/13 21/5/13
f 21/5/14 22/4/14 18/6/14 17/7/14
f 19/12/4 23/13/4 21/5/4 17/14/4
f 24/1/1 20/2/1 18/3/1 22/4/1
f 25/8/3 26/9/3 28/10/3 27/11/3
f 33/15/12 34/16/12 32/1/12 31/13/12
f 31/13/5 32/1/5 30/4/5 29/5/5
f 35/17/15 36/18/15 26/6/15 25/7/15
f 33/19/4 31/13/4 29/5/4 35/20/4
f 34/21/16 28/2/16 26/3/16 36/22/16
f 32/1/17 34/21/17 36/22/17 30/4/17
f 27/12/4 33/19/4 35/20/4 25/14/4
f 29/5/15 30/4/15 36/18/15 35/17/15
f 27/11/12 28/10/12 34/16/12 33/15/12
f 37/8/3 38/9/3 40/10/3 39/11/3
f 39/11/12 40/10/12 44/1/12 43/13/12
f 43/13/5 44/1/5 42/4/5 41/5/5
f 41/5/15 42/4/15 38/6/15 37/7/15
f 39/12/18 43/13/18 41/5/18 37/14/18
f 44/1/19 40/2/19 38/3/19 42/4/19
f 45/8/3 46/9/3 53/10/3 54/11/3
f 52/23/3 51/24/3 59/24/3 60/23/3
f 55/13/5 56/1/5 50/4/5 49/5/5
f 49/5/15 50/4/15 46/6/15 45/7/15
f 54/12/4 55/13/4 49/5/4 45/14/4
f 56/1/1 53/2/1 46/3/1 50/4/1
f 48/25/12 47/26/12 54/11/12 53/10/12
f 47/26/12 51/24/12 55/13/12 54/11/12
f 52/23/12 48/25/12 53/10/12 56/1/12
f 51/24/12 52/23/12 56/1/12 55/13/12
f 57/26/12 58/25/12 60/23/12 59/24/12
f 51/24/1 47/26/1 57/26/1 59/24/1
f 48/25/4 52/23/4 60/23/4 58/25/4
f 47/26/5 48/25/5 58/25/5 57/26/5
f 69/11/20 72/10/20 73/1/20 74/13/20
f 61/27/21 62/28/21 66/29/21 65/30/21
f 75/5/22 76/4/22 71/6/22 70/7/22
f 69/12/23 74/13/23 75/5/23 70/14/23
f 73/1/24 72/2/24 71/3/24 76/4/24
f 61/27/3 63/31/3 69/11/3 70/8/3
f 62/28/3 61/27/3 70/8/3 71/9/3
f 64/32/3 62/28/3 71/9/3 72/10/3
f 63/31/3 64/32/3 72/10/3 69/11/3
f 68/33/5 67/34/5 74/13/5 73/1/5
f 67/34/5 65/30/5 75/5/5 74/13/5
f 66/29/5 68/33/5 73/1/5 76/4/5
f 65/30/5 66/29/5 76/4/5 75/5/5
f 74/13/25 75/5/25 61/27/25 63/31/25
f 73/1/26 74/13/26 63/31/26 64/32/26
f 62/28/27 64/32/27 68/33/27 66/29/27
f 77/8/3 78/9/3 80/10/3 79/11/3
f 79/11/28 80/10/28 84/1/28 83/13/28
f 83/13/5 84/1/5 82/4/5 81/5/5
f 81/5/29 82/4/29 78/6/29 77/7/29
f 79/12/30 83/13/30 81/5/30 77/14/30
f 84/1/31 80/2/31 78/3/31 82/4/31
o Куб.001
v 0.321520 -0.931477 0.391199
v 0.327569 0.929926 0.016405
v 0.321520 -0.931477 -0.391199
v 0.327569 0.929926 -0.548298
v 0.479736 -0.763066 0.289287
v 0.485784 0.761515 -0.020391
v 0.479736 -0.763066 -0.331987
v 0.485784 0.761515 -0.468801
v -0.321520 -0.931477 0.391199
v -0.327569 0.929926 0.016405
v -0.321520 -0.931477 -0.391199
v -0.327569 0.929926 -0.548298
v -0.479736 -0.763066 0.289287
v -0.485784 0.761515 -0.020391
v -0.479736 -0.763066 -0.331987
v -0.485784 0.761515 -0.468801
vn -1.0000 0.0032 -0.0000
vn 0.4002 -0.0807 -0.9129
vn 1.0000 -0.0040 -0.0000
vn 0.3949 0.1807 0.9008
vn 0.7288 -0.6847 -0.0000
vn 0.7288 0.6847 -0.0000
vn -1.0000 -0.0032 -0.0000
vn 0.4002 0.0807 0.9129
vn 1.0000 0.0040 -0.0000
vn 0.3949 -0.1807 -0.9008
vt 0.375000 0.000000
vt 0.625000 0.000000
vt 0.625000 0.250000
vt 0.375000 0.250000
vt 0.625000 0.500000
vt 0.375000 0.500000
vt 0.625000 0.750000
vt 0.375000 0.750000
vt 0.625000 1.000000
vt 0.375000 1.000000
vt 0.125000 0.500000
vt 0.125000 0.750000
vt 0.875000 0.500000
vt 0.875000 0.750000
s 0
usemtl Материал.001
f 85/35/32 86/36/32 88/37/32 87/38/32
f 87/38/33 88/37/33 92/39/33 91/40/33
f 91/40/34 92/39/34 90/41/34 89/42/34
f 89/42/35 90/41/35 86/43/35 85/44/35
f 87/45/36 91/40/36 89/42/36 85/46/36
f 92/39/37 88/47/37 86/48/37 90/41/37
f 93/35/38 94/36/38 96/37/38 95/38/38
f 95/38/39 96/37/39 100/39/39 99/40/39
f 99/40/40 100/39/40 98/41/40 97/42/40
f 97/42/41 98/41/41 94/43/41 93/44/41
f 95/45/37 99/40/37 97/42/37 93/46/37
f 100/39/36 96/47/36 94/48/36 98/41/36
o Куб.002
v -0.424078 0.983212 0.458632
v -0.424078 0.906181 0.458632
v -0.424078 0.983212 -2.779719
v -0.424078 0.906181 -2.779719
v -0.347048 0.983212 0.458632
v -0.347048 0.906181 0.458632
v -0.347048 0.983212 -2.779719
v -0.347048 0.906181 -2.779719
v -0.472972 1.146471 0.484507
v -0.472972 1.115478 0.484507
v -0.472972 1.146471 -3.030040
v -0.472972 1.115478 -3.030040
v -0.410506 1.146471 0.484507
v -0.410506 1.115478 0.484507
v -0.410506 1.146471 -3.030040
v -0.410506 1.115478 -3.030040
v 0.424078 0.983212 0.458632
v 0.424078 0.906181 0.458632
v 0.424078 0.983212 -2.779719
v 0.424078 0.906181 -2.779719
v 0.347048 0.983212 0.458632
v 0.347048 0.906181 0.458632
v 0.347048 0.983212 -2.779719
v 0.347048 0.906181 -2.779719
v 0.472972 1.146471 0.484507
v 0.472972 1.115478 0.484507
v 0.472972 1.146471 -3.030040
v 0.472972 1.115478 -3.030040
v 0.410506 1.146471 0.484507
v 0.410506 1.115478 0.484507
v 0.410506 1.146471 -3.030040
v 0.410506 1.115478 -3.030040
vn -1.0000 -0.0000 -0.0000
vn -0.0000 -0.0000 -1.0000
vn 1.0000 -0.0000 -0.0000
vn -0.0000 -0.0000 1.0000
vn -0.0000 1.0000 -0.0000
vn -0.0000 -1.0000 -0.0000
vt 0.375000 0.000000
vt 0.625000 0.000000
vt 0.625000 0.250000
vt 0.375000 0.250000
vt 0.625000 0.500000
vt 0.375000 0.500000
vt 0.625000 0.750000
vt 0.375000 0.750000
vt 0.625000 1.000000
vt 0.375000 1.000000
vt 0.125000 0.500000
vt 0.125000 0.750000
vt 0.875000 0.500000
vt 0.875000 0.750000
s 0
usemtl Материал
f 101/49/42 103/52/42 104/51/42 102/50/42
f 103/52/43 107/54/43 108/53/43 104/51/43
f 107/54/44 105/56/44 106/55/44 108/53/44
f 105/56/45 101/58/45 102/57/45 106/55/45
f 103/59/46 101/60/46 105/56/46 107/54/46
f 108/53/47 106/55/47 102/62/47 104/61/47
f 109/49/42 111/52/42 112/51/42 110/50/42
f 111/52/43 115/54/43 116/53/43 112/51/43
f 115/54/44 113/56/44 114/55/44 116/53/44
f 113/56/45 109/58/45 110/57/45 114/55/45
f 111/59/46 109/60/46 113/56/46 115/54/46
f 116/53/47 114/55/47 110/62/47 112/61/47
f 117/49/42 119/52/42 120/51/42 118/50/42
f 119/52/45 123/54/45 124/53/45 120/51/45
f 123/54/44 121/56/44 122/55/44 124/53/44
f 121/56/43 117/58/43 118/57/43 122/55/43
f 119/59/47 117/60/47 121/56/47 123/54/47
f 124/53/46 122/55/46 118/62/46 120/61/46
f 125/49/42 127/52/42 128/51/42 126/50/42
f 127/52/45 131/54/45 132/53/45 128/51/45
f 131/54/44 129/56/44 130/55/44 132/53/44
f 129/56/43 125/58/43 126/57/43 130/55/43
f 127/59/47 125/60/47 129/56/47 131/54/47
f 132/53/46 130/55/46 126/62/46 128/61/46
o Куб
v 0.254389 1.461803 -3.056550
v 0.254389 0.953025 -3.056550
v 0.254389 1.461803 -2.795114
v 0.254389 0.953025 -2.795114
v -0.254389 1.461803 -3.056550
v -0.254389 0.953025 -3.056550
v -0.254389 1.461803 -2.795114
v -0.254389 0.953025 -2.795114
vn 1.0000 -0.0000 -0.0000
vn -0.0000 -0.0000 1.0000
vn -1.0000 -0.0000 -0.0000
vn -0.0000 -0.0000 -1.0000
vn -0.0000 1.0000 -0.0000
vn -0.0000 -1.0000 -0.0000
vt 0.375000 0.000000
vt 0.625000 0.000000
vt 0.625000 0.250000
vt 0.375000 0.250000
vt 0.625000 0.500000
vt 0.375000 0.500000
vt 0.625000 0.750000
vt 0.375000 0.750000
vt 0.625000 1.000000
vt 0.375000 1.000000
vt 0.125000 0.500000
vt 0.125000 0.750000
vt 0.875000 0.500000
vt 0.875000 0.750000
s 0
usemtl Материал.002
f 133/63/48 135/66/48 136/65/48 134/64/48
f 135/66/49 139/68/49 140/67/49 136/65/49
f 139/68/50 137/70/50 138/69/50 140/67/50
f 137/70/51 133/72/51 134/71/51 138/69/51
f 135/73/52 133/74/52 137/70/52 139/68/52
f 140/67/53 138/69/53 134/76/53 136/75/53
