# Blender 5.0.1
# www.blender.org
mtllib rifle.mtl
o Куб.003
v -0.320891 -0.443951 0.632439
v -0.320891 1.288556 -1.237848
v -0.320891 -0.443951 -0.632439
v -0.320891 1.288556 -2.154297
v 0.320891 -0.443951 0.632439
v 0.320891 1.288556 -1.237848
v 0.320891 -0.443951 -0.632439
v 0.320891 1.288556 -2.154297
v -0.227899 0.667689 -1.258347
v -0.329983 1.580750 -1.258347
v -0.227899 0.667689 -5.723362
v -0.329983 1.580750 -5.723362
v 0.227899 0.667689 -1.258347
v 0.329983 1.580750 -1.258347
v 0.227899 0.667689 -5.723362
v 0.329983 1.580750 -5.723362
v -0.154573 1.237463 -5.610771
v -0.154573 1.486875 -5.610771
v -0.154573 1.237463 -10.434752
v -0.154573 1.486875 -10.434752
v 0.154573 1.237463 -5.610771
v 0.154573 1.486875 -5.610771
v 0.154573 1.237463 -10.434752
v 0.154573 1.486875 -10.434752
v -0.196768 1.175275 -9.437331
v -0.196768 1.541443 -9.437331
v -0.196768 1.175275 -10.542547
v -0.196768 1.541443 -10.542547
v 0.196768 1.175275 -9.437331
v 0.196768 1.541443 -9.437331
v 0.196768 1.175275 -10.542547
v 0.196768 1.541443 -10.542547
v -0.344945 -1.242409 1.427646
v -0.344945 0.608273 1.427646
v -0.344945 -0.072207 -0.866300
v -0.344945 0.882254 -0.866300
v 0.344945 -1.242409 1.427646
v 0.344945 0.608273 1.427646
v 0.344945 -0.072207 -0.866300
v 0.344945 0.882254 -0.866300
v -0.204182 -0.000846 -2.014274
v -0.204182 0.977406 -1.881497
v -0.204182 0.131323 -2.793230
v -0.204182 0.977406 -2.872492
v 0.204182 -0.000846 -2.014274
v 0.204182 0.977406 -1.881497
v 0.204182 0.131323 -2.793230
v 0.204182 0.977406 -2.872492
v 0.204182 1.047406 -2.949356
v 0.204182 0.071298 -2.857913
v 0.204182 -0.081965 -1.954642
v 0.204182 1.047406 -1.801354
v -0.204182 0.071298 -2.857913
v -0.204182 -0.081965 -1.954642
v -0.204182 1.047406 -1.801354
v -0.204182 1.047406 -2.949356
v -0.167485 0.346356 -2.230603
v -0.167485 0.727550 -2.094934
v -0.167485 0.241760 -2.564803
v -0.167485 0.727550 -2.429905
v 0.167485 0.346356 -2.230603
v 0.167485 0.727550 -2.094934
v 0.167485 0.241760 -2.564803
v 0.167485 0.727550 -2.429905
v -0.159081 1.306787 -6.208466
v -0.159081 1.777143 -5.223632
v -0.159081 1.412830 -6.259112
v -0.159081 1.883186 -5.274278
v 0.159081 1.306787 -6.208466
v 0.159081 1.777143 -5.223632
v 0.159081 1.412830 -6.259112
v 0.159081 1.883186 -5.274278
v -0.143693 1.420603 -9.141521
v -0.143693 1.836253 -9.442369
v -0.143693 1.303973 -9.557171
v -0.143693 1.535405 -9.858019
v 0.143693 1.420603 -9.141521
v 0.143693 1.836253 -9.442369
v 0.143693 1.303973 -9.557171
v 0.143693 1.535405 -9.858019
vn -1.0000 -0.0000 -0.0000
vn -0.0000 -0.6600 -0.7513
vn 1.0000 -0.0000 -0.0000
vn -0.0000 0.7336 0.6796
vn -0.0000 -1.0000 -0.0000
vn -0.0000 1.0000 -0.0000
vn -0.9938 -0.1111 -0.0000
vn -0.0000 -0.0000 -1.0000
vn 0.9938 -0.1111 -0.0000
vn -0.0000 -0.0000 1.0000
vn -0.0000 -0.8908 -0.4544
vn -0.0000 0.9929 0.1186
vn -0.0000 0.1345 -0.9909
vn -0.0000 -0.0933 -0.9956
vn -0.0000 0.9859 0.1673
vn -0.0000 -0.1345 0.9909
vn -0.0000 -0.9859 -0.1673
vn -0.0000 0.0933 0.9956
vn -0.0000 0.2676 -0.9635
vn -0.0000 -0.3353 0.9421
vn -0.0000 -0.9544 0.2987
vn -0.0000 0.9024 -0.4310
vn -0.0000 -0.9024 0.4310
vn -0.0000 -0.4310 -0.9024
vn -0.0000 0.4310 0.9024
vn -0.0000 -0.7926 -0.6097
vn -0.0000 0.5863 0.8101
vn -0.0000 -0.9628 0.2702
vn -0.0000 0.8101 -0.5863
vt 0.375000 0.000000
vt 0.625000 0.000000
vt 0.625000 0.250000
vt 0.375000 0.250000
vt 0.625000 0.500000
vt 0.375000 0.500000
vt 0.625000 0.750000
vt 0.375000 0.750000
vt 0.625000 1.000000
vt 0.375000 1.000000
vt 0.125000 0.500000
vt 0.125000 0.750000
vt 0.875000 0.500000
vt 0.875000 0.750000
vt 0.609095 0.734028
vt 0.390896 0.731654
vt 0.390896 0.018346
vt 0.609095 0.015972
vt 0.392628 0.518550
vt 0.392628 0.231450
vt 0.607543 0.515989
vt 0.607543 0.234011
s 0
usemtl Материал.003
f 1/1/1 2/2/1 4/3/1 3/4/1
f 3/4/2 4/3/2 8/5/2 7/6/2
f 7/6/3 8/5/3 6/7/3 5/8/3
f 5/8/4 6/7/4 2/9/4 1/10/4
f 3/11/5 7/6/5 5/8/5 1/12/5
f 8/5/6 4/13/6 2/14/6 6/7/6
f 9/1/7 10/2/7 12/3/7 11/4/7
f 11/4/8 12/3/8 16/5/8 15/6/8
f 15/6/9 16/5/9 14/7/9 13/8/9
f 13/8/10 14/7/10 10/9/10 9/10/10
f 11/11/5 15/6/5 13/8/5 9/12/5
f 16/5/6 12/13/6 10/14/6 14/7/6
f 17/1/1 18/2/1 20/3/1 19/4/1
f 19/4/8 20/3/8 24/5/8 23/6/8
f 23/6/3 24/5/3 22/7/3 21/8/3
f 21/8/10 22/7/10 18/9/10 17/10/10
f 19/11/5 23/6/5 21/8/5 17/12/5
f 24/5/6 20/13/6 18/14/6 22/7/6
f 25/1/1 26/2/1 28/3/1 27/4/1
f 27/4/8 28/3/8 32/5/8 31/6/8
f 31/6/3 32/5/3 30/7/3 29/8/3
f 29/8/10 30/7/10 26/9/10 25/10/10
f 27/11/5 31/6/5 29/8/5 25/12/5
f 32/5/6 28/13/6 26/14/6 30/7/6
f 33/1/1 34/2/1 36/3/1 35/4/1
f 35/4/8 36/3/8 40/5/8 39/6/8
f 39/6/3 40/5/3 38/7/3 37/8/3
f 37/8/10 38/7/10 34/9/10 33/10/10
f 35/11/11 39/6/11 37/8/11 33/12/11
f 40/5/12 36/13/12 34/14/12 38/7/12
f 46/15/13 45/16/13 41/17/13 42/18/13
f 53/4/14 56/3/14 49/5/14 50/6/14
f 45/16/15 47/19/15 43/20/15 41/17/15
f 51/8/16 52/7/16 55/9/16 54/10/16
f 53/11/17 50/6/17 51/8/17 54/12/17
f 49/5/6 56/13/6 55/14/6 52/7/6
f 48/21/3 47/19/3 50/6/3 49/5/3
f 47/19/3 45/16/3 51/8/3 50/6/3
f 46/15/3 48/21/3 49/5/3 52/7/3
f 45/16/3 46/15/3 52/7/3 51/8/3
f 41/17/1 43/20/1 53/4/1 54/1/1
f 42/18/1 41/17/1 54/1/1 55/2/1
f 44/22/1 42/18/1 55/2/1 56/3/1
f 43/20/1 44/22/1 56/3/1 53/4/1
f 47/19/18 48/21/18 44/22/18 43/20/18
f 48/21/5 46/15/5 42/18/5 44/22/5
f 57/1/1 58/2/1 60/3/1 59/4/1
f 59/4/19 60/3/19 64/5/19 63/6/19
f 63/6/3 64/5/3 62/7/3 61/8/3
f 61/8/20 62/7/20 58/9/20 57/10/20
f 59/11/21 63/6/21 61/8/21 57/12/21
f 64/5/6 60/13/6 58/14/6 62/7/6
f 65/1/1 66/2/1 68/3/1 67/4/1
f 67/4/22 68/3/22 72/5/22 71/6/22
f 71/6/3 72/5/3 70/7/3 69/8/3
f 69/8/23 70/7/23 66/9/23 65/10/23
f 67/11/24 71/6/24 69/8/24 65/12/24
f 72/5/25 68/13/25 66/14/25 70/7/25
f 73/1/1 74/2/1 76/3/1 75/4/1
f 75/4/26 76/3/26 80/5/26 79/6/26
f 79/6/3 80/5/3 78/7/3 77/8/3
f 77/8/27 78/7/27 74/9/27 73/10/27
f 75/11/28 79/6/28 77/8/28 73/12/28
f 80/5/29 76/13/29 74/14/29 78/7/29
